<?xml version="1.0" encoding="UTF-8" standalone="no"?>
<!-- Created with Inkscape (http://www.inkscape.org/) -->
<svg
   xmlns:dc="http://purl.org/dc/elements/1.1/"
   xmlns:cc="http://web.resource.org/cc/"
   xmlns:rdf="http://www.w3.org/1999/02/22-rdf-syntax-ns#"
   xmlns:svg="http://www.w3.org/2000/svg"
   xmlns="http://www.w3.org/2000/svg"
   xmlns:sodipodi="http://inkscape.sourceforge.net/DTD/sodipodi-0.dtd"
   xmlns:inkscape="http://www.inkscape.org/namespaces/inkscape"
   width="48.000000px"
   height="48.000000px"
   id="svg1306"
   sodipodi:version="0.32"
   inkscape:version="0.42"
   sodipodi:docbase="/home/betatester"
   sodipodi:docname="windows.svg">
  <defs
     id="defs1308" />
  <sodipodi:namedview
     id="base"
     pagecolor="#ffffff"
     bordercolor="#666666"
     borderopacity="1.0"
     inkscape:pageopacity="0.0"
     inkscape:pageshadow="2"
     inkscape:zoom="15.812500"
     inkscape:cx="24.040488"
     inkscape:cy="28.320341"
     inkscape:current-layer="layer1"
     showgrid="true"
     inkscape:grid-bbox="true"
     inkscape:document-units="px"
     inkscape:grid-points="true"
     showguides="true"
     inkscape:guide-bbox="true"
     inkscape:window-width="1270"
     inkscape:window-height="945"
     inkscape:window-x="0"
     inkscape:window-y="25" />
  <metadata
     id="metadata1311">
    <rdf:RDF>
      <cc:Work
         rdf:about="">
        <dc:format>image/svg+xml</dc:format>
        <dc:type
           rdf:resource="http://purl.org/dc/dcmitype/StillImage" />
      </cc:Work>
    </rdf:RDF>
  </metadata>
  <g
     id="layer1"
     inkscape:label="Layer 1"
     inkscape:groupmode="layer">
    <rect
       style="fill:none;fill-opacity:0.75000000;fill-rule:evenodd;stroke:none;stroke-width:1.0000000px;stroke-linecap:butt;stroke-linejoin:miter;stroke-opacity:1.0000000"
       id="rect5680"
       width="48.000000"
       height="48.000000"
       x="0.0000000"
       y="0.0000000"
       ry="0.0000000" />
    <path
       style="fill:#000000;fill-opacity:1.0000000;fill-rule:evenodd;stroke:#ffffff;stroke-width:8.0000000;stroke-linecap:round;stroke-linejoin:round;stroke-miterlimit:4.0000000;stroke-dasharray:none;stroke-opacity:1.0000000"
       d="M 18.079663,21.000000 L 41.920337,21.000000 C 43.072470,21.000000 44.000000,21.955735 44.000000,23.142904 L 44.000000,44.000000 L 16.000000,44.000000 L 16.000000,23.142904 C 16.000000,21.955735 16.927529,21.000000 18.079663,21.000000 z "
       id="path3560"
       sodipodi:nodetypes="ccccccc" />
    <g
       id="g3553">
      <path
         style="fill:#000000;fill-opacity:1.0000000;fill-rule:evenodd;stroke:#ffffff;stroke-width:8.0000000;stroke-linecap:round;stroke-linejoin:round;stroke-opacity:1.0000000;stroke-miterlimit:4.0000000;stroke-dasharray:none"
         d="M 6.0796626,4.0000000 L 27.920337,4.0000000 C 29.072470,4.0000000 30.000000,4.9557351 30.000000,6.1429038 L 30.000000,27.000000 L 4.0000000,27.000000 L 4.0000000,6.1429038 C 4.0000000,4.9557351 4.9275295,4.0000000 6.0796626,4.0000000 z "
         id="path2097"
         sodipodi:nodetypes="ccccccc" />
      <path
         sodipodi:nodetypes="ccccccc"
         id="rect1368"
         d="M 6.0796626,4.0000000 L 27.920337,4.0000000 C 29.072470,4.0000000 30.000000,4.9557351 30.000000,6.1429038 L 30.000000,27.000000 L 4.0000000,27.000000 L 4.0000000,6.1429038 C 4.0000000,4.9557351 4.9275295,4.0000000 6.0796626,4.0000000 z "
         style="fill:#000000;fill-opacity:1.0000000;fill-rule:evenodd;stroke:none;stroke-width:1.0000000px;stroke-linecap:butt;stroke-linejoin:miter;stroke-opacity:1.0000000" />
      <path
         style="fill:#ffffff;fill-opacity:1.0000000;fill-rule:evenodd;stroke:none;stroke-width:1.0000000px;stroke-linecap:butt;stroke-linejoin:miter;stroke-opacity:1.0000000"
         d="M 9.0000000,8.0000000 L 25.000000,8.0000000 C 26.000000,8.0000000 26.000000,7.8128313 26.000000,9.0000000 L 26.000000,23.000000 L 8.0000000,23.000000 L 8.0000000,9.0000000 C 8.0000000,8.0000000 8.0000000,8.0000000 9.0000000,8.0000000 z "
         id="path2825"
         sodipodi:nodetypes="ccccccc" />
    </g>
    <path
       sodipodi:nodetypes="ccccccc"
       id="path3562"
       d="M 18.079663,21.000000 L 41.920337,21.000000 C 43.072470,21.000000 44.000000,21.955735 44.000000,23.142904 L 44.000000,44.000000 L 16.000000,44.000000 L 16.000000,23.142904 C 16.000000,21.955735 16.927529,21.000000 18.079663,21.000000 z "
       style="fill:#000000;fill-opacity:1.0000000;fill-rule:evenodd;stroke:none;stroke-width:1.0000000px;stroke-linecap:butt;stroke-linejoin:miter;stroke-opacity:1.0000000" />
    <path
       style="fill:#ffffff;fill-opacity:1.0000000;fill-rule:evenodd;stroke:none;stroke-width:1.0000000px;stroke-linecap:butt;stroke-linejoin:miter;stroke-opacity:1.0000000"
       d="M 21.000000,25.000000 L 39.000000,25.000000 C 40.000000,25.000000 40.000000,24.812831 40.000000,26.000000 L 40.000000,40.000000 L 20.000000,40.000000 L 20.000000,26.000000 C 20.000000,25.000000 20.000000,25.000000 21.000000,25.000000 z "
       id="path3564"
       sodipodi:nodetypes="ccccccc" />
    <path
       style="fill:none;fill-opacity:0.75000000;fill-rule:evenodd;stroke:#000000;stroke-width:4.0000000;stroke-linecap:round;stroke-linejoin:round;stroke-opacity:1.0000000;stroke-miterlimit:4.0000000;stroke-dasharray:none"
       d="M 12.000000,12.000000 L 22.000000,12.000000"
       id="path3571" />
    <path
       id="path4299"
       d="M 24.000000,29.000000 L 36.529644,29.000000"
       style="fill:none;fill-opacity:0.75000000;fill-rule:evenodd;stroke:#000000;stroke-width:4.0000000;stroke-linecap:round;stroke-linejoin:round;stroke-miterlimit:4.0000000;stroke-dasharray:none;stroke-opacity:1.0000000"
       sodipodi:nodetypes="cc" />
  </g>
</svg>
