<?xml version="1.0" encoding="UTF-8" standalone="no"?>
<svg
   xmlns:dc="http://purl.org/dc/elements/1.1/"
   xmlns:cc="http://creativecommons.org/ns#"
   xmlns:rdf="http://www.w3.org/1999/02/22-rdf-syntax-ns#"
   xmlns:svg="http://www.w3.org/2000/svg"
   xmlns="http://www.w3.org/2000/svg"
   xmlns:xlink="http://www.w3.org/1999/xlink"
   xmlns:sodipodi="http://sodipodi.sourceforge.net/DTD/sodipodi-0.dtd"
   xmlns:inkscape="http://www.inkscape.org/namespaces/inkscape"
   version="1.1"
   viewBox="0 0 38.4 38.4"
   width="48"
   height="48"
   id="svg2"
   inkscape:version="0.47 r22583"
   sodipodi:docname="filmstrip.svg"
   inkscape:export-filename="/Users/calum/Desktop/filmstrip.png"
   inkscape:export-xdpi="72.186462"
   inkscape:export-ydpi="72.186462">
  <sodipodi:namedview
     pagecolor="#837e78"
     bordercolor="#666666"
     borderopacity="1"
     objecttolerance="10"
     gridtolerance="10"
     guidetolerance="10"
     inkscape:pageopacity="0.4627451"
     inkscape:pageshadow="2"
     inkscape:window-width="1050"
     inkscape:window-height="849"
     id="namedview26"
     showgrid="false"
     inkscape:zoom="1"
     inkscape:cx="47.985191"
     inkscape:cy="48.453473"
     inkscape:window-x="793"
     inkscape:window-y="1271"
     inkscape:window-maximized="0"
     inkscape:current-layer="svg2"
     inkscape:showpageshadow="false"
     borderlayer="true" />
  <metadata
     id="metadata4">
    <dc:date>2010-05-04 11:58Z</dc:date>
    <!-- Produced by OmniGraffle Professional 4.2.2 -->
    <rdf:RDF>
      <cc:Work
         rdf:about="">
        <dc:format>image/svg+xml</dc:format>
        <dc:type
           rdf:resource="http://purl.org/dc/dcmitype/StillImage" />
        <dc:title></dc:title>
      </cc:Work>
    </rdf:RDF>
  </metadata>
  <defs
     id="defs6">
    <inkscape:perspective
       sodipodi:type="inkscape:persp3d"
       inkscape:vp_x="0 : 30 : 1"
       inkscape:vp_y="0 : 1000 : 0"
       inkscape:vp_z="60 : 30 : 1"
       inkscape:persp3d-origin="30 : 20 : 1"
       id="perspective28" />
    <inkscape:perspective
       id="perspective2957"
       inkscape:persp3d-origin="0.5 : 0.33333333 : 1"
       inkscape:vp_z="1 : 0.5 : 1"
       inkscape:vp_y="0 : 1000 : 0"
       inkscape:vp_x="0 : 0.5 : 1"
       sodipodi:type="inkscape:persp3d" />
  </defs>
  <rect
     x="3.2547345"
     y="-0.0010676279"
     width="32.10973"
     height="38.406082"
     id="rect16"
     style="fill:#000000;stroke:none"
     ry="0.15818155" />
  <path
     style="fill:none;stroke:#ffffff;stroke-width:0;stroke-linecap:round;stroke-linejoin:round;stroke-miterlimit:4;stroke-dasharray:none"
     d="m 3.2446687,-1.5590837 0,40.6857447 32.1298603,0 0,-40.6857447 -32.1298603,0 z"
     id="rect18" />
  <path
     d="m 15.289632,7.4869871 8.060035,0 c 1.712092,0 3.100014,0.9772104 3.100014,2.18266 l 0,5.8931809 c 0,1.20545 -1.387922,2.18266 -3.100014,2.18266 l -8.060035,0 c -1.712091,0 -3.100013,-0.97721 -3.100013,-2.18266 0,0 0,-10e-7 0,-10e-7 l 0,-5.8931799 c 0,-1.2054496 1.387922,-2.18266 3.100013,-2.18266 z"
     id="path20"
     style="fill:#ffffff;stroke:none" />
  <path
     style="fill:#ffffff;stroke:none"
     id="path2846"
     d="m 29.102034,5.0911333 1.951731,0 c 0.414582,0 0.750666,-0.3516859 0.750666,-0.7855131 l 0,-2.1208848 c 0,-0.4338272 -0.336084,-0.7855131 -0.750666,-0.7855131 l -1.951731,0 c -0.414581,0 -0.750666,0.3516859 -0.750666,0.7855131 0,0 0,0 0,0 l 0,2.1208848 c 0,0.4338272 0.336085,0.7855131 0.750666,0.7855131 z" />
  <path
     style="fill:#ffffff;stroke:none"
     id="path2850"
     d="m 29.102034,9.3781165 1.951731,0 c 0.414582,0 0.750666,0.3516851 0.750666,0.7855125 l 0,2.120885 c 0,0.433827 -0.336084,0.785513 -0.750666,0.785513 l -1.951731,0 c -0.414581,0 -0.750666,-0.351686 -0.750666,-0.785513 0,0 0,0 0,0 l 0,-2.120885 c 0,-0.4338274 0.336085,-0.7855125 0.750666,-0.7855125 z" />
  <path
     d="m 29.102034,17.357012 1.951731,0 c 0.414582,0 0.750666,0.351685 0.750666,0.785512 l 0,2.120885 c 0,0.433827 -0.336084,0.785513 -0.750666,0.785513 l -1.951731,0 c -0.414581,0 -0.750666,-0.351686 -0.750666,-0.785513 0,0 0,0 0,0 l 0,-2.120885 c 0,-0.433827 0.336085,-0.785512 0.750666,-0.785512 z"
     id="path2852"
     style="fill:#ffffff;stroke:none" />
  <path
     style="fill:#ffffff;stroke:none"
     id="path2854"
     d="m 29.102034,25.335907 1.951731,0 c 0.414582,0 0.750666,0.351685 0.750666,0.785512 l 0,2.120885 c 0,0.433827 -0.336084,0.785513 -0.750666,0.785513 l -1.951731,0 c -0.414581,0 -0.750666,-0.351686 -0.750666,-0.785513 0,0 0,0 0,0 l 0,-2.120885 c 0,-0.433827 0.336085,-0.785512 0.750666,-0.785512 z" />
  <path
     d="m 29.102034,33.314802 1.951731,0 c 0.414582,0 0.750666,0.351685 0.750666,0.785512 l 0,2.120885 c 0,0.433827 -0.336084,0.785513 -0.750666,0.785513 l -1.951731,0 c -0.414581,0 -0.750666,-0.351686 -0.750666,-0.785513 0,0 0,0 0,0 l 0,-2.120885 c 0,-0.433827 0.336085,-0.785512 0.750666,-0.785512 z"
     id="path2856"
     style="fill:#ffffff;stroke:none" />
  <path
     d="m 6.9096236,5.0911332 1.9517313,0 c 0.4145815,0 0.7506662,-0.3516859 0.7506662,-0.7855131 l 0,-2.1208848 c 0,-0.4338272 -0.3360847,-0.7855131 -0.7506662,-0.7855131 l -1.9517313,0 c -0.4145807,0 -0.7506655,0.3516859 -0.7506655,0.7855131 0,0 0,0 0,0 l 0,2.1208848 c 0,0.4338272 0.3360856,0.7855131 0.7506655,0.7855131 z"
     id="path2969"
     style="fill:#ffffff;stroke:none" />
  <path
     d="m 6.9096237,9.296228 1.9517312,0 c 0.4145815,0 0.7506662,0.3516851 0.7506662,0.785512 l 0,2.120885 c 0,0.433827 -0.3360847,0.785513 -0.7506662,0.785513 l -1.9517312,0 c -0.4145807,0 -0.7506655,-0.351686 -0.7506655,-0.785513 0,0 0,0 0,0 l 0,-2.120885 c 0,-0.4338269 0.3360848,-0.785512 0.7506655,-0.785512 z"
     id="path3002"
     style="fill:#ffffff;stroke:none" />
  <path
     style="fill:#ffffff;stroke:none"
     id="path3004"
     d="m 6.9096236,17.193231 1.9517313,0 c 0.4145815,0 0.7506662,0.351685 0.7506662,0.785512 l 0,2.120885 c 0,0.433827 -0.3360847,0.785513 -0.7506662,0.785513 l -1.9517312,0 c -0.4145807,0 -0.7506656,-0.351686 -0.7506656,-0.785513 0,0 0,0 0,0 l 0,-2.120885 c 0,-0.433827 0.3360849,-0.785512 0.7506656,-0.785512 z" />
  <path
     d="m 6.9096237,25.090235 1.9517312,0 c 0.4145815,0 0.7506662,0.351685 0.7506662,0.785512 l 0,2.120885 c 0,0.433827 -0.3360847,0.785513 -0.7506662,0.785513 l -1.9517312,0 c -0.4145807,0 -0.7506655,-0.351686 -0.7506655,-0.785513 0,0 0,0 0,0 l 0,-2.120885 c 0,-0.433827 0.3360848,-0.785512 0.7506655,-0.785512 z"
     id="path3006"
     style="fill:#ffffff;stroke:none" />
  <path
     style="fill:#ffffff;stroke:none"
     id="path3008"
     d="m 6.9096237,32.987239 1.9517312,0 c 0.4145815,0 0.7506662,0.351685 0.7506662,0.785512 l 0,2.120885 c 0,0.433827 -0.3360847,0.785513 -0.7506662,0.785513 l -1.9517312,0 c -0.4145807,0 -0.7506655,-0.351686 -0.7506655,-0.785513 0,0 0,0 0,0 l 0,-2.120885 c 0,-0.433827 0.3360848,-0.785512 0.7506655,-0.785512 z" />
  <use
     x="0"
     y="0"
     xlink:href="#path20"
     id="use3014"
     transform="translate(0,13.855509)"
     width="48"
     height="48" />
  <path
     style="fill:#ffffff;stroke:none"
     d="m 12.183051,0.01496578 0,1.79738402 c 0,1.1449498 1.388159,2.0842007 3.10025,2.0842007 l 8.072728,0 c 1.712091,0 3.100249,-0.9392508 3.100249,-2.0842007 l 0,-1.79738402 -14.273227,0 z"
     id="use3016" />
  <path
     style="fill:#ffffff;stroke:none"
     d="m 15.283301,35.20102 c -1.712091,0 -3.10025,0.75206 -3.10025,1.687875 l 0,1.500334 14.273227,0 0,-1.500334 c 0,-0.935815 -1.388158,-1.687875 -3.100249,-1.687875 l -8.072728,0 z"
     id="use3018" />
  <path
     style="fill:none;stroke:#ffffff;stroke-width:2.56910801;stroke-linecap:butt;stroke-linejoin:miter;stroke-miterlimit:4;stroke-opacity:1;stroke-dasharray:none"
     d="m 1.9663254,0.00204009 0,38.40041891"
     id="path3810" />
  <path
     id="path3812"
     d="m 36.631684,0.00539301 0,38.38690099"
     style="fill:none;stroke:#ffffff;stroke-width:2.56865597;stroke-linecap:butt;stroke-linejoin:miter;stroke-miterlimit:4;stroke-opacity:1;stroke-dasharray:none" />
</svg>
