<?xml version="1.0" encoding="UTF-8"?>
<svg xmlns="http://www.w3.org/2000/svg" xmlns:xlink="http://www.w3.org/1999/xlink" width="16px" height="16px" viewBox="0 0 16 16" version="1.1">
<g id="surface1760261">
<path style=" stroke:none;fill-rule:nonzero;fill:rgb(13.333334%,13.333334%,13.333334%);fill-opacity:1;" d="M 7 0 C 6 0 6 1 6 1 L 6 2 L 5 2 C 5 2 4.292969 1.984375 3.550781 2.355469 C 2.8125 2.726562 2 3.667969 2 5 L 2 13 C 2 13 1.984375 13.710938 2.355469 14.449219 C 2.726562 15.1875 3.667969 16 5 16 L 7.042969 16 C 6.230469 15.488281 5.542969 14.808594 5.027344 14 L 5 14 C 4.445312 14 4 13.554688 4 13 L 4 5 C 4 4.445312 4.445312 4 5 4 L 11 4 C 11.117188 4 11.230469 4.019531 11.332031 4.058594 C 12.28125 4.179688 13.195312 4.511719 14 5.027344 L 14 5 C 14 3.667969 13.1875 2.726562 12.449219 2.355469 C 11.710938 1.988281 11 2 11 2 L 10 2 L 10 1 C 10 0 9 0 9 0 Z M 7 0 "/>
<path style=" stroke:none;fill-rule:nonzero;fill:rgb(13.333334%,13.333334%,13.333334%);fill-opacity:1;" d="M 10.5 5 C 7.472656 5 5 7.472656 5 10.5 C 5 13.523438 7.472656 16 10.5 16 C 13.523438 16 16 13.523438 16 10.5 C 16 7.472656 13.523438 5 10.5 5 Z M 10.5 7 C 12.445312 7 14 8.554688 14 10.5 C 14 12.445312 12.445312 14 10.5 14 C 8.554688 14 7 12.445312 7 10.5 C 7 8.554688 8.554688 7 10.5 7 Z M 10.5 7 "/>
<path style=" stroke:none;fill-rule:nonzero;fill:rgb(13.333334%,13.333334%,13.333334%);fill-opacity:1;" d="M 10.5 8.027344 C 10.367188 8.027344 10.238281 8.078125 10.144531 8.171875 C 10.050781 8.269531 9.996094 8.394531 9.996094 8.527344 L 9.996094 10.476562 C 9.996094 10.480469 9.996094 10.484375 9.996094 10.488281 C 9.996094 10.492188 9.996094 10.496094 9.996094 10.5 C 10 10.511719 10 10.523438 10 10.53125 C 10.015625 10.796875 10.234375 11.003906 10.5 11 L 12.5 11 C 12.632812 11.003906 12.761719 10.949219 12.855469 10.855469 C 12.949219 10.761719 13.003906 10.632812 13 10.5 C 13.003906 10.367188 12.949219 10.238281 12.855469 10.144531 C 12.761719 10.050781 12.632812 9.996094 12.5 9.996094 L 11 9.996094 L 11 8.527344 C 11.003906 8.394531 10.949219 8.269531 10.855469 8.171875 C 10.761719 8.078125 10.632812 8.027344 10.5 8.027344 Z M 10.5 8.027344 "/>
</g>
</svg>
