<?xml version="1.0" encoding="UTF-8"?>
<svg xmlns="http://www.w3.org/2000/svg" xmlns:xlink="http://www.w3.org/1999/xlink" width="16px" height="16px" viewBox="0 0 16 16" version="1.1">
<g id="surface110257">
<path style=" stroke:none;fill-rule:nonzero;fill:rgb(18.039216%,20.392157%,21.176471%);fill-opacity:0.34902;" d="M 7.917969 1 C 6.300781 1 5 2.300781 5 3.917969 L 5 4.359375 C 5.394531 3.910156 5.894531 3.546875 6.46875 3.308594 C 6.929688 3.117188 7.410156 3.019531 7.886719 3.007812 C 7.925781 3.003906 7.960938 3 8 3 C 8.039062 3 8.074219 3.003906 8.113281 3.007812 C 8.140625 3.007812 8.171875 3.007812 8.203125 3.011719 C 9.171875 3.058594 10.113281 3.460938 10.824219 4.171875 C 10.886719 4.234375 10.945312 4.296875 11 4.359375 L 11 3.917969 C 11 2.300781 9.699219 1 8.082031 1 Z M 11.550781 5.175781 C 12.078125 6.203125 12.148438 7.429688 11.695312 8.53125 C 11.355469 9.34375 10.722656 9.925781 10 10.355469 L 10 11 L 10.96875 11 C 11.539062 11 12 10.539062 12 9.96875 L 12 6.03125 C 12.003906 5.6875 11.835938 5.367188 11.550781 5.175781 Z M 4.441406 5.1875 C 4.164062 5.375 3.996094 5.695312 4 6.03125 L 4 9.96875 C 4 10.539062 4.460938 11 5.03125 11 L 6 11 L 6 9 C 6 8.625 6.234375 8.308594 6.4375 8 L 5 8 C 4.449219 7.996094 4.003906 7.550781 4 7 C 4 6.355469 4.160156 5.738281 4.441406 5.1875 Z M 8 7 C 7.996094 7.003906 7.996094 7.003906 7.992188 7.003906 C 7.996094 7.003906 8 7 8 7 Z M 2.996094 12.976562 C 2.445312 12.976562 1.996094 13.425781 1.996094 13.976562 C 1.996094 14.527344 2.445312 14.976562 2.996094 14.976562 L 6.28125 14.976562 C 6.644531 15.578125 7.292969 15.949219 7.996094 15.949219 C 8.699219 15.949219 9.351562 15.578125 9.714844 14.976562 L 13.007812 14.976562 C 13.558594 14.976562 14.007812 14.527344 14.007812 13.976562 C 14.007812 13.425781 13.558594 12.976562 13.007812 12.976562 L 9.996094 12.976562 C 9.996094 12.984375 10 12.992188 10 13 C 10 14.046875 9.046875 15 8 15 C 6.953125 15 6 14.046875 6 13 C 6 12.992188 6.003906 12.984375 6.003906 12.976562 Z M 2.996094 12.976562 "/>
<path style=" stroke:none;fill-rule:nonzero;fill:rgb(18.039216%,20.392157%,21.176471%);fill-opacity:1;" d="M 8.152344 4.007812 C 7.714844 3.984375 7.269531 4.054688 6.851562 4.230469 C 5.734375 4.691406 5 5.789062 5 7 L 7 7 C 7 6.59375 7.242188 6.230469 7.617188 6.078125 C 7.992188 5.921875 8.417969 6.003906 8.707031 6.292969 C 8.996094 6.582031 9.078125 7.007812 8.925781 7.382812 C 8.769531 7.757812 8.40625 8 8 8 C 7.449219 8 7 8.449219 7 9 L 7 11 L 9 11 L 9 9.820312 C 9.785156 9.539062 10.441406 8.945312 10.769531 8.148438 C 11.234375 7.03125 10.976562 5.734375 10.121094 4.878906 C 9.585938 4.34375 8.878906 4.042969 8.152344 4.007812 Z M 8 12 C 7.449219 12 7 12.449219 7 13 C 7 13.550781 7.449219 14 8 14 C 8.550781 14 9 13.550781 9 13 C 9 12.449219 8.550781 12 8 12 Z M 8 12 "/>
</g>
</svg>
