<?xml version="1.0" encoding="UTF-8"?>
<svg xmlns="http://www.w3.org/2000/svg" xmlns:xlink="http://www.w3.org/1999/xlink" width="16px" height="16px" viewBox="0 0 16 16" version="1.1">
<g id="surface114831">
<path style=" stroke:none;fill-rule:nonzero;fill:rgb(18.039216%,20.392157%,21.176471%);fill-opacity:1;" d="M 3 6 C 1.894531 6 1 6.894531 1 8 C 1 9.105469 1.894531 10 3 10 C 4.105469 10 5 9.105469 5 8 C 5 6.894531 4.105469 6 3 6 Z M 8 6 C 6.894531 6 6 6.894531 6 8 C 6 9.105469 6.894531 10 8 10 C 9.105469 10 10 9.105469 10 8 C 10 6.894531 9.105469 6 8 6 Z M 13 6 C 11.894531 6 11 6.894531 11 8 C 11 9.105469 11.894531 10 13 10 C 14.105469 10 15 9.105469 15 8 C 15 6.894531 14.105469 6 13 6 Z M 13 6 "/>
<path style=" stroke:none;fill-rule:nonzero;fill:rgb(18.039216%,20.392157%,21.176471%);fill-opacity:0.34902;" d="M 7.917969 1 C 6.300781 1 5 2.300781 5 3.917969 L 5 5 L 7 5 L 7 4 C 7 3.445312 7.445312 3 8 3 C 8.554688 3 9 3.445312 9 4 L 9 5 L 11 5 L 11 3.917969 C 11 2.300781 9.699219 1 8.082031 1 Z M 7 11 L 7 12.21875 C 6.683594 12.398438 6.421875 12.660156 6.242188 12.976562 L 2.996094 12.976562 C 2.445312 12.976562 1.996094 13.425781 1.996094 13.976562 C 1.996094 14.527344 2.445312 14.976562 2.996094 14.976562 L 6.28125 14.976562 C 6.644531 15.578125 7.292969 15.949219 7.996094 15.949219 C 8.699219 15.949219 9.351562 15.578125 9.714844 14.976562 L 13.007812 14.976562 C 13.558594 14.976562 14.007812 14.527344 14.007812 13.976562 C 14.007812 13.425781 13.558594 12.976562 13.007812 12.976562 L 9.75 12.976562 C 9.570312 12.664062 9.3125 12.402344 9 12.222656 L 9 11 Z M 7.996094 12.9375 C 8.550781 12.9375 9.003906 13.386719 9 13.945312 C 9.003906 14.5 8.550781 14.949219 7.996094 14.949219 C 7.441406 14.949219 6.988281 14.5 6.988281 13.945312 C 6.988281 13.386719 7.441406 12.9375 7.996094 12.9375 Z M 7.996094 12.9375 "/>
</g>
</svg>
