<?xml version="1.0" encoding="UTF-8"?>
<svg xmlns="http://www.w3.org/2000/svg" xmlns:xlink="http://www.w3.org/1999/xlink" width="16px" height="16px" viewBox="0 0 16 16" version="1.1">
<g id="surface111402">
<path style=" stroke:none;fill-rule:nonzero;fill:rgb(18.039216%,20.392157%,21.176471%);fill-opacity:1;" d="M 5 3 C 5 3.550781 5.449219 4 6 4 C 6.550781 4 7 3.550781 7 3 C 7 1.648438 9 1.628906 9 3 L 9 4.96875 C 9 4.984375 8.984375 5 8.96875 5 L 4.03125 5 C 4.015625 5 4 5.015625 4 5.03125 L 4 10.96875 C 4 10.976562 4.003906 10.984375 4.007812 10.992188 C 4.015625 10.996094 4.023438 11 4.03125 11 L 6.96875 11 C 6.976562 11 6.984375 11.003906 6.992188 11.007812 C 6.996094 11.015625 7 11.023438 7 11.03125 L 7 12.472656 C 7 12.480469 7.003906 12.488281 7.007812 12.492188 C 7.015625 12.5 7.023438 12.503906 7.03125 12.503906 L 8.96875 12.503906 C 8.984375 12.503906 9 12.488281 9 12.472656 L 9 11.03125 C 9 11.015625 9.015625 11 9.03125 11 L 11.96875 11 C 11.984375 11 12 10.984375 12 10.96875 L 12 5.03125 C 12 5.015625 11.984375 5 11.96875 5 L 11.03125 5 C 11.015625 5 11 4.984375 11 4.96875 L 11 3 C 11 -1 5 -1 5 3 Z M 5 3 "/>
<path style=" stroke:none;fill-rule:nonzero;fill:rgb(18.039216%,20.392157%,21.176471%);fill-opacity:1;" d="M 7.996094 16.011719 C 7.292969 16.011719 6.644531 15.640625 6.28125 15.039062 L 2.996094 15.039062 C 2.445312 15.039062 1.996094 14.589844 1.996094 14.039062 C 1.996094 13.488281 2.445312 13.039062 2.996094 13.039062 L 6.246094 13.039062 C 6.597656 12.398438 7.265625 12.003906 7.996094 12 C 8.726562 12.003906 9.398438 12.398438 9.75 13.039062 L 13.007812 13.039062 C 13.5625 13.039062 14.007812 13.488281 14.007812 14.039062 C 14.007812 14.589844 13.5625 15.039062 13.007812 15.039062 L 9.714844 15.039062 C 9.351562 15.640625 8.699219 16.011719 7.996094 16.011719 Z M 7.996094 15.011719 C 8.550781 15.011719 9.003906 14.5625 9.003906 14.007812 C 9.003906 13.449219 8.550781 13 7.996094 13 C 7.441406 13 6.992188 13.449219 6.992188 14.007812 C 6.992188 14.5625 7.441406 15.011719 7.996094 15.011719 Z M 7.996094 15.011719 "/>
</g>
</svg>
