<?xml version="1.0" encoding="UTF-8" standalone="no"?>
<!-- Generator: Adobe Illustrator 9.0, SVG Export Plug-In  -->
<svg
   xmlns:dc="http://purl.org/dc/elements/1.1/"
   xmlns:cc="http://web.resource.org/cc/"
   xmlns:rdf="http://www.w3.org/1999/02/22-rdf-syntax-ns#"
   xmlns:svg="http://www.w3.org/2000/svg"
   xmlns="http://www.w3.org/2000/svg"
   xmlns:sodipodi="http://inkscape.sourceforge.net/DTD/sodipodi-0.dtd"
   xmlns:inkscape="http://www.inkscape.org/namespaces/inkscape"
   width="48"
   height="48"
   viewBox="0 0 48 48"
   xml:space="preserve"
   id="svg2"
   sodipodi:version="0.32"
   inkscape:version="0.43"
   sodipodi:docname="font-x-generic.svg"
   sodipodi:docbase="/home/luca/Artwork/blackwhite-icon-theme/scalable/mimetypes"
   version="1.0"><metadata
   id="metadata27"><rdf:RDF><cc:Work
       rdf:about=""><dc:format>image/svg+xml</dc:format><dc:type
         rdf:resource="http://purl.org/dc/dcmitype/StillImage" /></cc:Work></rdf:RDF></metadata><defs
   id="defs25">
		
	
			
			
		</defs><sodipodi:namedview
   inkscape:window-height="947"
   inkscape:window-width="1268"
   inkscape:pageshadow="2"
   inkscape:pageopacity="0.0"
   borderopacity="1.0"
   bordercolor="#666666"
   pagecolor="#ffffff"
   id="base"
   showgrid="true"
   inkscape:grid-bbox="true"
   inkscape:grid-points="true"
   inkscape:zoom="15.979167"
   inkscape:cx="24"
   inkscape:cy="24.389883"
   inkscape:window-x="6"
   inkscape:window-y="46"
   inkscape:current-layer="svg2" />
	<rect
   style="fill:none;fill-opacity:0.31724137;fill-rule:evenodd;stroke:none;stroke-width:1px;stroke-linecap:butt;stroke-linejoin:miter;stroke-opacity:1"
   id="rect1341"
   width="48"
   height="48"
   x="0"
   y="0"
   rx="0"
   ry="0" /><g
   style="fill-rule:nonzero;stroke:#000000;stroke-miterlimit:4"
   id="g7">
				<g
   id="g9">
					<path
   style="stroke:none"
   d="M 18,30.9 L 15.2,38.1 L 6,38.1 L 18.1,9.9 L 29.7,9.9 L 42,38.1 L 32.4,38.1 L 29.4,30.9 L 18,30.9 L 18,30.9 z M 28,26.1 C 28,26.1 24.2,16.3 23.6,14.7 L 23.4,14.7 C 22.9,16.4 19.2,26.1 19.2,26.1 L 28,26.1 z "
   id="path11" />
				</g>
				<g
   id="g13">
					
				</g>
			</g><g
   id="g3089"
   style="fill-rule:nonzero;stroke:#ffffff;stroke-miterlimit:4;stroke-width:12;stroke-dasharray:none;fill:#ffffff;fill-opacity:1;stroke-opacity:1">
				<path
   sodipodi:nodetypes="cccccccccccccc"
   id="path3091"
   d="M 15,38 L 6,38 L 18,10 L 30,10 L 42,38 L 33,38 L 30,31 L 18,30.9 L 15,38 z M 29,26 C 29,26 25.6,16.6 25,15 L 23,15 C 22.5,16.7 19,26 19,26 L 29,26 z "
   style="stroke-width:12;stroke-linejoin:round;stroke-miterlimit:4;stroke-dasharray:none;fill:#ffffff;fill-opacity:1;stroke:#ffffff;stroke-opacity:1" />
			</g><g
   style="fill-rule:nonzero;stroke:#000000;stroke-miterlimit:4;stroke-width:4;stroke-dasharray:none"
   id="g17">
				<path
   style="stroke-width:4;stroke-linejoin:round;stroke-miterlimit:4;stroke-dasharray:none"
   d="M 15,38 L 6,38 L 18,10 L 30,10 L 42,38 L 33,38 L 30,31 L 18,30.9 L 15,38 z M 29,26 C 29,26 25.6,16.6 25,15 L 23,15 C 22.5,16.7 19,26 19,26 L 29,26 z "
   id="path19"
   sodipodi:nodetypes="cccccccccccccc" />
			</g>
	
</svg>