<?xml version="1.0" encoding="UTF-8" standalone="no"?>
<!-- Generator: Adobe Illustrator 9.0, SVG Export Plug-In  -->
<svg
   xmlns:dc="http://purl.org/dc/elements/1.1/"
   xmlns:cc="http://web.resource.org/cc/"
   xmlns:rdf="http://www.w3.org/1999/02/22-rdf-syntax-ns#"
   xmlns:svg="http://www.w3.org/2000/svg"
   xmlns="http://www.w3.org/2000/svg"
   xmlns:sodipodi="http://inkscape.sourceforge.net/DTD/sodipodi-0.dtd"
   xmlns:inkscape="http://www.inkscape.org/namespaces/inkscape"
   width="48"
   height="48"
   viewBox="0 0 48 48"
   xml:space="preserve"
   id="svg2"
   sodipodi:version="0.32"
   inkscape:version="0.43"
   sodipodi:docname="document-print.svg"
   sodipodi:docbase="/home/luca/Artwork/blackwhite-icon-theme/scalable/actions"
   version="1.0"><metadata
   id="metadata31"><rdf:RDF><cc:Work
       rdf:about=""><dc:format>image/svg+xml</dc:format><dc:type
         rdf:resource="http://purl.org/dc/dcmitype/StillImage" /></cc:Work></rdf:RDF></metadata><defs
   id="defs29">
		
	
			
			
			
			
			
			
			
			
			
		
		
	
			
			
			
			
			
			
			
			
			
			
			
		</defs><sodipodi:namedview
   inkscape:window-height="974"
   inkscape:window-width="1280"
   inkscape:pageshadow="2"
   inkscape:pageopacity="0.0"
   borderopacity="1.0"
   bordercolor="#666666"
   pagecolor="#ffffff"
   id="base"
   showgrid="true"
   inkscape:grid-bbox="true"
   inkscape:grid-points="true"
   inkscape:zoom="16.416667"
   inkscape:cx="24"
   inkscape:cy="24"
   inkscape:window-x="0"
   inkscape:window-y="0"
   inkscape:current-layer="svg2" />
	<rect
   style="fill:none;fill-opacity:0.75;fill-rule:evenodd;stroke:none;stroke-width:1px;stroke-linecap:butt;stroke-linejoin:miter;stroke-opacity:1"
   id="rect3981"
   width="48"
   height="48"
   x="0"
   y="0"
   rx="0"
   ry="0" /><g
   id="g3100"
   style="stroke:#ffffff;stroke-opacity:1;stroke-width:8;stroke-miterlimit:4;stroke-dasharray:none;fill:#ffffff;fill-opacity:1"><path
     style="fill:#ffffff;fill-rule:nonzero;stroke:#ffffff;stroke-width:8;stroke-linejoin:round;stroke-miterlimit:4;stroke-opacity:1;stroke-dasharray:none;fill-opacity:1"
     d="M 41,42 C 41,42.4 40.4,43 40,43 L 8,43 C 7.6,43 7,42.4 7,42 L 7,40 C 7,39.6 7.5,39.3 7.9,39.3 L 39.8,39.3 C 40.2,39.3 41,39.6 41,40 L 41,42 z "
     id="path3102"
     sodipodi:nodetypes="ccccccccc" /><path
     style="fill:#ffffff;fill-rule:nonzero;stroke:#ffffff;stroke-width:8;stroke-linejoin:round;stroke-miterlimit:4;stroke-opacity:1;stroke-dasharray:none;fill-opacity:1"
     d="M 44,39 C 44,39.4 43.4,40 43,40 L 5,40 C 4.6,40 4,39.4 4,39 L 4,25 C 4,24.6 4.6,24 5,24 L 43,24 C 43.4,24 44,24.6 44,25 L 44,39 z "
     id="path3104"
     sodipodi:nodetypes="ccccccccc" /><path
     style="fill:#ffffff;fill-rule:nonzero;stroke:#ffffff;stroke-width:8;stroke-linejoin:round;stroke-miterlimit:4;stroke-opacity:1;stroke-dasharray:none;fill-opacity:1"
     d="M 12,4 C 9,4 8,6 8,8 L 8,26 L 40,26 L 40,8 C 40,6 39,4 36,4 L 12,4 z "
     id="path3106"
     sodipodi:nodetypes="ccccccc" /></g><g
   id="g3095"><path
     sodipodi:nodetypes="ccccccccc"
     id="path13"
     d="M 41,42 C 41,42.4 40.4,43 40,43 L 8,43 C 7.6,43 7,42.4 7,42 L 7,40 C 7,39.6 7.5,39.3 7.9,39.3 L 39.8,39.3 C 40.2,39.3 41,39.6 41,40 L 41,42 z "
     style="fill:#000000;fill-rule:nonzero;stroke:none;stroke-width:7.43289995;stroke-linejoin:round;stroke-miterlimit:4" /><path
     sodipodi:nodetypes="ccccccccc"
     id="path15"
     d="M 44,39 C 44,39.4 43.4,40 43,40 L 5,40 C 4.6,40 4,39.4 4,39 L 4,25 C 4,24.6 4.6,24 5,24 L 43,24 C 43.4,24 44,24.6 44,25 L 44,39 z "
     style="fill:#000000;fill-rule:nonzero;stroke:none;stroke-width:7.43289995;stroke-linejoin:round;stroke-miterlimit:4" /><path
     sodipodi:nodetypes="ccccccc"
     id="path17"
     d="M 12,4 C 9,4 8,6 8,8 L 8,26 L 40,26 L 40,8 C 40,6 39,4 36,4 L 12,4 z "
     style="fill:#000000;fill-rule:nonzero;stroke:none;stroke-width:7.43289995;stroke-linejoin:round;stroke-miterlimit:4" /></g><path
   style="fill:#ffffff;fill-rule:nonzero;stroke:none;stroke-width:7.43289995;stroke-linejoin:round;stroke-miterlimit:4"
   d="M 36,27 L 12,27 L 12,9 C 12,9 12,8 13,8 L 35,8 C 36,8 36,9 36,9 L 36,27 z "
   id="path19"
   sodipodi:nodetypes="ccccccc" /><path
   style="fill:none;fill-rule:nonzero;stroke:#000000;stroke-width:4;stroke-linejoin:miter;stroke-miterlimit:4;stroke-dasharray:none"
   d="M 16.6,21 L 31,21"
   id="path21"
   sodipodi:nodetypes="cc" /><path
   style="fill:none;fill-rule:nonzero;stroke:#000000;stroke-width:4;stroke-linejoin:miter;stroke-miterlimit:4;stroke-dasharray:none"
   d="M 16.538776,14 L 31,14"
   id="path23"
   sodipodi:nodetypes="cc" />
	
</svg>