<?xml version="1.0" encoding="UTF-8" standalone="no"?>
<!-- Generator: Adobe Illustrator 9.0, SVG Export Plug-In  -->
<svg
   xmlns:dc="http://purl.org/dc/elements/1.1/"
   xmlns:cc="http://creativecommons.org/ns#"
   xmlns:rdf="http://www.w3.org/1999/02/22-rdf-syntax-ns#"
   xmlns:svg="http://www.w3.org/2000/svg"
   xmlns="http://www.w3.org/2000/svg"
   xmlns:sodipodi="http://sodipodi.sourceforge.net/DTD/sodipodi-0.dtd"
   xmlns:inkscape="http://www.inkscape.org/namespaces/inkscape"
   width="48.000000px"
   height="48.000000px"
   viewBox="0 0 48 48"
   xml:space="preserve"
   id="svg2"
   sodipodi:version="0.32"
   inkscape:version="0.46"
   sodipodi:docname="document-page-setup.svg"
   sodipodi:docbase="/home/luca/Artwork/blackwhite-icon-theme/scalable/actions"
   inkscape:output_extension="org.inkscape.output.svg.inkscape"><metadata
   id="metadata19"><rdf:RDF><cc:Work
       rdf:about=""><dc:format>image/svg+xml</dc:format><dc:type
         rdf:resource="http://purl.org/dc/dcmitype/StillImage" /><dc:title>Document Page Setup</dc:title><dc:creator><cc:Agent><dc:title>Kevin Kubasik</dc:title></cc:Agent></dc:creator><cc:license
         rdf:resource="" /><dc:subject><rdf:Bag><rdf:li>document</rdf:li><rdf:li>page setup</rdf:li><rdf:li>print margins</rdf:li></rdf:Bag></dc:subject><dc:description>A paper sheet with a gear sign</dc:description><dc:coverage>Set up magins and other for print</dc:coverage><dc:contributor><cc:Agent><dc:title></dc:title></cc:Agent></dc:contributor></cc:Work></rdf:RDF></metadata><defs
   id="defs17" /><sodipodi:namedview
   inkscape:window-height="949"
   inkscape:window-width="1280"
   inkscape:pageshadow="2"
   inkscape:pageopacity="0.0"
   borderopacity="1.0"
   bordercolor="#666666"
   pagecolor="#ffffff"
   id="base"
   gridtolerance="10000"
   showgrid="true"
   guidetolerance="10000"
   inkscape:grid-points="true"
   inkscape:zoom="15.083333"
   inkscape:cx="22.839779"
   inkscape:cy="24"
   inkscape:window-x="0"
   inkscape:window-y="25"
   inkscape:current-layer="svg2"
   showguides="true"
   inkscape:guide-bbox="true"
   objecttolerance="10000"
   inkscape:object-nodes="true"
   inkscape:object-paths="true"><inkscape:grid
     type="xygrid"
     visible="true"
     enabled="true"
     id="grid2392" /></sodipodi:namedview>
	<rect
   style="fill:none;fill-opacity:0.44354838000000002;fill-rule:evenodd;stroke:none;stroke-width:1px;stroke-linecap:butt;stroke-linejoin:miter;stroke-opacity:1"
   id="rect3319"
   width="48.000000"
   height="48.000000"
   x="0.0000000"
   y="0.0000000" /><path
   sodipodi:nodetypes="cccccc"
   style="fill:#ffffff;fill-opacity:1;fill-rule:nonzero;stroke:#ffffff;stroke-width:12;stroke-linejoin:round;stroke-miterlimit:4;stroke-dasharray:none;stroke-opacity:1"
   d="M 39,41.125326 L 9,41.125326 L 9,6.1253264 L 26,6.1253264 L 39,20.125326 L 39,41.125326 z"
   id="path4775" /><path
   id="path7"
   d="M 39.000000,41.000000 L 9.0000000,41.000000 L 9.0000000,6.0000000 L 26.000000,6.0000000 L 39.000000,20.000000 L 39.000000,41.000000 z "
   style="fill:#000000;fill-rule:nonzero;stroke:#000000;stroke-width:4.0000000;stroke-linejoin:round;stroke-miterlimit:4.0000000;stroke-dasharray:none;fill-opacity:1.0000000"
   sodipodi:nodetypes="cccccc" /><path
   id="path9"
   d="M 36.991406,20 L 36.996573,39.003906 L 11,39 L 11.016535,8.0181102 L 24.969291,8.0338583 L 36.991406,20 z "
   style="fill:#ffffff;fill-rule:nonzero;stroke:none;stroke-miterlimit:4.0000000"
   sodipodi:nodetypes="cccccc" />
	
<g
   id="g3285"
   transform="matrix(-0.4999999,-0.8660254,0.8660254,-0.4999999,13.481629,56.411881)"><path
     id="path2461"
     d="M 30.908406,17.288836 L 28.042381,20.252938 C 27.676355,18.886912 25.078279,17.386913 23.712253,17.752938 L 24.846228,13.788836 L 19.5161,13.020887 L 20.265435,18.079122 C 19.672684,18.312176 18.718815,18.844118 18.248152,19.21704 L 14.418024,15.851015 L 11.418024,21.047168 L 16.248152,22.681142 C 16.117131,23.269427 16.191325,24.270343 16.277856,24.934122 L 11.516101,26.877295 L 14.846229,31.109346 L 17.712254,28.145244 C 18.078279,29.511269 20.676356,31.011269 22.042381,30.645244 L 20.908407,34.609346 L 26.238534,35.377294 L 25.640458,30.413193 C 26.520309,30.097906 26.824499,29.793582 27.506483,29.181142 L 31.336611,32.547167 L 34.33661,27.351014 L 29.506483,25.71704 C 29.637504,25.128756 29.726987,24.148769 29.640457,23.484989 L 34.238534,21.520887 L 30.908406,17.288836 z M 23.983271,26.681806 C 22.606842,27.276659 20.968543,26.659386 20.32263,25.289613 C 19.676716,23.91984 20.345049,22.274885 21.714822,21.628971 C 23.091251,21.034118 24.72955,21.651391 25.375464,23.021164 C 25.970318,24.397593 25.353045,26.035892 23.983271,26.681806 z"
     style="fill-rule:nonzero;stroke:none;stroke-miterlimit:4"
     sodipodi:nodetypes="ccccccccccccccccccccccccccsccc" /></g></svg>