<?xml version="1.0" encoding="UTF-8" standalone="no"?>
<!-- Generator: Adobe Illustrator 9.0, SVG Export Plug-In  -->
<svg
   xmlns:dc="http://purl.org/dc/elements/1.1/"
   xmlns:cc="http://creativecommons.org/ns#"
   xmlns:rdf="http://www.w3.org/1999/02/22-rdf-syntax-ns#"
   xmlns:svg="http://www.w3.org/2000/svg"
   xmlns="http://www.w3.org/2000/svg"
   xmlns:sodipodi="http://sodipodi.sourceforge.net/DTD/sodipodi-0.dtd"
   xmlns:inkscape="http://www.inkscape.org/namespaces/inkscape"
   width="48"
   height="48"
   viewBox="0 0 48 48"
   xml:space="preserve"
   id="svg2"
   sodipodi:version="0.32"
   inkscape:version="0.46"
   sodipodi:docname="edit-find-replace.svg"
   inkscape:output_extension="org.inkscape.output.svg.inkscape"
   version="1.0"><metadata
   id="metadata35"><rdf:RDF><cc:Work
       rdf:about=""><dc:format>image/svg+xml</dc:format><dc:type
         rdf:resource="http://purl.org/dc/dcmitype/StillImage" /><dc:title>Edit Find Replace</dc:title><dc:date>April 2008</dc:date><dc:creator><cc:Agent><dc:title>Luca Ferretti &lt;elle.uca@libero.it&gt;</dc:title></cc:Agent></dc:creator><dc:contributor><cc:Agent><dc:title>Based on icon from Jakub Stainer</dc:title></cc:Agent></dc:contributor><dc:subject><rdf:Bag><rdf:li>edit</rdf:li><rdf:li>find</rdf:li><rdf:li>replace</rdf:li></rdf:Bag></dc:subject></cc:Work></rdf:RDF></metadata><defs
   id="defs33"><inkscape:perspective
     sodipodi:type="inkscape:persp3d"
     inkscape:vp_x="0 : 24 : 1"
     inkscape:vp_y="0 : 1000 : 0"
     inkscape:vp_z="48 : 24 : 1"
     inkscape:persp3d-origin="24 : 16 : 1"
     id="perspective22" /></defs><sodipodi:namedview
   inkscape:window-height="719"
   inkscape:window-width="1024"
   inkscape:pageshadow="2"
   inkscape:pageopacity="0.0"
   guidetolerance="10.0"
   gridtolerance="10.0"
   objecttolerance="10.0"
   borderopacity="1.0"
   bordercolor="#666666"
   pagecolor="#ffffff"
   id="base"
   showgrid="true"
   inkscape:object-paths="true"
   inkscape:object-nodes="true"
   inkscape:snap-global="true"
   inkscape:snap-bbox="true"
   inkscape:bbox-paths="true"
   inkscape:bbox-nodes="true"
   inkscape:zoom="10.291667"
   inkscape:cx="24"
   inkscape:cy="14.005955"
   inkscape:window-x="0"
   inkscape:window-y="25"
   inkscape:current-layer="svg2"><inkscape:grid
     type="xygrid"
     id="grid3180"
     visible="true"
     enabled="true" /></sodipodi:namedview>
	<rect
   style="opacity:1;fill:none;fill-opacity:0.21538462000000000;stroke:none;stroke-width:12;stroke-linecap:round;stroke-linejoin:round;stroke-miterlimit:4;stroke-dasharray:none;stroke-opacity:1"
   id="rect3182"
   width="48"
   height="48"
   x="0"
   y="0" />
	
<g
   inkscape:groupmode="layer"
   id="layer1"
   inkscape:label="pencil"
   style="display:inline"><path
     id="path3240"
     d="M 37.749573,23.395238 L 25.473288,35.874234 L 23.295239,41.509909 L 29.631384,39.497169 L 41.610661,27.320085 L 37.749573,23.395238 z"
     style="fill:none;fill-rule:nonzero;stroke:#ffffff;stroke-width:12.98018265;stroke-linejoin:round;stroke-miterlimit:4;stroke-dasharray:none;stroke-opacity:1" /><path
     style="fill:none;fill-rule:nonzero;stroke:#000000;stroke-width:4.8102951;stroke-linejoin:round;stroke-miterlimit:4"
     d="M 37.743842,23.405147 L 25.48084,35.935833 L 23.305148,41.594852 L 29.634437,39.573775 L 41.600752,27.346251 L 37.743842,23.405147 z"
     id="path17" /><path
     style="fill-rule:nonzero;stroke-miterlimit:4"
     d="M 37.7,23.3 L 25.3,35.7 L 23.1,41.3 L 29.5,39.3 L 41.6,27.2 L 37.7,23.3 z"
     id="path19" /><path
     style="fill-rule:nonzero;stroke-miterlimit:4"
     d="M 37.7,23.3 L 25.3,35.7 L 23.1,41.3 L 29.5,39.3 L 41.6,27.2 L 37.7,23.3 z"
     id="path21" /><path
     style="fill-rule:nonzero;stroke-miterlimit:4"
     d="M 23.8,38.9 L 25.6,40.7 L 22.8,41.5 L 23.8,38.9 L 23.8,38.9 z"
     id="path23" /><path
     style="fill:none;fill-rule:nonzero;stroke:#000000;stroke-width:0.9048;stroke-miterlimit:4"
     d="M 29.3,39.6 L 29.1,37.4 L 27.3,35.6 L 25.3,35.3"
     id="path25" /><path
     style="fill:#ffffff;fill-rule:nonzero;stroke-miterlimit:4"
     d="M 24,39 L 25.5,40.5 L 29.3,39.3 L 29.1,37.4 L 27.3,35.6 L 25.5,35.4 L 23.9,39 L 24,39 z"
     id="path27" /></g><path
   d="M 29,14.5 A 6.5,6.5 0 1 1 16,14.5 A 6.5,6.5 0 1 1 29,14.5 z"
   sodipodi:ry="6.5"
   sodipodi:rx="6.5"
   sodipodi:cy="14.5"
   sodipodi:cx="22.5"
   id="path3238"
   style="opacity:1;fill:none;fill-opacity:1;stroke:#ffffff;stroke-width:15;stroke-linecap:round;stroke-linejoin:round;stroke-miterlimit:4;stroke-dasharray:none;stroke-opacity:1"
   sodipodi:type="arc" /><g
   inkscape:groupmode="layer"
   id="layer2"
   inkscape:label="magnifier"
   style="display:inline"><path
     sodipodi:nodetypes="ccccccccc"
     style="fill-rule:nonzero;stroke:#ffffff;stroke-width:9.83539581;stroke-linejoin:round;stroke-miterlimit:4;stroke-dasharray:none;stroke-opacity:1"
     d="M 5.9951137,31.00673 C 7.963878,32.972126 9.1451365,31.792887 9.9326425,31.00673 L 15.838936,25.110542 C 16.429565,24.520924 15.838936,23.145147 15.838936,22.16245 L 14.854553,21.179751 C 13.870171,21.179751 12.492035,20.590132 11.901406,21.179751 L 5.9951137,27.075939 C 5.207608,27.862097 4.0263495,29.041335 5.9951137,31.00673 L 5.9951137,31.00673 z"
     id="path3236" /><path
     id="path13"
     d="M 5.8974631,31.090552 C 7.893904,33.108893 9.0917685,31.897888 9.8903452,31.090552 L 15.879667,25.035532 C 16.4786,24.43003 15.879667,23.017192 15.879667,22.008022 L 14.881447,20.998852 C 13.883227,20.998852 12.485718,20.393351 11.886786,20.998852 L 5.8974631,27.053873 C 5.0988868,27.861209 3.9010222,29.072213 5.8974631,31.090552 L 5.8974631,31.090552 z"
     style="fill-rule:nonzero;stroke:#000000;stroke-width:1.60980284;stroke-linejoin:round;stroke-miterlimit:4"
     sodipodi:nodetypes="ccccccccc" /></g><path
   sodipodi:type="arc"
   style="opacity:1;fill:#000000;fill-opacity:1;stroke:#000000;stroke-width:7;stroke-linecap:round;stroke-linejoin:round;stroke-miterlimit:4;stroke-dasharray:none;stroke-opacity:1"
   id="path3228"
   sodipodi:cx="22.5"
   sodipodi:cy="14.5"
   sodipodi:rx="6.5"
   sodipodi:ry="6.5"
   d="M 29,14.5 A 6.5,6.5 0 1 1 16,14.5 A 6.5,6.5 0 1 1 29,14.5 z" /><path
   sodipodi:type="arc"
   style="opacity:1;fill:#ffffff;fill-opacity:1;stroke:none;stroke-width:7;stroke-linecap:round;stroke-linejoin:round;stroke-miterlimit:4;stroke-dasharray:none;stroke-opacity:1"
   id="path3234"
   sodipodi:cx="22.48143"
   sodipodi:cy="14.591472"
   sodipodi:rx="6.4801788"
   sodipodi:ry="6.5914717"
   d="M 28.961609,14.591472 A 6.4801788,6.5914717 0 1 1 16.001251,14.591472 A 6.4801788,6.5914717 0 1 1 28.961609,14.591472 z" /></svg>