<?xml version="1.0" encoding="UTF-8" standalone="no"?>
<!-- Generator: Adobe Illustrator 9.0, SVG Export Plug-In  -->
<svg
   xmlns:dc="http://purl.org/dc/elements/1.1/"
   xmlns:cc="http://web.resource.org/cc/"
   xmlns:rdf="http://www.w3.org/1999/02/22-rdf-syntax-ns#"
   xmlns:svg="http://www.w3.org/2000/svg"
   xmlns="http://www.w3.org/2000/svg"
   xmlns:sodipodi="http://sodipodi.sourceforge.net/DTD/sodipodi-0.dtd"
   xmlns:inkscape="http://www.inkscape.org/namespaces/inkscape"
   width="48"
   height="48"
   viewBox="0 0 48 48"
   xml:space="preserve"
   id="svg2"
   sodipodi:version="0.32"
   inkscape:version="0.45.1"
   sodipodi:docname="edit-cut.svg"
   sodipodi:docbase="/home/luca/svn/gnome2/gnome-themes/icon-themes/HighContrast-SVG/scalable/actions"
   inkscape:output_extension="org.inkscape.output.svg.inkscape"
   version="1.0"><metadata
   id="metadata17"><rdf:RDF><cc:Work
       rdf:about=""><dc:format>image/svg+xml</dc:format><dc:type
         rdf:resource="http://purl.org/dc/dcmitype/StillImage" /><dc:title>Edit Cut</dc:title><dc:date>November 2007</dc:date><dc:creator><cc:Agent><dc:title>Jakub Steiner</dc:title></cc:Agent></dc:creator><dc:source>http://www.gnome.org</dc:source><dc:subject><rdf:Bag><rdf:li>edit</rdf:li><rdf:li>cut</rdf:li><rdf:li>move to clipboard</rdf:li></rdf:Bag></dc:subject><dc:contributor><cc:Agent><dc:title>Canvas size and pixel perfect by Luca Ferretti</dc:title></cc:Agent></dc:contributor><cc:license
         rdf:resource="http://creativecommons.org/licenses/LGPL/2.1/" /></cc:Work><cc:License
       rdf:about="http://creativecommons.org/licenses/LGPL/2.1/"><cc:permits
         rdf:resource="http://web.resource.org/cc/Reproduction" /><cc:permits
         rdf:resource="http://web.resource.org/cc/Distribution" /><cc:requires
         rdf:resource="http://web.resource.org/cc/Notice" /><cc:permits
         rdf:resource="http://web.resource.org/cc/DerivativeWorks" /><cc:requires
         rdf:resource="http://web.resource.org/cc/ShareAlike" /><cc:requires
         rdf:resource="http://web.resource.org/cc/SourceCode" /></cc:License></rdf:RDF></metadata><defs
   id="defs15">
		
	
			
			
		</defs><sodipodi:namedview
   inkscape:window-height="949"
   inkscape:window-width="1280"
   inkscape:pageshadow="2"
   inkscape:pageopacity="0.0"
   guidetolerance="10.0"
   gridtolerance="10.0"
   objecttolerance="10.0"
   borderopacity="1.0"
   bordercolor="#666666"
   pagecolor="#ffffff"
   id="base"
   width="48px"
   height="48px"
   showgrid="true"
   inkscape:grid-points="true"
   inkscape:zoom="15.1875"
   inkscape:cx="24"
   inkscape:cy="24"
   inkscape:window-x="0"
   inkscape:window-y="25"
   inkscape:current-layer="svg2" />
	<rect
   style="opacity:1;fill:none;fill-opacity:0.29296875;stroke:none;stroke-width:12;stroke-linecap:round;stroke-linejoin:round;stroke-miterlimit:4;stroke-dasharray:none;stroke-opacity:1"
   id="rect2169"
   width="48"
   height="48"
   x="0"
   y="0"
   rx="0"
   ry="0" />
	
<path
   transform="translate(-0.5,-2.5)"
   d="M 20 39 A 4.5 6 0 1 1  11,39 A 4.5 6 0 1 1  20 39 z"
   sodipodi:ry="6"
   sodipodi:rx="4.5"
   sodipodi:cy="39"
   sodipodi:cx="15.5"
   id="path6099"
   style="fill:none;fill-opacity:0.29296875;stroke:#ffffff;stroke-width:11;stroke-linecap:round;stroke-linejoin:round;stroke-miterlimit:4;stroke-dasharray:none;stroke-opacity:1"
   sodipodi:type="arc" /><path
   sodipodi:type="arc"
   style="fill:none;fill-opacity:0.29296875;stroke:#ffffff;stroke-width:11;stroke-linecap:round;stroke-linejoin:round;stroke-miterlimit:4;stroke-dasharray:none;stroke-opacity:1"
   id="path5128"
   sodipodi:cx="15.5"
   sodipodi:cy="39"
   sodipodi:rx="4.5"
   sodipodi:ry="6"
   d="M 20 39 A 4.5 6 0 1 1  11,39 A 4.5 6 0 1 1  20 39 z"
   transform="translate(17.5,-2.5)" /><path
   sodipodi:nodetypes="ccccccccccccccc"
   id="path6101"
   d="M 29.5,30.4 L 27,26 C 29.9,24 33.3,21.8 36,17 C 39.9,10.2 34,5 34,5 L 24,21 L 14,5 C 14,5 8.1,10.2 12,17 C 14.7,21.7 18.1,24.1 21,26 L 18.5,30.4 L 21,36 C 21.1,34.4 23,29 23,29 C 23,29 23.3,27.4 24,27 C 24.6,27.5 25,29 25,29 C 25,29 26.9,34.3 27,36 L 29.5,30.4 z "
   style="fill-rule:nonzero;stroke:#ffffff;stroke-miterlimit:4;fill:none;stroke-opacity:1;stroke-width:8;stroke-dasharray:none;stroke-linejoin:round;stroke-linecap:round" /><path
   style="fill-rule:nonzero;stroke:none;stroke-miterlimit:4"
   d="M 29.5,30.4 L 27,26 C 29.9,24 33.3,21.8 36,17 C 39.9,10.2 34,5 34,5 L 24,21 L 14,5 C 14,5 8.1,10.2 12,17 C 14.7,21.7 18.1,24.1 21,26 L 18.5,30.4 L 21,36 C 21.1,34.4 23,29 23,29 C 23,29 23.3,27.4 24,27 C 24.6,27.5 25,29 25,29 C 25,29 26.9,34.3 27,36 L 29.5,30.4 z "
   id="path9"
   sodipodi:nodetypes="ccccccccccccccc" /><path
   sodipodi:type="arc"
   style="fill:none;fill-opacity:0.29296875;stroke:#000000;stroke-width:3;stroke-linecap:round;stroke-linejoin:round;stroke-miterlimit:4;stroke-dasharray:none;stroke-opacity:1"
   id="path3148"
   sodipodi:cx="15.5"
   sodipodi:cy="39"
   sodipodi:rx="4.5"
   sodipodi:ry="6"
   d="M 20 39 A 4.5 6 0 1 1  11,39 A 4.5 6 0 1 1  20 39 z"
   transform="translate(-0.5,-2.5)" /><path
   transform="translate(17.5,-2.5)"
   d="M 20 39 A 4.5 6 0 1 1  11,39 A 4.5 6 0 1 1  20 39 z"
   sodipodi:ry="6"
   sodipodi:rx="4.5"
   sodipodi:cy="39"
   sodipodi:cx="15.5"
   id="path4119"
   style="fill:none;fill-opacity:0.29296875;stroke:#000000;stroke-width:3;stroke-linecap:round;stroke-linejoin:round;stroke-miterlimit:4;stroke-dasharray:none;stroke-opacity:1"
   sodipodi:type="arc" /></svg>