<?xml version="1.0" encoding="UTF-8" standalone="no"?>
<!-- Generator: Adobe Illustrator 9.0, SVG Export Plug-In  -->
<svg
   xmlns:dc="http://purl.org/dc/elements/1.1/"
   xmlns:cc="http://creativecommons.org/ns#"
   xmlns:rdf="http://www.w3.org/1999/02/22-rdf-syntax-ns#"
   xmlns:svg="http://www.w3.org/2000/svg"
   xmlns="http://www.w3.org/2000/svg"
   xmlns:sodipodi="http://sodipodi.sourceforge.net/DTD/sodipodi-0.dtd"
   xmlns:inkscape="http://www.inkscape.org/namespaces/inkscape"
   width="48"
   height="48"
   viewBox="0 0 48 48"
   xml:space="preserve"
   id="svg2"
   sodipodi:version="0.32"
   inkscape:version="0.46"
   sodipodi:docname="help-contents.svg"
   inkscape:output_extension="org.inkscape.output.svg.inkscape"
   version="1.0"><metadata
   id="metadata35"><rdf:RDF><cc:Work
       rdf:about=""><dc:format>image/svg+xml</dc:format><dc:type
         rdf:resource="http://purl.org/dc/dcmitype/StillImage" /></cc:Work></rdf:RDF></metadata><defs
   id="defs33" /><sodipodi:namedview
   inkscape:window-height="682"
   inkscape:window-width="641"
   inkscape:pageshadow="2"
   inkscape:pageopacity="0.0"
   guidetolerance="10.0"
   gridtolerance="10.0"
   objecttolerance="10.0"
   borderopacity="1.0"
   bordercolor="#666666"
   pagecolor="#ffffff"
   id="base"
   showgrid="true"
   inkscape:object-paths="true"
   inkscape:object-nodes="true"
   inkscape:zoom="8.2333333"
   inkscape:cx="48.522267"
   inkscape:cy="30"
   inkscape:window-x="0"
   inkscape:window-y="25"
   inkscape:current-layer="svg2"><inkscape:grid
     type="xygrid"
     id="grid2394"
     visible="true"
     enabled="true" /></sodipodi:namedview>
	<g
   id="Layer_x0020_4"
   style="fill-rule:nonzero;stroke:#000000;stroke-miterlimit:4">
		<g
   style="stroke:none"
   id="g5">
			<path
   style="fill:none;stroke:#ffffff;stroke-width:7.00640011;stroke-linejoin:round"
   d="M 40.7,30.2 C 41.4,28.2 41.8,26.1 41.8,23.9 C 41.8,21.7 41.4,19.6 40.7,17.7 C 42.1,16.3 42.9,14.4 42.9,12.4 C 42.9,8.2 39.5,4.8 35.3,4.8 C 33.2,4.8 31.2,5.7 29.8,7.1 C 28,6.5 26,6.1 23.9,6.1 C 21.8,6.1 19.8,6.5 18,7.1 C 16.6,5.7 14.7,4.7 12.5,4.7 C 8.4,4.8 5,8.2 5,12.4 C 5,14.5 5.9,16.4 7.3,17.8 C 6.6,19.7 6.2,21.8 6.2,24 C 6.2,26.2 6.6,28.3 7.3,30.2 C 5.9,31.6 5,33.5 5,35.6 C 5,39.8 8.4,43.2 12.6,43.2 C 14.8,43.2 16.7,42.3 18.1,40.8 C 19.9,41.4 21.9,41.8 24,41.8 C 26,41.8 28,41.5 29.8,40.8 C 31.2,42.3 33.1,43.2 35.3,43.2 C 39.5,43.2 42.9,39.8 42.9,35.6 C 42.9,33.5 42,31.6 40.7,30.2 L 40.7,30.2 z M 35.3,7.9 C 37.7,7.9 39.7,9.9 39.7,12.3 C 39.7,13.1 39.5,13.9 39.1,14.5 C 37.6,12 35.5,10 32.9,8.5 C 33.6,8.1 34.4,7.8 35.2,7.8 L 35.3,7.9 z M 8.2,12.4 C 8.2,10 10.2,8 12.6,8 C 13.5,8 14.3,8.3 15,8.7 C 12.5,10.2 10.4,12.3 8.8,14.8 C 8.4,14.1 8.2,13.3 8.2,12.5 L 8.2,12.4 z M 12.6,40 C 10.1,40 8.2,38 8.2,35.6 C 8.2,34.7 8.4,33.9 8.9,33.3 C 10.4,35.8 12.6,37.9 15.1,39.4 C 14.4,39.8 13.6,40.1 12.7,40.1 L 12.6,40 z M 24,28.8 C 21.4,28.8 19.2,26.7 19.2,24 C 19.2,21.4 21.3,19.2 24,19.2 C 26.6,19.2 28.8,21.3 28.8,24 C 28.8,26.6 26.7,28.8 24,28.8 z M 35.3,40 C 34.4,40 33.6,39.7 32.9,39.3 C 35.4,37.8 37.5,35.8 39.1,33.3 C 39.5,34 39.7,34.7 39.7,35.6 C 39.7,38.1 37.7,40 35.3,40 L 35.3,40 z"
   id="path7" />
			<path
   d="M 6.3,24 C 6.3,33.8 14.3,41.8 24.1,41.8 C 33.9,41.8 41.9,33.8 41.9,24 C 41.9,14.2 33.9,6.2 24.1,6.2 C 14.3,6.2 6.3,14.2 6.3,24 L 6.3,24 z M 19.3,24 C 19.3,21.4 21.4,19.2 24.1,19.2 C 26.7,19.2 28.9,21.3 28.9,24 C 28.9,26.7 26.8,28.8 24.1,28.8 C 21.5,28.8 19.3,26.7 19.3,24 z"
   id="path9" />
			<path
   d="M 27.8,35.6 C 27.8,39.8 31.2,43.2 35.4,43.2 C 39.6,43.2 43,39.8 43,35.6 C 43,31.4 39.6,28 35.4,28 C 31.2,28 27.8,31.4 27.8,35.6 L 27.8,35.6 z M 31,35.6 C 31,33.1 33,31.2 35.4,31.2 C 37.9,31.2 39.8,33.2 39.8,35.6 C 39.8,38 37.8,40 35.4,40 C 33,40 31,38 31,35.6 z"
   id="path11" />
			<path
   d="M 5.1,35.6 C 5.1,39.8 8.5,43.2 12.7,43.2 C 16.9,43.2 20.3,39.8 20.3,35.6 C 20.3,31.4 16.9,28 12.7,28 C 8.5,28 5.1,31.4 5.1,35.6 L 5.1,35.6 z M 8.2,35.6 C 8.2,33.1 10.2,31.2 12.6,31.2 C 15,31.2 17,33.2 17,35.6 C 17,38 15,40 12.6,40 C 10.2,40 8.2,38 8.2,35.6 z"
   id="path13" />
			<path
   d="M 5.1,12.4 C 5.1,16.6 8.5,20 12.7,20 C 16.9,20 20.3,16.6 20.3,12.4 C 20.3,8.2 16.9,4.8 12.7,4.8 C 8.5,4.8 5.1,8.2 5.1,12.4 L 5.1,12.4 z M 8.2,12.4 C 8.2,10 10.2,8 12.6,8 C 15,8 17,10 17,12.4 C 17,14.8 15,16.8 12.6,16.8 C 10.2,16.8 8.2,14.8 8.2,12.4 z"
   id="path15" />
			<path
   d="M 27.8,12.4 C 27.8,16.6 31.2,20 35.4,20 C 39.6,20 43,16.6 43,12.4 C 43,8.2 39.6,4.8 35.4,4.8 C 31.2,4.8 27.8,8.2 27.8,12.4 L 27.8,12.4 z M 31,12.4 C 31,9.9 33,8 35.4,8 C 37.9,8 39.8,10 39.8,12.4 C 39.8,14.8 37.8,16.8 35.4,16.8 C 33,16.8 31,14.8 31,12.4 z"
   id="path17" />
			<path
   style="fill:#ffffff"
   d="M 9.2,24 C 9.2,32.2 15.9,38.9 24.1,38.9 C 32.3,38.9 38.9,32.2 38.9,24 C 38.9,15.8 32.2,9.1 24,9.1 C 15.8,9.1 9.2,15.8 9.2,24 z M 16.9,24 C 16.9,20 20.1,16.8 24.1,16.8 C 28.1,16.8 31.3,20 31.3,24 C 31.3,28 28.1,31.2 24.1,31.2 C 20.1,31.2 16.9,28 16.9,24 z"
   id="path19" />
			<path
   d="M 9.2,31.2 L 18.7,25.9 C 19.7,27.7 20.5,28.5 22.1,29.3 L 17.5,39 C 14.4,37.8 10.4,33.9 9.2,31.2 z"
   id="path21" />
			<path
   d="M 31.5,39 L 26,29.4 C 27.9,28.4 28.7,27.6 29.5,25.9 L 39.6,30.6 C 38.3,33.7 34.3,37.9 31.6,39.1 L 31.5,39 z"
   id="path23" />
			<path
   d="M 38.9,16.8 L 29.5,22.2 C 28.6,20.3 27.7,19.6 26.1,18.8 L 30.7,8.9 C 33.7,10.1 37.7,14.1 38.9,16.8 L 38.9,16.8 z"
   id="path25" />
			<path
   d="M 16.6,9 L 22.1,18.4 C 20.2,19.4 19.4,20.2 18.6,21.8 L 8.6,17.3 C 9.9,14.2 13.9,10.2 16.6,9 z"
   id="path27" />
		</g>
	</g>
	<g
   id="crop_x0020_marks"
   style="fill-rule:nonzero;stroke:#000000;stroke-miterlimit:4">
		<path
   style="fill:none;stroke:none"
   d="M 48,48 L 0,48 L 0,0 L 48,0 L 48,48 z"
   id="path30" />
	</g>
</svg>