<svg version="1.1" viewBox="0 0 16 16" xmlns="http://www.w3.org/2000/svg"><title>Gnome Symbolic Icon Theme</title><path d="m9.5105 1.8083c-2.5241 0-4.5801 2.054-4.5801 4.5781 0 1.1794 0.46147 2.246 1.1973 3.0586l-4.1016 4.1016a0.37504 0.37504 0 1 0 0.53125 0.5293l4.1191-4.1211c0.78239 0.62241 1.7593 1.0098 2.834 1.0098 2.5241 0 4.5781-2.054 4.5781-4.5781s-2.054-4.5781-4.5781-4.5781zm0 0.75c2.1188 0 3.8281 1.7093 3.8281 3.8281s-1.7093 3.8281-3.8281 3.8281c-0.95373 0-1.8127-0.35948-2.4824-0.93359a0.37504 0.37504 0 0 0-0.25781-0.22266c-0.67261-0.68931-1.0898-1.6299-1.0898-2.6719 0-2.1188 1.7113-3.8281 3.8301-3.8281z" color="#000000" color-rendering="auto" dominant-baseline="auto" fill="#fff" image-rendering="auto" shape-rendering="auto" solid-color="#000000" style="font-feature-settings:normal;font-variant-alternates:normal;font-variant-caps:normal;font-variant-ligatures:normal;font-variant-numeric:normal;font-variant-position:normal;isolation:auto;mix-blend-mode:normal;paint-order:stroke fill markers;shape-padding:0;text-decoration-color:#000000;text-decoration-line:none;text-decoration-style:solid;text-indent:0;text-orientation:mixed;text-transform:none;white-space:normal"/></svg>
