<svg version="1.1" viewBox="0 0 16 16" xmlns="http://www.w3.org/2000/svg"><g transform="matrix(.98341 0 0 .98341 .17563 .19823)" fill="#fff" shape-rendering="auto" stroke-linecap="round" stroke-width=".86776"><path d="m7.9492 2.5098a0.43392 0.43392 0 0 0-0.42578 0.43945v5.8242a0.43392 0.43392 0 1 0 0.86719 0v-5.8242a0.43392 0.43392 0 0 0-0.44141-0.43945z" color="#000000" color-rendering="auto" dominant-baseline="auto" image-rendering="auto" solid-color="#000000" style="font-feature-settings:normal;font-variant-alternates:normal;font-variant-caps:normal;font-variant-ligatures:normal;font-variant-numeric:normal;font-variant-position:normal;isolation:auto;mix-blend-mode:normal;shape-padding:0;text-decoration-color:#000000;text-decoration-line:none;text-decoration-style:solid;text-indent:0;text-orientation:mixed;text-transform:none;white-space:normal"/><path d="m3.6585 7.2293c-0.38225 0.87919-0.46741 1.8757-0.19518 2.8436 0.54442 1.9358 2.3895 3.2853 4.493 3.2853 2.1036 1e-6 3.9485-1.3499 4.493-3.2857 0.54446-1.9358-0.34489-3.9837-2.1666-4.9858a0.43392 0.4134 0 1 0-0.43382 0.71568c1.4852 0.81695 2.2067 2.478 1.7628 4.0562-0.44386 1.5782-1.9404 2.6731-3.6554 2.6731-1.715-2.3e-5 -3.2124-1.0947-3.6563-2.6729-0.44389-1.5782 0.2782-3.2387 1.7634-4.0557a0.43392 0.4134 0 1 0-0.43366-0.71559c-0.91088 0.50102-1.589 1.2625-1.9713 2.1417z" color="#000000" color-rendering="auto" dominant-baseline="auto" image-rendering="auto" solid-color="#000000" style="font-feature-settings:normal;font-variant-alternates:normal;font-variant-caps:normal;font-variant-ligatures:normal;font-variant-numeric:normal;font-variant-position:normal;isolation:auto;mix-blend-mode:normal;shape-padding:0;text-decoration-color:#000000;text-decoration-line:none;text-decoration-style:solid;text-indent:0;text-orientation:mixed;text-transform:none;white-space:normal"/></g></svg>
