<svg version="1.1" viewBox="0 0 16 16" xmlns="http://www.w3.org/2000/svg"><path d="m11.748 6.377c-0.88112 0-1.582 0.75277-1.582 1.6504v1.0469c0 0.00624 0.0019 0.011375 2e-3 0.017578h-0.8145v4.1406h4.9277v-4.1406h-0.92969c7.4e-5 -0.00621 2e-3 -0.011336 2e-3 -0.017578v-1.0469c0-0.89764-0.70093-1.6504-1.582-1.6504zm0 0.75h0.02344c0.45664 0 0.83203 0.38307 0.83203 0.90039v0.94922h-1.6875v-0.94922c0-0.51732 0.37537-0.90039 0.83203-0.90039zm-1.6445 2.7148h3.4277v2.6406h-3.4277z" color="#000000" color-rendering="auto" dominant-baseline="auto" fill="#fff" image-rendering="auto" shape-rendering="auto" solid-color="#000000" style="font-feature-settings:normal;font-variant-alternates:normal;font-variant-caps:normal;font-variant-ligatures:normal;font-variant-numeric:normal;font-variant-position:normal;isolation:auto;mix-blend-mode:normal;shape-padding:0;text-decoration-color:#000000;text-decoration-line:none;text-decoration-style:solid;text-indent:0;text-orientation:mixed;text-transform:none;white-space:normal"/><path d="m1.3027 2.6816v8.1914h7.4258v-0.75h-6.6758v-6.6914h11.459v3.2207h0.75v-3.9707z" color="#000000" color-rendering="auto" dominant-baseline="auto" fill="#fff" image-rendering="auto" shape-rendering="auto" solid-color="#000000" style="font-feature-settings:normal;font-variant-alternates:normal;font-variant-caps:normal;font-variant-ligatures:normal;font-variant-numeric:normal;font-variant-position:normal;isolation:auto;mix-blend-mode:normal;shape-padding:0;text-decoration-color:#000000;text-decoration-line:none;text-decoration-style:solid;text-indent:0;text-orientation:mixed;text-transform:none;white-space:normal"/></svg>
