<svg version="1.1" viewBox="0 0 16 16" xmlns="http://www.w3.org/2000/svg"><path d="m8 4.3496c-0.79118-4e-7 -1.5437 0.20589-2.2031 0.56836a0.42672 0.42551 0 0 0-0.083984 0.041016c-0.097851 0.056332-0.18308 0.12691-0.27539 0.18945-0.092763 0.062868-0.18751 0.12196-0.27539 0.19141-0.11537 0.091118-0.21931 0.19231-0.32422 0.29297-0.070364 0.067439-0.14296 0.13121-0.20898 0.20312-0.10675 0.11641-0.1995 0.24124-0.29297 0.36719-0.054609 0.073332-0.11183 0.14391-0.16211 0.2207-0.079738 0.12216-0.14733 0.25004-0.21484 0.37891-0.04913 0.093492-0.10173 0.18379-0.14453 0.28125-0.01204 0.027444-0.029518 0.052403-0.041016 0.080078-0.04833 0.11635-0.078642 0.23936-0.11719 0.35938-0.022762 0.070708-0.054779 0.13665-0.074219 0.20898-0.0045399 0.016893-0.0054256 0.033872-0.0097656 0.050781-0.038965 0.15212-0.060882 0.30691-0.083984 0.46289-0.014155 0.095295-0.034949 0.18993-0.042969 0.28516-0.010467 0.12544-0.0058894 0.2522-0.0058594 0.37891 6.3e-6 0.1269-0.0046806 0.25328 0.0058594 0.37891 0.00818 0.09712 0.028424 0.19383 0.042969 0.29102 0.023091 0.15429 0.045388 0.30847 0.083984 0.45898 0.00434 0.01691 0.0052256 0.033892 0.0097656 0.050782 0.019437 0.07234 0.051459 0.13828 0.074219 0.20898 0.047721 0.14855 0.095595 0.29662 0.1582 0.43945 0.042797 0.09746 0.095402 0.18776 0.14453 0.28125 0.067468 0.12891 0.13515 0.25668 0.21484 0.37891 0.049072 0.07493 0.10501 0.1432 0.1582 0.21484 0.096241 0.13025 0.19233 0.25882 0.30273 0.37891 0.054908 0.05954 0.11593 0.1115 0.17383 0.16797 0.11707 0.11452 0.23484 0.22767 0.36523 0.33008 0.071106 0.0558 0.14836 0.10277 0.22266 0.1543 0.10503 0.07287 0.20209 0.15406 0.31445 0.21875a0.42672 0.42551 0 0 0 0.082031 0.03711c0.66057 0.36401 1.414 0.57226 2.207 0.57226 0.79461 0 1.5495-0.20879 2.2109-0.57422a0.42672 0.42551 0 0 0 0.076171-0.035157c0.11466-0.06601 0.21523-0.14817 0.32227-0.22266 0.07042-0.04903 0.1434-0.09361 0.21094-0.14648 0.12962-0.1014 0.24677-0.21284 0.36328-0.32617 0.06291-0.06108 0.12811-0.1189 0.1875-0.18359 0.10341-0.11289 0.19422-0.2336 0.28516-0.35547 0.05737-0.07658 0.11729-0.15009 0.16992-0.23047 0.08258-0.12652 0.1532-0.25888 0.22266-0.39258 0.04568-0.08761 0.09463-0.17259 0.13477-0.26367 0.01265-0.028761 0.030908-0.054965 0.042968-0.083985 0.049121-0.11825 0.08013-0.2432 0.11914-0.36523 0.0221-0.06895 0.053316-0.13263 0.072266-0.20312 0.0045-0.01689 0.005365-0.033872 0.009765-0.050782 0.03596-0.14037 0.055655-0.28404 0.078125-0.42773 0.01756-0.11218 0.039779-0.22384 0.048829-0.33594 0.0097-0.12112 0.004006-0.24294 0.003906-0.36523-2.8e-5 -0.12201 0.005894-0.24439-0.003906-0.36523-0.010041-0.12308-0.036361-0.246-0.056641-0.36914-0.02085-0.12664-0.037019-0.25292-0.068359-0.37695-0.0057-0.022629-0.005599-0.045759-0.011719-0.068359-0.02296-0.08544-0.060311-0.16294-0.087891-0.24609-0.04474-0.13509-0.08742-0.2701-0.14453-0.40039-0.04282-0.097514-0.09537-0.18771-0.14453-0.28125-0.067453-0.12878-0.13523-0.25678-0.21484-0.37891-0.051571-0.078751-0.1099-0.15145-0.16602-0.22656-0.092511-0.12448-0.18553-0.24813-0.29102-0.36328-0.058785-0.063938-0.12332-0.12124-0.18555-0.18164-0.11588-0.11284-0.23247-0.22321-0.36133-0.32422-0.071307-0.055881-0.14814-0.10271-0.22266-0.1543-0.10399-0.072012-0.20133-0.15084-0.3125-0.21484a0.42672 0.42551 0 0 0-0.080078-0.039062c-0.66039-0.36374-1.4143-0.57031-2.207-0.57031zm0 0.85156c0.77007 1.05e-5 1.4892 0.24242 2.0918 0.65234 0.07097 0.048284 0.14415 0.093989 0.21094 0.14648 0.09412 0.074032 0.18094 0.15739 0.26758 0.24023 0.06008 0.05752 0.12201 0.1128 0.17774 0.17383 0.07873 0.086105 0.14819 0.17986 0.21875 0.27344 0.0501 0.066583 0.1031 0.13161 0.14844 0.20117 0.06616 0.10139 0.12332 0.20996 0.17969 0.31836 0.03611 0.069568 0.07582 0.13733 0.10742 0.20898 0.05097 0.11546 0.08944 0.23747 0.12891 0.35938 0.02398 0.07431 0.052996 0.14687 0.072266 0.22266 0.03098 0.12149 0.048016 0.2433 0.066406 0.36523 0.01188 0.079487 0.028466 0.15785 0.035156 0.23828 0.0088 0.10319 0.003806 0.20599 0.003906 0.30859-8.2e-5 0.1036 0.004994 0.20636-0.003906 0.31055-0.0058 0.069261-0.02162 0.1365-0.03125 0.20508-0.01964 0.13811-0.038439 0.27652-0.074219 0.41406-0.01417 0.05468-0.036104 0.10624-0.052734 0.16016-0.04216 0.13631-0.08616 0.27198-0.14258 0.40039-0.03446 0.07834-0.07734 0.15268-0.11719 0.22852-0.05424 0.10323-0.10872 0.20591-0.17188 0.30274-0.04346 0.06664-0.0928 0.12945-0.14062 0.19336-0.07203 0.09619-0.14398 0.1929-0.22461 0.28125-0.06085 0.06664-0.12927 0.12701-0.19531 0.18945-0.07936 0.07508-0.15857 0.151-0.24414 0.21875-0.0748 0.0591-0.15627 0.11222-0.23633 0.16602-0.59894 0.40265-1.3116 0.64062-2.0742 0.64062-0.76227-1e-5 -1.4753-0.23837-2.0742-0.64062-0.079878-0.05369-0.16169-0.10508-0.23633-0.16406-0.088367-0.06983-0.16825-0.14894-0.25-0.22656-0.063045-0.05992-0.12921-0.11788-0.1875-0.18164-0.089478-0.09785-0.16917-0.20504-0.24805-0.3125-0.03608-0.04924-0.075854-0.09565-0.10938-0.14648-0.075503-0.11436-0.14019-0.23604-0.20312-0.35938-0.030988-0.06084-0.066185-0.11923-0.09375-0.18164-0.053098-0.12011-0.094135-0.24792-0.13477-0.375-0.022-0.06911-0.04848-0.13665-0.066406-0.20703-0.028594-0.11164-0.042605-0.22388-0.060547-0.33594-0.014934-0.094362-0.035377-0.1875-0.042969-0.2832-0.0060501-0.07403-0.0023263-0.14694-0.0039063-0.2207-0.00256-0.13157-0.0058406-0.26388 0.0058594-0.39648 0.00541-0.062554 0.018781-0.12355 0.027344-0.18555 0.018909-0.13566 0.039753-0.2711 0.074219-0.40625 0.019279-0.075776 0.048269-0.14836 0.072266-0.22266 0.039458-0.1219 0.077954-0.24392 0.12891-0.35938 0.028606-0.064807 0.063407-0.12634 0.095703-0.18945 0.060916-0.11899 0.12463-0.23704 0.19727-0.34766 0.039364-0.059911 0.084046-0.11613 0.12695-0.17383 0.074658-0.10038 0.1504-0.19913 0.23438-0.29102 0.055521-0.060713 0.1179-0.11659 0.17773-0.17383 0.086605-0.082852 0.17349-0.16619 0.26758-0.24023 0.066797-0.052492 0.13997-0.098202 0.21094-0.14648 0.6024-0.40998 1.3217-0.65234 2.0918-0.65234zm-1.0234 3.2148c-0.21149 0-0.38281 0.17133-0.38281 0.38281v0.22656c0 0.21149 0.17133 0.38086 0.38281 0.38086h2.0449c0.21149 0 0.38281-0.16937 0.38281-0.38086v-0.22656c0-0.21149-0.17133-0.38281-0.38281-0.38281h-2.0449z" fill="#fff" shape-rendering="auto" stroke-linecap="round" stroke-width=".87304" style="font-feature-settings:normal;font-variant-alternates:normal;font-variant-caps:normal;font-variant-ligatures:normal;font-variant-numeric:normal;font-variant-position:normal;isolation:auto;mix-blend-mode:normal;shape-padding:0;text-decoration-color:#000000;text-decoration-line:none;text-decoration-style:solid;text-indent:0;text-orientation:mixed;text-transform:none;white-space:normal"/></svg>
