<svg version="1.1" viewBox="0 0 16 16" xmlns="http://www.w3.org/2000/svg"><path d="m7.1113 3.5078c-1.9774 0.02454-3.7283 1.4334-4.2637 3.4316-0.53539 1.9981 0.2763 4.0937 1.9766 5.1035 0.85018 0.50496 1.8176 0.67839 2.75 0.53906 0.93246-0.13941 1.8274-0.58845 2.5352-1.3262a0.40654 0.42672 15 1 0-0.56836-0.5957c-1.1541 1.2029-2.9146 1.4659-4.3008 0.64258-1.3861-0.82331-2.0459-2.5233-1.6094-4.1523 0.43652-1.6291 1.8586-2.7711 3.4707-2.791 1.5276-0.018985 2.8482 0.97953 3.3223 2.4609l-0.029297 0.0019531-0.52539-0.46289c-0.42819-0.40799-1.0229 0.26699-0.56445 0.64062l1.2773 1.125c0.00606 0.005661 0.013232 0.010315 0.019531 0.015625 0.041886 0.038245 0.091112 0.068839 0.14453 0.087891 0.00343 0.00119 0.006365 8.632e-4 0.009765 0.0019532 0.047777 0.01533 0.098298 0.021581 0.14844 0.019531 0.0033-1.694e-4 0.006466 2.452e-4 0.009765 0h0.001954c0.0013-6.77e-5 0.002606 7.87e-5 0.003906 0 0.048591-0.00396 0.096175-0.017087 0.14062-0.037109 0.01733-0.007343 0.032448-0.015641 0.048828-0.025391 0.02693-0.016364 0.051529-0.036715 0.074219-0.058594 0.01074-0.010145 0.023403-0.015893 0.033203-0.027344l1.1426-1.2949c0.10199-0.10704 0.13665-0.22523 0.125-0.33398-0.034976-0.32627-0.48539-0.5743-0.76562-0.23047l-0.44922 0.50781c-0.3858-1.4459-1.4244-2.5541-2.7383-3.0117-0.44681-0.15564-0.92557-0.23659-1.4199-0.23047z" fill="#fff" style="font-feature-settings:normal;font-variant-alternates:normal;font-variant-caps:normal;font-variant-ligatures:normal;font-variant-numeric:normal;font-variant-position:normal;isolation:auto;mix-blend-mode:normal;shape-padding:0;text-decoration-color:#000000;text-decoration-line:none;text-decoration-style:solid;text-indent:0;text-orientation:mixed;text-transform:none;white-space:normal"/></svg>
