<?xml version="1.0" encoding="UTF-8" standalone="no"?>
<!-- Created with Inkscape (http://www.inkscape.org/) -->

<svg
   xmlns:dc="http://purl.org/dc/elements/1.1/"
   xmlns:cc="http://creativecommons.org/ns#"
   xmlns:rdf="http://www.w3.org/1999/02/22-rdf-syntax-ns#"
   xmlns:svg="http://www.w3.org/2000/svg"
   xmlns="http://www.w3.org/2000/svg"
   xmlns:sodipodi="http://sodipodi.sourceforge.net/DTD/sodipodi-0.dtd"
   xmlns:inkscape="http://www.inkscape.org/namespaces/inkscape"
   id="svg2"
   version="1.1"
   inkscape:version="0.91 r13725"
   width="320"
   height="320"
   viewBox="0 0 320 320"
   sodipodi:docname="mintwelcome.svg">
  <metadata
     id="metadata8">
    <rdf:RDF>
      <cc:Work
         rdf:about="">
        <dc:format>image/svg+xml</dc:format>
        <dc:type
           rdf:resource="http://purl.org/dc/dcmitype/StillImage" />
        <dc:title></dc:title>
      </cc:Work>
    </rdf:RDF>
  </metadata>
  <defs
     id="defs6" />
  <sodipodi:namedview
     pagecolor="#ffffff"
     bordercolor="#666666"
     borderopacity="1"
     objecttolerance="10"
     gridtolerance="10"
     guidetolerance="10"
     inkscape:pageopacity="0"
     inkscape:pageshadow="2"
     inkscape:window-width="682"
     inkscape:window-height="480"
     id="namedview4"
     showgrid="false"
     inkscape:zoom="1.0429825"
     inkscape:cx="214.98325"
     inkscape:cy="231.84396"
     inkscape:window-x="0"
     inkscape:window-y="0"
     inkscape:window-maximized="0"
     inkscape:current-layer="svg2" />
  <g
     id="g4138">
    <path
       style="fill:#eaf3fa"
       d="M 0,160 0,0 l 160,0 160,0 0,160 0,160 -160,0 -160,0 0,-160 z"
       id="path4154"
       inkscape:connector-curvature="0" />
    <path
       style="fill:#d3e6f6"
       d="M 0,160 0,0 l 160,0 160,0 0,160 0,160 -160,0 -160,0 0,-160 z m 173.81978,100.37447 c 5.17367,-4.35336 7.29122,-9.52487 6.51107,-15.90146 -0.88858,-7.26284 -2.75294,-8.22595 -15.88226,-8.20459 -15.16983,0.0248 -17.46184,1.24889 -17.94748,9.58604 -0.33331,5.72191 0.0664,6.92013 3.68165,11.03773 4.78394,5.44858 7.38422,6.67188 14.40883,6.77857 3.91831,0.0595 6.21498,-0.76085 9.22819,-3.29629 z m -14.74938,-1.6605 c -3.57764,-1.43836 -7.80967,-8.33269 -7.81572,-12.7325 -0.006,-4.62435 3.08708,-5.98147 13.63433,-5.98147 7.78796,0 9.01905,0.32919 10.67335,2.85397 1.54442,2.35708 1.61215,3.69413 0.38904,7.6794 -2.30759,7.5188 -9.66217,11.08287 -16.881,8.1806 z m 16.78895,-39.75491 c 1.87109,-1.00137 2.74131,-3.11705 3.32506,-8.0839 0.53361,-4.5402 2.82602,-10.62942 7.05063,-18.7284 5.74221,-11.0083 10.03189,-24.0702 9.94162,-30.27176 -0.0361,-2.47706 -1.53352,0.87146 -6.14902,13.75 -1.23196,3.4375 -4.52648,10.46875 -7.32115,15.625 -2.79468,5.15625 -5.46783,11.7986 -5.94034,14.76079 -1.21926,7.64356 -3.86404,10.36008 -10.85349,11.1479 -7.96341,0.89758 -11.35115,-1.49738 -14.03756,-9.92389 -1.15899,-3.63539 -5.28939,-13.07855 -9.17868,-20.9848 l -7.07142,-14.375 0,-12.6731 c 0,-12.45611 0.0739,-12.77594 4.31456,-18.68034 6.58123,-9.16316 11.19541,-12.75924 18.3075,-14.26797 16.29548,-3.4569 29.13864,6.9842 36.89731,29.99641 1.52395,4.52002 0.005,-6.87183 -1.71676,-12.87843 -0.79769,-2.78225 -4.25314,-7.85946 -8.33272,-12.24353 -6.4155,-6.89436 -7.54159,-7.57989 -14.15739,-8.61855 -10.63308,-1.66937 -20.0727,0.22222 -25.68071,5.14612 -9.38008,8.23581 -13.90888,18.39284 -13.97623,31.34536 -0.0515,9.90787 2.51217,18.5409 9.66742,32.55435 4.12893,8.08649 7.11192,15.68757 7.49692,19.10327 0.93367,8.28356 3.89854,10.16428 15.57811,9.88181 5.11609,-0.12375 10.44244,-0.83534 11.83634,-1.58134 z M 115.625,161.85887 c 0,-2.23305 -0.86006,-2.48637 -8.51687,-2.5086 -9.303364,-0.027 -11.580951,0.7131 -10.540275,3.42507 0.509549,1.32786 3.006781,1.75105 9.869645,1.67252 8.29901,-0.095 9.1875,-0.34532 9.1875,-2.58899 z m 114.67081,0.84532 c 2.20393,-2.20393 0.84833,-2.64622 -9.50722,-3.10187 -9.57687,-0.42138 -11.59532,0.24239 -10.37863,3.41304 0.79245,2.0651 17.77533,1.79935 19.88585,-0.31117 z M 129.375,117.74744 c 0,-1.80046 -12.87183,-16.49744 -14.4487,-16.49744 -2.80703,0 -0.71523,4.56775 5.23969,11.4416 5.89745,6.80752 9.20901,8.6256 9.20901,5.05584 z m 78.01681,-5.35675 c 6.01719,-7.2012 7.84133,-11.14069 5.15858,-11.14069 -2.16576,0 -15.05039,14.88301 -15.05039,17.38466 0,3.32023 4.021,0.78207 9.89181,-6.24397 z M 166.25,92.395834 c 0,-8.52555 -0.38926,-11.225455 -1.5625,-10.837511 -1.01268,0.334852 -1.69313,3.739228 -1.93371,9.674684 -0.39259,9.685523 0.10666,12.516993 2.20698,12.516993 0.79102,0 1.28923,-4.387719 1.28923,-11.354166 z"
       id="path4152"
       inkscape:connector-curvature="0" />
    <path
       style="fill:#a4cdef"
       d="M 0,160 0,0 l 160,0 160,0 0,160 0,160 -160,0 -160,0 0,-160 z m 174.39536,102.31445 c 6.48649,-5.69521 8.4982,-10.27884 7.78212,-17.7313 -0.87457,-9.10174 -2.38579,-9.82771 -19.46816,-9.35235 C 146.22856,235.68942 145,236.48394 145,246.68342 c 0,4.76669 0.75817,7.19962 3.26979,10.49252 7.55462,9.90461 18.29197,12.0165 26.12557,5.13851 z m -17.31101,-7.08311 c -1.12921,-1.24778 -2.70765,-4.14629 -3.50764,-6.44114 -1.27329,-3.65254 -1.15904,-4.38854 0.91681,-5.90644 3.35929,-2.45637 17.92062,-1.72524 19.62255,0.98526 1.63204,2.59918 0.21773,8.04718 -2.89787,11.16278 -3.22723,3.22722 -11.2908,3.34106 -14.13385,0.19954 z m 19.11982,-33.9487 c 2.75677,-1.963 3.6401,-3.81554 4.32125,-9.0625 0.53174,-4.09609 3.16865,-11.15659 6.95895,-18.63305 8.39522,-16.55977 11.76968,-28.10762 10.92749,-37.3953 -1.42197,-15.68182 -13.15562,-32.18149 -24.88707,-34.99582 -7.36638,-1.76716 -19.39994,-0.85041 -24.68042,1.88022 -9.69267,5.01228 -18.06393,19.3446 -19.7413,33.79881 -0.84238,7.259 3.46642,21.99723 10.23244,35 3.21969,6.1875 6.41958,14.34375 7.11088,18.125 0.81658,4.46655 2.39797,8.07922 4.51412,10.3125 2.98249,3.14756 4.0383,3.4375 12.51789,3.4375 7.2162,0 10.02566,-0.54471 12.72577,-2.46736 z M 160.3235,215.2656 c -3.19478,-0.49789 -6.5735,-4.69559 -6.5735,-8.16686 0,-1.28974 -3.79688,-10.02397 -8.4375,-19.40937 l -8.4375,-17.06437 0,-11.27858 c 0,-10.57456 0.25076,-11.66692 4.01721,-17.5 2.20948,-3.42178 6.13888,-7.89802 8.73201,-9.9472 3.95787,-3.12763 6.07845,-3.80283 13.2089,-4.20574 7.71723,-0.43607 8.96748,-0.15247 13.66975,3.10078 7.17315,4.9627 11.58168,11.52295 14.17053,21.08697 2.16606,8.0021 2.157,8.30786 -0.51958,17.51956 -1.49826,5.15642 -5.22861,14.12391 -8.28967,19.92776 -3.06106,5.80384 -5.92776,12.81745 -6.37044,15.5858 -0.44269,2.76835 -1.45305,5.9198 -2.24526,7.00321 -1.60733,2.19814 -8.63026,4.01734 -12.92495,3.34804 z m -42.86996,-51.42879 c 2.23547,-4.17701 -1.4285,-6.33681 -10.75,-6.33681 -8.431572,0 -12.95354,1.45535 -12.95354,4.16898 0,3.44066 3.16295,4.58102 12.70602,4.58102 8.31032,0 9.89174,-0.34701 10.99752,-2.41319 z m 115.53937,-0.47252 C 235.3686,159.47831 230.92581,157.5 219.8232,157.5 c -7.88209,0 -9.92491,0.40374 -10.9051,2.15522 -0.77591,1.38649 -0.77329,2.96398 0.007,4.42265 1.05251,1.96664 2.63769,2.21965 11.94942,1.90728 8.76784,-0.29412 10.9893,-0.77458 12.11802,-2.62086 z M 131.03297,118.9846 c 0.57964,-4.07036 -12.79953,-19.267677 -16.49595,-18.73765 -4.62556,0.66326 -3.55897,3.96609 4.29324,13.29451 7.88385,9.36602 11.41948,10.94312 12.20271,5.44314 z m 69.44255,2.77479 c 3.34098,-1.28205 16.10684,-17.84029 15.32503,-19.87766 -1.41064,-3.676073 -5.27039,-1.83229 -12.35878,5.90374 -6.53221,7.12904 -8.59886,11.64077 -6.35843,13.8812 1.01261,1.01261 0.99616,1.01216 3.39218,0.0927 z M 166.875,92.482881 c 0,-12.274547 -0.15894,-13.107881 -2.5,-13.107881 -2.29754,0 -2.52934,0.9541 -2.8623,11.781229 -0.40891,13.296971 0.0521,15.457171 3.17102,14.856531 1.92223,-0.37018 2.19128,-2.03139 2.19128,-13.529879 z"
       id="path4150"
       inkscape:connector-curvature="0" />
    <path
       style="fill:#81bbea"
       d="M 0.57675,318.4375 C 0.24961659,317.57812 0.12664554,245.71875 0.30348099,158.75 L 0.625,0.625 159.29825,0.30769009 C 285.41135,0.055493 318.17571,0.31199623 318.96661,1.5576901 320.11477,3.3660738 320.38527,315.04154 319.24126,318.02276 318.55491,319.81137 303.34697,320 159.82704,320 34.05319,320 1.0482671,319.67617 0.57675,318.4375 Z m 175.06861,-54.87305 c 5.99503,-5.2637 8.10464,-9.71057 8.10464,-17.0838 0,-4.32248 -0.76794,-7.11978 -2.59073,-9.43708 -2.52983,-3.21617 -2.92775,-3.29357 -16.93181,-3.29357 -13.55969,0 -14.50827,0.16717 -17.40927,3.06819 -2.48765,2.48763 -3.06819,4.32486 -3.06819,9.70982 0,12.14565 8.78216,20.95864 20.894,20.96732 5.53276,0.004 7.19714,-0.59073 11.00136,-3.93088 z m -17.36301,-9.21067 c -3.34874,-3.34873 -3.99891,-8.23835 -1.35276,-10.17327 3.26725,-2.38907 13.60051,-2.1791 15.67332,0.31849 1.39653,1.68273 1.27243,2.72101 -0.78445,6.5625 -2.02965,3.79065 -3.21097,4.62764 -6.97549,4.94219 -2.92996,0.24482 -5.24913,-0.33841 -6.56062,-1.64991 z m 17.11597,-29.71532 c 4.15417,-2.7219 5.31385,-5.04786 6.30675,-12.64932 0.46718,-3.57654 3.04638,-10.35583 6.18353,-16.25306 2.96012,-5.56447 6.97032,-14.47199 8.91156,-19.79453 4.70997,-12.91391 4.19341,-23.8759 -1.69957,-36.06758 -5.18465,-10.72621 -11.33685,-16.64377 -20.6266,-19.83991 -8.93266,-3.07329 -10.40017,-3.105 -19.93133,-0.43069 -13.49112,3.78542 -22.77042,15.86285 -27.31523,35.55204 -1.20228,5.20854 -0.95483,7.0717 2.24596,16.91134 1.9784,6.08186 6.04521,15.558 9.03735,21.05809 3.54646,6.51903 5.81494,12.5558 6.51659,17.34171 0.99124,6.76119 3.05017,10.54189 8.28553,15.21441 2.41875,2.1587 18.34733,1.40684 22.08546,-1.0425 z m -18.45245,-13.6666 C 155.87565,209.4439 155,207.26459 155,206.12896 c 0,-1.13562 -3.77583,-9.58859 -8.39074,-18.78436 -7.61499,-15.17383 -8.43666,-17.55918 -8.88756,-25.80075 -0.43376,-7.92834 -0.0666,-9.96054 2.89246,-16.0086 2.22876,-4.55544 5.52438,-8.61515 9.62481,-11.85635 5.6251,-4.44639 6.94038,-4.9289 13.43573,-4.9289 5.9792,0 8.05806,0.62144 12.25895,3.66454 10.74401,7.78292 15.02646,17.7474 13.6372,31.73125 -0.58349,5.87317 -2.4088,11.03103 -7.60128,21.47921 -3.75836,7.5625 -7.39481,16.26561 -8.08101,19.34024 -1.48464,6.65218 -3.98664,8.78476 -10.3066,8.78476 -3.4297,0 -5.21316,-0.74663 -6.63609,-2.77814 z m -38.89175,-45 c 2.45735,-3.50836 2.45314,-5.28603 -0.0184,-7.75757 -2.74322,-2.74323 -20.098366,-2.75653 -24.007581,-0.0184 -3.480591,2.4379 -3.49293,4.00713 -0.06024,7.66107 2.38865,2.54259 3.894299,2.89306 12.429119,2.89306 8.61829,0 9.93023,-0.31267 11.65711,-2.77814 z m 113.73804,1.33844 c 6.00903,-2.7379 5.53314,-9.03274 -0.77832,-10.29504 -7.82239,-1.56447 -20.73802,-0.86251 -22.84199,1.24145 -2.03117,2.03118 -1.66334,5.74656 0.88419,8.93079 1.60532,2.00654 18.40264,2.09727 22.73612,0.12275 z m -99.87019,-46.15114 c 1.90178,-3.67762 1.8545,-4.00961 -1.11231,-7.8125 C 124.63277,105.42908 116.60588,97.5 114.76753,97.5 c -1.03403,0 -2.89212,1.118316 -4.12909,2.485147 -2.17662,2.405143 -2.14134,2.640543 1.09592,7.311913 4.42785,6.38938 15.21639,17.70294 16.88143,17.70294 0.72601,0 2.21378,-1.72838 3.30618,-3.84084 z m 70.59712,0.98859 c 4.67627,-3.75948 14.98091,-16.954 14.98091,-19.18222 0,-2.86745 -2.24839,-5.46553 -4.72988,-5.46553 -1.59536,0 -15.92906,14.38539 -18.08932,18.15456 -0.51931,0.90608 -0.39261,3.09823 0.28156,4.87143 1.31356,3.45493 4.44151,4.12623 7.55673,1.62176 z m -35.06307,-14.56557 c 0.71169,-1.32981 1.29398,-7.835535 1.29398,-14.45718 0,-15.932496 -2.03743,-19.83757 -7.5,-14.375 -2.124,2.123995 -2.5,4.166666 -2.5,13.581426 0,9.318034 0.41226,11.605534 2.59072,14.375004 3.08702,3.9245 4.38423,4.11027 6.1153,0.87575 z"
       id="path4148"
       inkscape:connector-curvature="0" />
    <path
       style="fill:#5ea8e4"
       d="M 1.406058,318.40606 C 0.37956445,317.37956 0,274.59177 0,159.90305 0,29.136536 0.28432938,2.5701394 1.6964131,1.398214 2.9388861,0.36705293 45.502125,0.07523311 160.75891,0.30765809 L 318.125,0.625 l 0,159.375 0,159.375 -157.65644,0.21856 C 45.104421,319.75349 2.4349322,319.43494 1.406058,318.40606 Z M 175.87286,265.12479 c 5.88339,-4.78249 10.83643,-15.16744 9.71559,-20.37047 -1.64839,-7.65192 -4.06086,-10.8208 -9.47218,-12.44207 l -5.11917,-1.53374 3.18322,-2.31881 c 4.63113,-3.37354 8.31968,-9.9928 8.31968,-14.93 0,-2.54235 2.05546,-8.35832 5.02821,-14.22746 11.39155,-22.49043 13.09714,-27.69169 13.09284,-39.92724 -0.004,-10.31084 -0.35386,-11.92827 -4.19565,-19.375 -5.55138,-10.76052 -12.85834,-18.19466 -20.31905,-20.67271 -8.2907,-2.75373 -9.42691,-4.44794 -7.58972,-11.317 1.89978,-7.10307 1.92017,-25.683994 0.0328,-29.826474 -1.86682,-4.097216 -5.18328,-4.054183 -8.45863,0.109763 -2.15384,2.738116 -2.59075,5.063786 -2.59075,13.790142 0,6.552564 0.71216,12.201009 1.89534,15.032749 2.75425,6.59185 1.51457,8.66746 -7.03953,11.78644 -10.68304,3.89523 -18.43182,12.81725 -23.65047,27.23136 -5.42938,14.99614 -5.65804,16.79167 -2.75219,21.61185 1.369,2.27088 3.45094,7.09298 4.62652,10.71575 1.17559,3.62279 4.37562,10.65404 7.11115,15.625 2.97222,5.40104 5.60697,12.37759 6.54735,17.33667 1.20373,6.34781 2.64173,9.58002 6.11734,13.75 l 4.54369,5.45146 -5.2621,2.5081 c -4.67778,2.2296 -5.38556,3.14566 -6.37398,8.24951 -0.61153,3.15778 -0.7172,7.84525 -0.23481,10.41661 1.08658,5.79194 9.51368,15.2764 14.95006,16.82587 5.79664,1.65213 13.38109,0.16856 17.89449,-3.5003 z M 159.05604,253.4375 c -2.42454,-3.0305 -2.90039,-6.80308 -1.05164,-8.33741 0.99596,-0.82658 4.24304,-1.32786 7.21572,-1.11398 4.57232,0.32899 5.46849,0.838 5.81783,3.30448 0.82306,5.81116 -8.44611,10.5664 -11.98191,6.14691 z m 1.89603,-23.07158 c 1.55489,-0.29898 3.80489,-0.28763 5,0.0252 1.19512,0.31287 -0.0771,0.5575 -2.82707,0.54363 -2.75,-0.0139 -3.72781,-0.26986 -2.17293,-0.56885 z m -1.88957,-18.51846 c -1.6142,-1.1417 -2.8125,-3.29816 -2.8125,-5.06142 0,-1.68971 -3.79108,-10.5172 -8.4246,-19.61663 -8.04436,-15.79767 -8.44206,-16.99576 -8.81131,-26.54441 -0.3663,-9.472 -0.16513,-10.36256 3.8101,-16.86666 5.39938,-8.83425 13.96596,-14.43633 21.80987,-14.26244 6.56284,0.14549 13.85169,4.94352 19.63223,12.92332 3.67715,5.07615 3.85871,5.89449 3.85871,17.39129 l 0,12.06449 -6.6012,12.44073 c -3.63065,6.84239 -7.45375,15.37341 -8.49576,18.95779 -1.042,3.58439 -2.57461,7.08147 -3.40579,7.77128 -2.97272,2.46714 -7.69851,2.82635 -10.55975,0.80266 z M 116.819,169.22352 c 1.1129,-0.42706 2.89854,-2.46868 3.96807,-4.53693 1.83037,-3.53955 1.78872,-3.91618 -0.70894,-6.41103 -2.32385,-2.32122 -4.10064,-2.65056 -14.30008,-2.65056 C 93.139221,155.625 90,156.88091 90,161.93732 90,167.20592 95.43774,170 105.69134,170 c 5.00731,0 10.01475,-0.34941 11.12766,-0.77648 z m 117.61281,-2.29171 c 3.464,-3.46399 3.94941,-7.14435 1.23897,-9.39382 -2.12283,-1.76179 -20.12974,-3.25853 -24.87479,-2.0676 -4.40644,1.10595 -6.15531,4.67176 -4.46796,9.10982 1.88237,4.95103 3.04513,5.3792 14.66628,5.40065 9.35619,0.0172 10.6691,-0.28064 13.4375,-3.04905 z M 132.8125,122.3908 c 1.20312,-2.11387 2.1875,-4.35674 2.1875,-4.98417 0,-0.62742 -3.96849,-5.64433 -8.81886,-11.1487 -9.73634,-11.049109 -13.25381,-12.479899 -16.92109,-6.88293 -1.89703,2.89525 -1.89676,3.35518 0.004,6.2558 4.67715,7.13822 17.25556,20.61864 19.23216,20.6113 1.17095,-0.004 3.11336,-1.73743 4.31649,-3.8513 z m 67.75018,2.41015 c 4.68649,-2.13531 18.18732,-18.9624 18.18732,-22.66822 0,-3.93409 -2.92147,-6.361695 -6.55764,-5.449076 -2.40698,0.604115 -16.04033,14.475736 -18.86905,19.198826 -0.85729,1.43141 2.09837,10.36752 3.42909,10.36752 0.34649,0 2.06111,-0.65207 3.81028,-1.44905 z"
       id="path4146"
       inkscape:connector-curvature="0" />
    <path
       style="fill:#2c8edc"
       d="M 1.8867834,317.344 C 1.5266095,316.39855 1.3766144,245.03125 1.5534609,158.75 L 1.875,1.875 159.29824,1.5576528 c 125.11305,-0.2522136 157.62747,0.00434 158.41835,1.25 1.30323,2.0526176 1.29962,312.3377072 -0.004,314.3906072 -0.79588,1.25365 -29.55022,1.47818 -141.54336,1.10522 C 98.870061,318.04606 34.78125,317.74915 33.75,317.64366 c -1.03125,-0.1055 -8.475005,0.17073 -16.541677,0.61378 C 5.361825,318.9081 2.4157251,318.73246 1.8867834,317.344 Z M 177.65519,265.51807 c 11.08717,-10.72852 12.95836,-22.77201 4.83952,-31.14853 l -4.10868,-4.23909 2.68198,-6.23445 c 1.47509,-3.42895 2.68199,-7.74734 2.68199,-9.59643 0,-3.45686 5.13717,-16.24897 8.75448,-21.79957 2.21644,-3.40105 9.99552,-22.80823 9.99552,-24.93675 0,-2.05474 1.74311,-1.54834 4.08496,1.18675 1.87594,2.19094 3.68743,2.5 14.6528,2.5 10.84558,0 12.84525,-0.33301 15.01224,-2.5 3.04812,-3.04813 3.33144,-10.25386 0.49567,-12.60733 -3.1376,-2.60397 -24.32588,-3.15935 -29.12848,-0.76348 -4.38163,2.18584 -4.56725,2.03291 -5.78263,-4.76372 -1.37741,-7.70273 -8.49382,-21.20367 -13.48779,-25.58843 -2.4746,-2.17272 -7.47432,-5.45827 -11.11052,-7.30122 L 170.625,114.375 171.08355,98.121903 c 0.60748,-21.531453 -1.67094,-27.716392 -9.15255,-24.845427 -4.70346,1.804888 -5.99299,7.594795 -5.51311,24.753598 l 0.45711,16.344926 -7.161,3.80325 c -3.93856,2.09179 -8.9063,5.46679 -11.03944,7.5 -3.84628,3.66613 -12.55646,20.4047 -14.1898,27.26895 -0.75204,3.16049 -1.23956,3.4692 -4.22988,2.67841 -5.66752,-1.49876 -17.75095,-2.16006 -23.557805,-1.28927 -7.133644,1.06976 -9.840079,4.69609 -7.823077,10.48206 0.763928,2.1914 2.417816,4.535 3.675305,5.20799 3.24467,1.73649 22.933267,1.51967 26.919217,-0.29644 3.04811,-1.38881 3.58969,-1.20209 6.27269,2.16271 1.6151,2.02553 3.30717,5.38143 3.76015,7.45755 0.45299,2.07614 3.53573,8.91848 6.85055,15.20522 3.89623,7.38938 6.33579,13.79717 6.90055,18.125 0.48278,3.69951 2.18758,8.64189 3.81058,11.04723 1.61534,2.39398 2.93696,4.79253 2.93696,5.33013 0,0.5376 -1.72859,2.52195 -3.84131,4.40967 -3.25954,2.91239 -3.94505,4.57621 -4.52625,10.98572 -0.775,8.54688 1.60896,14.78784 7.94059,20.78765 5.01481,4.752 8.82542,6.04711 16.41375,5.57857 5.72861,-0.35372 7.28719,-1.06184 11.66841,-5.30133 z m -18.25403,-14.18566 c -1.18346,-3.72872 0.18306,-5.08241 5.13064,-5.08241 4.04537,0 4.35369,0.2657 3.98872,3.4375 -0.32703,2.84222 -1.08052,3.50395 -4.35118,3.82123 -3.08119,0.2989 -4.13528,-0.18222 -4.76818,-2.17632 z m 0.0631,-40.7967 c -1.08037,-1.08035 -1.96429,-3.13562 -1.96429,-4.56726 0,-1.43165 -4.0287,-10.81083 -8.95265,-20.84261 -7.71169,-15.71134 -8.96261,-19.19339 -9.02445,-25.12024 -0.14474,-13.87205 12.44165,-28.7556 24.31742,-28.7556 6.22978,0 14.41663,4.97319 19.26112,11.70037 3.47373,4.82373 3.727,5.9375 3.73481,16.42463 0.007,10.53071 -0.29169,11.84281 -4.68469,20.52192 -2.58118,5.09957 -5.15461,9.88082 -5.71871,10.625 -0.56411,0.74419 -2.31695,5.00933 -3.89519,9.47808 -3.99087,11.30001 -8.59702,15.01206 -13.07337,10.53571 z m -27.64944,-83.77913 c 1.09639,-1.09639 2.80911,-3.57079 3.80606,-5.49867 2.08585,-4.03359 1.94537,-4.27722 -10.99669,-19.07041 -4.68286,-5.35266 -8.33344,-8.4375 -9.98489,-8.4375 -3.53359,0 -8.38933,4.791295 -8.38933,8.278 0,3.87328 19.19796,26.722 22.45237,26.722 0.61549,0 2.0161,-0.89704 3.11248,-1.99343 z m 72.09075,-2.07529 c 1.80432,-1.54346 6.1637,-6.35112 9.6875,-10.68368 7.16232,-8.80621 8.35814,-14.344295 3.95726,-18.327027 -3.79181,-3.431549 -7.43321,-1.640912 -15.68936,7.715157 -11.77403,13.34262 -11.14826,12.10577 -9.35863,18.49773 1.35207,4.82912 2.03168,5.61566 4.84758,5.61032 1.80127,-0.004 4.75133,-1.26904 6.55565,-2.8125 z"
       id="path4144"
       inkscape:connector-curvature="0" />
    <path
       style="fill:#1782d8"
       d="M 3.125,316.54336 C 2.3032778,315.93965 1.875,262.30442 1.875,160 1.875,57.695572 2.3032778,4.0603499 3.125,3.456641 5.1189995,1.991675 316.24743,2.2831498 316.26483,3.75 c 0.009,0.6875 0.0149,71 0.0149,156.25 0,85.25 -0.006,155.5625 -0.0149,156.25 -0.01,0.82567 -46.73125,1.25 -137.63447,1.25 -125.254178,0 -137.931164,-0.18403 -141.086801,-2.04811 -3.212174,-1.89748 -3.909248,-1.89748 -9.478039,0 -6.08857,2.07458 -22.6177871,2.79795 -24.94052,1.09147 z m 172.44419,-46.72277 c 1.87347,-1.47369 5.60558,-5.4617 8.29356,-8.86225 4.44804,-5.62719 4.88725,-6.85415 4.88725,-13.65277 0,-7.8293 -1.04627,-10.85184 -5.19126,-14.99683 -1.53549,-1.53549 -2.18704,-3.30974 -1.68662,-4.59289 0.44848,-1.14996 1.65595,-5.46585 2.68327,-9.59085 2.61786,-10.51154 5.2333,-17.29769 10.8396,-28.125 2.66986,-5.15625 5.55116,-11.625 6.40286,-14.375 1.04566,-3.37622 2.12152,-4.80329 3.31286,-4.39426 0.97037,0.33316 8.05893,0.78852 15.75237,1.01192 12.75877,0.37049 14.21433,0.17993 16.5625,-2.16824 3.05151,-3.05151 3.48071,-10.85841 0.79843,-14.52301 -1.60104,-2.18737 -3.38432,-2.42641 -18.10192,-2.42641 l -16.32594,0 -1.34592,-6.48655 c -0.74027,-3.5676 -2.43816,-7.87506 -3.77308,-9.57216 -3.47217,-4.41415 -3.01316,-6.679 1.66666,-8.22349 4.2971,-1.41817 18.66654,-17.32708 20.85904,-23.09378 1.52982,-4.02375 -0.59816,-11.587444 -3.7319,-13.264564 -1.3308,-0.712229 -3.83583,-0.939525 -5.5667,-0.505102 -3.5946,0.902187 -21.58278,20.878116 -22.69976,25.208146 -0.39903,1.54688 -1.39784,2.8125 -2.21957,2.8125 -2.64006,0 -14.4806,-6.42286 -14.60846,-7.92431 -0.0679,-0.79788 -0.20856,-9.06755 -0.3125,-18.377046 -0.15494,-13.878382 -0.58806,-17.536108 -2.40527,-20.3125 -2.87927,-4.399002 -6.44895,-4.288195 -11.08112,0.34397 l -3.73011,3.730112 0.26248,16.903205 c 0.2988,19.242799 -0.0396,20.079649 -9.87863,24.431939 -6.80602,3.01062 -6.48131,3.02161 -6.48131,-0.21924 0,-2.40192 -4.92795,-8.68869 -17.74551,-22.63863 -5.04478,-5.490457 -8.6179,-5.937726 -12.93631,-1.619319 -4.0646,4.064607 -4.02313,9.764299 0.10825,14.876369 C 119.57691,123.30127 126.2172,130 128.80039,130 c 3.24179,0 3.10847,1.18867 -1.16239,10.36463 -1.9866,4.26821 -3.81606,8.85228 -4.06546,10.18684 -0.4196,2.24532 -1.63297,2.43195 -16.25289,2.5 -13.717685,0.0639 -16.146648,0.38728 -18.434546,2.45477 -3.780959,3.41668 -3.509922,9.98257 0.580946,14.07345 3.178391,3.17838 3.400101,3.20992 18.93343,2.6928 l 15.71738,-0.52327 3.01466,6.93789 c 4.31052,9.92016 9.39615,20.16054 11.90108,23.96385 1.18667,1.80179 2.52387,6.58304 2.97154,10.625 0.44767,4.04198 1.93653,9.21483 3.30858,11.49524 l 2.49463,4.1462 -3.44016,3.59076 c -2.88515,3.01144 -3.53939,4.97743 -4.05513,12.18551 -0.69139,9.66298 0.91705,14.13642 7.66909,21.32955 5.08875,5.42118 7.36694,6.30249 16.53777,6.39754 6.00167,0.0623 8.37577,-0.49642 11.05027,-2.60017 z M 162.08334,251.66666 C 160.4986,250.08192 161.2597,248.75 163.75,248.75 c 1.38889,0 2.5,0.83334 2.5,1.875 0,1.90301 -2.64425,2.56407 -4.16666,1.04166 z m -1.2808,-41.89222 c -1.1289,-0.63177 -2.05428,-2.66759 -2.05639,-4.52405 -0.004,-3.28677 -6.10304,-16.6792 -10.37174,-22.77363 -1.16842,-1.66816 -2.12441,-3.90057 -2.12441,-4.96091 0,-1.06033 -1.22626,-4.16954 -2.72504,-6.90936 -3.86206,-7.06003 -3.61406,-15.81703 0.65768,-23.22267 1.82141,-3.15765 4.29731,-6.57665 5.502,-7.59777 3.90217,-3.30758 11.64413,-7.28605 14.17836,-7.28605 4.82941,0 14.36486,5.98717 18.08497,11.35531 3.33588,4.81366 3.67703,6.25281 3.67703,15.51165 0,8.77363 -0.51464,11.24428 -3.66749,17.60688 -2.01711,4.07063 -4.57092,8.80741 -5.67512,10.52616 -1.95168,3.03787 -6.55285,14.1455 -8.09936,19.55254 -0.88367,3.08956 -4.40377,4.38775 -7.38049,2.7219 z"
       id="path4142"
       inkscape:connector-curvature="0" />
    <path
       style="fill:#0076d5"
       d="M 3.75,159.99514 3.75,3.7402743 159.6875,4.0576371 315.625,4.375 l 0,155.625 0,155.625 -137.76559,0.31797 c -136.750368,0.31564 -137.775471,0.29952 -139.10648,-2.1875 -1.76497,-3.29787 -8.152548,-3.30053 -13.12793,-0.005 -2.872145,1.90215 -5.871483,2.48545 -12.8125,2.49176 l -9.0625,0.008 0,-156.25486 z m 178.11561,105.68652 c 6.39741,-6.58917 7.98032,-9.05266 8.63416,-13.4375 1.10537,-7.41271 -0.88682,-16.78946 -4.3504,-20.47626 -2.84852,-3.03213 -2.86305,-3.18749 -0.89847,-9.61243 1.09827,-3.59176 3.19261,-10.55133 4.65409,-15.46573 1.46146,-4.91439 3.48697,-9.62389 4.50111,-10.46555 1.01415,-0.84167 1.8439,-2.2214 1.8439,-3.06608 0,-0.84466 1.34124,-4.05829 2.98052,-7.14137 1.63931,-3.08309 3.33977,-7.24499 3.77882,-9.24868 l 0.79829,-3.64306 16.70925,0.4068 c 16.23547,0.39527 16.7663,0.32536 18.72118,-2.46563 2.25245,-3.21582 2.6822,-12.47812 0.74675,-16.09456 -1.5952,-2.98065 -6.04148,-3.79277 -22.45151,-4.10084 l -13.0917,-0.24577 -0.95662,-5.61128 c -0.52614,-3.0862 -2.11708,-7.18088 -3.53542,-9.09928 l -2.5788,-3.488 4.12713,-1.76122 c 4.38979,-1.87331 19.01633,-18.56723 21.12329,-24.10894 1.40079,-3.68437 0.47633,-9.600251 -2.14769,-13.74378 C 219.115,90.66737 217.51506,90 213.73082,90 c -4.02813,0 -5.61003,0.751605 -8.40868,3.995203 -1.89593,2.197361 -5.45654,6.275487 -7.91248,9.062497 -2.45592,2.78702 -6.03831,7.17668 -7.96085,9.7548 -4.18201,5.60807 -6.84396,5.86282 -12.10864,1.15883 l -3.94926,-3.52866 -0.13295,-17.464421 c -0.11012,-14.461853 -0.514,-18.045855 -2.34927,-20.846334 -2.7139,-4.141186 -9.1132,-4.610071 -13.58272,-0.995225 -2.82353,2.283619 -2.96855,3.187822 -3.35788,20.9375 -0.44037,20.07596 -0.81293,21.23001 -8.06435,24.97987 -3.59494,1.85901 -5.8895,1.39788 -5.92303,-1.19033 -0.01,-0.8188 -2.73846,-4.46019 -6.0619,-8.09196 -3.32344,-3.63178 -8.22752,-9.116156 -10.89796,-12.187503 C 118.96425,90.91865 117.43036,90 113.69667,90 c -6.82601,0 -9.00558,2.302615 -9.58414,10.12518 l -0.49921,6.74982 10.73123,12.1875 c 5.90217,6.70313 11.55792,12.1875 12.56834,12.1875 2.72225,0 2.22315,3.72742 -1.25528,9.375 -1.69377,2.75 -3.09714,6.23242 -3.1186,7.73872 -0.0516,3.62394 -1.61796,4.42458 -5.65402,2.89008 -5.10384,-1.94048 -26.296003,0.3257 -29.411408,3.14511 -3.475901,3.14564 -3.459881,13.36479 0.02642,16.85109 2.24224,2.24224 4.166666,2.5 18.66488,2.5 l 16.16488,0 2.44326,3.4375 c 1.34379,1.89062 3.02182,5.53802 3.72893,8.10535 0.70713,2.56731 2.45846,6.15879 3.89186,7.98106 1.4334,1.82228 2.60619,4.28651 2.60619,5.47609 0,1.18957 1.19882,3.68691 2.66405,5.54965 1.55729,1.97976 2.87927,5.81477 3.18211,9.23107 0.28493,3.21436 1.10649,7.83728 1.82568,10.27318 1.10035,3.72686 0.88695,5.23595 -1.34622,9.52037 -6.17553,11.84804 -4.16988,23.69138 5.73155,33.84465 6.01667,6.16969 6.5439,6.362 17.77137,6.48239 l 9.20354,0.0986 7.83353,-8.06834 z M 161.5625,209.0867 c -0.85938,-0.29978 -1.56424,-2.32629 -1.56635,-4.50336 -0.004,-3.85172 -6.90474,-19.171 -10.45171,-23.20141 -0.97142,-1.10382 -2.18073,-3.95331 -2.68737,-6.33222 -0.50662,-2.37891 -2.04205,-6.47578 -3.41203,-9.10416 -3.04305,-5.83824 -2.51497,-9.12725 3.06513,-19.08989 3.8382,-6.85268 4.77549,-7.68341 11.16527,-9.8959 6.9018,-2.38977 7.03798,-2.38952 12.91666,0.023 4.04087,1.65834 7.19546,4.16955 9.86211,7.85075 3.52434,4.86522 3.92079,6.3164 3.92079,14.35198 0,9.15539 -0.0526,9.30566 -9.91335,28.31448 -3.42926,6.61068 -6.76499,14.51122 -7.46251,17.67463 -0.75448,3.4217 -2.74214,4.85197 -5.43664,3.91208 z"
       id="path4140"
       inkscape:connector-curvature="0" />
  </g>
</svg>
