<?xml version="1.0" encoding="UTF-8" standalone="no"?>
<!-- Created with Inkscape (http://www.inkscape.org/) -->

<svg
   xmlns:dc="http://purl.org/dc/elements/1.1/"
   xmlns:cc="http://creativecommons.org/ns#"
   xmlns:rdf="http://www.w3.org/1999/02/22-rdf-syntax-ns#"
   xmlns:svg="http://www.w3.org/2000/svg"
   xmlns="http://www.w3.org/2000/svg"
   xmlns:sodipodi="http://sodipodi.sourceforge.net/DTD/sodipodi-0.dtd"
   xmlns:inkscape="http://www.inkscape.org/namespaces/inkscape"
   id="svg2"
   version="1.1"
   inkscape:version="0.91 r13725"
   width="320"
   height="320"
   viewBox="0 0 320 320"
   sodipodi:docname="org.gnome.Maps.svg">
  <metadata
     id="metadata8">
    <rdf:RDF>
      <cc:Work
         rdf:about="">
        <dc:format>image/svg+xml</dc:format>
        <dc:type
           rdf:resource="http://purl.org/dc/dcmitype/StillImage" />
        <dc:title></dc:title>
      </cc:Work>
    </rdf:RDF>
  </metadata>
  <defs
     id="defs6" />
  <sodipodi:namedview
     pagecolor="#ffffff"
     bordercolor="#666666"
     borderopacity="1"
     objecttolerance="10"
     gridtolerance="10"
     guidetolerance="10"
     inkscape:pageopacity="0"
     inkscape:pageshadow="2"
     inkscape:window-width="640"
     inkscape:window-height="480"
     id="namedview4"
     showgrid="false"
     inkscape:zoom="0.7375"
     inkscape:cx="160"
     inkscape:cy="160"
     inkscape:window-x="0"
     inkscape:window-y="0"
     inkscape:window-maximized="0"
     inkscape:current-layer="svg2" />
  <g
     id="g3338">
    <path
       style="fill:#ebf6f8"
       d="M 0,160 0,0 l 160,0 160,0 0,160 0,160 -160,0 -160,0 0,-160 z"
       id="path3354"
       inkscape:connector-curvature="0" />
    <path
       style="fill:#adcdda"
       d="M 0,160 0,0 l 160,0 160,0 0,160 0,160 -160,0 -160,0 0,-160 z m 187.5,55.62211 c 0,-5.7752 -2.98516,-9.37211 -7.77814,-9.37211 -1.85842,0 -2.22186,1.11871 -2.22186,6.83926 0,6.65665 0.1085,6.86869 4.0625,7.94149 2.23437,0.60622 4.48437,0.87036 5,0.58697 0.51562,-0.2834 0.9375,-2.98142 0.9375,-5.99561 z m -95.3125,0.55633 C 96.484375,214.24154 100,211.95535 100,211.09805 100,208.89809 94.964071,198.75 93.872356,198.75 c -1.738516,0 -12.524888,13.40502 -16.95495,21.07116 -1.402965,2.42781 5.407027,0.80326 15.270094,-3.64272 z m 118.4375,0.30696 8.75,-3.41561 0.37487,-7.15989 c 0.43828,-8.37071 0.19222,-8.47514 -10.64048,-4.51561 -10.34728,3.78208 -11.8151,5.50593 -10.82694,12.71538 0.44405,3.23968 1.43402,5.86805 2.19995,5.84083 0.76594,-0.0273 5.3301,-1.58653 10.1426,-3.4651 z M 165,211.35224 c 0,-1.31878 0.29366,-3.16304 0.65259,-4.09838 1.41107,-3.67721 -2.56256,-5.97043 -14.61565,-8.4348 -6.64844,-1.35933 -13.53906,-2.8357 -15.3125,-3.2808 -3.02234,-0.75856 -3.22444,-0.5249 -3.22444,3.72803 0,5.1929 -0.49785,4.89148 17.5,10.59511 14.18685,4.49589 15,4.57671 15,1.49084 z m -49.16932,-5.18044 c 1.92139,-0.73051 3.91815,-1.99614 4.43724,-2.8125 1.27378,-2.00326 1.24776,-35.54756 -0.0282,-36.33614 -1.40085,-0.86577 -6.15807,3.4647 -13.88575,12.64014 l -6.559406,7.7883 3.295706,7.2117 c 3.98873,8.7282 6.58351,12.8367 8.10716,12.8367 0.6269,0 2.71186,-0.59769 4.63324,-1.3282 z m 125.10682,-1.46159 c 2.43702,-1.19807 2.8125,-2.35571 2.8125,-8.67144 0,-6.82078 -0.18892,-7.28877 -2.94248,-7.28877 -4.64996,0 -9.55752,5.37255 -9.55752,10.46307 0,8.49569 1.66559,9.44082 9.6875,5.49714 z M 79.022579,199.65152 C 81.873682,194.58337 96.578036,176.21197 108.4375,162.90096 115.17168,155.34255 120,148.8353 120,147.31787 c 0,-2.52133 -0.1053,-2.5364 -3.26387,-0.46682 -5.41814,3.5501 -26.536462,24.42704 -34.381174,33.98819 C 75.523894,189.16495 75,190.25566 75,196.15174 c 0,6.8157 1.448328,8.0758 4.022579,3.49979 z M 187.5,181.21906 c 0,-14.98456 -0.01,-15.0347 -3.20638,-16.25 -6.71966,-2.55481 -6.79362,-2.40546 -6.79362,13.71883 0,16.0904 0.55125,17.43441 7.1875,17.5241 2.76285,0.0374 2.8125,-0.22737 2.8125,-14.99293 z m 23.24751,8.99709 8.62749,-3.53384 0.35169,-16.08755 c 0.19342,-8.84815 0.0656,-16.83312 -0.2841,-17.74439 -0.47263,-1.23163 -3.16742,-0.38396 -10.50053,3.30307 -11.12609,5.59407 -11.40616,6.072 -11.41123,19.47156 -0.004,11.28976 1.15262,18.125 3.06773,18.125 0.8368,0 5.40383,-1.59022 10.14895,-3.53385 z m -45.55244,-5.52865 c 0.3344,-11.24962 0.0886,-22.32053 -0.50891,-22.918 -1.0112,-1.0112 -21.38452,-4.26603 -26.7139,-4.26779 -4.9936,-0.001 -5.17494,0.14306 -5.87134,4.68579 -0.60113,3.92129 0.0794,20.35826 0.87745,21.1955 0.54783,0.57466 27.8044,7.66739 29.83413,7.76346 1.79551,0.085 2.22245,-1.07244 2.38257,-6.45896 z m 74.867,-6.5946 3.68793,-1.9071 0,-18.7179 c 0,-10.29485 -0.33686,-18.7179 -0.74859,-18.7179 -2.75542,0 -9.65584,4.65098 -10.60524,7.14806 -1.30898,3.44293 -1.57757,32.00388 -0.31283,33.2686 1.33506,1.33508 4.01905,0.97388 7.97873,-1.07376 z M 104.95034,135.59561 c 3.06644,-2.52295 8.00353,-6.25782 10.97132,-8.29971 l 5.39597,-3.71253 -0.34632,-17.71357 c -0.29767,-15.225775 -0.6332,-17.768615 -2.38901,-18.105458 -1.12349,-0.215535 -11.24849,3.23186 -22.500003,7.660879 L 75.625,103.47798 l -0.335173,30.334 -0.335172,30.33399 12.210172,-11.98158 c 6.715596,-6.58987 14.719083,-14.04582 17.785513,-16.56878 z m 81.44782,17.53189 c -0.0537,-1.61856 -51.72125,-11.74305 -53.21066,-10.42688 -2.99499,2.64664 3.21844,4.26842 37.4375,9.77164 14.89207,2.395 15.83221,2.43405 15.77316,0.65524 z m 30.58635,-12.86071 c 8.87726,-4.66578 18.53111,-10.01658 21.45299,-11.89069 5.22227,-3.34959 5.3125,-3.52755 5.3125,-10.47803 l 0,-7.07057 -9.0625,8.71067 c -8.31444,7.99165 -26.34095,21.77453 -33.125,25.32702 -2.74399,1.4369 -3.85646,3.88481 -1.76549,3.88481 0.57585,0 8.31023,-3.81745 17.1875,-8.48321 z M 185,117.66982 l 0,-13.58018 -5.9375,-2.16707 c -3.26563,-1.19189 -10.71875,-4.051374 -16.5625,-6.3544 -15.13658,-5.965334 -28.53196,-9.952503 -29.65898,-8.828059 -0.53131,0.530103 -1.1349,8.443257 -1.34131,17.584789 -0.29842,13.21723 -0.005,16.99164 1.43479,18.43102 1.0084,1.0084 6.71076,2.46481 12.87527,3.28841 6.08588,0.81307 15.00273,2.24104 19.81523,3.17327 4.8125,0.93221 11.14062,1.77087 14.0625,1.86367 L 185,131.25 l 0,-13.58018 z m 25.05424,2.20837 C 222.76405,111.12254 224.97416,109.14 234.99586,97.504807 242.95402,88.26538 245.05065,85 243.02495,85 c -1.31791,0 -20.97619,7.14006 -31.14995,11.313935 -11.42694,4.688005 -12.92774,5.774765 -13.81765,10.005715 -0.82398,3.91743 0.65994,19.93035 1.84694,19.93035 0.4953,0 5.06278,-2.86731 10.14995,-6.37181 z"
       id="path3352"
       inkscape:connector-curvature="0" />
    <path
       style="fill:#93b7c9"
       d="M 0,160 0,0 l 160,0 160,0 0,160 0,160 -160,0 -160,0 0,-160 z m 87.97002,59.2396 c 15.49797,-6.12909 15.4476,-6.06323 11.223611,-14.67578 C 97.092205,200.2791 94.926542,197.5 93.689025,197.5 c -2.375095,0 -20.314201,23.38167 -19.254555,25.09622 1.000531,1.61889 0.877039,1.64952 13.53555,-3.35662 z m 100.52797,-3.25086 c 0.35626,-6.79313 0.20494,-7.19889 -3.37543,-9.05036 C 183.06094,205.87227 180.22121,205 178.81207,205 c -2.30036,0 -2.56207,0.77227 -2.56207,7.56034 0,7.33085 0.12325,7.61442 4.0625,9.34183 6.62684,2.90603 7.76611,2.08298 8.18549,-5.91343 z m 21.599,2.01175 c 4.41541,-1.78723 8.73114,-3.82485 9.59051,-4.52805 1.85751,-1.51995 2.1468,-15.46378 0.34394,-16.578 -1.27448,-0.78768 -19.38764,6.01515 -22.17474,8.32823 -1.6636,1.38067 -2.28952,13.67784 -0.77336,15.19399 1.50491,1.50493 4.87002,0.88014 13.01365,-2.41617 z M 167.243,209.375 c 0.2024,-2.75 -0.3601,-5.9409 -1.25,-7.09087 -1.61039,-2.08106 -23.86175,-7.56917 -31.618,-7.79833 -3.28998,-0.0973 -3.78995,0.34922 -4.07565,3.6392 -0.1791,2.0625 0.19947,4.5569 0.84129,5.5431 1.4559,2.23711 28.36246,11.26773 32.60936,10.94464 2.70335,-0.20567 3.17465,-0.91238 3.493,-5.23774 z m -47.62084,-3.797 c 2.80502,-1.83792 2.87784,-2.39096 2.87784,-21.85681 0,-16.53725 -0.30911,-19.97119 -1.79771,-19.97119 -1.95065,0 -21.95229,21.65519 -21.95229,23.7671 0,0.70861 2.28783,5.83865 5.08406,11.40009 4.99577,9.9361 5.15201,10.0981 8.99716,9.32907 2.1522,-0.43045 5.20812,-1.63116 6.79094,-2.66826 z m 119.64455,1.26169 c 2.51461,-1.05068 5.04628,-3.16005 5.62593,-4.6875 1.25681,-3.31187 0.24626,-15.90219 -1.27638,-15.90219 -2.85881,0 -11.3312,4.31596 -12.40272,6.31814 -1.37059,2.56097 -1.65577,14.07297 -0.3802,15.34852 1.28297,1.28299 3.44643,1.0067 8.43337,-1.07697 z M 86.25,192.20106 c 9.5259,-12.91547 17.87394,-23.08462 29.6875,-36.16378 6.30482,-6.98028 8.03173,-11.23171 5.25848,-12.94567 -2.50466,-1.54796 -20.4863,15.02222 -38.38348,35.37056 l -9.0625,10.30369 0,8.11708 c 0,5.6838 0.468392,8.10386 1.5625,8.07302 0.859375,-0.0242 5.78125,-5.76392 10.9375,-12.7549 z m 102.5,-10.982 0,-16.28093 -3.20638,-1.21907 c -1.7635,-0.67049 -4.576,-1.21906 -6.25,-1.21906 l -3.04362,0 0,16.18789 c 0,17.94958 0.33649,18.6983 8.4375,18.7741 l 4.0625,0.038 0,-16.28094 z m 29.6875,6.79062 c 2.70346,-1.74685 2.8125,-2.51888 2.8125,-19.91349 C 221.25,156.74157 220.7795,150 219.98704,150 c -2.10813,0 -21.73522,10.03656 -22.75074,11.63389 -1.53284,2.41096 -1.17714,31.42527 0.40464,33.00705 1.4547,1.4547 14.93466,-2.84356 20.79656,-6.63127 z m -51.69624,2.51308 c 1.08282,-2.82175 0.90423,-27.10885 -0.21224,-28.86408 -1.04506,-1.64299 -18.92635,-5.20741 -28.18297,-5.61793 -4.1217,-0.18279 -6.38939,0.30231 -7.16835,1.53344 -1.96551,3.10642 -1.44903,24.39452 0.63379,26.1231 2.08398,1.72955 25.9302,8.40765 30.86727,8.64432 1.97101,0.0945 3.60984,-0.63924 4.0625,-1.81885 z m 73.84133,-11.37927 4.41741,-2.10652 0.1551,-13.20598 c 0.16882,-14.37503 -0.18516,-26.72333 -0.7842,-27.35569 -0.62135,-0.65592 -10.20011,4.53247 -12.36549,6.69786 -1.64625,1.64625 -2.00541,5.08627 -2.00541,19.20779 0,9.46131 0.375,17.57739 0.83334,18.03571 1.41428,1.4143 5.13155,0.92885 9.74925,-1.27317 z M 84.686521,156.34096 c 8.442724,-9.23111 21.297519,-20.45795 31.563479,-27.56621 2.40625,-1.66611 4.78826,-3.6189 5.29336,-4.33952 1.30901,-1.86758 1.17998,-37.899659 -0.13865,-38.714612 -1.79279,-1.108009 -41.467035,13.657654 -46.09221,17.154252 -1.176474,0.88941 -1.5625,8.86396 -1.5625,32.27818 0,17.10332 0.421875,31.09665 0.9375,31.09627 0.515625,-3.6e-4 5.015185,-4.45912 9.999021,-9.90836 z m 102.086239,-0.8497 c 2.64645,-1.01554 2.51633,-3.91994 -0.21026,-4.69306 -1.20313,-0.34115 -5.5625,-1.26745 -9.6875,-2.05846 -4.125,-0.79102 -9.75,-1.93919 -12.5,-2.5515 C 158.63284,144.90969 133.06734,140 132.15188,140 c -1.4205,0 -1.77009,5.01075 -0.42733,6.12514 0.80656,0.66938 6.79536,2.14361 13.30846,3.27606 11.64629,2.02499 37.29163,6.44765 38.92725,6.71319 0.4594,0.0746 1.72503,-0.20581 2.8125,-0.62313 z m 15.16474,-5.41035 c 0.65313,-0.643 7.09375,-4.24357 14.3125,-8.00127 7.21875,-3.7577 16.5,-8.73768 20.625,-11.06659 l 7.5,-4.23441 0.36961,-8.38932 c 0.47231,-10.72036 -1.01281,-10.8811 -9.95224,-1.07711 -6.49132,7.11912 -23.061,20.17787 -32.48426,25.60122 -4.35935,2.50892 -6.70215,6.02586 -5.08882,7.63919 1.06496,1.06496 3.39383,0.83213 4.71821,-0.47171 z M 186.25,118.14432 c 0,-9.80626 -0.4749,-14.44779 -1.5625,-15.27128 -1.77711,-1.34556 -13.28331,-5.698024 -35.8836,-13.573724 -11.45493,-3.991785 -15.9984,-5.071565 -17.1875,-4.084695 -2.33285,1.93609 -2.27853,34.652049 0.0629,37.854079 1.32775,1.81581 6.88788,3.13171 26.5625,6.28647 13.68578,2.19448 25.58637,3.73963 26.44574,3.43365 1.12468,-0.40041 1.5625,-4.50396 1.5625,-14.6445 z m 24.57046,2.79318 c 10.24038,-6.85422 18.26151,-14.25639 28.25243,-26.072266 7.09582,-8.391958 7.77403,-11.79712 2.12464,-10.667239 -6.78723,1.357445 -41.77683,15.850175 -43.38503,17.970125 -1.61341,2.12681 -2.21721,19.67127 -0.80376,23.35464 1.20076,3.12913 3.35443,2.41414 13.81172,-4.58526 z"
       id="path3350"
       inkscape:connector-curvature="0" />
    <path
       style="fill:#6390a8"
       d="M 0,160 0,0 l 160,0 160,0 0,160 0,160 -160,0 -160,0 0,-160 z m 87.5,60.47759 c 6.53125,-2.49145 12.88168,-5.48419 14.11208,-6.65055 2.14333,-2.03178 2.0764,-2.44446 -1.59729,-9.84884 -2.693525,-5.42884 -4.543604,-7.7282 -6.218137,-7.7282 -1.559055,0 -5.65545,4.34317 -11.840215,12.55352 -9.478032,12.58219 -10.170442,13.8158 -8.623104,15.36314 1.234217,1.23423 1.316827,1.21271 14.166666,-3.68907 z m 101.74126,2.54517 C 189.65857,221.93529 190,218.292 190,214.92659 c 0,-5.13251 -0.49919,-6.44604 -3.0965,-8.14787 -1.70308,-1.1159 -4.93745,-2.11323 -7.1875,-2.21631 l -4.091,-0.18741 0,8.125 c 0,8.03609 0.0479,8.14891 4.375,10.31056 5.4286,2.71189 8.25713,2.77684 9.24126,0.2122 z m 21.65703,-4.38132 c 5.34235,-2.1222 10.12962,-4.51283 10.6384,-5.3125 1.61226,-2.53412 1.12067,-16.81648 -0.59919,-17.40813 -1.88604,-0.64882 -12.23545,2.77744 -19.34424,6.40408 -6.52721,3.32992 -6.70021,3.9182 -5.47369,18.61261 0.20775,2.48891 4.35538,1.84452 14.77872,-2.29606 z m -43.01604,-4.57894 c 1.27571,-5.06722 0.7418,-10.18001 -1.31125,-12.55651 -2.59074,-2.99892 -33.60333,-9.97366 -35.57593,-8.00106 -0.63547,0.63547 -0.97871,3.62246 -0.76275,6.63775 l 0.39268,5.48232 15,5.18911 c 16.92354,5.85454 21.43535,6.51303 22.25725,3.24839 z m -51.20499,-5.93544 c 2.46542,-1.03011 5.06536,-2.96188 5.77766,-4.29282 1.68821,-3.15447 1.66994,-38.85309 -0.0212,-41.33424 -1.04221,-1.52911 -3.34347,0.31562 -12.47475,10 -6.15824,6.53125 -11.506776,12.82181 -11.885644,13.97904 -0.614701,1.87756 6.511604,17.96945 9.724324,21.95846 1.63721,2.03281 3.42062,1.97046 8.87958,-0.31044 z m 123.37038,-0.93956 5.57736,-2.8125 0.36762,-9.08057 c 0.42352,-10.46095 -0.45963,-11.43413 -7.65002,-8.42979 -7.46245,3.11801 -9.5926,6.01217 -9.5926,13.03312 0,11.04149 1.6923,12.13343 11.29764,7.28974 z M 87.607501,191.875 c 10.107649,-13.4873 17.202509,-22.05984 28.857079,-34.86726 6.12664,-6.73268 8.1084,-11.40484 6.12915,-14.44998 -1.00406,-1.54479 -1.65156,-1.56546 -4.31887,-0.13796 -4.09728,2.1928 -25.214321,22.91015 -36.720651,36.02564 L 72.5,188.76586 l 0,8.53374 c 0,13.79307 0.965094,13.44655 15.107501,-5.4246 z M 189.72251,181.74461 c 0.39508,-18.62234 0.13045,-19.2206 -8.67933,-19.62246 l -5.41818,-0.24715 0,16.83809 c 0,16.69745 0.0261,16.85154 3.125,18.44997 1.71875,0.88654 4.8125,1.46565 6.875,1.28692 l 3.75,-0.32498 0.34751,-16.38039 z M 211.25,192.52868 c 11.45299,-4.54159 11.25,-4.09705 11.25,-24.63664 0,-14.19213 -0.36546,-18.11074 -1.73821,-18.63751 -2.73669,-1.05017 -24.49018,10.38213 -24.63283,12.94552 -0.0666,1.19622 -0.036,9.1919 0.068,17.76819 0.19753,16.29575 0.8294,18.14355 5.57374,16.29912 1.43239,-0.55685 5.69809,-2.23926 9.47934,-3.73868 z m -43.79398,-1.19651 c 1.60034,-2.99026 1.68412,-27.52988 0.1025,-30.03026 -2.11506,-3.34374 -34.98486,-8.20494 -36.7012,-5.42784 -1.00722,1.62972 -1.35006,27.79988 -0.37693,28.773 1.04212,1.04213 29.45252,8.77323 32.91312,8.95639 1.56848,0.083 3.3294,-0.9015 4.0625,-2.27129 z m 74.10648,-11.51796 4.6875,-2.36502 0,-20.52583 c 0,-11.2892 -0.48164,-20.82349 -1.07031,-21.18731 -1.93625,-1.19666 -14.1803,6.01035 -15.32468,9.02031 -1.55862,4.09949 -1.38031,33.64359 0.22111,36.63589 1.47161,2.74969 3.4465,2.47837 11.48638,-1.57804 z M 85.0156,157.34499 c 9.437445,-10.2397 22.29701,-21.45914 31.51006,-27.49123 2.74795,-1.79917 5.48898,-4.04917 6.09117,-5 1.85372,-2.92691 1.40574,-38.071435 -0.50551,-39.657629 -1.75697,-1.458164 -13.60404,2.126655 -27.089327,8.196996 -3.793347,1.707557 -9.962777,4.182363 -13.709846,5.499568 -3.747068,1.317205 -7.25408,3.089585 -7.793358,3.938615 -0.539279,0.84903 -0.98912,15.74682 -0.999648,33.10619 -0.01492,24.59317 0.32932,31.5625 1.558959,31.5625 0.867954,0 5.789829,-4.56975 10.9375,-10.15501 z m 102.56657,-1.13897 c 2.63185,-1.40852 3.20007,-4.32503 1.09599,-5.62542 -2.23565,-1.3817 -56.40609,-11.83727 -57.57765,-11.11321 -0.60527,0.37409 -1.10051,2.29655 -1.10051,4.27215 0,4.13297 0.63286,4.42906 13.25668,6.20245 4.88491,0.68624 9.74267,1.5781 10.79502,1.98191 1.05234,0.40383 8.30559,1.76436 16.11832,3.0234 7.81274,1.25905 14.38258,2.34848 14.59965,2.42094 0.21708,0.0725 1.4827,-0.45053 2.8125,-1.16222 z m 15.97487,-6.01126 c 1.82487,-1.26789 8.66171,-5.00136 15.19296,-8.2966 6.53125,-3.29525 13.8337,-7.32039 16.22766,-8.94476 2.39398,-1.62436 4.88094,-2.9534 5.52658,-2.9534 0.64565,0 2.20257,-0.93093 3.45983,-2.06874 1.79045,-1.62032 2.28593,-3.92331 2.28593,-10.625 0,-7.56058 -0.27525,-8.55626 -2.36536,-8.55626 -1.30094,0 -5.43193,3.31226 -9.17995,7.36058 -6.85772,7.40714 -22.89679,20.00943 -33.00705,25.93444 -4.44734,2.60632 -5.44764,3.8593 -5.44764,6.82375 0,4.31239 2.38559,4.74529 7.30704,1.32599 z M 187.23948,120 c 0.20046,-7.21875 0.0679,-14.31579 -0.29458,-15.7712 -0.50416,-2.0243 -3.23371,-3.53973 -11.61448,-6.448293 C 169.30494,95.689353 157.9126,91.677015 150.0141,88.864204 142.1156,86.051391 134.38122,83.75 132.8266,83.75 c -2.99824,0 -3.18374,1.12889 -3.18374,19.375 0,20.0161 0.23107,21.66542 3.16964,22.62377 5.65312,1.84365 44.20617,7.81459 49.0625,7.5986 l 5,-0.22237 0.36448,-13.125 z m 15.65519,7.3212 c 9.32399,-4.87929 24.27988,-17.39654 33.26419,-27.840255 C 245.79106,88.284094 248.58886,82.5 244.37265,82.5 241.92694,82.5 225.00431,88.508966 210,94.705206 c -14.72861,6.082384 -15.29615,6.988484 -14.18475,22.646074 0.85846,12.09401 1.44419,12.91888 7.07942,9.96992 z"
       id="path3348"
       inkscape:connector-curvature="0" />
    <path
       style="fill:#4b768f"
       d="M 0,160 0,0 l 160,0 160,0 0,160 0,160 -160,0 -160,0 0,-160 z m 89.39774,61.00854 c 7.300016,-2.88282 13.7945,-6.21635 14.43219,-7.40789 0.83041,-1.55164 0.27414,-3.92901 -1.96025,-8.37758 -1.71582,-3.41612 -3.11968,-6.80462 -3.11968,-7.53 0,-2.28285 -4.101099,-3.84313 -6.594278,-2.50882 C 89.300394,196.71237 71.25,220.82401 71.25,223.11002 c 0,1.5179 1.655897,2.77692 3.999992,3.04129 0.481247,0.0542 6.847733,-2.25997 14.147748,-5.14277 z M 189.75,224.75 c 2.24035,-2.24035 1.92065,-15.40079 -0.43125,-17.75269 -2.31627,-2.31626 -11.37657,-4.93446 -13.82476,-3.995 -1.26477,0.48533 -1.74399,3.10122 -1.74399,9.51958 l 0,8.85034 5.3125,2.41143 c 6.19989,2.81424 8.62071,3.03313 10.6875,0.96634 z m 19.92286,-4.26221 c 6.02368,-2.48172 11.65526,-5.08184 12.51464,-5.77805 2.19999,-1.78232 2.09836,-17.7089 -0.12475,-19.55394 -3.01079,-2.49874 -24.45831,6.22782 -27.00597,10.98817 -2.45849,4.59368 -0.033,18.85603 3.20664,18.85603 0.25152,0 5.38577,-2.0305 11.40944,-4.51221 z m -40.66031,-5.17529 c 0.97721,-3.85769 0.16052,-14.13943 -1.23385,-15.5338 -1.04605,-1.04605 -31.53348,-8.34185 -35.50191,-8.4958 -2.07759,-0.0806 -4.77679,4.22137 -4.77679,7.6132 0,5.61946 4.35585,8.91633 16.875,12.77239 6.1875,1.90582 12.375,3.9595 13.75,4.56372 4.47664,1.9672 10.28044,1.47693 10.88755,-0.91971 z m -51.17165,-6.44072 c 3.05149,-1.30802 5.91063,-3.32278 6.35363,-4.47723 1.02188,-2.66298 1.06276,-39.76959 0.0467,-42.41731 -0.41731,-1.08749 -1.68293,-1.93004 -2.8125,-1.87237 -2.26008,0.11543 -25.17877,24.95892 -25.17877,27.29339 0,1.29911 7.96833,18.33324 10.4266,22.28924 1.36264,2.19285 4.71743,1.94772 11.1643,-0.81572 z m 123.50046,-0.79308 6.25825,-3.17129 -0.36231,-10.25238 c -0.43123,-12.20265 -1.19706,-12.71557 -11.47306,-7.6839 -7.60292,3.72278 -8.54792,5.62403 -7.71842,15.52887 0.25909,3.09375 0.52353,6.32813 0.58763,7.1875 0.18884,2.53154 5.98552,1.79769 12.70791,-1.6088 z M 88.263061,192.8125 c 13.051479,-17.06911 21.764079,-27.46513 30.017029,-35.81679 5.89081,-5.96127 8.04832,-12.45301 5.11396,-15.38737 -1.05912,-1.05913 -2.88915,-1.54033 -4.23428,-1.11339 -3.30608,1.0493 -32.52397,29.57384 -40.94822,39.97649 l -6.96155,8.59645 0,9.00772 c 0,15.21825 1.77153,14.67021 17.013061,-5.26311 z M 190.97499,182.63985 c 0.39875,-19.06744 -0.20842,-20.61823 -8.62954,-22.04096 -8.23332,-1.39102 -8.7155,-0.27587 -8.31705,19.23496 0.34075,16.6848 0.39932,16.99832 3.4716,18.5816 1.71875,0.88574 5.375,1.46399 8.125,1.285 l 5,-0.32545 0.34999,-16.73515 z m 18.69787,11.59794 c 6.02368,-2.48172 11.65526,-5.08184 12.51464,-5.77805 1.12764,-0.91355 1.5625,-6.62654 1.5625,-20.52703 0,-16.56749 -0.28196,-19.36937 -2.01621,-20.03486 -2.37584,-0.9117 -23.81722,9.2376 -25.9683,12.29212 -1.96248,2.78669 -1.47519,34.32373 0.56838,36.78609 0.80973,0.97566 1.67803,1.77394 1.92956,1.77394 0.25151,0 5.38576,-2.0305 11.40943,-4.51221 z m -40.89192,-2.44417 c 1.76321,-4.6376 1.49307,-26.80431 -0.37155,-30.48901 -1.34021,-2.64837 -3.18461,-3.3699 -13.41908,-5.24945 -16.0333,-2.94451 -24.54272,-2.97712 -26.08253,-0.1 -1.54307,2.88324 -0.79644,27.65615 0.88417,29.33676 1.43389,1.43389 30.41475,9.38602 34.92649,9.58355 1.96484,0.086 3.22012,-0.86623 4.0625,-3.08187 z m 73.09406,-10.9708 5,-2.7438 0.34214,-21.56737 c 0.2837,-17.88368 0.0334,-21.68583 -1.46534,-22.26096 -2.55754,-0.98142 -14.81641,6.1128 -16.69544,9.66167 -1.89173,3.57288 -1.9569,35.49991 -0.0796,39.00988 1.45956,2.72893 5.21286,2.11802 12.89825,-2.09942 z M 78.75,166.44366 c 0,-1.1952 20.925332,-21.91953 29.15923,-28.87914 3.31883,-2.80519 7.64406,-5.93283 9.61162,-6.95031 6.85101,-3.54278 7.47915,-5.70988 7.47915,-25.80306 0,-25.47802 0.83314,-24.876262 -21.875,-15.799901 -6.875,2.747914 -16.143236,6.381562 -20.59608,8.074773 -4.452844,1.693212 -8.812219,3.672908 -9.6875,4.399328 -2.285714,1.89698 -2.313473,66.79741 -0.02893,67.61657 1.79228,0.64265 5.9375,-1.2132 5.9375,-2.65826 z m 110.59815,-9.72039 c 4.5212,-4.5212 0.1824,-8.24873 -11.89536,-10.21949 -3.75529,-0.61277 -15.71868,-2.97027 -26.58533,-5.2389 -11.47837,-2.39636 -20.19311,-3.65654 -20.79701,-3.00734 -0.5717,0.6146 -1.41271,2.35431 -1.8689,3.86602 -1.26856,4.20376 2.85804,7.45635 10.72495,8.4534 3.68418,0.46694 10.91725,1.70728 16.0735,2.7563 8.4544,1.72004 27.11858,4.91063 30.84821,5.27343 0.81028,0.0789 2.38524,-0.76872 3.49994,-1.88342 z m 14.20889,-5.31834 c 1.82487,-1.28979 8.38046,-4.96925 14.56796,-8.17659 6.1875,-3.20734 15.1875,-7.91768 20,-10.46743 l 8.75,-4.63591 0.3606,-10.16031 c 0.50196,-14.14372 -0.86403,-14.34099 -14.01678,-2.02427 -12.78878,11.97591 -17.68082,15.87901 -28.9786,23.12051 -8.92553,5.72097 -11.14426,8.83113 -9.01466,12.63653 1.50673,2.69237 4.24423,2.59625 8.33148,-0.29254 z m -17.22487,-16.44891 c 2.19154,-1.17288 2.41783,-2.7495 2.41783,-16.84618 0,-14.76935 -0.14158,-15.64149 -2.8125,-17.32587 -1.54688,-0.97551 -4.21875,-2.152451 -5.9375,-2.615422 -1.71875,-0.462972 -10.4375,-3.563765 -19.375,-6.890653 -19.51601,-7.264624 -28.2409,-9.901415 -30.23611,-9.137809 -2.3392,0.895251 -2.82569,5.958256 -2.35872,24.547814 0.31365,12.48585 0.91028,17.78416 2.13987,19.00316 0.944,0.93587 10.63137,3.1061 21.70496,4.86253 17.94921,2.84697 30.5494,5.04662 31.64467,5.52428 0.21708,0.0946 1.4827,-0.41016 2.8125,-1.12185 z M 213.125,121.78824 c 11.27295,-7.8328 17.63859,-13.83849 28.5366,-26.923006 5.96162,-7.157718 7.35543,-11.86156 3.90683,-13.184913 -2.17662,-0.835241 -18.60838,4.387189 -29.94343,9.51678 -4.125,1.866738 -10.2259,4.426859 -13.55756,5.689159 -3.525,1.335554 -6.44589,3.34483 -6.98639,4.80594 -1.30698,3.53309 -0.0145,27.5092 1.53664,28.50465 1.96166,1.25892 4.33028,0.0524 16.50731,-8.40861 z"
       id="path3346"
       inkscape:connector-curvature="0" />
    <path
       style="fill:#2c6b91"
       d="M 0,160 0,0 l 160,0 160,0 0,160 0,160 -160,0 -160,0 0,-160 z m 90.481757,61.20499 c 6.953784,-2.77475 13.357493,-5.99122 14.230453,-7.1477 0.87297,-1.15649 3.40422,-2.19589 5.625,-2.30978 6.44654,-0.3306 13.34568,-3.92079 14.83588,-7.72032 1.25485,-3.19945 1.39285,-3.25063 2.31581,-0.85879 1.71903,4.45481 4.43149,5.72452 26.7806,12.53606 7.96449,2.42741 11.70961,3.04193 13.125,2.1536 2.48694,-1.56085 3.46529,-15.94092 1.26493,-18.5922 -1.13103,-1.3628 -1.07395,-2.23947 0.25002,-3.8408 1.29783,-1.56972 1.63161,-5.90689 1.3708,-17.8125 -0.18961,-8.65566 -0.6494,-16.72194 -1.02174,-17.92506 -0.54115,-1.7486 0.0775,-2.1875 3.08349,-2.1875 2.06825,0 4.1081,0.5625 4.533,1.25 0.4249,0.6875 -0.0443,1.25 -1.04249,1.25 -2.85492,0 -3.33251,2.85892 -3.33251,19.94917 0,17.71248 0.16099,18.1038 8.61405,20.93862 l 4.51095,1.51278 -5.21824,-0.66923 c -6.43571,-0.82538 -7.90676,1.23859 -7.90676,11.09358 0,5.52647 0.54838,7.25447 3.04716,9.60197 3.90269,3.66637 13.2075,4.95481 15.53443,2.15103 1.27566,-1.53708 2.22626,-1.65624 4.59667,-0.57621 2.4519,1.11716 4.95954,0.63305 13.96758,-2.6965 C 223.52329,216.17585 225,214.53985 225,204.29487 c 0,-6.85868 -0.39605,-8.2269 -2.936,-10.14278 l -2.93599,-2.21463 2.93599,-2.30946 c 2.85285,-2.24404 2.936,-2.85129 2.936,-21.44067 0,-19.88719 -0.31645,-21.14747 -5.55403,-22.11877 -1.73555,-0.32186 0.4057,-2.09466 7.5,-6.20946 10.03674,-5.82147 19.06844,-9.65426 13.67903,-5.80499 -1.375,0.98207 -4.89063,3.10648 -7.8125,4.7209 l -5.3125,2.93534 0,17.79259 c 0,9.78592 -0.33184,18.65734 -0.7374,19.71424 -0.43306,1.12852 0.54685,3.20591 2.37422,5.03328 3.10301,3.103 3.10452,3.11635 0.54462,4.81607 -2.23015,1.48076 -2.54487,2.90458 -2.39815,10.84956 0.16668,9.02587 1.47893,12.58391 4.64113,12.58391 2.89249,0 13.65838,-5.05782 15.26308,-7.1706 0.89559,-1.17915 1.5625,-5.68996 1.5625,-10.56831 0,-6.59659 -0.51717,-9.02826 -2.29915,-10.81024 -2.2322,-2.2322 -2.2322,-2.38183 0,-5.13848 2.01674,-2.49057 2.29915,-5.28049 2.29915,-22.71308 0,-18.11818 -0.2141,-20.05708 -2.42364,-21.94894 -2.39819,-2.05339 -2.39819,-2.10755 0,-5.15634 1.84758,-2.34881 2.42364,-5.0614 2.42364,-11.41258 0,-14.29297 -3.01719,-14.70353 -16.08105,-2.18823 -11.05222,10.58814 -16.58071,14.97376 -29.54153,23.43467 -8.20836,5.35848 -9.37742,6.58683 -9.37742,9.85292 0,2.47685 0.85765,4.19025 2.5511,5.09656 2.52391,1.35075 2.51725,1.40554 -0.625,5.13989 -1.74685,2.07601 -3.1761,4.29391 -3.1761,4.92867 0,0.63475 -1.03703,0.16971 -2.30451,-1.03341 -1.95478,-1.85553 -2.04963,-2.48699 -0.625,-4.16093 2.41805,-2.84119 2.09221,-8.34274 -0.57877,-9.7722 -3.71856,-1.99012 -52.51235,-11.56228 -56.7997,-11.14275 -2.9363,0.28734 -4.14415,1.13155 -4.6429,3.24509 l -0.67412,2.85671 -2.17527,-2.54421 c -1.19639,-1.39931 -2.93782,-2.54421 -3.86984,-2.54421 -2.28669,0 -27.403521,22.72245 -36.578524,33.09149 C 71.619545,186.11722 70,189.16811 70,198.6881 70,207.32356 71.259231,210 75.322108,210 c 2.113843,0 2.016734,0.54324 -1.082758,6.0571 -3.72344,6.62384 -3.411568,10.1929 0.890676,10.1929 1.489669,0 8.397948,-2.27025 15.351731,-5.04501 z M 189.0625,205.34904 c -3.29103,-3.43698 -3.45389,-4.09904 -1.00838,-4.09904 0.99227,0 2.55907,-1.07784 3.48178,-2.3952 1.61972,-2.31247 1.78031,-2.31776 4.64995,-0.15319 l 2.97229,2.242 -2.70408,1.44718 c -1.48724,0.79595 -2.70406,2.23793 -2.70406,3.20442 0,2.93643 -1.72689,2.84574 -4.6875,-0.24617 z M 81.716391,203.4375 c 1.807734,-2.23438 5.372515,-7.11054 7.921737,-10.8359 l 4.634946,-6.77341 1.503245,3.64841 c 1.415436,3.43529 1.313041,3.68491 -1.752935,4.2734 -2.003302,0.38452 -5.207387,3.11428 -8.327283,7.09451 -2.789106,3.55823 -5.565066,6.51135 -6.1688,6.5625 -0.603735,0.0511 0.381355,-1.73514 2.18909,-3.96951 z m 120.450269,-4.84261 c 0.84793,-0.85428 1.85655,-1.23834 2.24142,-0.85348 0.38486,0.38486 -0.30889,1.08381 -1.54167,1.55323 -1.7815,0.67835 -1.92507,0.53477 -0.69975,-0.69975 z m -75.89752,-9.58109 c -0.0191,-5.35821 -0.0177,-5.35985 2.55839,-2.95986 1.41763,1.32074 4.93326,2.86866 7.8125,3.43982 l 5.23497,1.0385 -6.84771,0.43409 c -3.76625,0.23874 -7.27326,1.10336 -7.79336,1.92136 -0.5201,0.81802 -0.95427,-0.92525 -0.96479,-3.87391 z M 144.375,192.5 c -2.5,-1.07429 -2.5,-1.07429 0,-1.03754 1.375,0.0203 3.90625,0.4871 5.625,1.03754 l 3.125,1.0008 -3.125,0.0368 c -1.71875,0.0202 -4.25,-0.44668 -5.625,-1.03754 z M 101.25,177.65305 c 0,-0.60331 0.93584,-1.86894 2.07965,-2.8125 1.88575,-1.5556 1.93993,-1.45332 0.58102,1.09695 -1.54989,2.9087 -2.66067,3.62491 -2.66067,1.71555 z m 25.09869,-3.38221 c 0.06,-1.45619 0.35617,-1.75238 0.7552,-0.75522 0.36108,0.90234 0.31668,1.98047 -0.0986,2.39584 -0.41537,0.41537 -0.7108,-0.32292 -0.65652,-1.64062 z M 114.375,162.5 c 1.24436,-1.375 2.4613,-2.5 2.70433,-2.5 0.24302,0 -0.26072,1.125 -1.11942,2.5 -0.8587,1.375 -2.07565,2.5 -2.70433,2.5 -0.62868,0 -0.12494,-1.125 1.11942,-2.5 z m 8.63816,-3.2098 -2.61185,-1.82866 2.98488,-6.03134 2.98487,-6.03134 3.58332,3.23807 c 3.32257,3.00246 3.41392,3.31804 1.25541,4.33716 -1.28034,0.6045 -2.8908,2.71387 -3.57881,4.6875 -1.43368,4.11264 -1.19179,4.02732 -4.61782,1.62861 z M 207.5,150.6571 c 0,-0.98909 7.68657,-4.63719 8.35732,-3.96644 0.34375,0.34375 -1.08683,1.51023 -3.17908,2.59216 -3.9659,2.05085 -5.17824,2.3726 -5.17824,1.37428 z M 77.723214,168.25825 c 20.045731,-21.13758 26.877776,-27.42785 40.584976,-37.36673 3.53826,-2.56553 6.77688,-5.56023 7.19693,-6.65489 0.65441,-1.70533 1.07871,-1.60133 2.96355,0.72636 2.48113,3.06406 9.02207,4.54653 39.30322,8.90788 C 190.97107,137.21222 190,137.85237 190,119.21746 190,102.78684 189.22661,100.83228 181.64467,98.10119 178.33385,96.9086 169.15625,93.505096 161.25,90.537849 133.94399,80.289791 129.29307,79.528272 127.84436,85.068162 l -0.66829,2.555546 -2.38673,-2.561854 C 123.47664,83.652834 121.33305,82.5 120.0258,82.5 c -2.45014,0 -16.82493,4.897296 -25.6508,8.738884 -2.75,1.196976 -8.815102,3.728939 -13.478006,5.626582 -4.662904,1.897644 -9.022279,4.467244 -9.6875,5.710224 -1.849922,3.45661 -1.582903,64.0509 0.290506,65.92431 1.982561,1.98256 4.195312,1.8966 6.223214,-0.24175 z M 125,118.75 c 0,-0.6875 0.5625,-1.25 1.25,-1.25 0.6875,0 1.25,0.5625 1.25,1.25 0,0.6875 -0.5625,1.25 -1.25,1.25 -0.6875,0 -1.25,-0.5625 -1.25,-1.25 z M 125,95 c 0,-1.375 0.5625,-2.5 1.25,-2.5 0.6875,0 1.25,1.125 1.25,2.5 0,1.375 -0.5625,2.5 -1.25,2.5 -0.6875,0 -1.25,-1.125 -1.25,-2.5 z m 81.42086,32.39926 C 224.00797,117.02952 248.75,92.226352 248.75,84.965507 c 0,-4.947187 -3.06514,-5.325688 -14.61038,-1.804177 -6.04822,1.844825 -13.65592,4.701713 -16.90597,6.348639 -3.25005,1.646927 -8.59781,3.893836 -11.88391,4.993132 -10.7932,3.610634 -11.59974,5.079928 -11.59974,21.131459 0,7.67183 0.375,14.32378 0.83334,14.7821 1.69615,1.69617 5.47842,0.73205 11.83752,-3.0174 z"
       id="path3344"
       inkscape:connector-curvature="0" />
    <path
       style="fill:#40697b"
       d="M 0,160 0,0 l 160,0 160,0 0,160 0,160 -160,0 -160,0 0,-160 z m 196.875,66.27792 c 10.85846,-1.68141 25.07387,-7.51775 27.85548,-11.43645 1.17114,-1.64992 2.58172,-2.06653 5.21426,-1.54002 4.56847,0.91369 16.74412,-4.45018 18.79338,-8.27925 0.92903,-1.7359 1.21403,-6.17178 0.79063,-12.30578 -0.36411,-5.27528 -0.63525,-10.43517 -0.60251,-11.46642 1.20558,-37.97368 1.09257,-46.05261 -0.66887,-47.81405 -1.63572,-1.63574 -1.61207,-2.19406 0.20277,-4.7851 2.58423,-3.68951 2.85718,-18.68241 0.39416,-21.65018 -3.2259,-3.88697 -7.12539,-2.31036 -15.92041,6.43683 -4.66599,4.64063 -11.74842,10.6875 -15.73872,13.4375 -3.9903,2.75 -11.17911,7.70756 -15.97513,11.01679 -4.79602,3.30923 -8.72004,6.89047 -8.72004,7.9583 0,1.42091 -0.75413,1.72353 -2.8125,1.12863 -1.54688,-0.44706 -5.77263,-1.32807 -9.39058,-1.95778 -9.51376,-1.65592 -30.278,-6.08153 -35.32582,-7.52923 -5.26021,-1.50861 -17.07726,-1.64022 -17.96729,-0.20012 -0.35406,0.57287 -2.2721,0.80258 -4.26232,0.51048 -3.07669,-0.45156 -5.47157,1.05849 -15.99253,10.08379 -6.805679,5.83818 -14.06146,12.49184 -16.12396,14.78593 -10.90151,12.12553 -20.786571,24.49727 -21.35686,26.72936 -0.354981,1.38937 -0.476156,6.39315 -0.26928,11.1195 0.370899,8.47364 0.6641,9.05941 5.782277,11.55215 0.223377,0.10875 -1.149252,2.54816 -3.050284,5.42081 -3.996858,6.03966 -3.153403,9.11019 2.691863,9.79951 3.325937,0.39222 19.781985,-5.09351 22.389784,-7.46378 0.653125,-0.59364 2.11282,-1.07934 3.24376,-1.07934 1.13095,0 3.07438,-1.125 4.31874,-2.5 1.24436,-1.375 3.72216,-2.53274 5.50624,-2.57275 1.78407,-0.04 6.33751,-1.5869 10.11876,-3.4375 l 6.875,-3.36475 5.625,2.69091 c 8.53389,4.08246 32.28707,10.78135 35.37018,9.9751 1.94802,-0.50942 3.4401,0.18036 5.23926,2.42211 2.94031,3.66362 11.41983,7.05797 15.01556,6.01072 1.375,-0.40047 5.3125,-1.16363 8.75,-1.69592 z m -26.04166,-13.36126 c -1.30858,-1.30856 -0.9737,-6.66666 0.41666,-6.66666 0.6875,0 1.25,1.6875 1.25,3.75 0,3.88359 -0.25445,4.32887 -1.66666,2.91666 z M 191.25,207.5 c 0,-0.6875 0.5957,-1.25 1.32377,-1.25 0.72808,0 0.97613,0.5625 0.55123,1.25 -0.4249,0.6875 -1.0206,1.25 -1.32378,1.25 -0.30317,0 -0.55122,-0.5625 -0.55122,-1.25 z M 81.716391,203.4375 c 1.807734,-2.23438 5.336826,-7.05676 7.842428,-10.71642 3.30012,-4.82012 4.844636,-6.19811 5.604269,-5 1.526957,2.40835 1.320582,3.52892 -0.649918,3.52892 -0.955256,0 -4.470881,3.63057 -7.8125,8.06795 -3.341619,4.43736 -6.569635,8.09361 -7.173369,8.125 -0.603735,0.0314 0.381355,-1.77108 2.18909,-4.00545 z M 225,203.89754 c 0,-2.0625 0.5625,-4.09764 1.25,-4.52254 0.72724,-0.44945 1.25,0.79576 1.25,2.97746 0,2.0625 -0.5625,4.09764 -1.25,4.52254 -0.72724,0.44945 -1.25,-0.79576 -1.25,-2.97746 z M 178.75,201.25 c -1.66666,-1.07709 -1.66666,-1.20409 0,-1.143 1.03125,0.0377 3,0.55214 4.375,1.143 2.5,1.07429 2.5,1.07429 0,1.143 -1.375,0.0377 -3.34375,-0.47655 -4.375,-1.143 z m 23.41666,-2.65511 c 0.84793,-0.85428 1.85655,-1.23834 2.24141,-0.85348 0.38487,0.38486 -0.30888,1.08381 -1.54166,1.55323 -1.7815,0.67835 -1.92507,0.53477 -0.69975,-0.69975 z M 170.2904,178.12322 c -0.25713,-12.96587 0.0324,-16.87371 1.25,-16.87532 1.22007,-0.001 1.49715,3.88036 1.20445,16.875 -0.20908,9.2824 -0.77158,16.8763 -1.25,16.87532 -0.47841,-9.7e-4 -1.02043,-7.59472 -1.20445,-16.875 z M 144.375,192.5 c -2.5,-1.07429 -2.5,-1.07429 0,-1.03754 1.375,0.0203 3.90625,0.4871 5.625,1.03754 l 3.125,1.0008 -3.125,0.0368 c -1.71875,0.0202 -4.25,-0.44668 -5.625,-1.03754 z m -13.75,-2.5 c 0.92264,-1.49286 5.27591,-1.49286 8.75,0 1.87525,0.80582 0.99779,1.09624 -3.51128,1.16214 -3.70887,0.0542 -5.71537,-0.3909 -5.23872,-1.16214 z m -4.13131,-3.125 c 0.0255,-2.0625 0.30562,-2.75492 0.62255,-1.53871 0.31692,1.21621 0.29609,2.90371 -0.0463,3.75 -0.34241,0.84628 -0.60171,-0.14879 -0.57624,-2.21129 z M 230,187.5 c 0,-0.6875 0.5957,-1.25 1.32377,-1.25 0.72808,0 0.97613,0.5625 0.55123,1.25 -0.4249,0.6875 -1.0206,1.25 -1.32378,1.25 C 230.24805,188.75 230,188.1875 230,187.5 Z m -5,-20.47746 c 0,-7.40164 0.54509,-13.46188 1.25,-13.89754 0.80301,-0.49629 1.25,3.92076 1.25,12.35246 0,7.40164 -0.54509,13.46188 -1.25,13.89754 -0.80301,0.49629 -1.25,-3.92076 -1.25,-12.35246 z m -123.75,10.63051 c 0,-0.60331 0.93584,-1.86894 2.07965,-2.8125 1.88575,-1.5556 1.93993,-1.45332 0.58102,1.09695 -1.54989,2.9087 -2.66067,3.62491 -2.66067,1.71555 z m 25.09869,-3.38221 c 0.06,-1.45619 0.35617,-1.75238 0.7552,-0.75522 0.36108,0.90234 0.31668,1.98047 -0.0986,2.39584 -0.41537,0.41537 -0.7108,-0.32292 -0.65652,-1.64062 z M 114.375,162.5 c 1.24436,-1.375 2.4613,-2.5 2.70433,-2.5 0.24302,0 -0.26072,1.125 -1.11942,2.5 -0.8587,1.375 -2.07565,2.5 -2.70433,2.5 -0.62868,0 -0.12494,-1.125 1.11942,-2.5 z m 76.875,-3.44389 c 0,-0.6875 0.84375,-1.95025 1.875,-2.80611 1.04592,-0.86804 1.875,-1.0034 1.875,-0.30611 0,0.6875 -0.84375,1.95025 -1.875,2.80611 -1.04592,0.86804 -1.875,1.0034 -1.875,0.30611 z m -67.45571,-3.11861 c 0.0244,-0.85938 0.76765,-2.86619 1.65175,-4.45959 1.28653,-2.31869 1.87995,-2.56824 2.97232,-1.25 1.01481,1.22465 0.78024,2.36841 -0.91461,4.45959 -2.55843,3.15667 -3.77513,3.56667 -3.70946,1.25 z M 207.5,150.6571 c 0,-0.98909 7.68657,-4.63719 8.35732,-3.96644 0.34375,0.34375 -1.08683,1.51023 -3.17908,2.59216 -3.9659,2.05085 -5.17824,2.3726 -5.17824,1.37428 z m 10,-4.93368 c 0,-0.77066 19.45804,-11.6487 22.5,-12.57865 1.71875,-0.52543 2.84375,-0.6639 2.5,-0.3077 -2.28515,2.36795 -25,14.0764 -25,12.88635 z m -6.25,-12.44537 c 0,-0.25956 0.98437,-1.24394 2.1875,-2.1875 1.98257,-1.55484 2.02679,-1.51063 0.47195,0.47195 -1.63296,2.08219 -2.65945,2.74435 -2.65945,1.71555 z m 37.59869,-16.50722 c 0.06,-1.45618 0.35617,-1.75237 0.7552,-0.75521 0.36108,0.90235 0.31669,1.98047 -0.0986,2.39584 -0.41537,0.41536 -0.7108,-0.32292 -0.65652,-1.64063 z M 89.793006,157.69371 c 8.020097,-8.14345 19.631974,-18.4979 25.804184,-23.00987 10.47979,-7.6609 11.43076,-8.09805 14.375,-6.608 5.48186,2.77431 53.44445,10.09517 57.56673,8.78681 1.3504,-0.4286 2.80914,-2.18921 3.24165,-3.91249 0.56003,-2.2313 1.17255,-2.74704 2.1279,-1.79169 0.73784,0.73784 2.64563,1.34153 4.23954,1.34153 4.01571,0 15.53095,-6.19916 14.52841,-7.8213 -0.44698,-0.72323 -0.24723,-0.9655 0.44388,-0.53836 C 216.60006,126.90897 250,92.446099 250,85.05514 250,81.361892 247.96926,78.75 245.09776,78.75 c -3.95997,0 -19.81222,5.315195 -28.22276,9.462982 -4.8125,2.373359 -9.47554,4.308857 -10.3623,4.301108 -3.73306,-0.03262 -11.77223,5.316126 -13.24125,8.80988 l -1.5477,3.68091 -2.63394,-3.56259 c -1.90562,-2.577509 -5.16823,-4.368588 -11.79937,-6.477516 -5.04099,-1.60321 -10.00919,-3.355688 -11.04044,-3.894396 -1.03125,-0.538708 -7.36595,-2.980336 -14.0771,-5.425839 -13.62501,-4.964864 -22.63192,-6.685625 -23.93746,-4.57322 -0.51714,0.836727 -2.88988,1.085556 -6.12421,0.642242 -4.31312,-0.59118 -7.73552,0.239454 -18.68928,4.535983 -7.639662,2.996599 -13.075732,5.799376 -12.634077,6.513989 0.472387,0.764341 -0.192898,0.94704 -1.703133,0.46771 -3.921969,-1.244786 -18.851122,5.974693 -19.666346,9.510307 -1.038399,4.50351 -1.188354,10.92472 -0.919099,39.35666 0.209945,22.1692 0.570059,26.79258 2.214991,28.4375 1.080357,1.08037 2.534085,1.96429 3.230507,1.96429 0.696421,0 7.828117,-6.66283 15.848213,-14.80629 z M 190,118.27806 c 0,-7.63605 0.37232,-9.52806 1.875,-9.52806 1.47066,0 1.875,1.7191 1.875,7.97194 0,5.56124 -0.567,8.44251 -1.875,9.52806 -1.63878,1.36006 -1.875,0.35571 -1.875,-7.97194 z M 125,118.75 c 0,-0.6875 0.5625,-1.25 1.25,-1.25 0.6875,0 1.25,0.5625 1.25,1.25 0,0.6875 -0.5625,1.25 -1.25,1.25 -0.6875,0 -1.25,-0.5625 -1.25,-1.25 z M 125,95 c 0,-1.375 0.5625,-2.5 1.25,-2.5 0.6875,0 1.25,1.125 1.25,2.5 0,1.375 -0.5625,2.5 -1.25,2.5 -0.6875,0 -1.25,-1.125 -1.25,-2.5 z"
       id="path3342"
       inkscape:connector-curvature="0" />
    <path
       style="fill:#1e6691"
       d="M 0,160 0,0 l 160,0 160,0 0,160 0,160 -160,0 -160,0 0,-160 z m 196.875,66.27792 c 10.85846,-1.68141 25.07387,-7.51775 27.85548,-11.43645 1.17114,-1.64992 2.58172,-2.06653 5.21426,-1.54002 4.56847,0.91369 16.74412,-4.45018 18.79338,-8.27925 0.92903,-1.7359 1.21403,-6.17178 0.79063,-12.30578 -0.36411,-5.27528 -0.63525,-10.43517 -0.60251,-11.46642 1.20558,-37.97368 1.09257,-46.05261 -0.66887,-47.81405 -1.63572,-1.63574 -1.61207,-2.19406 0.20277,-4.7851 2.58423,-3.68951 2.85718,-18.68241 0.39416,-21.65018 -3.2259,-3.88697 -7.12539,-2.31036 -15.92041,6.43683 -4.66599,4.64063 -11.74842,10.6875 -15.73872,13.4375 -3.9903,2.75 -11.17911,7.70756 -15.97513,11.01679 -4.79602,3.30923 -8.72004,6.89047 -8.72004,7.9583 0,1.42091 -0.75413,1.72353 -2.8125,1.12863 -1.54688,-0.44706 -5.77263,-1.32807 -9.39058,-1.95778 -9.51376,-1.65592 -30.278,-6.08153 -35.32582,-7.52923 -5.26021,-1.50861 -17.07726,-1.64022 -17.96729,-0.20012 -0.35406,0.57287 -2.2721,0.80258 -4.26232,0.51048 -3.07669,-0.45156 -5.47157,1.05849 -15.99253,10.08379 -6.805679,5.83818 -14.06146,12.49184 -16.12396,14.78593 -10.90151,12.12553 -20.786571,24.49727 -21.35686,26.72936 -0.354981,1.38937 -0.476156,6.39315 -0.26928,11.1195 0.370899,8.47364 0.6641,9.05941 5.782277,11.55215 0.223377,0.10875 -1.149252,2.54816 -3.050284,5.42081 -3.996858,6.03966 -3.153403,9.11019 2.691863,9.79951 3.325937,0.39222 19.781985,-5.09351 22.389784,-7.46378 0.653125,-0.59364 2.11282,-1.07934 3.24376,-1.07934 1.13095,0 3.07438,-1.125 4.31874,-2.5 1.24436,-1.375 3.72216,-2.53274 5.50624,-2.57275 1.78407,-0.04 6.33751,-1.5869 10.11876,-3.4375 l 6.875,-3.36475 5.625,2.69091 c 8.53389,4.08246 32.28707,10.78135 35.37018,9.9751 1.94802,-0.50942 3.4401,0.18036 5.23926,2.42211 2.94031,3.66362 11.41983,7.05797 15.01556,6.01072 1.375,-0.40047 5.3125,-1.16363 8.75,-1.69592 z m -5.625,-67.22181 c 0,-0.6875 0.84375,-1.95025 1.875,-2.80611 1.04592,-0.86804 1.875,-1.0034 1.875,-0.30611 0,0.6875 -0.84375,1.95025 -1.875,2.80611 -1.04592,0.86804 -1.875,1.0034 -1.875,0.30611 z m -67.45571,-3.11861 c 0.0244,-0.85938 0.76765,-2.86619 1.65175,-4.45959 1.28653,-2.31869 1.87995,-2.56824 2.97232,-1.25 1.01481,1.22465 0.78024,2.36841 -0.91461,4.45959 -2.55843,3.15667 -3.77513,3.56667 -3.70946,1.25 z m -34.001284,1.75621 c 8.020097,-8.14345 19.631974,-18.4979 25.804184,-23.00987 10.47979,-7.6609 11.43076,-8.09805 14.375,-6.608 5.48186,2.77431 53.44445,10.09517 57.56673,8.78681 1.3504,-0.4286 2.80914,-2.18921 3.24165,-3.91249 0.56003,-2.2313 1.17255,-2.74704 2.1279,-1.79169 C 197.2091,135.4591 208.58081,129.711 227.34851,113.75 237.02564,105.52009 250,89.084184 250,85.05514 250,81.361892 247.96926,78.75 245.09776,78.75 c -3.95997,0 -19.81222,5.315195 -28.22276,9.462982 -4.8125,2.373359 -9.47554,4.308857 -10.3623,4.301108 -3.73306,-0.03262 -11.77223,5.316126 -13.24125,8.80988 l -1.5477,3.68091 -2.63394,-3.56259 c -1.90562,-2.577509 -5.16823,-4.368588 -11.79937,-6.477516 -5.04099,-1.60321 -10.00919,-3.355688 -11.04044,-3.894396 -1.03125,-0.538708 -7.36595,-2.980336 -14.0771,-5.425839 -13.62501,-4.964864 -22.63192,-6.685625 -23.93746,-4.57322 -0.51963,0.840766 -2.90009,1.084156 -6.19138,0.633036 -4.45353,-0.610425 -7.83912,0.246761 -20.25811,5.129081 -26.2255,10.310118 -30.659742,12.312225 -31.740171,14.331024 -1.507994,2.81771 -1.810413,10.87305 -1.536768,40.93375 0.201892,22.17823 0.559673,26.7919 2.205275,28.4375 1.080357,1.08036 2.534085,1.96429 3.230507,1.96429 0.696421,0 7.828117,-6.66283 15.848213,-14.80629 z"
       id="path3340"
       inkscape:connector-curvature="0" />
  </g>
</svg>
