<?xml version="1.0" encoding="UTF-8" standalone="no"?>
<!-- Created with Inkscape (http://www.inkscape.org/) -->

<svg
   xmlns:dc="http://purl.org/dc/elements/1.1/"
   xmlns:cc="http://creativecommons.org/ns#"
   xmlns:rdf="http://www.w3.org/1999/02/22-rdf-syntax-ns#"
   xmlns:svg="http://www.w3.org/2000/svg"
   xmlns="http://www.w3.org/2000/svg"
   xmlns:sodipodi="http://sodipodi.sourceforge.net/DTD/sodipodi-0.dtd"
   xmlns:inkscape="http://www.inkscape.org/namespaces/inkscape"
   id="svg2"
   version="1.1"
   inkscape:version="0.91 r13725"
   width="320"
   height="320"
   viewBox="0 0 320 320"
   sodipodi:docname="org.gnome.Weather.svg">
  <metadata
     id="metadata8">
    <rdf:RDF>
      <cc:Work
         rdf:about="">
        <dc:format>image/svg+xml</dc:format>
        <dc:type
           rdf:resource="http://purl.org/dc/dcmitype/StillImage" />
        <dc:title></dc:title>
      </cc:Work>
    </rdf:RDF>
  </metadata>
  <defs
     id="defs6" />
  <sodipodi:namedview
     pagecolor="#ffffff"
     bordercolor="#666666"
     borderopacity="1"
     objecttolerance="10"
     gridtolerance="10"
     guidetolerance="10"
     inkscape:pageopacity="0"
     inkscape:pageshadow="2"
     inkscape:window-width="640"
     inkscape:window-height="480"
     id="namedview4"
     showgrid="false"
     inkscape:zoom="0.7375"
     inkscape:cx="160"
     inkscape:cy="160"
     inkscape:window-x="0"
     inkscape:window-y="0"
     inkscape:window-maximized="0"
     inkscape:current-layer="svg2" />
  <g
     id="g3340">
    <path
       style="fill:#f3f7fa"
       d="M 0,160 0,0 l 160,0 160,0 0,160 0,160 -160,0 -160,0 0,-160 z"
       id="path3356"
       inkscape:connector-curvature="0" />
    <path
       style="fill:#aacbe4"
       d="M 0,160 0,0 l 160,0 160,0 0,160 0,160 -160,0 -160,0 0,-160 z m 162.5,55.625 c 0,-8.54166 -0.22223,-9.375 -2.5,-9.375 -2.27778,0 -2.5,0.83334 -2.5,9.375 0,8.54166 0.22222,9.375 2.5,9.375 2.27777,0 2.5,-0.83334 2.5,-9.375 z m -21.25,-10.13848 c 0,-0.95508 -0.54271,-1.73652 -1.20603,-1.73652 -1.57683,0 -3.80526,4.21962 -3.75238,7.10532 0.0361,1.97107 0.36502,1.88144 2.5,-0.6813 1.35212,-1.62305 2.45841,-3.73242 2.45841,-4.6875 z m -20.8415,-4.88858 c 5.73202,-5.27534 7.1632,-9.11768 3.81169,-10.23346 -1.93155,-0.64304 -12.93708,10.99335 -12.95538,13.69802 -0.0237,3.5066 2.68369,2.48075 9.14369,-3.46456 z m 87.0915,3.43731 c 0,-2.94994 -10.64546,-14.44494 -12.73351,-13.74966 -3.3299,1.10878 -2.19682,4.32356 3.5491,10.06947 6.18781,6.18781 9.18441,7.38855 9.18441,3.68019 z M 175.63495,189.2308 c 11.93797,-6.25436 17.30377,-14.09009 18.7914,-27.44121 2.29772,-20.62178 -8.83696,-36.63507 -28.11048,-40.4269 -12.25507,-2.41104 -26.66747,2.33187 -33.48797,11.0204 -8.2237,10.47606 -8.4529,11.14015 -8.4529,24.49191 0,11.47639 0.27409,12.90945 3.34715,17.5 5.57371,8.32607 8.86289,11.50815 15.3929,14.8917 5.19125,2.68985 7.92417,3.2333 16.25995,3.2333 8.38179,0 11.04005,-0.53446 16.25995,-3.2692 z M 111.25,157.36626 c 0,-0.61394 -4.21875,-1.11626 -9.375,-1.11626 -11.314216,0 -12.578865,2.22809 -1.5625,2.75285 8.56925,0.4082 10.9375,0.0539 10.9375,-1.63659 z m 115,0.13374 c 0,-0.71429 -3.75,-1.25 -8.75,-1.25 -5,0 -8.75,0.53571 -8.75,1.25 0,0.71429 3.75,1.25 8.75,1.25 5,0 8.75,-0.53571 8.75,-1.25 z M 108.125,135 c -0.4249,-0.6875 -1.44247,-1.24139 -2.26127,-1.23086 -0.89452,0.0113 -0.74034,0.50278 0.38627,1.23086 2.4014,1.55191 2.83413,1.55191 1.875,0 z m 17.70991,-13.22128 c 0.93899,-2.44695 -10.55829,-14.5153 -13.32147,-13.98316 -3.16607,0.60973 -2.15932,2.94567 4.13447,9.59311 6.41613,6.77664 7.98373,7.52573 9.187,4.39005 z m 76.55976,-3.96622 c 5.19027,-6.05543 6.08465,-8.3097 3.84587,-9.69335 -2.05108,-1.26763 -14.28382,11.16211 -13.35845,13.57358 1.3366,3.48311 4.20367,2.31362 9.51259,-3.88023 z M 141.25,108.85223 c 0,-2.16287 -1.51727,-5.10223 -2.63374,-5.10223 -1.29535,0 -1.51397,4.18562 -0.28292,5.41667 1.2067,1.2067 2.91666,1.02236 2.91666,-0.31444 z m 20.625,-10.206396 c 0,-7.407408 -0.37688,-9.270834 -1.875,-9.270834 -1.4319,0 -1.96405,1.888967 -2.25184,7.993341 -0.42088,8.927699 0.25382,11.839329 2.565,11.068939 1.06193,-0.35398 1.56184,-3.48797 1.56184,-9.791446 z"
       id="path3354"
       inkscape:connector-curvature="0" />
    <path
       style="fill:#8bb8db"
       d="M 0,160 0,0 l 160,0 160,0 0,160 0,160 -160,0 -160,0 0,-160 z m 163.05412,64.72186 c 2.64725,-3.77949 2.63508,-16.35409 -0.0184,-19.00757 -4.4406,-4.44056 -6.78575,-1.0154 -6.78575,9.91071 0,11.28215 2.72329,14.92307 6.80412,9.09686 z m -23.08538,-13.09103 c 2.8431,-3.61442 3.01745,-9.75583 0.27696,-9.75583 -2.26285,0 -7.02169,8.70131 -6.08864,11.13279 1.09985,2.86617 2.7888,2.46601 5.81168,-1.37697 z M 183.75,209.80669 c 0,-2.24524 -5.13761,-8.61919 -6.34559,-7.87262 -1.95839,1.21035 -1.28099,4.95867 1.4201,7.85794 2.48923,2.67186 4.92549,2.67913 4.92549,0.0146 z m -61.37766,-9.1636 c 5.57955,-5.89955 6.29682,-7.20849 5.13734,-9.375 -0.74121,-1.38495 -2.33337,-2.51809 -3.53815,-2.51809 -2.50921,0 -13.65313,10.92741 -14.02242,13.75 -0.99252,7.58607 4.23084,6.80534 12.42323,-1.85691 z m 86.37766,3.37242 c 0,-2.51601 -1.69609,-5.15507 -6.10236,-9.49508 -6.73398,-6.63273 -10.5201,-7.28673 -11.14615,-1.92537 -0.28863,2.47173 1.04862,4.52893 5.88395,9.05181 7.30466,6.83267 11.36456,7.67884 11.36456,2.36864 z m -32.5156,-13.09219 c 6.90022,-3.30138 12.65161,-8.9188 16.48284,-16.09889 2.48653,-4.66002 2.90776,-7.26022 2.90776,-17.94943 0,-11.38569 -0.31318,-13.05715 -3.5131,-18.75 -6.78671,-12.07396 -20.63018,-19.8335 -34.04899,-19.08514 -8.9228,0.49762 -19.98956,5.41462 -25.6242,11.38491 -6.96817,7.38328 -9.93871,15.18743 -9.93871,26.1108 0,10.89698 1.64114,15.99438 7.8469,24.37264 4.20772,5.68076 13.29426,11.32206 20.9031,12.97752 6.68819,1.45514 18.73734,0.0265 24.9844,-2.96241 z m 36.91732,-13.39378 c -2.32625,-2.57048 -9.40172,-3.5559 -9.40172,-1.3094 0,0.67107 2.10937,2.3132 4.6875,3.64917 5.48816,2.84394 8.19128,1.50232 4.71422,-2.33977 z m -101.34285,1.79253 c 5.21477,-2.17887 5.29656,-5.07577 0.13261,-4.69674 -3.93147,0.28856 -6.94148,2.41451 -6.94148,4.90272 0,2.2003 1.13177,2.16606 6.80887,-0.20598 z M 111.25,159.375 c 2.88736,-3.47905 -0.65646,-5.625 -9.28914,-5.625 -4.962071,0 -8.602487,0.67186 -10.159448,1.875 -2.401883,1.85605 -2.401883,1.89395 0,3.75 1.556961,1.20314 5.197377,1.875 10.159448,1.875 5.34886,0 8.21279,-0.57807 9.28914,-1.875 z m 115.69859,0 c 2.40189,-1.85605 2.40189,-1.89395 0,-3.75 -1.49624,-1.15621 -5.11839,-1.875 -9.44859,-1.875 -4.3302,0 -7.95235,0.71879 -9.44859,1.875 -2.40189,1.85605 -2.40189,1.89395 0,3.75 1.49624,1.15621 5.11839,1.875 9.44859,1.875 4.3302,0 7.95235,-0.71879 9.44859,-1.875 z M 115.59581,138.79724 c 1.00874,-1.63218 -8.62622,-7.86984 -11.34258,-7.34318 -3.94187,0.76428 -3.23721,3.3651 1.60382,5.91955 5.25714,2.77403 8.60197,3.26298 9.73876,1.42363 z m 95.37605,-0.74312 c 3.3513,-2.34733 3.64798,-5.55412 0.51384,-5.55412 -2.79204,0 -8.05918,4.71532 -7.06465,6.32451 1.0605,1.71593 3.39267,1.44167 6.55081,-0.77038 z m -83.46218,-15.57221 c 1.15948,-2.16651 0.44221,-3.47545 -5.13734,-9.375 -4.28639,-4.53222 -7.48297,-6.85691 -9.42866,-6.85691 -1.61902,0 -2.94368,0.23525 -2.94368,0.52277 0,0.28752 -0.33325,1.3912 -0.74056,2.45263 C 108.32,111.67355 120.67772,125 123.88734,125 c 1.25108,0 2.88113,-1.13314 3.62234,-2.51809 z m 75.54926,-3.37121 c 6.12281,-6.21054 7.40704,-11.77049 2.91541,-12.62207 -3.01988,-0.57255 -14.72435,10.6349 -14.72435,14.09909 0,6.45501 4.55002,5.8859 11.80894,-1.47702 z m -61.38685,-11.60239 c -0.19913,-4.02406 -2.32534,-6.60449 -4.79709,-5.82191 -2.15927,0.68365 -2.11381,4.28708 0.0966,7.66064 2.75847,4.20994 4.95723,3.34982 4.70047,-1.83873 z m 42.0717,-4.69581 c 0.004,-1.54687 -0.51041,-2.8125 -1.14184,-2.8125 -2.07142,0 -6.63698,8.70628 -5.75224,10.96923 0.72749,1.86077 1.25644,1.64261 3.86535,-1.59423 1.66239,-2.0625 3.02532,-5.01562 3.02873,-6.5625 z m -20.03777,4.76968 c 1.83737,-3.43316 1.60469,-15.42943 -0.35115,-18.104194 -0.90481,-1.237411 -2.73293,-2.042081 -4.0625,-1.788156 -2.08815,0.398805 -2.46792,1.720744 -2.78858,9.706445 -0.20417,5.084625 -0.0811,10.000535 0.27327,10.924245 0.9615,2.50563 5.44874,2.02748 6.92896,-0.73834 z"
       id="path3352"
       inkscape:connector-curvature="0" />
    <path
       style="fill:#6fa7d3"
       d="M 0,160 0,0 l 160,0 160,0 0,160 0,160 -160,0 -160,0 0,-160 z m 163.5,66 c 0.90962,-0.90962 1.5,-5.32804 1.5,-11.22619 0,-9.34551 -0.123,-9.75704 -3.14124,-10.51459 -5.2985,-1.32983 -6.85876,1.23364 -6.85876,11.26883 0,9.10827 1.19599,11.97195 5,11.97195 1.1,0 2.675,-0.675 3.5,-1.5 z m -24.40574,-11.93979 c 4.83402,-5.34152 5.58213,-14.64299 1.11144,-13.8188 -1.14439,0.21098 -3.29156,2.78227 -4.7715,5.71399 -4.00757,7.93894 -1.40514,13.70179 3.66006,8.10481 z m 44.61714,-6.72688 c -2.27068,-4.38287 -5.14989,-7.36438 -6.37846,-6.60508 -2.0678,1.27796 -1.08676,8.01793 1.55099,10.65568 2.3338,2.3338 2.84623,2.42163 4.49702,0.77083 1.52816,-1.52816 1.58758,-2.39492 0.33045,-4.82143 z m -61.70152,-5.07144 c 5.35182,-5.06154 6.77831,-7.19159 6.48767,-9.6875 -0.29929,-2.57026 -1.14071,-3.27413 -4.27902,-3.57945 -3.35904,-0.3268 -4.71657,0.54601 -9.6875,6.22853 -7.27,8.31071 -7.62799,13.02949 -1.0187,13.42784 0.90052,0.0542 4.72442,-2.82096 8.49755,-6.38942 z M 208.5,207.25 c 2.54235,-2.54235 1.716,-4.85264 -4.22165,-11.80274 -4.40486,-5.15594 -6.53166,-6.69726 -9.24126,-6.69726 -3.22199,0 -5.03709,1.84864 -5.03709,5.13016 0,1.80941 10.27676,12.54135 13.11041,13.69109 3.4473,1.39872 3.6837,1.38464 5.38959,-0.32125 z m -35.69057,-14.03151 c 18.97228,-6.77084 28.82982,-27.9702 22.74257,-48.9096 -2.55875,-8.80178 -10.85806,-18.06038 -20.29905,-22.64531 -14.65456,-7.11688 -32.94654,-3.30266 -43.91384,9.15686 -6.79849,7.7235 -9.17805,13.4711 -9.75178,23.55456 -0.61872,10.87409 1.27479,17.25648 7.76462,26.17196 4.53053,6.22385 10.94036,10.72262 19.39805,13.61455 3.78981,1.29585 19.51279,0.67959 24.05943,-0.94302 z m -60.97684,-12.825 c 5.60615,-2.67339 6.08774,-6.64349 0.80589,-6.64349 -4.63118,0 -9.58315,3.88674 -8.51116,6.6803 0.99725,2.59879 2.19031,2.59309 7.70527,-0.0369 z M 216.25,180.0321 c 0,-4.65673 -12.03915,-8.36045 -13.43129,-4.132 -0.63365,1.92461 6.87638,6.58901 10.61879,6.59522 1.96855,0.004 2.8125,-0.73587 2.8125,-2.46322 z M 111.875,157.5 c 0,-3.05199 -0.24142,-3.13349 -10.33221,-3.48838 -10.784767,-0.37928 -12.897874,0.6541 -11.071236,5.41425 0.599564,1.56244 2.688839,1.85731 11.071236,1.56251 10.09079,-0.35489 10.33221,-0.43639 10.33221,-3.48838 z m 116.25,0 c 0,-3.04636 -0.25465,-3.13406 -10.12007,-3.48494 -7.90273,-0.28108 -10.46964,0.0613 -11.71556,1.5625 -1.29398,1.55915 -1.29398,2.28573 0,3.84488 1.24592,1.50123 3.81283,1.84359 11.71556,1.5625 9.86542,-0.35088 10.12007,-0.43858 10.12007,-3.48494 z M 115.98751,138.56487 c 0.79115,-4.10815 -13.10976,-9.7099 -15.30023,-6.16565 -1.530875,2.47702 8.75285,9.16878 13.04836,8.49077 1.02336,-0.16154 2.0367,-1.20784 2.25187,-2.32512 z m 96.72656,-0.63361 c 4.97982,-4.50666 1.30434,-8.17706 -4.94977,-4.94294 -3.71289,1.92002 -5.75089,4.85843 -4.34484,6.26447 1.49063,1.49063 7.06263,0.6984 9.29461,-1.32153 z M 127.25,124.75 c 3.04154,-3.04154 1.51779,-6.87053 -5.30017,-13.31868 C 118.20973,107.89409 114.59948,105 113.92706,105 c -7.69581,0 -6.96204,6.6992 1.62311,14.81868 7.0065,6.62644 9.1157,7.51545 11.69983,4.93132 z m 76.31867,-5.30017 c 6.57033,-6.94715 7.82109,-10.49032 4.63623,-13.13352 -2.36466,-1.96249 -5.8693,-0.1711 -12.8924,6.58994 -5.67425,5.46252 -6.49061,8.23707 -3.34821,11.37946 3.10141,3.10141 4.74566,2.4162 11.60438,-4.83588 z m -61.10882,-7.52645 c 2.0783,-2.5042 -0.51724,-10.28508 -3.7759,-11.31934 -5.30644,-1.684203 -6.44243,2.53155 -2.44765,9.08346 2.74474,4.5017 3.97598,4.94404 6.22355,2.23588 z m 40.05385,-3.48588 c 2.80362,-4.59828 3.16981,-7.86752 1.02941,-9.190365 -2.09249,-1.293224 -7.27946,5.693565 -7.2869,9.815365 -0.009,4.75842 3.16864,4.44107 6.25749,-0.625 z m -19.93153,1.51852 C 164.65393,108.84726 165,107.27276 165,98.95602 165,88.964693 163.88771,86.25 159.79397,86.25 156.46509,86.25 155,90.208739 155,99.203538 c 0,5.713232 0.58185,8.699742 1.96429,10.082172 2.32386,2.32387 2.49094,2.3438 5.61788,0.67031 z"
       id="path3350"
       inkscape:connector-curvature="0" />
    <path
       style="fill:#4d92c8"
       d="M 0,160 0,0 l 160,0 160,0 0,160 0,160 -160,0 -160,0 0,-160 z m 163.96407,66.68126 c 3.08172,-2.7889 3.31958,-19.21905 0.32164,-22.21697 -5.8018,-5.8018 -11.06995,0.46953 -10.31775,12.28252 0.7093,11.13931 4.50091,14.90754 9.99611,9.93445 z m -21.795,-15.56625 C 143.60586,208.33274 144.39915,200 143.22724,200 c -0.28753,0 -1.37627,-0.32751 -2.41943,-0.72781 -1.28015,-0.49124 -2.93861,0.92276 -5.10222,4.35016 -3.40268,5.39019 -4.24143,12.02979 -1.64309,13.0069 2.18409,0.82133 6.27014,-1.95808 8.10657,-5.51424 z m 42.82472,-0.80251 c -0.009,-4.5534 -5.14638,-11.00109 -7.91891,-9.93716 -4.66329,1.78946 -0.47759,13.37466 4.83222,13.37466 2.54225,0 3.0918,-0.61201 3.08669,-3.4375 z m -61.67857,-8.24729 c 7.04626,-7.04625 7.92621,-9.39521 4.72049,-12.60092 -4.12877,-4.12878 -10.41062,-0.81541 -17.29881,9.12423 -4.38374,6.32574 -3.61461,10.16148 2.03755,10.16148 2.99395,0 5.35041,-1.49442 10.54077,-6.68479 z M 209.75,207.25 c 0.825,-0.825 1.5,-2.20205 1.5,-3.0601 0,-2.7557 -12.47603,-16.6899 -14.94334,-16.6899 -4.67701,0 -6.30666,1.44517 -6.30666,5.59278 0,3.32798 1.18492,5.13726 6.46154,9.86627 6.47383,5.80198 10.48289,7.09653 13.28846,4.29095 z m -36.35939,-13.65919 c 10.2212,-3.75708 19.08095,-12.98475 22.66944,-23.61086 3.36826,-9.97396 3.3922,-16.16506 0.10025,-25.91322 C 190.83311,128.29224 175.9455,117.5 159.51212,117.5 c -15.26587,0 -28.77888,8.86247 -36.06866,23.65554 -4.10922,8.33877 -4.00103,23.31642 0.23052,31.91511 9.58868,19.48463 29.81841,27.83429 49.71663,20.52016 z m -61.59958,-12.43245 c 4.70464,-2.08109 5.78251,-3.12765 5.4714,-5.3125 -0.82096,-5.76551 -14.76243,-1.7578 -14.76243,4.2437 0,1.21116 0.70313,2.48583 1.5625,2.83259 0.85938,0.34676 1.63162,0.67489 1.7161,0.72916 0.0845,0.0542 2.79008,-1.06755 6.01243,-2.49295 z m 105.32213,0.54674 c 1.16965,-3.04806 -1.06153,-5.68082 -6.37258,-7.51955 -3.34029,-1.15644 -5.44004,-1.26538 -7.11472,-0.36911 -3.44757,1.84508 -2.95875,3.26546 2.31164,6.71682 5.4746,3.58509 10.06491,4.06642 11.17566,1.17184 z M 112.98723,159.6875 c 0.99998,-1.59089 0.99998,-2.78411 0,-4.375 -1.07874,-1.7162 -3.45937,-2.26661 -11.0496,-2.55471 -10.157521,-0.38554 -13.18763,0.72496 -13.18763,4.83315 0,3.65376 3.723885,4.90754 13.61862,4.5852 7.22722,-0.23545 9.54357,-0.77833 10.61861,-2.48864 z m 114.59494,1.51852 c 2.72495,-1.45834 3.17016,-4.95369 0.91783,-7.20602 -2.00409,-2.00409 -19.99591,-2.00409 -22,0 -0.825,0.825 -1.5,2.4 -1.5,3.5 0,1.1 0.675,2.675 1.5,3.5 1.85395,1.85395 17.71341,2.00892 21.08217,0.20602 z M 117.24345,138.56975 c 0.56135,-2.96641 -6.68657,-7.65995 -12.06699,-7.81424 -3.78279,-0.1085 -4.61738,0.33269 -4.94176,2.61221 -0.789933,5.55114 15.97254,10.67783 17.00875,5.20203 z m 96.02117,-0.24778 c 4.24862,-3.6545 3.38223,-7.07197 -1.79286,-7.07197 -4.9383,0 -11.06431,5.60362 -8.93322,8.17144 2.23998,2.69901 6.86073,2.22536 10.72609,-1.09947 z m -83.9684,-16.17709 c 1.11988,-3.20409 0.67552,-4.01227 -5.60243,-10.18937 -7.80574,-7.68034 -11.26031,-9.21042 -14.18707,-6.28365 -3.36629,3.36628 -2.29535,6.67261 4.48262,13.83931 5.46939,5.78308 7.08669,6.80277 10.28993,6.48768 2.86764,-0.28208 4.09918,-1.22814 5.01695,-3.85397 z m 74.68044,-1.83238 c 6.97594,-7.19381 8.33674,-10.81561 5.31728,-14.15208 -1.19978,-1.32573 -2.60754,-2.41042 -3.12837,-2.41042 -1.88163,0 -15.87918,12.51984 -16.45367,14.71667 -1.10156,4.21242 1.18426,7.78333 4.98231,7.78333 2.56356,0 5.0949,-1.61917 9.28245,-5.9375 z m -60.94095,-7.27679 c 2.3953,-2.3953 2.39369,-2.08832 0.0408,-7.71955 -2.88214,-6.897922 -6.87593,-8.645101 -9.32047,-4.07745 -1.00975,1.88675 -0.83144,3.47406 0.73725,6.5625 3.91413,7.70618 5.25135,8.52558 8.54242,5.2345 z m 39.18904,-2.72321 c 3.37065,-4.83786 4.04602,-8.57822 2.02085,-11.191905 -1.64305,-2.120511 -1.9137,-2.050815 -4.85886,1.251235 -3.42833,3.84376 -5.05262,8.58995 -3.93578,11.50038 1.11938,2.91703 4.13919,2.2217 6.77379,-1.55971 z m -17.26873,-1.48032 c 2.06559,-3.85961 1.6013,-17.837145 -0.70172,-21.12517 -2.54195,-3.62915 -6.78784,-3.131132 -8.89209,1.04299 -1.87842,3.726175 -2.10395,14.79388 -0.39315,19.29362 1.53994,4.05036 7.9696,4.55803 9.98696,0.78856 z"
       id="path3348"
       inkscape:connector-curvature="0" />
    <path
       style="fill:#3885c2"
       d="M 0,160 0,0 l 160,0 160,0 0,160 0,160 -160,0 -160,0 0,-160 z m 163.47186,68.05412 c 2.4888,-1.74322 2.77814,-3.01903 2.77814,-12.25 0,-11.18608 -0.99501,-13.30412 -6.25,-13.30412 -5.22078,0 -6.25,2.13489 -6.25,12.96407 0,7.51753 0.50795,10.52535 2.06874,12.25001 2.528,2.79341 4.05367,2.8612 7.65312,0.34005 z M 140.2254,215.3125 c 2.78052,-3.26509 5.03447,-9.68745 4.56459,-13.00633 -0.32794,-2.3163 -1.18607,-2.93117 -4.0908,-2.93117 -3.11918,0 -4.13512,0.89252 -6.70894,5.89395 -3.67128,7.13397 -3.06084,12.23105 1.46482,12.23105 1.5991,0 3.74575,-0.98438 4.77033,-2.1875 z m 45.4775,-3.30288 c 1.32344,-5.27295 -4.8958,-14.31647 -8.81199,-12.8137 -2.90256,1.11382 -2.48617,10.20882 0.60909,13.30408 3.45337,3.45337 7.27036,3.2252 8.2029,-0.49038 z m -69.05822,-3.46282 c 5.87254,-3.12563 13.66782,-11.8457 13.66782,-15.2893 0,-4.25276 -3.6815,-7.22396 -7.78184,-6.28044 -4.43068,1.01955 -15.01344,12.87908 -15.02298,16.83544 -0.0135,5.62042 3.77952,7.58579 9.137,4.7343 z M 209.75,208.5 c 2.89258,-2.89258 1.53776,-7.43206 -4.2346,-14.18869 -6.64619,-7.77945 -9.43761,-9.05504 -13.7016,-6.26116 -5.8455,3.83012 -3.53794,9.37936 7.57153,18.20805 5.04332,4.00794 7.96632,4.64015 10.36467,2.2418 z m -38.18989,-13.49364 c 10.66498,-3.29407 18.42432,-10.12216 23.43607,-20.62336 10.22951,-21.43399 0.8384,-45.53168 -21.50246,-55.17551 -19.31187,-8.33632 -42.45566,2.37841 -51.7979,23.98055 -3.45872,7.99761 -2.86557,21.27071 1.33414,29.85462 6.09408,12.45583 13.11077,18.68373 25.25003,22.41152 8.38277,2.57423 13.83547,2.46935 23.28012,-0.44782 z m 44.77206,-11.30033 c 6.17394,-3.3042 -0.002,-10.30305 -9.24935,-10.48088 -4.4214,-0.085 -5.26588,0.30738 -5.59235,2.59855 -0.29072,2.04039 0.92895,3.48588 5,5.92568 6.10277,3.65741 6.51183,3.73873 9.8417,1.95665 z m -103.71172,-2.0456 c 6.25925,-3.07418 7.16485,-4.76674 4.50022,-8.41085 -3.61202,-4.93973 -17.338593,2.72061 -15.14029,8.4493 1.00918,2.62987 5.23825,2.6146 10.64007,-0.0385 z M 112.25,162.25 c 2.37684,-2.37684 1.82245,-8.23947 -0.91782,-9.70602 -3.05725,-1.63619 -17.004644,-1.69103 -20.017295,-0.0788 -4.622679,2.47399 -4.386233,8.11748 0.42149,10.06009 4.059109,1.64014 18.795955,1.44231 20.513625,-0.27536 z m 117.24807,-1.58191 c 2.30645,-3.15427 2.22045,-3.94957 -0.74807,-6.91809 -3.22749,-3.22749 -17.88334,-3.59294 -22.22186,-0.55413 -3.56042,2.49382 -3.54612,6.10865 0.0344,8.69018 4.16201,3.0008 20.48454,2.13401 22.93558,-1.21796 z M 117.99892,139.60344 c 1.14058,-1.88283 0.73431,-2.79557 -2.37392,-5.33343 -7.26325,-5.93039 -16.25,-6.19452 -16.25,-0.4776 0,2.13951 1.44429,3.64478 5.61155,5.84848 6.31816,3.34112 10.9738,3.32772 13.01237,-0.0375 z m 95.50576,-0.43143 c 3.69616,-2.33305 4.67984,-4.96605 2.73211,-7.31292 -2.13842,-2.57664 -5.81585,-2.32314 -10.77675,0.74286 -2.84355,1.75741 -4.21004,3.55341 -4.21004,5.53335 0,4.5871 5.84636,5.08169 12.25468,1.03671 z M 128.75,125 c 1.375,-1.375 2.5,-3.36126 2.5,-4.41391 0,-2.85971 -15.04153,-16.83609 -18.11918,-16.83609 -3.65605,0 -5.63082,2.34632 -5.63082,6.69022 0,2.79359 1.62422,5.31443 6.68478,10.375 7.24384,7.24383 10.55487,8.19513 14.56522,4.18478 z m 76.06867,-4.30017 c 6.60617,-6.98504 8.24903,-12.13213 4.93133,-15.44983 -2.85025,-2.85025 -6.21375,-1.47314 -13.5928,5.56528 -7.75565,7.39764 -9.10807,11.05527 -5.44291,14.72043 3.59836,3.59837 7.34136,2.31503 14.10439,-4.83588 z m -60.05615,-9.67933 c 0.80515,-6.96969 -6.50498,-15.492723 -10.46742,-12.204186 -2.55058,2.116786 -2.22349,6.564716 0.86806,11.804516 2.13543,3.61926 3.31204,4.43847 5.9375,4.13395 2.50346,-0.29037 3.36558,-1.16953 3.66186,-3.73428 z m 38.68992,-0.9889 c 3.63361,-5.39193 3.42902,-11.726846 -0.3964,-12.274125 -4.94109,-0.706889 -10.04665,8.700085 -7.88841,14.534355 1.46015,3.94716 4.69668,3.06418 8.28481,-2.26023 z m -19.26345,0.88398 c 1.82881,-1.33725 2.10982,-3.32906 1.80141,-12.768443 -0.35321,-10.81087 -0.48263,-11.248063 -3.87869,-13.103085 -3.32587,-1.816678 -3.64262,-1.76163 -5.9375,1.031928 -3.21116,3.908931 -3.53967,21.37999 -0.45992,24.45973 2.37475,2.37475 5.5518,2.51716 8.4747,0.37987 z"
       id="path3346"
       inkscape:connector-curvature="0" />
    <path
       style="fill:#2679bc"
       d="M 0,160 0,0 l 160,0 160,0 0,160 0,160 -160,0 -160,0 0,-160 z m 165,67.5 c 2.08036,-2.08036 2.5,-4.16666 2.5,-12.42913 0,-8.84343 -0.30376,-10.14188 -2.77814,-11.875 -3.7391,-2.61896 -6.7186,-2.44913 -9.72186,0.55413 -2.04196,2.04196 -2.5,4.16666 -2.5,11.59686 0,10.33764 2.04562,14.65314 6.94587,14.65314 1.67978,0 4.17913,-1.125 5.55413,-2.5 z m -26.08571,-10.08792 c 3.20786,-1.7168 7.68483,-12.10087 6.77687,-15.71852 -0.74029,-2.9495 -4.19447,-4.69447 -7.07756,-3.57542 -2.6429,1.02582 -7.3636,10.04398 -7.3636,14.06701 0,3.48231 1.9168,6.56485 4.08217,6.56485 0.5952,0 2.20715,-0.60206 3.58212,-1.33792 z M 185.7367,213.125 c 1.10795,-4.41445 -0.33271,-9.08465 -3.90418,-12.65611 -4.01202,-4.01203 -8.08252,-2.29608 -8.08252,3.40727 0,9.30663 10.02984,17.04558 11.9867,9.24884 z m -61.6742,-10.02479 c 7.69047,-7.3264 9.20891,-11.91514 5,-15.11015 -4.34254,-3.29646 -8.22283,-2.04585 -14.96264,4.82244 -9.67242,9.85679 -10.15923,17.22189 -1.1343,17.16122 3.00998,-0.0202 5.5631,-1.60166 11.09694,-6.87351 z m 87.14501,5.07599 c 2.54399,-3.06533 0.31588,-8.44391 -6.36452,-15.3637 -8.81132,-9.12706 -16.09299,-8.9546 -16.09299,0.38117 0,3.1535 1.36254,5.23232 6.80018,10.375 7.16291,6.77439 12.54465,8.35808 15.65733,4.60753 z M 171.8792,195.52865 c 15.67212,-4.55411 26.97817,-19.79271 27.91394,-37.62319 0.43168,-8.22565 0.0979,-9.7448 -4.02534,-18.31724 -4.98574,-10.36576 -8.82666,-14.19136 -19.81986,-19.7407 -6.36737,-3.21424 -8.81326,-3.74738 -17.10819,-3.72915 -8.88976,0.0195 -10.35679,0.40783 -17.99872,4.76395 -19.89935,11.34318 -27.40133,33.80854 -17.82566,53.38052 6.39004,13.06076 13.25849,18.50876 28.29222,22.44117 7.26791,1.90109 10.64947,1.70788 20.57161,-1.17536 z M 113.125,182.13558 c 3.4879,-1.96949 5.11362,-3.79124 5.3757,-6.02394 0.59695,-5.08555 -2.1859,-6.46463 -8.52899,-4.22665 -7.14449,2.52071 -8.72171,3.99706 -8.72171,8.1639 0,5.58603 4.33018,6.34695 11.875,2.08669 z m 105.57521,1.04941 c 0.82849,-0.99827 1.13875,-2.97318 0.68948,-4.38872 -1.47502,-4.64734 -14.09,-9.13851 -17.56589,-6.25378 -3.25801,2.70391 -2.03859,5.93709 3.4887,9.24983 5.95688,3.57023 11.13358,4.10874 13.38771,1.39267 z M 113.97744,160.625 c 1.06513,-2.3377 1.06513,-3.9123 0,-6.25 -1.35525,-2.97445 -1.9327,-3.125 -11.98636,-3.125 -7.935614,0 -11.051026,0.48851 -12.526794,1.96429 -2.529707,2.5297 -2.493635,5.37894 0.10445,8.24979 1.690132,1.86757 3.982685,2.28592 12.526794,2.28592 9.94225,0 10.5283,-0.15414 11.88191,-3.125 z m 114.98664,1.05626 c 2.80547,-2.53891 2.93152,-5.85709 0.32163,-8.46697 -1.46742,-1.46743 -4.56601,-1.96429 -12.25,-1.96429 -11.16675,0 -13.28571,0.99682 -13.28571,6.25 0,5.22077 2.13489,6.25 12.96407,6.25 7.51753,0 10.52535,-0.50795 12.25001,-2.06874 z M 118.51127,138.53342 c 0.32343,-2.79792 -0.5079,-3.86558 -5.10982,-6.5625 -6.26689,-3.67263 -11.0866,-4.10721 -13.937164,-1.25663 -2.59269,2.59269 -2.488998,3.37471 0.848214,6.39711 4.68962,4.24721 7.57986,5.39094 12.8125,5.07014 4.39756,-0.2696 5.04654,-0.70917 5.38627,-3.64812 z m 93.21698,2.77237 c 4.54906,-1.72955 7.77789,-7.01355 5.76656,-9.43705 -2.47002,-2.97618 -9.30006,-2.29194 -13.6489,1.36737 -4.1357,3.47996 -4.71445,5.39535 -2.34591,7.76389 1.80656,1.80656 5.95475,1.93057 10.22825,0.30579 z m -82.89608,-15.09976 c 4.67877,-2.50401 3.02374,-7.40242 -5.35856,-15.8599 -8.60715,-8.68434 -12.15532,-9.77013 -15.45759,-4.73024 -2.85995,4.36484 -1.59206,7.69349 5.83604,15.32161 6.55887,6.73549 9.98654,7.941 14.98011,5.26853 z m 77.30964,-6.31534 c 6.81513,-8.15615 7.45358,-10.27055 4.41231,-14.61256 -3.10693,-4.43576 -6.37955,-3.31521 -15.06335,5.1577 -7.33831,7.1601 -8.0484,8.29035 -7.26425,11.5625 1.27754,5.33094 1.48667,5.50167 6.73907,5.50167 4.36676,0 5.41359,-0.71272 11.17622,-7.60931 z m -60.94004,-6.70937 c 1.51694,-3.3293 -0.12087,-9.25997 -3.72637,-13.49382 -2.81111,-3.300991 -7.50825,-2.781727 -9.24116,1.0216 -1.21382,2.66404 -1.05004,3.97537 0.9643,7.7206 1.33455,2.48132 3.16976,5.25597 4.07825,6.16589 2.61875,2.62291 6.39236,1.94948 7.92498,-1.41427 z m 37.13634,-0.13442 c 5.61481,-7.13808 6.00934,-16.7969 0.68609,-16.7969 -5.50622,0 -11.03784,11.86897 -8.09464,17.36838 1.87839,3.5098 4.34807,3.31929 7.40855,-0.57148 z m -16.13209,-2.96472 c 2.07272,-3.87291 1.61768,-20.31376 -0.6519,-23.554047 -2.71043,-3.869685 -8.40377,-3.71342 -11.03536,0.302888 -2.8444,4.341098 -2.81046,20.222319 0.05,23.383049 2.83295,3.13039 9.93444,3.0499 11.63729,-0.13189 z"
       id="path3344"
       inkscape:connector-curvature="0" />
    <path
       style="fill:#0062b2"
       d="M 0,160 0,0 l 160,0 160,0 0,160 0,160 -160,0 -160,0 0,-160 z m 165.68181,68.18181 c 2.66013,-2.66011 3.06591,-4.19791 3.05113,-11.5625 -0.0215,-10.70716 -0.86365,-13.83363 -3.99373,-14.82708 -3.34542,-1.06179 -1.71447,-2.23968 6.60181,-4.76788 3.83132,-1.16474 9.03444,-3.52323 11.5625,-5.24109 l 4.59648,-3.12339 0,4.23754 c 0,4.49009 2.96841,8.50655 11.02322,14.91509 4.90423,3.90189 9.59369,4.3979 12.94085,1.36876 3.71397,-3.36109 2.68314,-7.23727 -4.07578,-15.32617 -5.86729,-7.02181 -7.52087,-8.09352 -14.07004,-9.11893 -2.19274,-0.34331 -2.17999,-0.52195 0.25794,-3.61396 5.18536,-6.5766 7.89306,-15.97928 7.33097,-25.45733 -0.28671,-4.83443 -0.97166,-10.11933 -1.52211,-11.74423 -0.93816,-2.76938 -0.8221,-2.8587 1.8535,-1.42677 6.0613,3.24392 18.76145,-2.80359 18.76145,-8.93376 0,-7.98016 -18.6622,-4.95055 -20.75018,3.36858 -0.81246,3.23713 -0.83831,3.22452 -4.40636,-2.14873 l -3.58911,-5.40496 4.25231,-0.38077 c 3.29729,-0.29525 5.67868,-1.9133 10.60328,-7.20447 7.67935,-8.25097 8.9143,-11.98197 5.48997,-16.58608 -4.17005,-5.60674 -7.01226,-4.96582 -15.92294,3.59065 -6.29928,6.04889 -8.1243,8.63179 -8.42196,11.91941 l -0.38001,4.19713 -5.5006,-3.70544 c -3.02534,-2.03798 -4.63048,-3.70543 -3.56699,-3.70543 1.06349,0 3.70806,-2.02099 5.87685,-4.4911 3.38575,-3.85616 3.89004,-5.29601 3.56699,-10.18446 -0.62443,-9.448786 -5.51343,-10.430217 -11.56353,-2.32129 -1.80577,2.42029 -2.53623,5.23071 -2.47302,9.51502 l 0.0896,6.08021 -3.83968,-0.72874 c -5.03003,-0.95465 -5.05,-0.98639 -2.7172,-4.31694 2.39477,-3.41901 2.77627,-19.236828 0.5802,-24.056665 -0.78227,-1.716878 -3.08604,-3.701582 -5.11952,-4.410455 -3.28386,-1.144761 -4.10311,-0.882964 -7.3277,2.341628 -3.39341,3.393468 -3.63042,4.274013 -3.63042,13.487726 0,6.731996 0.58186,10.626536 1.83525,12.283656 C 155.7618,114.23731 155.43639,115 151.25,115 c -3.23969,0 -3.76004,-0.46779 -3.82379,-3.4375 -0.0406,-1.89062 -1.3101,-5.96875 -2.82116,-9.0625 -2.36656,-4.845307 -3.34496,-5.681954 -7.05854,-6.03589 C 132.80295,96.012009 130,98.483865 130,103.11919 c 0,4.21809 6.91975,14.12171 10.22234,14.63032 2.75726,0.42463 2.70227,0.5548 -1.09777,2.59875 -4.93512,2.65449 -6.76976,2.73455 -5.81783,0.25388 0.4801,-1.25111 -2.29932,-4.87189 -8.15605,-10.625 -6.9877,-6.86407 -9.67977,-8.72714 -12.61041,-8.72714 -2.90452,0 -4.169,0.85652 -5.7349,3.88463 -2.78532,5.38621 -1.5815,8.73082 6.02428,16.73752 5.31021,5.59011 7.29521,6.87785 10.60191,6.87785 2.23763,0 4.06843,0.36877 4.06843,0.81951 0,0.45073 -1.47124,2.7484 -3.26942,5.10594 l -3.26941,4.28642 -1.42234,-2.91843 C 117.84502,132.56796 108.36402,127.5 103.55602,127.5 c -3.989699,0 -7.335653,3.99168 -6.386946,7.61954 0.353502,1.3518 3.132026,3.91662 6.174496,5.69963 4.46247,2.61519 6.62208,3.11894 11.17229,2.60607 4.88008,-0.55006 5.52005,-0.36037 4.74686,1.407 -0.49152,1.12351 -1.15075,3.87088 -1.46496,6.10526 -0.65957,4.69036 -1.5683,5.06824 -3.75767,1.5625 -1.36609,-2.18745 -2.91503,-2.5 -12.38976,-2.5 -12.191159,0 -15.40033,1.59724 -15.40033,7.66491 0,5.7338 4.868207,8.02679 16.20044,7.63059 7.84428,-0.27425 9.79659,-0.77552 11.64331,-2.98958 2.63508,-3.15921 2.8339,-3.01417 3.89045,2.83802 0.75535,4.18388 0.60545,4.48555 -2.02168,4.06857 -1.56064,-0.24771 -5.36649,0.81252 -8.45745,2.35605 -6.254,3.12308 -9.273025,7.62799 -7.4255,11.08013 2.01839,3.77137 6.04979,4.08516 12.66679,0.98592 4.75553,-2.22737 6.32814,-3.6946 6.87141,-6.41096 l 0.70451,-3.52252 2.96386,4.01728 c 3.81312,5.16839 3.7582,7.28159 -0.18922,7.28159 -2.16664,0 -5.13331,2.0531 -9.48265,6.5625 -7.04763,7.307 -9.07923,11.23045 -7.85263,15.1651 1.09733,3.51997 2.77353,4.48034 7.8599,4.50326 3.53554,0.016 5.47146,-1.21724 11.5625,-7.36522 4.23781,-4.27743 7.31596,-8.48488 7.31596,-10 0,-3.24424 1.71075,-3.30177 6.72746,-0.2262 2.14364,1.31419 7.15025,3.32819 11.12579,4.47555 l 7.22825,2.0861 -3.16575,2.49019 c -2.90379,2.28412 -3.16575,3.29618 -3.16575,12.23087 0,7.96166 0.47317,10.34224 2.59072,13.03428 3.27852,4.16796 7.81223,4.25426 11.84109,0.22538 z m -27.09362,-9.00907 c 2.05975,-0.55131 3.87002,-2.84364 5.9375,-7.51858 3.75666,-8.49448 3.73956,-11.09512 -0.0895,-13.60401 -4.27748,-2.8027 -7.61887,-1.33841 -11.30712,4.95511 -3.56741,6.08734 -4.03782,12.15743 -1.1648,15.03045 2.20212,2.20212 2.47173,2.2484 6.6239,1.13703 z M 186,216 c 2.25369,-2.25369 1.79816,-8.62067 -0.93779,-13.10772 -6.5643,-10.76568 -15.11356,-6.33712 -11.43951,5.92573 2.13631,7.13038 8.64956,10.90973 12.3773,7.18199 z m 33.28571,-31.71429 c 2.33923,-2.33922 2.40514,-3.20052 0.55554,-7.25994 -0.95226,-2.09001 -3.35732,-3.72921 -7.42236,-5.05881 -9.8382,-3.21791 -13.66889,-2.11497 -13.66889,3.93556 0,2.09615 1.63074,3.93672 5.86973,6.625 6.50085,4.12273 11.68051,4.74367 14.66598,1.75819 z m 9.35174,-20.47547 c 4.59795,-2.46075 5.69592,-6.18184 2.92229,-9.90384 -2.27002,-3.04619 -3.23127,-3.30745 -13.41028,-3.64486 -8.90721,-0.29527 -11.40453,0.0344 -13.30722,1.75622 -4.61668,4.17804 -2.00675,11.82491 4.53276,13.28066 4.1602,0.92609 16.5382,-0.0302 19.26245,-1.48818 z"
       id="path3342"
       inkscape:connector-curvature="0" />
  </g>
</svg>
