<?xml version="1.0" encoding="UTF-8"?>
<svg height="128px" viewBox="0 0 128 128" width="128px" xmlns="http://www.w3.org/2000/svg">
    <path d="m 16 27.929688 h 96 c 4.433594 0 8 3.570312 8 8 v 50.070312 l -30 30 h -74 c -4.433594 0 -8 -3.566406 -8 -8 v -72.070312 c 0 -4.429688 3.566406 -8 8 -8 z m 0 0" fill="#f6f5f4"/>
    <g fill="#deddda">
        <path d="m 120 86.125 h -22 c -4.433594 0 -8 3.570312 -8 8 v 21.875 z m 0 0"/>
        <path d="m 58 72 c 0 2.210938 -1.792969 4 -4 4 c -2.210938 0 -4 -1.789062 -4 -4 s 1.789062 -4 4 -4 c 2.207031 0 4 1.789062 4 4 z m 0 0"/>
        <path d="m 68 72 c 0 2.210938 -1.792969 4 -4 4 c -2.210938 0 -4 -1.789062 -4 -4 s 1.789062 -4 4 -4 c 2.207031 0 4 1.789062 4 4 z m 0 0"/>
        <path d="m 78 72 c 0 2.210938 -1.792969 4 -4 4 c -2.210938 0 -4 -1.789062 -4 -4 s 1.789062 -4 4 -4 c 2.207031 0 4 1.789062 4 4 z m 0 0"/>
    </g>
</svg>
