<?xml version="1.0" encoding="UTF-8" standalone="no"?>
<svg
   xmlns:dc="http://purl.org/dc/elements/1.1/"
   xmlns:cc="http://creativecommons.org/ns#"
   xmlns:rdf="http://www.w3.org/1999/02/22-rdf-syntax-ns#"
   xmlns:svg="http://www.w3.org/2000/svg"
   xmlns="http://www.w3.org/2000/svg"
   xmlns:sodipodi="http://sodipodi.sourceforge.net/DTD/sodipodi-0.dtd"
   xmlns:inkscape="http://www.inkscape.org/namespaces/inkscape"
   viewBox="0 0 16 16"
   id="svg3197"
   height="16"
   width="16"
   version="1.0"
   sodipodi:docname="notification-symbolic.svg"
   inkscape:version="0.92.1 r15371">
  <sodipodi:namedview
     pagecolor="#ffffff"
     bordercolor="#666666"
     borderopacity="1"
     objecttolerance="10"
     gridtolerance="10"
     guidetolerance="10"
     inkscape:pageopacity="0"
     inkscape:pageshadow="2"
     inkscape:window-width="1443"
     inkscape:window-height="807"
     id="namedview6"
     showgrid="true"
     inkscape:zoom="27.812867"
     inkscape:cx="12"
     inkscape:cy="9.1236334"
     inkscape:window-x="0"
     inkscape:window-y="25"
     inkscape:window-maximized="0"
     inkscape:current-layer="svg3197">
    <inkscape:grid
       type="xygrid"
       id="grid4483" />
  </sodipodi:namedview>
  <metadata
     id="metadata12">
    <rdf:RDF>
      <cc:Work
         rdf:about="">
        <dc:format>image/svg+xml</dc:format>
        <dc:type
           rdf:resource="http://purl.org/dc/dcmitype/StillImage" />
        <dc:title></dc:title>
      </cc:Work>
    </rdf:RDF>
  </metadata>
  <defs
     id="defs3199" />
  <path
     id="path3347"
     d="M 8,1 C 7.447715,1 7,1.4477153 7,2 V 2.00977 C 5.235311,2.4654011 4.001751,4.1774378 4,6 c 0,0 -5.246e-4,5.000147 -1.6601562,5.621094 -0.016454,0.01071 -0.023543,0.03104 -0.039063,0.04297 -0.064724,0.04958 -0.1165691,0.107944 -0.1621093,0.175782 -0.017784,0.02638 -0.038367,0.04753 -0.052734,0.07617 C 2.0349059,12.017454 2,12.12829 2,12.25 2,12.6655 2.3345,13 2.75,13 h 10.5 c 0.4155,0 0.75,-0.3345 0.75,-0.75 0,-0.12171 -0.03491,-0.232546 -0.08594,-0.333984 -0.01437,-0.02865 -0.03495,-0.04979 -0.05273,-0.07617 -0.04554,-0.06784 -0.09739,-0.126199 -0.162109,-0.175782 -0.01552,-0.01193 -0.02261,-0.03226 -0.03906,-0.04297 C 12.000519,11.000147 12,6 12,6 11.998249,4.1774378 10.764689,2.4654055 9,2.0097656 V 2 C 9,1.4477153 8.552285,1 8,1 Z M 6.066406,14 A 2,2 0 0 0 8,15.5 2,2 0 0 0 9.935547,14 Z"
     style="color:#bebebe;clip-rule:nonzero;display:inline;overflow:visible;visibility:visible;opacity:1;isolation:auto;mix-blend-mode:normal;color-interpolation:sRGB;color-interpolation-filters:linearRGB;solid-color:#000000;solid-opacity:1;fill:#bebebe;fill-opacity:1;fill-rule:nonzero;stroke:none;stroke-width:1;stroke-linecap:butt;stroke-linejoin:miter;stroke-miterlimit:4;stroke-dasharray:none;stroke-dashoffset:0;stroke-opacity:1;marker:none;color-rendering:auto;image-rendering:auto;shape-rendering:auto;text-rendering:auto;enable-background:accumulate"
     inkscape:connector-curvature="0" />
</svg>
