<?xml version="1.0" encoding="UTF-8" standalone="no"?>
<!-- Created with Inkscape (http://www.inkscape.org/) -->

<svg
   xmlns:dc="http://purl.org/dc/elements/1.1/"
   xmlns:cc="http://creativecommons.org/ns#"
   xmlns:rdf="http://www.w3.org/1999/02/22-rdf-syntax-ns#"
   xmlns:svg="http://www.w3.org/2000/svg"
   xmlns="http://www.w3.org/2000/svg"
   xmlns:xlink="http://www.w3.org/1999/xlink"
   xmlns:sodipodi="http://sodipodi.sourceforge.net/DTD/sodipodi-0.dtd"
   xmlns:inkscape="http://www.inkscape.org/namespaces/inkscape"
   width="48"
   height="48"
   id="svg4227"
   version="1.1"
   inkscape:version="0.48.4 r9939"
   sodipodi:docname="tablet.svg">
  <defs
     id="defs4229">
    <linearGradient
       inkscape:collect="always"
       xlink:href="#linearGradient9251-7"
       id="linearGradient9372"
       gradientUnits="userSpaceOnUse"
       gradientTransform="matrix(0.1794784,0,0,0.17395046,-3.1358693,998.77018)"
       x1="172.27867"
       y1="61.230549"
       x2="213.91405"
       y2="258.42651" />
    <linearGradient
       inkscape:collect="always"
       id="linearGradient9251-7">
      <stop
         style="stop-color:#ffffff;stop-opacity:1;"
         offset="0"
         id="stop9253-4" />
      <stop
         style="stop-color:#ffffff;stop-opacity:0;"
         offset="1"
         id="stop9255-3" />
    </linearGradient>
    <radialGradient
       inkscape:collect="always"
       xlink:href="#linearGradient3887"
       id="radialGradient3893"
       cx="20"
       cy="8"
       fx="20"
       fy="8"
       r="1"
       gradientTransform="matrix(-1,0,0,2,31.911382,1010.4992)"
       gradientUnits="userSpaceOnUse" />
    <linearGradient
       id="linearGradient3887">
      <stop
         style="stop-color:#ff26d3;stop-opacity:1;"
         offset="0"
         id="stop3889" />
      <stop
         style="stop-color:#d2075d;stop-opacity:1;"
         offset="1"
         id="stop3891" />
    </linearGradient>
    <radialGradient
       inkscape:collect="always"
       xlink:href="#linearGradient3867"
       id="radialGradient3873"
       cx="9.7492132"
       cy="21.18"
       fx="9.7492132"
       fy="21.18"
       r="6"
       gradientTransform="matrix(-4.9023787,-0.63799068,-0.73181807,4.6666667,94.939695,943.35604)"
       gradientUnits="userSpaceOnUse" />
    <linearGradient
       id="linearGradient3867">
      <stop
         style="stop-color:#3ce432;stop-opacity:1;"
         offset="0"
         id="stop3869" />
      <stop
         style="stop-color:#000000;stop-opacity:1;"
         offset="1"
         id="stop3871" />
    </linearGradient>
    <radialGradient
       inkscape:collect="always"
       xlink:href="#linearGradient3857"
       id="radialGradient3863"
       cx="7.0912571"
       cy="11.995402"
       fx="7.0912571"
       fy="11.995402"
       r="8"
       gradientTransform="matrix(-1.2469466,1.6076338,2.4375,2.25,15.582433,984.06348)"
       gradientUnits="userSpaceOnUse" />
    <linearGradient
       id="linearGradient3857">
      <stop
         style="stop-color:#ffdf2b;stop-opacity:1;"
         offset="0"
         id="stop3859" />
      <stop
         style="stop-color:#f49b00;stop-opacity:1;"
         offset="1"
         id="stop3861" />
    </linearGradient>
    <radialGradient
       inkscape:collect="always"
       xlink:href="#linearGradient3877"
       id="radialGradient3883"
       cx="15.139999"
       cy="18.856878"
       fx="15.139999"
       fy="18.856878"
       r="5.5"
       gradientTransform="matrix(2.1477274,-0.29752032,0.43607001,2.9599938,-15.072415,984.18002)"
       gradientUnits="userSpaceOnUse" />
    <linearGradient
       id="linearGradient3877">
      <stop
         style="stop-color:#2b94ff;stop-opacity:1;"
         offset="0"
         id="stop3879" />
      <stop
         style="stop-color:#006fb9;stop-opacity:1;"
         offset="1"
         id="stop3881" />
    </linearGradient>
    <linearGradient
       inkscape:collect="always"
       xlink:href="#linearGradient3945"
       id="linearGradient3951"
       x1="12.5"
       y1="26.5"
       x2="12.5"
       y2="28.5"
       gradientUnits="userSpaceOnUse" />
    <linearGradient
       inkscape:collect="always"
       id="linearGradient3945">
      <stop
         style="stop-color:#787878;stop-opacity:1;"
         offset="0"
         id="stop3947" />
      <stop
         style="stop-color:#787878;stop-opacity:0;"
         offset="1"
         id="stop3949" />
    </linearGradient>
    <linearGradient
       inkscape:collect="always"
       xlink:href="#linearGradient6386"
       id="linearGradient3056"
       gradientUnits="userSpaceOnUse"
       gradientTransform="matrix(1.4799124,0,0,1.4444444,435.46586,1076.0288)"
       x1="-257.02042"
       y1="-42.052399"
       x2="-257.02042"
       y2="-21.052401" />
    <linearGradient
       inkscape:collect="always"
       id="linearGradient6386">
      <stop
         style="stop-color:white;stop-opacity:1;"
         offset="0"
         id="stop6388" />
      <stop
         style="stop-color:white;stop-opacity:0.51372552"
         offset="1"
         id="stop6390" />
    </linearGradient>
    <radialGradient
       inkscape:collect="always"
       xlink:href="#linearGradient6119"
       id="radialGradient3060"
       gradientUnits="userSpaceOnUse"
       gradientTransform="matrix(1.9459985,1.0529031e-6,0,1.6792023,-4.6448342,999.95974)"
       cx="11.795237"
       cy="15.284826"
       fx="11.795237"
       fy="15.284826"
       r="10.999997" />
    <linearGradient
       id="linearGradient6119">
      <stop
         style="stop-color:#535353;stop-opacity:1;"
         offset="0"
         id="stop6121" />
      <stop
         style="stop-color:#252325;stop-opacity:1;"
         offset="1"
         id="stop6123" />
    </linearGradient>
    <linearGradient
       inkscape:collect="always"
       xlink:href="#linearGradient5048"
       id="linearGradient10710"
       gradientUnits="userSpaceOnUse"
       gradientTransform="matrix(2.774389,0,0,1.969706,-1892.179,-872.8854)"
       x1="302.85715"
       y1="366.64789"
       x2="302.85715"
       y2="609.50507" />
    <linearGradient
       id="linearGradient5048">
      <stop
         style="stop-color:black;stop-opacity:0;"
         offset="0"
         id="stop5050" />
      <stop
         id="stop5056"
         offset="0.5"
         style="stop-color:black;stop-opacity:1;" />
      <stop
         style="stop-color:black;stop-opacity:0;"
         offset="1"
         id="stop5052" />
    </linearGradient>
    <radialGradient
       inkscape:collect="always"
       xlink:href="#linearGradient5060"
       id="radialGradient10712"
       gradientUnits="userSpaceOnUse"
       gradientTransform="matrix(2.774389,0,0,1.969706,-1891.633,-872.8854)"
       cx="605.71429"
       cy="486.64789"
       fx="605.71429"
       fy="486.64789"
       r="117.14286" />
    <linearGradient
       inkscape:collect="always"
       id="linearGradient5060">
      <stop
         style="stop-color:black;stop-opacity:1;"
         offset="0"
         id="stop5062" />
      <stop
         style="stop-color:black;stop-opacity:0;"
         offset="1"
         id="stop5064" />
    </linearGradient>
    <radialGradient
       r="117.14286"
       fy="486.64789"
       fx="605.71429"
       cy="486.64789"
       cx="605.71429"
       gradientTransform="matrix(-2.774389,0,0,1.969706,112.7623,-872.8854)"
       gradientUnits="userSpaceOnUse"
       id="radialGradient3162"
       xlink:href="#linearGradient5060"
       inkscape:collect="always" />
  </defs>
  <sodipodi:namedview
     id="base"
     pagecolor="#ffffff"
     bordercolor="#666666"
     borderopacity="1.0"
     inkscape:pageopacity="0.0"
     inkscape:pageshadow="2"
     inkscape:zoom="8.0980569"
     inkscape:cx="2.4346576"
     inkscape:cy="24.000019"
     inkscape:document-units="px"
     inkscape:current-layer="layer1"
     showgrid="true"
     inkscape:window-width="1530"
     inkscape:window-height="1171"
     inkscape:window-x="113"
     inkscape:window-y="25"
     inkscape:window-maximized="0">
    <inkscape:grid
       type="xygrid"
       id="grid3061"
       empspacing="5"
       visible="true"
       enabled="true"
       snapvisiblegridlinesonly="true" />
  </sodipodi:namedview>
  <metadata
     id="metadata4232">
    <rdf:RDF>
      <cc:Work
         rdf:about="">
        <dc:format>image/svg+xml</dc:format>
        <dc:type
           rdf:resource="http://purl.org/dc/dcmitype/StillImage" />
        <dc:title />
      </cc:Work>
    </rdf:RDF>
  </metadata>
  <g
     inkscape:label="Layer 1"
     inkscape:groupmode="layer"
     id="layer1"
     transform="translate(0,-1004.3622)">
    <g
       id="g10679"
       transform="matrix(0.01674519,0,0,0.010552,38.893767,1047.9047)"
       style="display:inline">
      <rect
         y="-150.69685"
         x="-1559.2523"
         height="478.35718"
         width="1339.6335"
         id="rect10681"
         style="opacity:0.40206185;fill:url(#linearGradient10710);fill-opacity:1;fill-rule:nonzero;stroke:none;stroke-width:1;marker:none;visibility:visible;display:inline;overflow:visible" />
      <path
         sodipodi:nodetypes="cccc"
         id="path10683"
         d="m -219.61876,-150.68038 c 0,0 0,478.33079 0,478.33079 142.874166,0.90045 345.40022,-107.16966 345.40014,-239.196175 0,-132.026537 -159.436816,-239.134595 -345.40014,-239.134615 z"
         style="opacity:0.40206185;fill:url(#radialGradient10712);fill-opacity:1;fill-rule:nonzero;stroke:none;stroke-width:1;marker:none;visibility:visible;display:inline;overflow:visible"
         inkscape:connector-curvature="0" />
      <path
         style="opacity:0.40206185;fill:url(#radialGradient3162);fill-opacity:1;fill-rule:nonzero;stroke:none;stroke-width:1;marker:none;visibility:visible;display:inline;overflow:visible"
         d="m -1559.2523,-150.68038 c 0,0 0,478.33079 0,478.33079 -142.8742,0.90045 -345.4002,-107.16966 -345.4002,-239.196175 0,-132.026537 159.4368,-239.134595 345.4002,-239.134615 z"
         id="path10685"
         sodipodi:nodetypes="cccc"
         inkscape:connector-curvature="0" />
    </g>
    <rect
       style="fill:url(#radialGradient3060);fill-opacity:1;stroke:#343533;stroke-width:1.0000006;stroke-linecap:round;stroke-linejoin:round;stroke-miterlimit:4;stroke-opacity:1;stroke-dasharray:none"
       id="rect10687"
       width="30"
       height="40.999996"
       x="9"
       y="1007.8622"
       rx="1.6018889"
       ry="1.5853171" />
    <rect
       style="opacity:0.2;fill:none;stroke:url(#linearGradient3056);stroke-width:1.00000095;stroke-linecap:round;stroke-linejoin:round;stroke-miterlimit:4;stroke-opacity:1;stroke-dasharray:none"
       id="rect10691"
       width="27.999998"
       height="39"
       x="10.018637"
       y="1008.8622"
       rx="0"
       ry="0" />
    <path
       transform="matrix(0.66666667,0,0,2,15.166667,992.30987)"
       d="m 14,27.5 a 1.5,0.5 0 1 1 -3,0 1.5,0.5 0 1 1 3,0 z"
       sodipodi:ry="0.5"
       sodipodi:rx="1.5"
       sodipodi:cy="27.5"
       sodipodi:cx="12.5"
       id="path3943"
       style="fill:none;stroke:url(#linearGradient3951);stroke-width:1.73205078;stroke-miterlimit:4;stroke-opacity:1;stroke-dasharray:none"
       sodipodi:type="arc" />
    <path
       style="fill:url(#radialGradient3883);fill-opacity:1;stroke:none"
       d="m 10.479593,1045.3098 0,-36 27,0 0,36 z"
       id="path3875"
       inkscape:connector-curvature="0"
       sodipodi:nodetypes="ccccc" />
    <path
       style="opacity:0.55;fill:url(#radialGradient3863);fill-opacity:1;stroke:none"
       d="m 37.5,1009.3623 -27,0 0,4 4.153846,6 22.846154,8 z"
       id="path3855"
       inkscape:connector-curvature="0"
       sodipodi:nodetypes="cccccc" />
    <path
       style="opacity:0.6;fill:url(#radialGradient3873);fill-opacity:1;stroke:none"
       d="m 37.5,1027.3623 -23,-8 14.218182,25.947 8.781818,0 z"
       id="path3865"
       inkscape:connector-curvature="0"
       sodipodi:nodetypes="ccccc" />
    <path
       style="opacity:0.622;fill:url(#radialGradient3893);fill-opacity:1;stroke:none"
       d="m 14.5,1019.3623 -4,-6 0,5 z"
       id="path3885"
       inkscape:connector-curvature="0"
       sodipodi:nodetypes="cccc" />
    <path
       inkscape:connector-curvature="0"
       sodipodi:nodetypes="cccccc"
       style="opacity:0.40500004;fill:url(#linearGradient9372);fill-opacity:1;stroke:none;display:inline;enable-background:new"
       clip-path="none"
       d="m 10.879449,1008.3715 c -1.5344754,0 -1.3747033,-0.2019 -1.3747033,1.2852 l 0,32.0191 c 0,1.4872 5.3390413,2.6865 6.8735173,2.6865 L 31.5,1008.3715 z"
       id="path9370" />
    <path
       sodipodi:type="arc"
       style="fill:#f1f1f1;fill-opacity:1;stroke:none"
       id="path3853"
       sodipodi:cx="12.5"
       sodipodi:cy="27.5"
       sodipodi:rx="1.5"
       sodipodi:ry="0.5"
       d="m 14,27.5 a 1.5,0.5 0 1 1 -3,0 1.5,0.5 0 1 1 3,0 z"
       transform="matrix(0.66666667,0,0,2,15.166667,992.30987)" />
    <path
       sodipodi:type="arc"
       style="opacity:0.7;fill:#ffffff;fill-opacity:1;stroke:none"
       id="path3921"
       sodipodi:cx="12.5"
       sodipodi:cy="27.5"
       sodipodi:rx="1.5"
       sodipodi:ry="0.5"
       d="m 14,27.5 a 1.5,0.5 0 1 1 -3,0 1.5,0.5 0 1 1 3,0 z"
       transform="matrix(1,0,0,3,20.5,957.36232)" />
    <path
       transform="matrix(1,0,0,3,20.5,951.36232)"
       d="m 14,27.5 a 1.5,0.5 0 1 1 -3,0 1.5,0.5 0 1 1 3,0 z"
       sodipodi:ry="0.5"
       sodipodi:rx="1.5"
       sodipodi:cy="27.5"
       sodipodi:cx="12.5"
       id="path3463"
       style="opacity:0.7;fill:#ffffff;fill-opacity:1;stroke:none"
       sodipodi:type="arc" />
    <path
       sodipodi:type="arc"
       style="opacity:0.7;fill:#ffffff;fill-opacity:1;stroke:none"
       id="path3465"
       sodipodi:cx="12.5"
       sodipodi:cy="27.5"
       sodipodi:rx="1.5"
       sodipodi:ry="0.5"
       d="m 14,27.5 a 1.5,0.5 0 1 1 -3,0 1.5,0.5 0 1 1 3,0 z"
       transform="matrix(1,0,0,3,20.5,945.36232)" />
    <path
       transform="matrix(1,0,0,3,20.5,939.36232)"
       d="m 14,27.5 a 1.5,0.5 0 1 1 -3,0 1.5,0.5 0 1 1 3,0 z"
       sodipodi:ry="0.5"
       sodipodi:rx="1.5"
       sodipodi:cy="27.5"
       sodipodi:cx="12.5"
       id="path3467"
       style="opacity:0.7;fill:#ffffff;fill-opacity:1;stroke:none"
       sodipodi:type="arc" />
    <path
       sodipodi:type="arc"
       style="opacity:0.7;fill:#ffffff;fill-opacity:1;stroke:none"
       id="path3469"
       sodipodi:cx="12.5"
       sodipodi:cy="27.5"
       sodipodi:rx="1.5"
       sodipodi:ry="0.5"
       d="m 14,27.5 a 1.5,0.5 0 1 1 -3,0 1.5,0.5 0 1 1 3,0 z"
       transform="matrix(1,0,0,3,20.5,933.36232)" />
    <path
       transform="matrix(1,0,0,3,14.5,933.36232)"
       d="m 14,27.5 a 1.5,0.5 0 1 1 -3,0 1.5,0.5 0 1 1 3,0 z"
       sodipodi:ry="0.5"
       sodipodi:rx="1.5"
       sodipodi:cy="27.5"
       sodipodi:cx="12.5"
       id="path3471"
       style="opacity:0.7;fill:#ffffff;fill-opacity:1;stroke:none"
       sodipodi:type="arc" />
    <path
       sodipodi:type="arc"
       style="opacity:0.7;fill:#ffffff;fill-opacity:1;stroke:none"
       id="path3473"
       sodipodi:cx="12.5"
       sodipodi:cy="27.5"
       sodipodi:rx="1.5"
       sodipodi:ry="0.5"
       d="m 14,27.5 a 1.5,0.5 0 1 1 -3,0 1.5,0.5 0 1 1 3,0 z"
       transform="matrix(1,0,0,3,8.4999997,933.36232)" />
    <path
       transform="matrix(1,0,0,3,2.4999997,933.36232)"
       d="m 14,27.5 a 1.5,0.5 0 1 1 -3,0 1.5,0.5 0 1 1 3,0 z"
       sodipodi:ry="0.5"
       sodipodi:rx="1.5"
       sodipodi:cy="27.5"
       sodipodi:cx="12.5"
       id="path3475"
       style="opacity:0.7;fill:#ffffff;fill-opacity:1;stroke:none"
       sodipodi:type="arc" />
    <path
       sodipodi:type="arc"
       style="opacity:0.7;fill:#ffffff;fill-opacity:1;stroke:none"
       id="path3477"
       sodipodi:cx="12.5"
       sodipodi:cy="27.5"
       sodipodi:rx="1.5"
       sodipodi:ry="0.5"
       d="m 14,27.5 a 1.5,0.5 0 1 1 -3,0 1.5,0.5 0 1 1 3,0 z"
       transform="matrix(1,0,0,3,2.4999997,939.36232)" />
    <path
       transform="matrix(1,0,0,3,8.4999997,939.36232)"
       d="m 14,27.5 a 1.5,0.5 0 1 1 -3,0 1.5,0.5 0 1 1 3,0 z"
       sodipodi:ry="0.5"
       sodipodi:rx="1.5"
       sodipodi:cy="27.5"
       sodipodi:cx="12.5"
       id="path3479"
       style="opacity:0.7;fill:#ffffff;fill-opacity:1;stroke:none"
       sodipodi:type="arc" />
    <path
       sodipodi:type="arc"
       style="opacity:0.7;fill:#ffffff;fill-opacity:1;stroke:none"
       id="path3481"
       sodipodi:cx="12.5"
       sodipodi:cy="27.5"
       sodipodi:rx="1.5"
       sodipodi:ry="0.5"
       d="m 14,27.5 a 1.5,0.5 0 1 1 -3,0 1.5,0.5 0 1 1 3,0 z"
       transform="matrix(1,0,0,3,14.5,939.36232)" />
    <path
       transform="matrix(1,0,0,3,14.5,945.36232)"
       d="m 14,27.5 a 1.5,0.5 0 1 1 -3,0 1.5,0.5 0 1 1 3,0 z"
       sodipodi:ry="0.5"
       sodipodi:rx="1.5"
       sodipodi:cy="27.5"
       sodipodi:cx="12.5"
       id="path3483"
       style="opacity:0.7;fill:#ffffff;fill-opacity:1;stroke:none"
       sodipodi:type="arc" />
    <path
       sodipodi:type="arc"
       style="opacity:0.7;fill:#ffffff;fill-opacity:1;stroke:none"
       id="path3485"
       sodipodi:cx="12.5"
       sodipodi:cy="27.5"
       sodipodi:rx="1.5"
       sodipodi:ry="0.5"
       d="m 14,27.5 a 1.5,0.5 0 1 1 -3,0 1.5,0.5 0 1 1 3,0 z"
       transform="matrix(1,0,0,3,8.4999997,945.36232)" />
    <path
       transform="matrix(1,0,0,3,2.4999997,945.36232)"
       d="m 14,27.5 a 1.5,0.5 0 1 1 -3,0 1.5,0.5 0 1 1 3,0 z"
       sodipodi:ry="0.5"
       sodipodi:rx="1.5"
       sodipodi:cy="27.5"
       sodipodi:cx="12.5"
       id="path3487"
       style="opacity:0.7;fill:#ffffff;fill-opacity:1;stroke:none"
       sodipodi:type="arc" />
    <path
       sodipodi:type="arc"
       style="opacity:0.7;fill:#ffffff;fill-opacity:1;stroke:none"
       id="path3489"
       sodipodi:cx="12.5"
       sodipodi:cy="27.5"
       sodipodi:rx="1.5"
       sodipodi:ry="0.5"
       d="m 14,27.5 a 1.5,0.5 0 1 1 -3,0 1.5,0.5 0 1 1 3,0 z"
       transform="matrix(1,0,0,3,2.4999997,951.36232)" />
    <path
       transform="matrix(1,0,0,3,8.4999997,951.36232)"
       d="m 14,27.5 a 1.5,0.5 0 1 1 -3,0 1.5,0.5 0 1 1 3,0 z"
       sodipodi:ry="0.5"
       sodipodi:rx="1.5"
       sodipodi:cy="27.5"
       sodipodi:cx="12.5"
       id="path3491"
       style="opacity:0.7;fill:#ffffff;fill-opacity:1;stroke:none"
       sodipodi:type="arc" />
    <path
       sodipodi:type="arc"
       style="opacity:0.7;fill:#ffffff;fill-opacity:1;stroke:none"
       id="path3493"
       sodipodi:cx="12.5"
       sodipodi:cy="27.5"
       sodipodi:rx="1.5"
       sodipodi:ry="0.5"
       d="m 14,27.5 a 1.5,0.5 0 1 1 -3,0 1.5,0.5 0 1 1 3,0 z"
       transform="matrix(1,0,0,3,14.5,951.36232)" />
    <path
       transform="matrix(1,0,0,3,14.5,957.36232)"
       d="m 14,27.5 a 1.5,0.5 0 1 1 -3,0 1.5,0.5 0 1 1 3,0 z"
       sodipodi:ry="0.5"
       sodipodi:rx="1.5"
       sodipodi:cy="27.5"
       sodipodi:cx="12.5"
       id="path3495"
       style="opacity:0.7;fill:#ffffff;fill-opacity:1;stroke:none"
       sodipodi:type="arc" />
    <path
       sodipodi:type="arc"
       style="opacity:0.7;fill:#ffffff;fill-opacity:1;stroke:none"
       id="path3497"
       sodipodi:cx="12.5"
       sodipodi:cy="27.5"
       sodipodi:rx="1.5"
       sodipodi:ry="0.5"
       d="m 14,27.5 a 1.5,0.5 0 1 1 -3,0 1.5,0.5 0 1 1 3,0 z"
       transform="matrix(1,0,0,3,8.4999997,957.36232)" />
    <path
       transform="matrix(1,0,0,3,2.4999997,957.36232)"
       d="m 14,27.5 a 1.5,0.5 0 1 1 -3,0 1.5,0.5 0 1 1 3,0 z"
       sodipodi:ry="0.5"
       sodipodi:rx="1.5"
       sodipodi:cy="27.5"
       sodipodi:cx="12.5"
       id="path3499"
       style="opacity:0.7;fill:#ffffff;fill-opacity:1;stroke:none"
       sodipodi:type="arc" />
  </g>
</svg>
