<svg width="3840" height="2160" version="1.1" viewBox="0 0 1016 571.5" xmlns="http://www.w3.org/2000/svg" xmlns:xlink="http://www.w3.org/1999/xlink"><defs><filter id="d" x="-.22945" y="-.43321" width="1.4589" height="1.8664" style="color-interpolation-filters:sRGB"><feGaussianBlur stdDeviation="44.64577"/></filter><clipPath id="f"><rect x="2743.9" y="-933.63" width="496.75" height="279.42" style="opacity:.5;stroke-linecap:round;stroke-linejoin:round;stroke-miterlimit:16.8;stroke-width:2.5872"/></clipPath><radialGradient id="b" cx="508" cy="285.75" r="508" gradientTransform="matrix(0 1 -1.0008 0 793.98 -222.25)" gradientUnits="userSpaceOnUse"><stop style="stop-color:#23bac2" offset="0"/><stop style="stop-color:#1e488e" offset="1"/></radialGradient><linearGradient id="c" x1="2824.2" x2="3691.9" y1="-706.7" y2="-1207.7" gradientUnits="userSpaceOnUse"><stop style="stop-color:#0f2751" offset="0"/><stop offset="1"/></linearGradient><filter id="e" x="-.021617" y="-.051387" width="1.0432" height="1.1385" style="color-interpolation-filters:sRGB"><feFlood flood-color="rgb(0,0,0)" flood-opacity=".19216" result="flood"/><feComposite in="flood" in2="SourceGraphic" operator="out" result="composite1"/><feGaussianBlur in="composite1" result="blur" stdDeviation="6"/><feOffset dx="0" dy="10" result="offset"/><feComposite in="offset" in2="SourceGraphic" operator="atop" result="composite2"/></filter></defs><g><rect x="-1.1037e-13" y="-6.1035e-5" width="1016" height="571.5" style="fill:url(#b)"/><g><use transform="matrix(1 0 0 -1 -4.1945e-5 571.5)" width="100%" height="100%" style="stroke-width:.98372" xlink:href="#a"/><g id="a" transform="matrix(1.0226 0 0 1.0226 -2298.1 954.77)" clip-path="url(#f)" style="stroke-width:.98372"><path d="m3308.7-933.79v280.23h-56.212l-3.5742-1.7879c-5.4053-2.7036-10.599-4.9157-25.406-10.823-17.902-7.1416-25.279-10.518-32.429-14.842-2.2887-1.3839-3.1842-1.9806-7.0191-4.6776-3.4886-2.4536-10.722-9.2956-12.587-11.906-0.4473-0.62606-1.1962-1.542-1.6639-2.0354-0.7709-0.81325-1.4754-2.0793-2.8171-5.0603-0.2576-0.57247-0.5522-1.1002-0.6545-1.1724-0.3334-0.23554-3.0078-6.3056-4.0013-9.0819-1.0485-2.9306-1.9614-7.1096-2.6361-12.066-0.3692-2.7115-0.3879-3.8464-0.1358-8.4075 0.2903-5.2529 0.5983-7.9132 1.202-10.385 0.7571-3.1002 1.5705-5.6132 2.4848-7.6761 4.8386-10.92 4.0421-22.65-2.0981-30.87-1.555-2.0819-4.8961-5.4193-7.1958-7.1883-5.6762-4.3663-12.626-7.3675-19.788-8.5452-4.6395-0.76297-11.876-0.59579-15.942 0.36845-4.7571 1.1281-4.9185 1.1951-16.393 6.7583-21.472 10.41-46.433 14.404-71.818 11.491-3.3406-0.38334-11.497-1.6395-11.653-1.7945-0.04-0.0401 2.6529-0.1368 5.9849-0.21497 12.898-0.30267 21.691-2.2876 32.929-7.4332 6.1976-2.8376 12.186-6.4748 17.362-10.545 2.5939-2.0396 11.233-10.487 10.982-10.739-0.072-0.0727-0.8748 0.47286-1.7828 1.2121-2.9626 2.4119-8.5308 5.9392-12.679 8.0319-17.271 8.7138-34.8 10.783-53.244 6.2862-5.728-1.3966-12.243-3.8177-17.044-6.3334-2.631-1.3788-2.8136-1.6205-0.5199-0.68711 8.0192 3.2636 18.226 4.1802 27.061 2.4293 7.6563-1.5173 15.854-5.8975 21.778-11.636 1.6229-1.5722 2.9018-2.9071 2.8428-2.9665-0.059-0.0594-1.1447 0.66313-2.4115 1.606-4.2753 3.1822-10.535 5.9094-16.571 7.2198-3.8088 0.82686-10.766 0.82386-14.941-7e-3 -6.7256-1.3379-12.881-4.1056-17.628-7.9262-1.9065-1.5345-5.1616-4.9653-6.9249-7.2985-5.1229-6.7789-8.552-15.673-9.1962-23.853-0.084-1.0732-0.2113-2.4914-0.282-3.1515-0.07-0.66007-0.01-2.5864 0.1412-4.2802 0.6636-7.5695 2.6644-13.791 6.6892-20.801 2.0631-3.5933 2.551-5.3484 2.5293-9.1073-0.022-3.9308-0.61-5.7144-2.8058-8.5097-3.4716-4.4198-10.672-3.8148-15.765 1.3245-2.3505 2.3715-3.499 4.2722-5.2057 8.6163-3.0478 7.7569-4.2829 14.593-4.2543 23.549 0.028 9.0579 1.6722 16.707 5.3916 25.096 0.6382 1.4389 1.1137 2.6163 1.0566 2.6163-0.2034 0-2.1853-3.5721-3.9701-7.1562-4.1207-8.2749-6.8724-17.153-8.4285-27.191-0.7972-5.1442-0.8771-18.189-0.1403-22.898 2.0135-12.865 5.664-23.193 11.819-33.437 2.6446-4.4012 3.6815-6.8976 4.486-10.799l0.3181-1.5425h131.39l0.1859 1.3468c2.2758 16.49-0.7694 33.949-8.4755 48.594-4.3562 8.2787-7.993 13.33-14.23 19.765-1.7281 1.7828-2.908 3.0619-2.6219 2.8425 16.418-12.583 27.787-30.914 31.716-51.138 1.1282-5.8079 1.4988-9.3815 1.6486-15.9l0.1269-5.5107zm-193.97 0 0.071 3.7543c0.1817 9.5478-1.3527 19.274-4.4748 28.363-1.517 4.4155-2.6513 7.0375-4.8866 11.295-3.5739 6.8059-6.943 11.852-11.265 16.873h-5e-4c-1.3859 1.6101-2.5771 2.9274-2.6478 2.9274-0.07 0 0.3888-0.6733 1.0215-1.4962 5.3437-6.9503 10.927-18.206 13.544-27.305 0.9259-3.2181 2.1193-9.419 2.5449-13.222 0.6176-5.521 0.3937-15.614-0.4666-21.012-0.012-0.076-0.014-0.1119-0.024-0.1764h1.6481c0.818 4.0451 0.9686 14.764 0.2699 20.408-0.9177 7.4144-2.7426 14.939-4.9695 20.491-0.617 1.5385-1.0696 2.7973-1.0056 2.7973 0.1635 0 2.25-4.476 3.1641-6.7868 4.0293-10.186 6.302-23.022 5.9761-33.754l-0.095-3.1556zm-183.84 0c-0.6468 1.6629-2.0358 5.9438-2.8939 8.9584-4.2091 14.788-5.4495 33.578-3.2113 48.659 1.1456 7.7209 3.4192 16.523 6.1371 23.763 3.2014 8.527 7.6696 17.358 12.235 24.181 0.9817 1.4669 1.733 2.6671 1.67 2.6671-0.5313 0-8.1754-10.007-11.201-14.664-9.7426-14.996-15.344-32.925-16.553-52.99-0.7263-12.048 1.1602-27.051 4.8911-38.901l0.5265-1.6726zm-10.61 0c-0.1151 0.413-0.2519 0.8973-0.5597 1.8047-1.9286 5.6866-3.699 14.111-4.6207 21.986-0.6366 5.4437-0.6426 18.406-0.011 24.069 2.7187 24.366 11.613 44.476 27.774 62.796 17.567 19.913 42.569 35.326 67.537 41.634 30.78 7.7771 60.32 5.9519 87.662-5.4171 5.214-2.168 8.8646-3.4029 11.928-4.0353 15.56-3.2124 31.047 2.1853 39.294 13.695 2.5178 3.5139 3.8789 8.0718 3.8888 12.975 0.01 6.0658-1.8036 11.663-5.6158 17.367-5.6588 8.4669-13.45 13.998-25.554 18.144-14.734 5.0459-31.905 8.4718-48.139 9.6038v-5e-4c-4.5136 0.31477-20.952 0.33163-25.37 0.026-27.388-1.8951-52.412-8.7966-75.851-20.919-33.223-17.183-59.977-42.887-76.943-73.921-10.508-19.222-16.056-38.545-17.89-62.32-0.3515-4.5552-0.1357-18.689 0.3612-23.679 1.1136-11.18 3.4827-23.01 6.305-31.485l0.7735-2.3231h4.6219c-0.1076 0.4545-0.3327 1.2728-0.739 2.5366-4.9007 15.239-7.2578 31.915-6.8106 48.185 0.092 3.3631 0.2308 6.8175 0.3064 7.6761 1.7621 19.905 6.0679 35.868 14.036 52.042 16.719 33.935 45.682 62.147 81.573 79.457 13.699 6.6069 29.286 11.758 44.894 14.837 29.277 5.7762 58.694 4.6018 86.264-3.4442 5.444-1.5888 6.6554-2.0312 10.135-3.7034 13.232-6.3592 22.242-18.34 21.518-28.612-0.2629-3.7257-1.6752-6.7244-4.5272-9.615-4.8965-4.9628-11.975-7.4075-21.466-7.4144-6.3226-5e-3 -11.589 1.0534-21.834 4.3859-10.138 3.2977-18.054 5.1119-27.293 6.2546-19.365 2.3954-39.71 0.69048-59.185-4.9597-8.28-2.4023-14.186-4.6692-21.888-8.4019-19.73-9.5616-37.37-23.644-50.212-40.085-3.3231-4.2544-8.8926-12.737-11.302-17.213-11.075-20.574-15.577-45.822-12.485-70.023 0.8575-6.7134 2.5524-14.613 4.3407-20.231l0.5317-1.671zm-37.413 0c-0.088 0.3981-0.2369 0.9747-0.5265 1.822-1.7042 4.9858-3.8967 13.752-4.8602 19.431-0.3215 1.8962-0.6608 3.4477-0.7532 3.4477-0.3282 0-2.0832-5.7808-2.4328-8.0131-0.2152-1.3723-0.3231-3.701-0.2739-5.908 0.084-3.836 0.6061-6.3954 2.0201-9.9154l0.347-0.8645zm-10.481 0c-0.1301 0.4419-0.3095 1.0341-0.6881 2.1524-1.4695 4.341-1.7912 6.3101-1.7696 10.839 0.021 4.2579 0.5701 7.998 1.6268 11.069 0.2842 0.8263 0.5169 1.6206 0.5169 1.7655 0 0.145-0.951-1.1321-2.1137-2.8379-4.6801-6.8671-10.577-14.311-15.854-20.015-0.6621-0.7155-1.7056-1.8572-2.3196-2.537l-0.3943-0.4366zm-112.47 0c4.0643 0.44535 8.1049 1.0855 12.108 1.9181 4.3654 0.92776 8.6791 2.0835 12.924 3.4625 4.2444 1.3792 8.4136 2.9797 12.49 4.795 4.0769 1.8151 8.056 3.8424 11.921 6.0737 3.8649 2.2314 7.6104 4.6637 11.221 7.2869 3.6105 2.6233 7.0812 5.4339 10.398 8.4202 0.7249 0.70786 1.4413 1.4243 2.1492 2.1492-1.0245-0.45418-2.0564-0.89297-3.0951-1.3162-3.1213-1.1645-6.2968-2.1895-9.5163-3.0717-3.2194-0.88231-6.4795-1.6209-9.7697-2.2133-3.2903-0.59243-6.6072-1.0381-9.9402-1.3356-3.3329-0.29739-6.6784-0.44628-10.026-0.4462-1.1156-2.1e-4 -2.2311 0.0161-3.3461 0.049-1.1149 0.0331-2.2293 0.0827-3.3426 0.1489-1.1136 0.0662-2.226 0.14884-3.3369 0.248-1.1107 0.0991-2.2197 0.21463-3.3267 0.3466-1.1073 0.13217-2.2124 0.28075-3.3149 0.4457-1.1023 0.16478-2.2018 0.3459-3.2983 0.5433-1.0967 0.19737-2.1901 0.41099-3.28 0.6408-1.0895 0.22988-2.1753 0.47591-3.257 0.738-1.082 0.26216-2.1597 0.54036-3.2328 0.8345-1.073 0.29397-2.1413 0.60384-3.2044 0.9295-1.063 0.32583-2.1207 0.6674-3.1728 1.0246-1.0521 0.35699-2.0985 0.72957-3.1387 1.1176-1.0403 0.38814-2.0743 0.79169-3.1017 1.2105-1.0273 0.41887-2.0479 0.85296-3.0614 1.3021-1.0133 0.44905-2.0194 0.91311-3.0179 1.392-0.9987 0.47894-1.9897 0.97266-2.9726 1.481-0.9829 0.50828-1.9577 1.0311-2.9239 1.5683-0.966 0.53737-1.9234 1.089-2.8718 1.6548-0.9484 0.56557-1.8878 1.1452-2.8177 1.7386-0.93 0.59348-1.8505 1.2007-2.7611 1.8215-0.9105 0.62084-1.8109 1.2552-2.7011 1.9027-0.8903 0.64761-1.7702 1.3084-2.6393 1.9821-0.8691 0.6735-1.7274 1.3598-2.5746 2.0588-0.8472 0.69906-1.6831 1.4106-2.5075 2.1345-0.8244 0.72397-1.6372 1.4601-2.438 2.2082-0.8009 0.74789-1.5897 1.5076-2.3663 2.2789-0.7766 0.77145-1.5409 1.5544-2.2925 2.3485-0.7515 0.794-1.4902 1.5991-2.2159 2.415-0.7258 0.8161-1.4386 1.6429-2.138 2.4802-0.6995 0.83698-1.3855 1.6843-2.0579 2.5416-0.6722 0.85755-1.3306 1.725-1.975 2.6021-0.6446 0.87693-1.2751 1.7634-1.8914 2.659-0.6162 0.89565-1.218 1.8004-1.8053 2.7139-0.5873 0.91353-1.16 1.8357-1.7178 2.7662-0.5578 0.93058-1.1006 1.8694-1.6284 2.816-0.5276 0.94661-1.0401 1.901-1.5372 2.8628-0.4973 0.9618-0.9792 1.9309-1.4455 2.907-0.4663 0.97616-0.917 1.9592-1.3519 2.9487-0.4348 0.9895-0.8537 1.9854-1.2567 2.9873-0.403 1.002-0.79 2.0099-1.1608 3.0234-0.3707 1.0133-0.7251 2.0321-1.0632 3.0559-0.3383 1.024-0.6602 2.0529-0.9656 3.0864-0.3052 1.0334-0.5939 2.0713-0.8659 3.1133-0.2722 1.0421-0.5278 2.0881-0.7666 3.1378-0.2385 1.0495-0.4602 2.1025-0.6651 3.1586-0.205 1.0563-0.3931 2.1155-0.5642 3.1774-0.1712 1.0617-0.3254 2.1259-0.4625 3.1921-0.085 0.69126-0.1626 1.3833-0.2332 2.0761-0.013 0.11551-0.026 0.23102-0.038 0.3466-0.057 0.53892-0.107 1.079-0.155 1.6192-0.04 0.45275-0.075 0.90626-0.1093 1.36-0.095 1.3077-0.1691 2.6184-0.2064 3.9352-0.049 1.7257-0.051 3.4041-0.01 5.0451 0.028 1.073 0.082 2.1259 0.152 3.1682 0.6883 10.355 3.4099 19.307 8.6844 28.976 8.0654 14.785 18.523 26.376 31.718 35.156 9.4329 6.2764 19.206 10.06 29.187 11.302 3.7613 0.46773 11.534 0.19916 15.013-0.5189 11.203-2.3118 21.003-8.5739 27.398-17.506 1.8583-2.5958 4.576-8.0464 5.6169-11.266 2.7887-8.6255 3.1498-18.902 0.9666-27.508-1.9976-7.8747-8.3827-20.435-13.46-26.479l-0.5463-0.65053 0.472 0.78062c4.7999 7.9371 6.8704 12.502 9.2197 20.326 1.917 6.3838 2.1933 8.1693 2.1707 14.021-0.023 5.8474-0.5369 9.2315-2.1468 14.134-4.0703 12.395-11.869 20.37-23.728 24.264-4.1749 1.3709-7.2109 1.8689-11.426 1.8738-4.0335 5e-3 -6.467-0.31194-10.626-1.3834-15.136-3.8989-30.871-16.742-40.869-33.356-5.0569-8.4033-8.2892-16.706-9.5499-24.528-0.4998-3.1006-0.691-11.767-0.3304-14.962 0.7796-6.9043 3.1243-15.007 6.2872-21.727 7.7083-16.379 21.2-30.3 37.026-38.202 10.25-5.1183 23.441-9.0103 34.585-10.204 0.8587-0.092 1.8545-0.2216 2.2124-0.2877 1.7158-0.317 12.645-0.4021 15.872-0.1235 8.4395 0.7286 15.912 2.6543 21.873 5.6367 5.7201 2.862 14.486 10.247 20.059 16.9 2.1687 2.589 7.0018 9.0488 6.8691 9.1815-0.046 0.0463-1.8248-0.72838-3.9519-1.7213-17.48-8.1597-35.756-12.722-55.519-13.86-5.1235-0.29486-16.693-0.12455-17.372 0.25563-0.203 0.11363 0.8221 0.43792 2.4629 0.7791 15.738 3.2725 31.294 8.609 45.224 15.514 13.488 6.6867 23.978 13.673 34.73 23.133 3.3703 2.9651 9.6839 9.2093 12.265 12.13 1.8715 2.1174 1.057 0.24572 8.992 20.48 0.1212 0.30894 0.1573 0.40069 0.2825 0.72014 4.4746 11.406 9.8452 22.363 15.465 31.666 2.5264 4.1822 5.1032 8.0313 7.6717 11.435l2.0887 2.7683-3.1473 0.58293c-6.4812 1.1996-10.946 3.44-15.01 7.5328-5.263 5.2998-6.873 12.169-3.994 17.049 1.6905 2.8656 4.9986 5.5463 8.5339 6.9154 2.8739 1.1129 5.4638 1.5457 9.1982 1.5368 3.6194-9e-3 5.6513-0.34078 11.525-1.8824 15.416-4.0462 30.133-2.6719 44.756 4.1786 6.8075 3.1892 13.122 7.6996 19.006 13.577 9.8156 9.8044 13.926 19.606 12.388 29.541-0.4054 2.6207-1.3471 6.1953-2.1076 8.0014l-0.4107 0.97579-185.88 5e-5h-149.52v-280.23zm-42.926 57.487c0.1432 0 0.2602 0.1171 0.2602 0.2602s-0.117 0.2602-0.2602 0.2602c-0.143 0-0.2603-0.1171-0.2603-0.2602s0.1173-0.2602 0.2603-0.2602zm-1.301 0.8142c0.1178 0 0.2358 0.018 0.3252 0.054 0.1789 0.072 0.032 0.1311-0.3252 0.1311-0.3576 0-0.5037-0.059-0.3248-0.1311 0.089-0.036 0.2069-0.054 0.3248-0.054zm0.2053 1.5465c0.1011 0 0.2523 0.076 0.3847 0.2089 0.2551 0.2569 0.225 0.287-0.1458 0.1458-0.2569-0.098-0.4013-0.2431-0.3208-0.3232 0.02-0.02 0.048-0.03 0.081-0.031zm-3.0677 3.1037c0.1431 0 0.2608 0.1171 0.2608 0.2602-1e-4 0.1431-0.1177 0.2602-0.2608 0.2602-0.1423 0-0.2601-0.1171-0.2601-0.2602s0.1178-0.2602 0.2601-0.2602zm-2.7317 0.528c0.1431 0 0.4354 0.1139 0.6501 0.2526s0.2732 0.2521 0.1301 0.2521-0.4354-0.1134-0.6501-0.2521c-0.2146-0.1387-0.2732-0.2526-0.1301-0.2526zm-1.4311 1.2934c0.1431 0 0.2597 0.11709 0.2597 0.26021 0 0.14311-0.1166 0.26021-0.2597 0.26021-0.1432 0-0.2601-0.1171-0.2601-0.26021 0-0.14312 0.1169-0.26021 0.2601-0.26021zm0.08 0.78469c0.1861 2e-3 0.1541 0.10458-0.08 0.25614-0.4998 0.32306-0.5899 0.32306-0.3903 0 0.088-0.14311 0.3002-0.2581 0.4706-0.25614zm440.23 131.92c0.05 2e-4 0.116 1.376 0.1465 3.0574 0.075 4.1388 0.7008 8.0044 2.1491 13.287 1.707 6.2238 4.261 12.617 5.7557 14.407 0.559 0.6697 1.017 1.3303 1.017 1.4682 0 0.1379 0.175 0.31807 0.3897 0.40047 0.2146 0.0824 0.3903 0.33075 0.3903 0.55194 0 0.31514-0.2393 0.2496-1.1059-0.30341-0.6081-0.38817-1.3108-0.87654-1.5613-1.085-0.2503-0.20865-0.4554-0.304-0.4554-0.21243 0 0.0915-0.4975-0.12482-1.1058-0.48079-1.5221-0.89082-6.1349-3.1074-8.6686-4.1654-1.154-0.48195-3.2617-1.4181-4.6838-2.0801-6.9274-3.2251-18.718-7.5299-25.518-9.3167-2.1545-0.56613-3.1631-0.93467-2.8283-1.0332 0.2862-0.0843 2.0426-0.58409 3.9032-1.111 4.0295-1.1411 12.149-3.8863 15.835-5.3536 6.6556-2.6493 10.483-4.4633 13.977-6.6246 1.2501-0.7733 2.3129-1.4059 2.3631-1.4057zm-131.38 16.565 3.8615 0.74404 3.8615 0.74351-6.0423 1.9978c-6.5074 2.1516-8.1027 2.7316-14.116 5.131-8.5446 3.4096-17.203 7.347-18.656 8.4837l-0.8371 0.6551-1.0383-1.579-1.0376-1.5795 0.6397-0.51839c2.1564-1.7471 20.014-9.4217 30.143-12.955zm56.37 19.935c14.756 0.0797 31.079 3.4775 45.442 9.554 6.128 2.5924 15.214 7.4638 15.214 8.1579 3e-4 0.16606 0.3266 0.31311 0.7257 0.32678 0.4733 0.0162 1.9426 0.8896 4.2278 2.5126 1.9263 1.3681 3.7499 2.7035 4.0526 2.9675 0.3026 0.26398 0.7125 0.51736 0.9108 0.56309 0.1982 0.0457 0.7117 0.40786 1.1409 0.80453 0.4294 0.39667 1.5049 1.2672 2.3897 1.9348 2.7722 2.0921 7.8727 6.829 11.541 10.719 1.9664 2.0858 7.0158 8.2326 7.0158 8.5416 0 0.0906-1.0888 0.16467-2.4201 0.16467h-2.4212l-1.9373-2.4069c-1.9333-2.4013-6.4626-7.0595-12.867-13.233-3.2901-3.1714-6.2106-5.3399-9.6283-7.1506-0.8586-0.45497-3.142-1.7894-5.074-2.965-12.961-7.886-28.418-13.384-43.845-15.594-16.532-2.3689-34.039-0.69029-48.305 4.6309-11.029 4.1137-22.377 10.827-32.099 18.989-3.2369 2.7173-9.8737 9.2652-12.563 12.395-3.4337 3.9964-3.3116 3.895-2.6561 2.2158 0.3066-0.78495 0.9038-2.7756 1.3275-4.4236l0.7705-2.9964 2.0064-2.0431c5.8643-5.9716 12.419-11.405 19.181-15.901 16.666-11.08 32.262-16.393 51.651-17.594 2.0338-0.12593 4.11-0.18214 6.218-0.17076zm-5.2971 19.171c5.6323-0.0432 12.326 0.5188 18.334 1.5867 14.863 2.6413 29.745 9.1108 42.087 18.296 2.5306 1.8834 7.9395 6.4102 8.2417 6.8976 0.092 0.15523-2.608 0.24587-7.2209 0.24293l-7.3752-5e-3 0.6403-1.5851c1.3673-3.385 0.09-7.0531-2.9959-8.6102-2.0547-1.0367-6.4527-0.3273-9.5676 1.5434-2.0537 1.2333-2.8596 2.031-3.6446 3.6063-0.7665 1.5382-0.7835 1.9314-0.1601 3.7364l0.4721 1.3661-99.189-0.0255 2.3415-2.226c14.562-13.843 33.644-22.72 52.822-24.575 1.5768-0.1525 3.3368-0.23412 5.2143-0.24852zm113.83 3.0493c0-0.0693 1.0246 0.49049 2.2767 1.2441 8.6619 5.2128 18.505 9.3532 40.268 16.939 6.1291 2.1365 15.232 5.506 15.442 5.7154 0.069 0.0699-9.8452 0.12705-22.034 0.12705-17.554 0-22.165-0.0676-22.165-0.32525 0-0.44911-3.7898-8.1634-5.3307-10.864-1.6075-2.8171-5.8262-9.2919-7.3147-11.226-0.6282-0.81644-1.1425-1.5416-1.1425-1.6111zm-97.726 2.6c-2.9906 0.10219-5.9869 3.0648-5.1336 6.1754 3.0133 9.6355 15.435-5.9957 5.1336-6.1754zm16.059 3.5952c-0.9593 0.0109-2.1433 0.23265-3.583 0.71761-2.9189 1.0168-5.9281 4.148-4.9064 7.4602 3.4646 15.432 18.692-8.2953 8.4894-8.1778z" clip-path="none" style="fill:url(#c);filter:url(#e);stroke-width:.26021"/></g><use transform="matrix(-1 0 0 1 1016 4.0518e-7)" width="100%" height="100%" style="stroke-width:.98372" xlink:href="#a"/><use transform="rotate(180 508 285.75)" width="100%" height="100%" style="stroke-width:.98372" xlink:href="#a"/></g><path transform="scale(.26458)" d="m1711 1708.7c-10.407 0.081-19.702 6.7628-23.158 16.522-1.1868 3.3401-1.4531 6.537-1.4531 9.1973v197.24c0.3727 13.271 11.392 24.311 24.758 24.344h0.02c17.097 0.023 52.182-0.059 52.182-0.059l8.7265-0.022v0.088h9.9942s1.5189 0.012 1.6015 0.016l0.1856 0.01h344.98c10.301-0.1021 19.551-6.6595 23.062-16.359 0 0 0.01 0 0.01-0.01 1.2161-3.3438 1.4707-6.5168 1.4707-9.1309v-197.53c-0.2158-10.94-7.6237-20.506-18.182-23.422l-1.2109-0.3321-0.3477-0.01c0.4792 0.096 0.9548 0.1826 1.4551 0.3164l-2.3926-0.3398 0.9375 0.023c-2.3669-0.4731-4.4802-0.5469-6.1719-0.5469h-416.43zm208.97 36.592c51.746 0.01 103.47 0.026 142.32 0.059 19.422 0.015 35.623 0.037 46.992 0.059 3.4976 0.01 5.6 0.016 8.1347 0.023 0.019 5.3397 0.041 12.382 0.053 21.061 0.023 18.288 0.033 42.556 0.021 66.805-0.011 24.249-0.039 48.483-0.08 66.711-0.019 8.5656-0.041 15.466-0.066 20.75h-344.12v-0.059h-51.244c-0.023-5.3513-0.045-12.41-0.059-21.098-0.026-18.305-0.039-42.572-0.031-66.82 0.01-24.248 0.035-48.476 0.074-66.688 0.019-8.5602 0.034-15.455 0.059-20.728 2.5877-0.01 4.7803-0.016 8.3711-0.023 11.431-0.019 27.686-0.026 47.148-0.037 38.926-0.019 90.688-0.023 142.43-0.016zm-22.773 21.238-2.7969 5.3965c-0.1191 0.2298-0.4848 0.7483-0.9453 2.2227l0.1777-0.5176c-13.084 35.086-26.153 70.181-39.228 105.26-11.827-17.216-23.616-34.362-35.424-51.555 1.1796-1.3754 2.3682-2.7402 3.5507-4.1406l0.072-0.088c2.8232-3.2667 5.6303-6.535 8.4375-9.8106 2.8432-3.3145 5.6433-6.6066 8.4531-9.8769l0.01-0.01 0.01-0.016c2.8175-3.2937 5.6597-6.5963 8.4805-9.9219l-0.051 0.053c2.8301-3.2887 5.6485-6.5842 8.6504-10.135l13.908-16.455h-23.201c-5.9974 0-11.921 0.037-17.768-0.023h-0.098c-3.0279 0-8.1637 2.378-10.127 4.6875l-0.016 0.016-0.01 0.016c-9.0473 10.714-18.121 21.422-27.188 32.133v-16.012c0-3.4544 0.057-7.0916-0.01-10.887l-0.1621-9.834h-38.23v131.42l8.2676 1.4473c1.74 0.3053 1.8019 0.2005 2.5098 0.2285 0.7078 0.026 1.5143 0.044 2.4219 0.059 1.8152 0.03 4.0213 0.039 6.2226 0.031 2.2013-0.01 4.3795-0.034 6.1426-0.074 0.8815-0.019 1.6537-0.041 2.3398-0.074 0.3432-0.015 0.6574-0.034 1.0332-0.066 0.3757-0.034 0.4077 0.099 2.0879-0.3535l7.4043-1.9922v-17.709l-0.059-0.01v-24.906c2.985 4.3019 5.9666 8.6063 8.9473 12.902 6.2335 9.0194 12.473 17.978 18.676 26.93 0.3065 0.4611 1.0268 1.7311 2.8789 3.123s4.7824 2.2656 6.8867 2.2656h0.032c6.5572-0.023 13.122-0.023 19.695-0.023 2.4146 0 3.0381-0.408 2.9961-0.3984l0.6132-0.1407 0.096 0.4805h26.168l7.7363 1.9043 2.9747-8.6367c-0.05 0.1447 0.1345-0.2378 0.5019-1.3731 2.7334-7.765 5.4747-15.522 8.2168-23.297h29.277c2.9866 8.2745 5.9707 16.532 8.9317 24.766l2.3769 6.6152h32.148l0.016 0.037h83.539v-0.037h28.236l2.2148-6.9687c-0.1039 0.3269 0.584-0.7662 0.584-3.4473v-121.46l-6.0761-0.3398-1.6172-0.8711h-30.744v97.375h-34.525-6.0468v-82.404l-0.059-0.066c0.015-1.8111 0.08-3.4584-0.059-5.5879l-0.6133-9.3516h-35.602l-1.7129 7.8828c-0.3639 1.6793-0.2086 1.4222-0.2226 1.6465-0.015 0.2241-0.014 0.3913-0.022 0.5684-0.011 0.3541-0.024 0.7353-0.031 1.2109-0.019 0.9513-0.037 2.2372-0.051 3.8379-0.026 3.2015-0.043 7.6602-0.059 12.971-0.03 10.621-0.047 24.638-0.039 38.644 0.01 12.668 0.038 24.755 0.074 34.871-11.914-31.925-23.806-63.798-35.662-95.625l-2.4219-6.5097zm185.18 3.1973c-0.019-0.019 0.1233 0.1329 0.1172 0.125-0.026-0.023-0.034-0.029-0.059-0.051-0.01-0.01-0.053-0.07-0.059-0.074zm0.6192 0.6484c0.1701 0.1705 0.057 0.01 0.3691 0.3848 0.072 0.087 0.1518 0.2557 0.252 0.4062-0.248-0.3303-0.385-0.5072-0.6211-0.791zm1.6015 2.377c0.044 0.078 0.2305 0.3695 0.2305 0.3691-1e-4 -2e-4 0.038 0.1937 0.043 0.2149-0.1089-0.2317-0.1393-0.2983-0.2735-0.584zm0.6192 1.3222v0.018c0.4267 1.2918 0.4457 2.2505 0.459 2.836l0.049 0.2988c0-0.053-0.039-0.08-0.039-0.1328 0-0.039-0.01-0.1222-0.01-0.166l-0.459-2.836v-0.018zm-171.8 51.305c0.5919 1.703 1.1546 3.582 1.7266 5.2696 0.2487 0.7349 0.5039 1.4391 0.7539 2.1699h-5.041c0.8585-2.4736 1.704-4.9586 2.5605-7.4395zm-42.246 65.809c0.027 0.3825-0.3463 0.795-0.5254 1.4024 0.1743-0.4676 0.3513-0.9348 0.5254-1.4024z" style="-inkscape-stroke:none;clip-rule:evenodd;color:#000000;fill-rule:evenodd;filter:url(#d);mix-blend-mode:overlay;opacity:.5;stroke-width:20"/><path d="m564.23 454.89c-0.4397-0.11764-0.8784-0.13925-1.3327-0.13925h-110.17c-1.6536 0.0129-3.1052 1.0569-3.6546 2.6116-0.1796 0.50546-0.2318 1.017-0.2318 1.5472v52.112c0.061 2.1715 1.76 3.8649 3.9117 3.8701 4.51 6e-3 13.798-0.0162 13.798-0.0162l-0.016-4.0329h-13.547c-0.072-0.43324-0.054-51.433 0.016-51.669 0.415-0.0579 109.62-0.037 109.86 0.0191 0.066 0.39336 0.047 51.399-0.025 51.667h-91.328v4.0334s0.3564 0 0.5196 6e-3h91.203c1.6356-0.0162 3.0848-1.0422 3.6423-2.5842 0.1795-0.49119 0.2312-0.99751 0.2312-1.5153v-52.211c-0.034-1.7248-1.2084-3.2399-2.8689-3.6984zm-92.719 44.799v-10.43c0-0.23524 0.066-0.40042 0.2582-0.54956 0.8055-0.63702 1.6002-1.2921 2.3952-1.9424 0.079-0.0589 0.1564-0.11119 0.2553-0.18336 0.086 0.11083 0.1579 0.20153 0.2245 0.30119 1.3512 1.9494 2.7035 3.8968 4.0539 5.8431 1.657 2.3976 3.3168 4.784 4.9702 7.1703 0.092 0.13851 0.1761 0.24354 0.3797 0.24354 1.741-6e-3 3.4802-6e-3 5.2193-6e-3 0.058 0 0.1168-0.0191 0.2085-0.0399-3.8504-5.6075-7.685-11.176-11.531-16.779 0.7738-0.89827 1.5224-1.7628 2.2701-2.6487 0.7497-0.86737 1.4967-1.7377 2.2452-2.6111 0.7473-0.87118 1.4893-1.7438 2.2386-2.6159 0.7477-0.87408 1.4967-1.7462 2.236-2.6178 0.7444-0.86505 1.4834-1.7305 2.2725-2.6638h-0.4387c-1.5756 0-3.1504 0.01-4.7263-6e-3 -0.2897 0-0.4724 0.084-0.6635 0.30881-3.871 4.584-7.7511 9.1689-11.631 13.748-0.052 0.0586-0.1184 0.11119-0.2302 0.21426v-11.404c0-0.94387 0.016-1.8906 0-2.8349h-4.8682v29.902c0.3864 0.0678 4.615 0.054 4.8757-0.0162v-0.38047zm25.993 0.43276c0.039-0.11322 0.084-0.21046 0.1181-0.31582 0.7867-2.235 1.5742-4.4662 2.363-6.7031 0.1312-0.35954 0.2617-0.72106 0.3803-1.0821 0.047-0.1507 0.1238-0.22954 0.2827-0.21046 0.052 6e-3 0.1113 0 0.1636 0h11.105c1.0039 2.7813 2.0008 5.5424 2.994 8.3041h5.1988c-3.7502-10.048-7.4847-20.056-11.212-30.062h-5.3159c-0.034 0.0656-0.059 0.11334-0.073 0.15816-3.7011 9.9251-7.3984 19.854-11.098 29.777-0.016 0.0162-0.016 0.0469-0.016 0.066v0.0318c0 0.0129 0.016 0.0191 0.019 0.034h5.0806zm4.4943-12.882c1.0238-2.9646 2.0622-5.9161 3.0598-8.8885 0.4003-1.1946 0.702-2.4269 1.0428-3.6454 0.029-0.0923 0.047-0.18497 0.086-0.32396 0.052 0.0786 0.092 0.12651 0.1057 0.17827 0.8132 3.0364 1.9248 5.9825 2.9343 8.961 0.4193 1.2393 0.8536 2.4711 1.2805 3.7112 0.033 0.11095 0.065 0.22192 0.104 0.35913h-8.7228c0.039-0.12923 0.072-0.24037 0.1097-0.35152zm26.322-14.746c0-0.77434 0.028-1.5416-0.022-2.3086h-4.8079c-0.081 0.37387-0.061 29.691 0.016 29.938h17.512v-4.1655h-8.4475c-0.7102 0-1.4259 6e-3 -2.1329 0-0.6969-6e-3 -1.3909 0.0255-2.1137-0.0163v-23.443zm20.905-2.1243c0-0.0465 0-0.085-0.016-0.13324 0-0.0129-0.016-0.0162-0.016-0.0254 0-6e-3 -0.019-0.0162-0.019-0.0162h-4.8242v29.92h4.8499c0.016-0.0503 0.029-0.077 0.029-0.11095v-29.634z" style="clip-rule:evenodd;fill-rule:evenodd;fill:#fff;stroke-width:.47516"/></g></svg>
