<?xml version="1.0" encoding="UTF-8" standalone="no"?>
<!-- Created with Inkscape (http://www.inkscape.org/) -->
<svg
   xmlns:dc="http://purl.org/dc/elements/1.1/"
   xmlns:cc="http://web.resource.org/cc/"
   xmlns:rdf="http://www.w3.org/1999/02/22-rdf-syntax-ns#"
   xmlns:svg="http://www.w3.org/2000/svg"
   xmlns="http://www.w3.org/2000/svg"
   xmlns:sodipodi="http://sodipodi.sourceforge.net/DTD/sodipodi-0.dtd"
   xmlns:inkscape="http://www.inkscape.org/namespaces/inkscape"
   width="48.000000px"
   height="48.000000px"
   id="svg2"
   sodipodi:version="0.32"
   inkscape:version="0.44"
   sodipodi:docbase="/home/luca/Artwork/blackwhite-icon-theme/scalable/emblems"
   sodipodi:docname="emblem-photos.svg">
  <defs
     id="defs4" />
  <sodipodi:namedview
     id="base"
     pagecolor="#ffffff"
     bordercolor="#666666"
     borderopacity="1.0"
     inkscape:pageopacity="0.0"
     inkscape:pageshadow="2"
     inkscape:zoom="15.916667"
     inkscape:cx="24"
     inkscape:cy="27.110567"
     inkscape:document-units="px"
     inkscape:current-layer="svg2"
     showgrid="true"
     inkscape:grid-bbox="true"
     inkscape:grid-points="true"
     gridspacingy="1.0000000px"
     gridspacingx="1.0000000px"
     gridoriginy="0.0000000px"
     gridoriginx="0.0000000px"
     gridtolerance="1.0000000px"
     guidetolerance="1.0000000px"
     inkscape:guide-points="true"
     inkscape:window-width="1270"
     inkscape:window-height="945"
     inkscape:window-x="0"
     inkscape:window-y="25"
     showguides="true"
     inkscape:guide-bbox="true" />
  <metadata
     id="metadata7">
    <rdf:RDF>
      <cc:Work
         rdf:about="">
        <dc:format>image/svg+xml</dc:format>
        <dc:type
           rdf:resource="http://purl.org/dc/dcmitype/StillImage" />
        <cc:license
           rdf:resource="http://creativecommons.org/licenses/GPL/2.0/" />
        <dc:title>Photos (emblem)</dc:title>
        <dc:description>A photo camera.</dc:description>
        <dc:contributor>
          <cc:Agent>
            <dc:title></dc:title>
          </cc:Agent>
        </dc:contributor>
        <dc:creator>
          <cc:Agent>
            <dc:title>Luca Ferretti &lt;elle.uca@libero.it&gt;</dc:title>
          </cc:Agent>
        </dc:creator>
        <dc:subject>
          <rdf:Bag>
            <rdf:li>photos</rdf:li>
            <rdf:li>emblem</rdf:li>
          </rdf:Bag>
        </dc:subject>
      </cc:Work>
      <cc:License
         rdf:about="http://creativecommons.org/licenses/GPL/2.0/">
        <cc:permits
           rdf:resource="http://web.resource.org/cc/Reproduction" />
        <cc:permits
           rdf:resource="http://web.resource.org/cc/Distribution" />
        <cc:requires
           rdf:resource="http://web.resource.org/cc/Notice" />
        <cc:permits
           rdf:resource="http://web.resource.org/cc/DerivativeWorks" />
        <cc:requires
           rdf:resource="http://web.resource.org/cc/ShareAlike" />
        <cc:requires
           rdf:resource="http://web.resource.org/cc/SourceCode" />
      </cc:License>
    </rdf:RDF>
  </metadata>
  <rect
     style="fill:none;fill-opacity:0.75000000;fill-rule:evenodd;stroke:none;stroke-width:1.0000000px;stroke-linecap:butt;stroke-linejoin:miter;stroke-opacity:1.0000000"
     id="rect9880"
     width="48.000000"
     height="48.000000"
     x="0.0000000"
     y="0.0000000"
     ry="0.0000000" />
  <g
     inkscape:label="Livello 1"
     inkscape:groupmode="layer"
     id="layer1" />
  <path
     sodipodi:nodetypes="ccccccccccccc"
     id="path9152"
     d="M 8,12 L 15.005235,12.057592 L 17.005235,7.0575914 L 31.005235,7.0575914 L 33.005235,12.057592 L 40,12 C 42,12 44,14 44,16 L 44.109947,38.057592 C 44.109947,39.136587 43.241298,40.005236 42.162303,40.005236 L 6.0575914,40.005236 C 4.9785966,40.005236 4.1099474,39.136587 4.1099474,38.057592 L 4,16 C 4,14 6,12 8,12 z "
     style="fill:#ffffff;fill-opacity:1.0000000;fill-rule:evenodd;stroke:#ffffff;stroke-width:8.0000000;stroke-linecap:butt;stroke-linejoin:miter;stroke-miterlimit:4.0000000;stroke-dasharray:none;stroke-opacity:1.0000000" />
  <path
     style="fill:#000000;fill-opacity:1.0000000;fill-rule:evenodd;stroke:none;stroke-width:1.0000000px;stroke-linecap:butt;stroke-linejoin:miter;stroke-opacity:1.0000000"
     d="M 8,12 L 15.005235,12.057592 L 17.005235,7.0575914 L 31.005235,7.0575914 L 33.005235,12.057592 L 40,12 C 42,12 44,14 44,16 L 44.109947,38.057592 C 44.109947,39.136587 43.241298,40.005236 42.162303,40.005236 L 6.0575914,40.005236 C 4.9785966,40.005236 4.1099474,39.136587 4.1099474,38.057592 L 4,16 C 4,14 6,12 8,12 z "
     id="rect8423"
     sodipodi:nodetypes="ccccccccccccc" />
  <path
     style="fill:#ffffff;fill-opacity:1.0000000;fill-rule:evenodd;stroke:none;stroke-width:4.0000000;stroke-linecap:butt;stroke-linejoin:miter;stroke-miterlimit:4.0000000;stroke-dasharray:none;stroke-opacity:1.0000000"
     d="M 24.057591,16.005236 C 18.579466,16.005236 14.114410,20.509357 14.114410,26.005236 C 14.114410,31.501115 18.579465,36.005237 24.057591,36.005236 C 29.535717,36.005235 34.000772,31.501115 34.000772,26.005236 C 34.000772,20.509357 29.535716,16.005236 24.057591,16.005236 z M 24.057591,20.914327 C 26.855032,20.914327 29.103046,23.171553 29.103046,26.005236 C 29.103045,28.838919 26.855032,31.096145 24.057591,31.096145 C 21.260151,31.096146 19.012136,28.838919 19.012136,26.005236 C 19.012136,23.171553 21.260150,20.914327 24.057591,20.914327 z "
     id="path12070"
     sodipodi:nodetypes="cszzscsssc" />
</svg>
