<?xml version="1.0" encoding="UTF-8"?>
<svg height="128px" viewBox="0 0 128 128" width="128px" xmlns="http://www.w3.org/2000/svg" xmlns:xlink="http://www.w3.org/1999/xlink">
    <linearGradient id="a" gradientUnits="userSpaceOnUse" x1="54" x2="54" y1="52" y2="76">
        <stop offset="0" stop-color="#113e74"/>
        <stop offset="0.161169" stop-color="#1a5fb4"/>
        <stop offset="0.271051" stop-color="#76aaeb"/>
        <stop offset="0.395692" stop-color="#154a8d"/>
        <stop offset="1" stop-color="#1a5fb4"/>
    </linearGradient>
    <radialGradient id="b" cx="32.04126" cy="21.085686" gradientTransform="matrix(1.031604 -0.00000002 0.00000001 0.749553 12.946118 10.195166)" gradientUnits="userSpaceOnUse" r="25.203476">
        <stop offset="0" stop-color="#f58b8f"/>
        <stop offset="1" stop-color="#ed333b"/>
    </radialGradient>
    <path d="m 28 8 h 50 l 30.042969 29.917969 v 74.058593 c 0 4.433594 -3.609375 8.023438 -8.042969 8.023438 h -72 c -4.433594 0 -8 -3.566406 -8 -8 v -96 c 0 -4.433594 3.566406 -8 8 -8 z m 0 0" fill="#d3e3f9"/>
    <path d="m 78 8 v 22 c 0 4.433594 3.609375 7.921875 8.042969 7.921875 l 22 -0.003906 z m 0 0" fill="#99c1f1"/>
    <path d="m 92.019531 80 v 14.011719 h 2.316407 v -14.011719 z m 1.15625 0 v 14.011719 m -7.171875 -14.011719 v 14.011719 h 4.628906 v -14.011719 z m 2.3125 0 v 14.011719 m -6.015625 -14.011719 v 14.011719 h 2.316407 v -14.011719 z m 1.15625 0 v 14.011719 m -5.042969 -14.011719 v 14.011719 h 2.316407 v -14.011719 z m 1.15625 0 v 14.011719 m -5.042968 -14.011719 v 14.011719 h 2.3125 v -14.011719 z m 1.15625 0 v 14.011719 m -9.300782 -14.011719 v 14.011719 h 6.941407 v -14.011719 z m 3.46875 0 v 14.011719 m -12.816406 -14.011719 v 14.011719 h 2.3125 v -14.011719 z m 1.15625 0 v 14.011719 m 2.546875 -14.011719 v 14.011719 h 4.625 v -14.011719 z m 2.3125 0 v 14.011719 m -12.03125 -14.011719 v 14.011719 h 4.625 v -14.011719 z m 2.3125 0 v 14.011719 m -6.015625 -14.011719 v 14.011719 h 2.3125 v -14.011719 z m 1.15625 0 v 14.011719 m -5.042968 -14.011719 v 14.011719 h 2.3125 v -14.011719 z m 1.15625 0 v 14.011719 m -7.171876 -14.011719 v 14.011719 h 4.625 v -14.011719 z m 2.3125 0 v 14.011719 m -6.015624 -14.011719 v 14.011719 h 2.3125 v -14.011719 z m 1.15625 0 v 14.011719" fill="#1a5fb4" fill-rule="evenodd"/>
    <g fill="#99c1f1">
        <path d="m 37.476562 98.527344 l 0.941407 3.984375 l -3.066407 -2.578125 l -1.140624 2.035156 l 3.9375 1.304688 l -3.960938 1.25 l 1.125 2.074218 l 3.105469 -2.597656 l -0.941407 3.957031 h 2.679688 l -0.863281 -3.898437 l 3.011719 2.605468 l 1.160156 -2.058593 l -3.914063 -1.324219 l 4.023438 -1.121094 l -1.144531 -2.054687 l -3.167969 2.421875 l 0.894531 -4 z m 0 0"/>
        <path d="m 50.046875 98.527344 l 0.941406 3.984375 l -3.0625 -2.578125 l -1.144531 2.035156 l 3.9375 1.304688 l -3.960938 1.25 l 1.125 2.074218 l 3.109376 -2.597656 l -0.945313 3.957031 h 2.679687 l -0.863281 -3.898437 l 3.011719 2.605468 l 1.160156 -2.058593 l -3.910156 -1.324219 l 4.019531 -1.121094 l -1.140625 -2.054687 l -3.171875 2.421875 l 0.894531 -4 z m 0 0"/>
        <path d="m 62.621094 98.527344 l 0.941406 3.984375 l -3.066406 -2.578125 l -1.140625 2.035156 l 3.933593 1.304688 l -3.960937 1.25 l 1.125 2.074218 l 3.109375 -2.597656 l -0.941406 3.957031 h 2.679687 l -0.867187 -3.898437 l 3.011718 2.605468 l 1.160157 -2.058593 l -3.910157 -1.324219 l 4.019532 -1.121094 l -1.140625 -2.054687 l -3.167969 2.421875 l 0.890625 -4 z m 0 0"/>
        <path d="m 75.191406 98.527344 l 0.941406 3.984375 l -3.066406 -2.578125 l -1.140625 2.035156 l 3.9375 1.304688 l -3.964843 1.25 l 1.128906 2.074218 l 3.105468 -2.597656 l -0.941406 3.957031 h 2.679688 l -0.867188 -3.898437 l 3.015625 2.605468 l 1.160157 -2.058593 l -3.914063 -1.324219 l 4.019531 -1.121094 l -1.140625 -2.054687 l -3.167969 2.421875 l 0.894532 -4 z m 0 0"/>
        <path d="m 87.761719 98.527344 l 0.941406 3.984375 l -3.0625 -2.578125 l -1.144531 2.035156 l 3.9375 1.304688 l -3.960938 1.25 l 1.125 2.074218 l 3.109375 -2.597656 l -0.945312 3.957031 h 2.679687 l -0.863281 -3.898437 l 3.011719 2.605468 l 1.160156 -2.058593 l -3.914062 -1.324219 l 4.023437 -1.121094 l -1.144531 -2.054687 l -3.167969 2.421875 l 0.894531 -4 z m 0 0"/>
    </g>
    <path d="m 38 34 h 16 v 20 c 0 2.210938 1.789062 4 4 4 s 4 1.789062 4 4 v 14.15625 l -8 -6 l -8 6 v -14.15625 c 0 -2.210938 -1.789062 -4 -4 -4 s -4 -1.789062 -4 -4 z m 0 0" fill="url(#a)"/>
    <path d="m 59.875 47.375 c -1.488281 1.523438 -4.074219 0.957031 -5.949219 1.972656 c -1.726562 0.9375 -2.523437 3.351563 -4.460937 3.679688 c -2.101563 0.359375 -3.859375 -1.621094 -5.972656 -1.898438 c -1.949219 -0.257812 -4.011719 1.226563 -5.773438 0.355469 c -1.910156 -0.945313 -2.171875 -3.582031 -3.714844 -5.046875 c -1.429687 -1.355469 -3.96875 -1.367188 -4.878906 -3.109375 c -0.992188 -1.886719 0.347656 -4.171875 -0.039062 -6.265625 c -0.359376 -1.933594 -2.40625 -3.4375 -2.121094 -5.382812 c 0.304687 -2.109376 2.734375 -3.167969 3.652344 -5.09375 c 0.84375 -1.773438 0.070312 -4.191407 1.445312 -5.597657 c 1.488281 -1.527343 4.078125 -0.957031 5.949219 -1.976562 c 1.726562 -0.9375 2.523437 -3.347657 4.460937 -3.679688 c 2.101563 -0.359375 3.859375 1.621094 5.972656 1.902344 c 1.949219 0.253906 4.011719 -1.226563 5.773438 -0.355469 c 1.910156 0.945313 2.171875 3.582032 3.714844 5.046875 c 1.429687 1.355469 3.96875 1.363281 4.882812 3.105469 c 0.988282 1.886719 -0.351562 4.171875 0.035156 6.269531 c 0.359376 1.933594 2.40625 3.433594 2.121094 5.378907 c -0.304687 2.109374 -2.734375 3.171874 -3.652344 5.09375 c -0.84375 1.777343 -0.070312 4.195312 -1.445312 5.601562 z m 0 0" fill="url(#b)"/>
    <path d="m 46 21.292969 c 7.730469 0 14 6.269531 14 14 s -6.269531 14 -14 14 s -14 -6.269531 -14 -14 s 6.269531 -14 14 -14 z m 0 0" fill="#a9141b"/>
    <path d="m 46 20 c 7.730469 0 14 6.269531 14 14 s -6.269531 14 -14 14 s -14 -6.269531 -14 -14 s 6.269531 -14 14 -14 z m 0 0" fill="#e01b24"/>
</svg>
