<?xml version="1.0" encoding="UTF-8"?>
<svg height="128px" viewBox="0 0 128 128" width="128px" xmlns="http://www.w3.org/2000/svg" xmlns:xlink="http://www.w3.org/1999/xlink">
    <clipPath id="a">
        <path d="m 4 3 h 120 v 121 h -120 z m 0 0"/>
    </clipPath>
    <clipPath id="b">
        <path d="m 69.539062 6.285156 l 51.683594 51.683594 c 3.058594 3.054688 3.058594 8.011719 0 11.066406 l -51.683594 51.683594 c -3.054687 3.058594 -8.007812 3.058594 -11.066406 0 l -51.683594 -51.683594 c -3.054687 -3.054687 -3.054687 -8.011718 0 -11.066406 l 51.683594 -51.683594 c 3.058594 -3.058594 8.011719 -3.058594 11.066406 0 z m 0 0"/>
    </clipPath>
    <clipPath id="c">
        <path d="m 49 32 h 75 v 92 h -75 z m 0 0"/>
    </clipPath>
    <clipPath id="d">
        <path d="m 69.539062 6.285156 l 51.683594 51.683594 c 3.058594 3.054688 3.058594 8.011719 0 11.066406 l -51.683594 51.683594 c -3.054687 3.058594 -8.007812 3.058594 -11.066406 0 l -51.683594 -51.683594 c -3.054687 -3.054687 -3.054687 -8.011718 0 -11.066406 l 51.683594 -51.683594 c 3.058594 -3.058594 8.011719 -3.058594 11.066406 0 z m 0 0"/>
    </clipPath>
    <clipPath id="e">
        <path d="m 4 3 h 57 v 90 h -57 z m 0 0"/>
    </clipPath>
    <clipPath id="f">
        <path d="m 69.539062 6.285156 l 51.683594 51.683594 c 3.058594 3.054688 3.058594 8.011719 0 11.066406 l -51.683594 51.683594 c -3.054687 3.058594 -8.007812 3.058594 -11.066406 0 l -51.683594 -51.683594 c -3.054687 -3.054687 -3.054687 -8.011718 0 -11.066406 l 51.683594 -51.683594 c 3.058594 -3.058594 8.011719 -3.058594 11.066406 0 z m 0 0"/>
    </clipPath>
    <linearGradient id="g" gradientUnits="userSpaceOnUse" x1="4.74868432634" x2="123.26419061752" y1="91.54568151506" y2="91.54568151506">
        <stop offset="0" stop-color="#2fc982" stop-opacity="0.501961"/>
        <stop offset="0.0242762" stop-color="#1b744b" stop-opacity="0.501961"/>
        <stop offset="0.42004" stop-color="#1b744b" stop-opacity="0.501961"/>
        <stop offset="0.462892" stop-color="#30cf85"/>
        <stop offset="0.550073" stop-color="#1b744b" stop-opacity="0.501961"/>
        <stop offset="0.944898" stop-color="#10412a" stop-opacity="0.501961"/>
        <stop offset="1" stop-color="#26a269"/>
    </linearGradient>
    <g clip-path="url(#a)">
        <g clip-path="url(#b)">
            <path d="m 65.5 2.246094 l 59.761719 59.761718 c 0.828125 0.824219 0.828125 2.164063 0 2.988282 l -59.761719 59.761718 c -0.824219 0.828126 -2.164062 0.828126 -2.988281 0 l -59.761719 -59.761718 c -0.824219 -0.824219 -0.824219 -2.164063 0 -2.988282 l 59.761719 -59.761718 c 0.824219 -0.824219 2.164062 -0.824219 2.988281 0 z m 0 0" fill="#2ec27e"/>
        </g>
    </g>
    <g clip-path="url(#c)">
        <g clip-path="url(#d)">
            <path d="m 101.398438 32.675781 l -2.417969 7.292969 c -0.117188 -0.007812 -0.234375 -0.011719 -0.351563 -0.019531 c -1.957031 0.015625 -3.910156 0.167969 -5.847656 0.453125 l -3.375 -6.96875 c -2.441406 0.46875 -4.84375 1.121094 -7.191406 1.949218 l 0.5625 7.679688 c -1.917969 0.785156 -3.777344 1.710938 -5.558594 2.765625 l -5.800781 -5.160156 c -2.070313 1.375 -4.039063 2.902343 -5.882813 4.566406 l 3.449219 6.867187 c -1.472656 1.460938 -2.832031 3.03125 -4.070313 4.695313 l -7.347656 -2.554687 c -1.386718 2.066406 -2.613281 4.230468 -3.671875 6.476562 l 5.800781 5.015625 c -0.792968 1.917969 -1.445312 3.890625 -1.953124 5.902344 l -7.757813 0.453125 c -0.492187 2.433594 -0.800781 4.90625 -0.921875 7.386718 l 7.292969 2.417969 c -0.007813 0.117188 -0.011719 0.230469 -0.019531 0.347657 c 0.015624 1.960937 0.167968 3.914062 0.453124 5.851562 l -6.96875 3.375 c 0.46875 2.441406 1.121094 4.84375 1.949219 7.1875 l 7.679688 -0.558594 c 0.785156 1.917969 1.710937 3.777344 2.769531 5.558594 l -5.160156 5.800781 c 1.371094 2.070313 2.898437 4.039063 4.566406 5.882813 l 6.863281 -3.449219 c 1.464844 1.46875 3.03125 2.828125 4.695313 4.066406 l -2.554688 7.351563 c 2.066406 1.382812 4.230469 2.609375 6.476563 3.671875 l 5.015625 -5.804688 c 1.917968 0.796875 3.890625 1.449219 5.902344 1.953125 l 0.453124 7.757813 c 2.4375 0.492187 4.90625 0.800781 7.386719 0.925781 l 2.417969 -7.292969 c 0.117188 0.003907 0.234375 0.011719 0.347656 0.015625 c 1.960938 -0.015625 3.914063 -0.164062 5.851563 -0.453125 l 3.375 6.96875 c 2.441406 -0.46875 4.84375 -1.121093 7.1875 -1.949219 l -0.558594 -7.675781 c 1.917969 -0.785156 3.777344 -1.710937 5.558594 -2.769531 l 5.800781 5.160156 c 2.070312 -1.371094 4.039062 -2.898437 5.882812 -4.566406 l -3.449218 -6.863281 c 1.46875 -1.464844 2.828125 -3.035157 4.070312 -4.699219 l 7.347656 2.554688 c 1.382813 -2.0625 2.613282 -4.226563 3.671876 -6.476563 l -5.800782 -5.011719 c 0.792969 -1.917968 1.445313 -3.890625 1.949219 -5.90625 l 7.761719 -0.449218 c 0.492187 -2.4375 0.800781 -4.90625 0.921875 -7.390626 l -7.292969 -2.414062 c 0.007812 -0.117188 0.011719 -0.234375 0.015625 -0.351562 c -0.011719 -1.957032 -0.164063 -3.914063 -0.449219 -5.851563 l 6.96875 -3.371094 c -0.472656 -2.445312 -1.121094 -4.847656 -1.949218 -7.191406 l -7.679688 0.558594 c -0.785156 -1.917969 -1.710938 -3.773438 -2.769531 -5.558594 l 5.160156 -5.796875 c -1.371094 -2.074219 -2.898437 -4.039062 -4.566406 -5.882812 l -6.863281 3.445312 c -1.464844 -1.46875 -3.035157 -2.828125 -4.695313 -4.066406 l 2.554687 -7.347656 c -2.066406 -1.386719 -4.230468 -2.613282 -6.476562 -3.671876 l -5.015625 5.800782 c -1.917969 -0.792969 -3.890625 -1.449219 -5.902344 -1.953125 l -0.453125 -7.757813 c -2.4375 -0.492187 -4.90625 -0.800781 -7.386718 -0.921875 z m -2.769532 18.53125 c 17.140625 0 31.035156 13.894531 31.035156 31.035157 c 0 17.140624 -13.894531 31.035156 -31.035156 31.035156 c -17.136718 0 -31.03125 -13.894532 -31.03125 -31.035156 c 0 -17.140626 13.894532 -31.035157 31.03125 -31.035157 z m 0 0" fill="#33d17a"/>
        </g>
    </g>
    <g clip-path="url(#e)">
        <g clip-path="url(#f)">
            <path d="m 14.066406 -6.601562 l -2.417968 7.292968 c -0.117188 -0.007812 -0.234376 -0.011718 -0.347657 -0.019531 c -1.960937 0.015625 -3.914062 0.167969 -5.851562 0.453125 l -3.375 -6.96875 c -2.441407 0.46875 -4.84375 1.121094 -7.1875 1.949219 l 0.558593 7.679687 c -1.917968 0.785156 -3.777343 1.710938 -5.558593 2.769532 l -5.800781 -5.160157 c -2.070313 1.371094 -4.039063 2.898438 -5.882813 4.566407 l 3.449219 6.863281 c -1.46875 1.464843 -2.828125 3.03125 -4.070313 4.695312 l -7.347656 -2.554687 c -1.382813 2.066406 -2.613281 4.230468 -3.671875 6.476562 l 5.800781 5.015625 c -0.792969 1.917969 -1.445312 3.890625 -1.953125 5.902344 l -7.757812 0.453125 c -0.492188 2.4375 -0.800782 4.90625 -0.921875 7.386719 l 7.292969 2.417969 c -0.007813 0.117187 -0.011719 0.234374 -0.015626 0.347656 c 0.011719 1.960937 0.164063 3.914062 0.449219 5.851562 l -6.96875 3.375 c 0.46875 2.441406 1.121094 4.84375 1.949219 7.1875 l 7.679688 -0.558594 c 0.785156 1.917969 1.710937 3.777344 2.769531 5.558594 l -5.160157 5.800782 c 1.371094 2.070312 2.898438 4.039062 4.566407 5.882812 l 6.863281 -3.449219 c 1.464844 1.46875 3.035156 2.828125 4.695312 4.070313 l -2.554687 7.347656 c 2.066406 1.382812 4.230469 2.613281 6.476563 3.671875 l 5.015624 -5.800781 c 1.917969 0.792968 3.890626 1.445312 5.902344 1.949218 l 0.453125 7.761719 c 2.4375 0.492188 4.90625 0.800781 7.386719 0.921875 l 2.417969 -7.292968 c 0.117187 0.007812 0.234375 0.011718 0.351562 0.015624 c 1.957031 -0.011718 3.910157 -0.164062 5.847657 -0.449218 l 3.375 6.96875 c 2.441406 -0.472656 4.84375 -1.121094 7.191406 -1.949219 l -0.5625 -7.679687 c 1.917968 -0.785157 3.777344 -1.710938 5.558594 -2.769532 l 5.800781 5.160156 c 2.070312 -1.371093 4.039062 -2.898437 5.882812 -4.566406 l -3.449219 -6.863281 c 1.46875 -1.464844 2.832032 -3.035156 4.070313 -4.695313 l 7.347656 2.554688 c 1.386719 -2.066406 2.613281 -4.230469 3.671875 -6.476562 l -5.800781 -5.015626 c 0.792969 -1.917968 1.445313 -3.890624 1.953125 -5.902343 l 7.757812 -0.453125 c 0.492188 -2.4375 0.800782 -4.90625 0.921876 -7.386719 l -7.292969 -2.417969 c 0.007812 -0.117187 0.011719 -0.234375 0.019531 -0.351562 c -0.015625 -1.957032 -0.167969 -3.910156 -0.453125 -5.847656 l 6.96875 -3.375 c -0.46875 -2.441407 -1.121094 -4.84375 -1.949219 -7.191407 l -7.679687 0.5625 c -0.785157 -1.917969 -1.710938 -3.777343 -2.769531 -5.558593 l 5.160156 -5.800782 c -1.371094 -2.070312 -2.898438 -4.039062 -4.566406 -5.882812 l -6.863282 3.449218 c -1.464844 -1.472656 -3.035156 -2.832031 -4.695312 -4.070312 l 2.554687 -7.347656 c -2.066406 -1.386719 -4.230469 -2.613282 -6.476562 -3.671875 l -5.015625 5.800781 c -1.917969 -0.792969 -3.890625 -1.445312 -5.902344 -1.953125 l -0.453125 -7.757813 c -2.4375 -0.492187 -4.90625 -0.800781 -7.386719 -0.921874 z m 0 0" fill="#26a269"/>
        </g>
    </g>
    <path d="m 5.367188 60.332031 c -1.238282 3.050781 -0.617188 6.664063 1.863281 9.144531 l 50.800781 50.800782 c 3.3125 3.308594 8.640625 3.308594 11.949219 0 l 50.800781 -50.800782 c 2.480469 -2.480468 3.101562 -6.09375 1.867188 -9.144531 c -0.414063 1.019531 -1.035157 1.976563 -1.867188 2.808594 l -50.800781 50.800781 c -3.308594 3.308594 -8.636719 3.308594 -11.949219 0 l -50.800781 -50.800781 c -0.828125 -0.832031 -1.449219 -1.789063 -1.863281 -2.808594 z m 0 0" fill="url(#g)"/>
</svg>
