<?xml version="1.0" encoding="UTF-8"?>
<svg height="128px" viewBox="0 0 128 128" width="128px" xmlns="http://www.w3.org/2000/svg">
    <path d="m 28 8 h 50 l 30.042969 29.917969 v 74.058593 c 0 4.433594 -3.609375 8.023438 -8.042969 8.023438 h -72 c -4.433594 0 -8 -3.566406 -8 -8 v -96 c 0 -4.433594 3.566406 -8 8 -8 z m 0 0" fill="#f6f5f4"/>
    <path d="m 78 8 v 22 c 0 4.433594 3.609375 7.921875 8.042969 7.921875 l 22 -0.003906 z m 0 0" fill="#deddda"/>
    <path d="m 35.988281 99.925781 v -2 h 60 v 2 z m 0 0" fill="#1a5fb4"/>
    <path d="m 63.707031 55.621094 c -6.925781 0 -13.933593 1.851562 -18.683593 5.234375 l 4.511718 8.777343 c 3.140625 -2.496093 7.890625 -4.027343 12.480469 -4.027343 c 6.761719 0 9.984375 3.140625 9.984375 8.535156 h -9.984375 c -13.207031 0 -18.601563 5.316406 -18.601563 12.964844 c 0 7.488281 6.039063 13.125 16.183594 13.125 c 6.363282 0 10.871094 -2.09375 13.207032 -6.039063 v 5.398438 h 11.757812 v -24.722656 c 0 -13.125 -7.652344 -19.246094 -20.855469 -19.246094 z m -0.96875 36.15625 c -4.425781 0 -7.085937 -2.09375 -7.085937 -5.234375 c 0 -2.898438 1.851562 -5.074219 7.730468 -5.074219 h 8.617188 v 4.429688 c -1.449219 3.945312 -5.074219 5.878906 -9.261719 5.878906 z m 0 0" fill="#3584e4"/>
    <g fill="#1a5fb4">
        <path d="m 89.988281 49.925781 h 2 v 56 h -2 z m 0 0"/>
        <path d="m 86.996094 49.925781 l 3.992187 -3.992187 l 3.992188 3.992187 z m 0 0"/>
        <path d="m 86.996094 103.933594 l 3.992187 3.992187 l 3.992188 -3.992187 z m 0 0"/>
    </g>
</svg>
