<?xml version="1.0" encoding="UTF-8"?>
<svg height="128px" viewBox="0 0 128 128" width="128px" xmlns="http://www.w3.org/2000/svg" xmlns:xlink="http://www.w3.org/1999/xlink">
    <clipPath id="a">
        <path d="m 33 46 h 61 v 61 h -61 z m 0 0"/>
    </clipPath>
    <clipPath id="b">
        <path d="m 66.675781 47.21875 l 26.046875 26.046875 c 1.539063 1.539063 1.539063 4.039063 0 5.578125 l -26.046875 26.046875 c -1.539062 1.539063 -4.035156 1.539063 -5.574219 0 l -26.046874 -26.046875 c -1.542969 -1.539062 -1.542969 -4.039062 0 -5.578125 l 26.046874 -26.046875 c 1.539063 -1.539062 4.035157 -1.539062 5.574219 0 z m 0 0"/>
    </clipPath>
    <clipPath id="c">
        <path d="m 56 60 h 38 v 47 h -38 z m 0 0"/>
    </clipPath>
    <clipPath id="d">
        <path d="m 66.675781 47.21875 l 26.046875 26.046875 c 1.539063 1.539063 1.539063 4.039063 0 5.578125 l -26.046875 26.046875 c -1.539062 1.539063 -4.035156 1.539063 -5.574219 0 l -26.046874 -26.046875 c -1.542969 -1.539062 -1.542969 -4.039062 0 -5.578125 l 26.046874 -26.046875 c 1.539063 -1.539062 4.035157 -1.539062 5.574219 0 z m 0 0"/>
    </clipPath>
    <clipPath id="e">
        <path d="m 33 46 h 30 v 45 h -30 z m 0 0"/>
    </clipPath>
    <clipPath id="f">
        <path d="m 66.675781 47.21875 l 26.046875 26.046875 c 1.539063 1.539063 1.539063 4.039063 0 5.578125 l -26.046875 26.046875 c -1.539062 1.539063 -4.035156 1.539063 -5.574219 0 l -26.046874 -26.046875 c -1.542969 -1.539062 -1.542969 -4.039062 0 -5.578125 l 26.046874 -26.046875 c 1.539063 -1.539062 4.035157 -1.539062 5.574219 0 z m 0 0"/>
    </clipPath>
    <path d="m 28 8 h 50 l 30.042969 29.917969 v 74.058593 c 0 4.433594 -3.609375 8.023438 -8.042969 8.023438 h -72 c -4.433594 0 -8 -3.566406 -8 -8 v -96 c 0 -4.433594 3.566406 -8 8 -8 z m 0 0" fill="#f6f5f4"/>
    <path d="m 78 8 v 22 c 0 4.433594 3.609375 7.921875 8.042969 7.921875 l 22 -0.003906 z m 0 0" fill="#deddda"/>
    <g clip-path="url(#a)">
        <g clip-path="url(#b)">
            <path d="m 64.640625 45.183594 l 30.117187 30.117187 c 0.417969 0.417969 0.417969 1.089844 0 1.507813 l -30.117187 30.117187 c -0.414063 0.414063 -1.089844 0.414063 -1.503906 0 l -30.117188 -30.117187 c -0.417969 -0.417969 -0.417969 -1.089844 0 -1.507813 l 30.117188 -30.117187 c 0.414062 -0.414063 1.089843 -0.414063 1.503906 0 z m 0 0" fill="#3584e4"/>
        </g>
    </g>
    <g clip-path="url(#c)">
        <g clip-path="url(#d)">
            <path d="m 82.730469 60.519531 l -1.21875 3.675781 c -0.058594 -0.003906 -0.117188 -0.007812 -0.175781 -0.011718 c -0.984376 0.007812 -1.972657 0.085937 -2.949219 0.230468 l -1.699219 -3.511718 c -1.230469 0.234375 -2.441406 0.5625 -3.621094 0.980468 l 0.28125 3.871094 c -0.96875 0.394532 -1.902344 0.863282 -2.800781 1.394532 l -2.921875 -2.601563 c -1.046875 0.691406 -2.035156 1.460937 -2.964844 2.300781 l 1.734375 3.460938 c -0.738281 0.738281 -1.425781 1.527344 -2.046875 2.367187 l -3.707031 -1.289062 c -0.695313 1.042969 -1.3125 2.132812 -1.847656 3.265625 l 2.921875 2.527344 c -0.398438 0.964843 -0.726563 1.960937 -0.984375 2.972656 l -3.90625 0.230468 c -0.25 1.226563 -0.40625 2.472657 -0.46875 3.722657 l 3.675781 1.21875 c -0.003906 0.058593 -0.003906 0.117187 -0.007812 0.175781 c 0.007812 0.984375 0.085937 1.972656 0.226562 2.949219 l -3.511719 1.699219 c 0.238281 1.230468 0.566407 2.441406 0.984375 3.621093 l 3.871094 -0.28125 c 0.394531 0.96875 0.859375 1.902344 1.394531 2.800781 l -2.601562 2.921876 c 0.691406 1.046874 1.460937 2.035156 2.300781 2.964843 l 3.457031 -1.734375 c 0.738281 0.738282 1.53125 1.425782 2.367188 2.046875 l -1.285157 3.707031 c 1.039063 0.695313 2.128907 1.3125 3.261719 1.847657 l 2.527344 -2.921875 c 0.96875 0.398437 1.960937 0.726562 2.976563 0.984375 l 0.226562 3.90625 c 1.230469 0.25 2.472656 0.40625 3.722656 0.46875 l 1.21875 -3.675781 c 0.058594 0 0.117188 0.003906 0.175782 0.007812 c 0.988281 -0.007812 1.972656 -0.085938 2.949218 -0.226562 l 1.699219 3.511718 c 1.230469 -0.238281 2.441406 -0.566406 3.625 -0.984375 l -0.28125 -3.871093 c 0.964844 -0.394532 1.902344 -0.859376 2.800781 -1.394532 l 2.921875 2.601563 c 1.042969 -0.691407 2.035157 -1.460938 2.964844 -2.300781 l -1.738281 -3.460938 c 0.742187 -0.734375 1.425781 -1.527344 2.050781 -2.367188 l 3.703125 1.289063 c 0.699219 -1.039063 1.316406 -2.132813 1.851562 -3.261719 l -2.925781 -2.527344 c 0.402344 -0.96875 0.730469 -1.960937 0.984375 -2.976562 l 3.910156 -0.226562 c 0.246094 -1.230469 0.402344 -2.472657 0.464844 -3.722657 l -3.675781 -1.21875 c 0.003906 -0.058593 0.007813 -0.117187 0.007813 -0.175781 c -0.003907 -0.988281 -0.082032 -1.972656 -0.226563 -2.949219 l 3.511719 -1.699219 c -0.234375 -1.230468 -0.5625 -2.441406 -0.980469 -3.625 l -3.871094 0.28125 c -0.394531 -0.964843 -0.863281 -1.902343 -1.394531 -2.800781 l 2.601562 -2.921875 c -0.691406 -1.042968 -1.460937 -2.035156 -2.300781 -2.964844 l -3.460937 1.738282 c -0.738282 -0.742188 -1.527344 -1.425782 -2.367188 -2.050782 l 1.289063 -3.703124 c -1.042969 -0.699219 -2.132813 -1.316407 -3.265625 -1.851563 l -2.527344 2.925781 c -0.964844 -0.402344 -1.960938 -0.730468 -2.972656 -0.984375 l -0.230469 -3.910156 c -1.226563 -0.25 -2.472656 -0.402344 -3.722656 -0.464844 z m -1.394531 9.339844 c 8.636718 0 15.640624 7.003906 15.640624 15.640625 s -7.003906 15.636719 -15.640624 15.636719 c -8.636719 0 -15.636719 -7 -15.636719 -15.636719 s 7 -15.640625 15.636719 -15.640625 z m 0 0" fill="#98c1f1"/>
        </g>
    </g>
    <g clip-path="url(#e)">
        <g clip-path="url(#f)">
            <path d="m 38.71875 40.726562 l -1.214844 3.675782 c -0.058594 -0.003906 -0.117187 -0.007813 -0.175781 -0.011719 c -0.988281 0.007813 -1.972656 0.085937 -2.949219 0.230469 l -1.703125 -3.511719 c -1.230469 0.234375 -2.441406 0.5625 -3.621093 0.980469 l 0.28125 3.871094 c -0.964844 0.394531 -1.902344 0.863281 -2.800782 1.394531 l -2.921875 -2.601563 c -1.042969 0.691406 -2.035156 1.460938 -2.964843 2.300782 l 1.738281 3.460937 c -0.742188 0.738281 -1.425781 1.527344 -2.050781 2.367187 l -3.703126 -1.289062 c -0.699218 1.042969 -1.316406 2.132812 -1.851562 3.265625 l 2.925781 2.527344 c -0.402343 0.964843 -0.730469 1.960937 -0.984375 2.972656 l -3.910156 0.230469 c -0.25 1.226562 -0.402344 2.472656 -0.464844 3.722656 l 3.675782 1.21875 c -0.003907 0.058594 -0.007813 0.117188 -0.011719 0.175781 c 0.007812 0.984375 0.085937 1.972657 0.230469 2.945313 l -3.511719 1.703125 c 0.234375 1.230469 0.5625 2.441406 0.980469 3.621093 l 3.871093 -0.28125 c 0.394531 0.96875 0.859375 1.902344 1.394531 2.800782 l -2.601562 2.921875 c 0.691406 1.046875 1.460938 2.035156 2.300781 2.964843 l 3.460938 -1.734374 c 0.738281 0.738281 1.527343 1.421874 2.367187 2.046874 l -1.289062 3.703126 c 1.042968 0.699218 2.132812 1.316406 3.265625 1.851562 l 2.527343 -2.921875 c 0.964844 0.398437 1.960938 0.726563 2.972657 0.980469 l 0.230469 3.910156 c 1.226562 0.25 2.46875 0.40625 3.722656 0.46875 l 1.21875 -3.675781 c 0.058594 0 0.117187 0.003906 0.175781 0.007812 c 0.984375 -0.007812 1.96875 -0.085937 2.945313 -0.230469 l 1.703124 3.511719 c 1.230469 -0.234375 2.441407 -0.5625 3.621094 -0.980469 l -0.28125 -3.871093 c 0.964844 -0.394531 1.902344 -0.859375 2.800782 -1.394531 l 2.921874 2.601562 c 1.046876 -0.691406 2.035157 -1.460938 2.964844 -2.300781 l -1.738281 -3.460938 c 0.742187 -0.734375 1.425781 -1.527343 2.050781 -2.367187 l 3.703125 1.289062 c 0.699219 -1.039062 1.316407 -2.132812 1.851563 -3.265625 l -2.921875 -2.523437 c 0.398437 -0.96875 0.726562 -1.960938 0.980469 -2.976563 l 3.910156 -0.226562 c 0.25 -1.230469 0.40625 -2.472657 0.464844 -3.722657 l -3.671876 -1.21875 c 0 -0.058593 0.003907 -0.117187 0.007813 -0.175781 c -0.007813 -0.988281 -0.085937 -1.972656 -0.230469 -2.949219 l 3.511719 -1.703124 c -0.234375 -1.230469 -0.5625 -2.441407 -0.980469 -3.621094 l -3.871094 0.28125 c -0.394531 -0.964844 -0.859374 -1.902344 -1.394531 -2.800782 l 2.601563 -2.921874 c -0.691406 -1.042969 -1.460938 -2.035157 -2.300782 -2.964844 l -3.460937 1.738281 c -0.738281 -0.742187 -1.527344 -1.425781 -2.367187 -2.050781 l 1.289062 -3.703125 c -1.039062 -0.699219 -2.132812 -1.316407 -3.265625 -1.851563 l -2.527344 2.925782 c -0.964843 -0.402344 -1.957031 -0.730469 -2.972656 -0.984376 l -0.226563 -3.910156 c -1.230468 -0.25 -2.472656 -0.402344 -3.726562 -0.464844 z m 0 0" fill="#1a5fb4"/>
        </g>
    </g>
    <path d="m 34.335938 74.457031 c -0.621094 1.535157 -0.308594 3.359375 0.941406 4.609375 l 25.601562 25.601563 c 1.667969 1.667969 4.351563 1.667969 6.019532 0 l 25.601562 -25.601563 c 1.25 -1.25 1.5625 -3.074218 0.941406 -4.609375 c -0.210937 0.515625 -0.523437 0.996094 -0.941406 1.414063 l -25.601562 25.601562 c -1.667969 1.667969 -4.351563 1.667969 -6.019532 0 l -25.601562 -25.601562 c -0.417969 -0.417969 -0.730469 -0.898438 -0.941406 -1.414063 z m 0 0" fill="#1a5fb4" fill-opacity="0.501961"/>
</svg>
