<?xml version="1.0" encoding="UTF-8"?>
<svg height="128px" viewBox="0 0 128 128" width="128px" xmlns="http://www.w3.org/2000/svg" xmlns:xlink="http://www.w3.org/1999/xlink">
    <radialGradient id="a" cx="413.639404" cy="226.77327" gradientTransform="matrix(0.231318 0.400655 0.244759 -0.141312 -89.187302 -67.681122)" gradientUnits="userSpaceOnUse" r="192">
        <stop offset="0" stop-color="#50db81"/>
        <stop offset="1" stop-color="#8ff0a4" stop-opacity="0.003922"/>
    </radialGradient>
    <radialGradient id="b" cx="521.890137" cy="228.371063" gradientTransform="matrix(0.00000003 -0.278432 -0.284052 0 110.869301 251.310974)" gradientUnits="userSpaceOnUse" r="192">
        <stop offset="0" stop-color="#4a86cf"/>
        <stop offset="1" stop-color="#87bae1" stop-opacity="0"/>
    </radialGradient>
    <path d="m 28 8 h 50 l 30.042969 29.917969 v 74.058593 c 0 4.433594 -3.609375 8.023438 -8.042969 8.023438 h -72 c -4.433594 0 -8 -3.566406 -8 -8 v -96 c 0 -4.433594 3.566406 -8 8 -8 z m 0 0" fill="#f6f5f4"/>
    <g fill="#deddda">
        <path d="m 78 8 v 22 c 0 4.433594 3.609375 7.921875 8.042969 7.921875 l 22 -0.003906 z m 0 0"/>
        <path d="m 82 100 h 12 c 1.105469 0 2 0.894531 2 2 s -0.894531 2 -2 2 h -12 c -1.105469 0 -2 -0.894531 -2 -2 s 0.894531 -2 2 -2 z m 0 0"/>
        <path d="m 82 92 h 12 c 1.105469 0 2 0.894531 2 2 s -0.894531 2 -2 2 h -12 c -1.105469 0 -2 -0.894531 -2 -2 s 0.894531 -2 2 -2 z m 0 0"/>
        <path d="m 82 84 h 12 c 1.105469 0 2 0.894531 2 2 s -0.894531 2 -2 2 h -12 c -1.105469 0 -2 -0.894531 -2 -2 s 0.894531 -2 2 -2 z m 0 0"/>
        <path d="m 82 76 h 12 c 1.105469 0 2 0.894531 2 2 s -0.894531 2 -2 2 h -12 c -1.105469 0 -2 -0.894531 -2 -2 s 0.894531 -2 2 -2 z m 0 0"/>
        <path d="m 82 68 h 12 c 1.105469 0 2 0.894531 2 2 s -0.894531 2 -2 2 h -12 c -1.105469 0 -2 -0.894531 -2 -2 s 0.894531 -2 2 -2 z m 0 0"/>
        <path d="m 82 60 h 12 c 1.105469 0 2 0.894531 2 2 s -0.894531 2 -2 2 h -12 c -1.105469 0 -2 -0.894531 -2 -2 s 0.894531 -2 2 -2 z m 0 0"/>
        <path d="m 82 52 h 12 c 1.105469 0 2 0.894531 2 2 s -0.894531 2 -2 2 h -12 c -1.105469 0 -2 -0.894531 -2 -2 s 0.894531 -2 2 -2 z m 0 0"/>
        <path d="m 34 44 h 60 c 1.105469 0 2 0.894531 2 2 s -0.894531 2 -2 2 h -60 c -1.105469 0 -2 -0.894531 -2 -2 s 0.894531 -2 2 -2 z m 0 0"/>
        <path d="m 34 36 h 36 c 1.105469 0 2 0.59375 2 1.324219 v 1.351562 c 0 0.730469 -0.894531 1.324219 -2 1.324219 h -36 c -1.105469 0 -2 -0.59375 -2 -1.324219 v -1.351562 c 0 -0.730469 0.894531 -1.324219 2 -1.324219 z m 0 0"/>
        <path d="m 34 28 h 36 c 1.105469 0 2 0.59375 2 1.324219 v 1.351562 c 0 0.730469 -0.894531 1.324219 -2 1.324219 h -36 c -1.105469 0 -2 -0.59375 -2 -1.324219 v -1.351562 c 0 -0.730469 0.894531 -1.324219 2 -1.324219 z m 0 0"/>
    </g>
    <path d="m 36 104 h 34 c 2.210938 0 4 -1.789062 4 -4 v -42.035156 c 0 -2.207032 -1.789062 -4 -4 -4 h -34 c -2.210938 0 -4 1.792968 -4 4 v 42.035156 c 0 2.210938 1.789062 4 4 4 z m 0 0" fill="url(#a)"/>
    <path d="m 36 104 h 34 c 2.210938 0 4 -1.789062 4 -4 v -42.035156 c 0 -2.207032 -1.789062 -4 -4 -4 h -34 c -2.210938 0 -4 1.792968 -4 4 v 42.035156 c 0 2.210938 1.789062 4 4 4 z m 0 0" fill="url(#b)"/>
</svg>
