<?xml version="1.0" encoding="UTF-8"?>
<svg height="128px" viewBox="0 0 128 128" width="128px" xmlns="http://www.w3.org/2000/svg" xmlns:xlink="http://www.w3.org/1999/xlink">
    <clipPath id="a">
        <path d="m 20 8 h 89 v 112 h -89 z m 0 0"/>
    </clipPath>
    <clipPath id="b">
        <path d="m 28 8 c -4.433594 0 -8 3.566406 -8 8 v 96 c 0 4.433594 3.566406 8 8 8 h 72 c 4.433594 0 8.046875 -3.589844 8.042969 -8.019531 v -74.0625 l -22 0.007812 c -4.433594 0 -8.042969 -3.492187 -8.042969 -7.925781 v -22 z m 0 0"/>
    </clipPath>
    <clipPath id="c">
        <path d="m 80 100 h 16 v 4 h -16 z m 0 0"/>
    </clipPath>
    <clipPath id="d">
        <path d="m 28 8 c -4.433594 0 -8 3.566406 -8 8 v 96 c 0 4.433594 3.566406 8 8 8 h 72 c 4.433594 0 8.046875 -3.589844 8.042969 -8.019531 v -74.0625 l -22 0.007812 c -4.433594 0 -8.042969 -3.492187 -8.042969 -7.925781 v -22 z m 0 0"/>
    </clipPath>
    <clipPath id="e">
        <path d="m 80 92 h 16 v 4 h -16 z m 0 0"/>
    </clipPath>
    <clipPath id="f">
        <path d="m 28 8 c -4.433594 0 -8 3.566406 -8 8 v 96 c 0 4.433594 3.566406 8 8 8 h 72 c 4.433594 0 8.046875 -3.589844 8.042969 -8.019531 v -74.0625 l -22 0.007812 c -4.433594 0 -8.042969 -3.492187 -8.042969 -7.925781 v -22 z m 0 0"/>
    </clipPath>
    <clipPath id="g">
        <path d="m 80 84 h 16 v 4 h -16 z m 0 0"/>
    </clipPath>
    <clipPath id="h">
        <path d="m 28 8 c -4.433594 0 -8 3.566406 -8 8 v 96 c 0 4.433594 3.566406 8 8 8 h 72 c 4.433594 0 8.046875 -3.589844 8.042969 -8.019531 v -74.0625 l -22 0.007812 c -4.433594 0 -8.042969 -3.492187 -8.042969 -7.925781 v -22 z m 0 0"/>
    </clipPath>
    <clipPath id="i">
        <path d="m 80 76 h 16 v 4 h -16 z m 0 0"/>
    </clipPath>
    <clipPath id="j">
        <path d="m 28 8 c -4.433594 0 -8 3.566406 -8 8 v 96 c 0 4.433594 3.566406 8 8 8 h 72 c 4.433594 0 8.046875 -3.589844 8.042969 -8.019531 v -74.0625 l -22 0.007812 c -4.433594 0 -8.042969 -3.492187 -8.042969 -7.925781 v -22 z m 0 0"/>
    </clipPath>
    <clipPath id="k">
        <path d="m 80 68 h 16 v 4 h -16 z m 0 0"/>
    </clipPath>
    <clipPath id="l">
        <path d="m 28 8 c -4.433594 0 -8 3.566406 -8 8 v 96 c 0 4.433594 3.566406 8 8 8 h 72 c 4.433594 0 8.046875 -3.589844 8.042969 -8.019531 v -74.0625 l -22 0.007812 c -4.433594 0 -8.042969 -3.492187 -8.042969 -7.925781 v -22 z m 0 0"/>
    </clipPath>
    <clipPath id="m">
        <path d="m 80 60 h 16 v 4 h -16 z m 0 0"/>
    </clipPath>
    <clipPath id="n">
        <path d="m 28 8 c -4.433594 0 -8 3.566406 -8 8 v 96 c 0 4.433594 3.566406 8 8 8 h 72 c 4.433594 0 8.046875 -3.589844 8.042969 -8.019531 v -74.0625 l -22 0.007812 c -4.433594 0 -8.042969 -3.492187 -8.042969 -7.925781 v -22 z m 0 0"/>
    </clipPath>
    <clipPath id="o">
        <path d="m 80 52 h 16 v 4 h -16 z m 0 0"/>
    </clipPath>
    <clipPath id="p">
        <path d="m 28 8 c -4.433594 0 -8 3.566406 -8 8 v 96 c 0 4.433594 3.566406 8 8 8 h 72 c 4.433594 0 8.046875 -3.589844 8.042969 -8.019531 v -74.0625 l -22 0.007812 c -4.433594 0 -8.042969 -3.492187 -8.042969 -7.925781 v -22 z m 0 0"/>
    </clipPath>
    <clipPath id="q">
        <path d="m 32 44 h 64 v 4 h -64 z m 0 0"/>
    </clipPath>
    <clipPath id="r">
        <path d="m 28 8 c -4.433594 0 -8 3.566406 -8 8 v 96 c 0 4.433594 3.566406 8 8 8 h 72 c 4.433594 0 8.046875 -3.589844 8.042969 -8.019531 v -74.0625 l -22 0.007812 c -4.433594 0 -8.042969 -3.492187 -8.042969 -7.925781 v -22 z m 0 0"/>
    </clipPath>
    <clipPath id="s">
        <path d="m 32 36 h 40 v 4 h -40 z m 0 0"/>
    </clipPath>
    <clipPath id="t">
        <path d="m 28 8 c -4.433594 0 -8 3.566406 -8 8 v 96 c 0 4.433594 3.566406 8 8 8 h 72 c 4.433594 0 8.046875 -3.589844 8.042969 -8.019531 v -74.0625 l -22 0.007812 c -4.433594 0 -8.042969 -3.492187 -8.042969 -7.925781 v -22 z m 0 0"/>
    </clipPath>
    <clipPath id="u">
        <path d="m 32 28 h 40 v 4 h -40 z m 0 0"/>
    </clipPath>
    <clipPath id="v">
        <path d="m 28 8 c -4.433594 0 -8 3.566406 -8 8 v 96 c 0 4.433594 3.566406 8 8 8 h 72 c 4.433594 0 8.046875 -3.589844 8.042969 -8.019531 v -74.0625 l -22 0.007812 c -4.433594 0 -8.042969 -3.492187 -8.042969 -7.925781 v -22 z m 0 0"/>
    </clipPath>
    <clipPath id="w">
        <path d="m 32 53 h 42 v 51 h -42 z m 0 0"/>
    </clipPath>
    <clipPath id="x">
        <path d="m 28 8 c -4.433594 0 -8 3.566406 -8 8 v 96 c 0 4.433594 3.566406 8 8 8 h 72 c 4.433594 0 8.046875 -3.589844 8.042969 -8.019531 v -74.0625 l -22 0.007812 c -4.433594 0 -8.042969 -3.492187 -8.042969 -7.925781 v -22 z m 0 0"/>
    </clipPath>
    <radialGradient id="y" cx="413.639404" cy="226.77327" gradientTransform="matrix(0.231318 0.400655 0.244759 -0.141312 -89.187302 -67.681122)" gradientUnits="userSpaceOnUse" r="192">
        <stop offset="0" stop-color="#50db81"/>
        <stop offset="1" stop-color="#8ff0a4" stop-opacity="0.003922"/>
    </radialGradient>
    <clipPath id="z">
        <path d="m 20 8 h 44 v 112 h -44 z m 0 0"/>
    </clipPath>
    <clipPath id="A">
        <path d="m 28 8 c -4.433594 0 -8 3.566406 -8 8 v 96 c 0 4.433594 3.566406 8 8 8 h 72 c 4.433594 0 8.046875 -3.589844 8.042969 -8.019531 v -74.0625 l -22 0.007812 c -4.433594 0 -8.042969 -3.492187 -8.042969 -7.925781 v -22 z m 0 0"/>
    </clipPath>
    <clipPath id="B">
        <path d="m 64 8 h 45 v 112 h -45 z m 0 0"/>
    </clipPath>
    <clipPath id="C">
        <path d="m 28 8 c -4.433594 0 -8 3.566406 -8 8 v 96 c 0 4.433594 3.566406 8 8 8 h 72 c 4.433594 0 8.046875 -3.589844 8.042969 -8.019531 v -74.0625 l -22 0.007812 c -4.433594 0 -8.042969 -3.492187 -8.042969 -7.925781 v -22 z m 0 0"/>
    </clipPath>
    <g clip-path="url(#a)">
        <g clip-path="url(#b)">
            <path d="m 28 8 h 50 l 30.042969 29.917969 v 74.058593 c 0 4.433594 -3.609375 8.023438 -8.042969 8.023438 h -72 c -4.433594 0 -8 -3.566406 -8 -8 v -96 c 0 -4.433594 3.566406 -8 8 -8 z m 0 0" fill="#f6f5f4"/>
        </g>
    </g>
    <g clip-path="url(#c)">
        <g clip-path="url(#d)">
            <path d="m 82 100 h 12 c 1.105469 0 2 0.894531 2 2 s -0.894531 2 -2 2 h -12 c -1.105469 0 -2 -0.894531 -2 -2 s 0.894531 -2 2 -2 z m 0 0" fill="#deddda"/>
        </g>
    </g>
    <g clip-path="url(#e)">
        <g clip-path="url(#f)">
            <path d="m 82 92 h 12 c 1.105469 0 2 0.894531 2 2 s -0.894531 2 -2 2 h -12 c -1.105469 0 -2 -0.894531 -2 -2 s 0.894531 -2 2 -2 z m 0 0" fill="#deddda"/>
        </g>
    </g>
    <g clip-path="url(#g)">
        <g clip-path="url(#h)">
            <path d="m 82 84 h 12 c 1.105469 0 2 0.894531 2 2 s -0.894531 2 -2 2 h -12 c -1.105469 0 -2 -0.894531 -2 -2 s 0.894531 -2 2 -2 z m 0 0" fill="#deddda"/>
        </g>
    </g>
    <g clip-path="url(#i)">
        <g clip-path="url(#j)">
            <path d="m 82 76 h 12 c 1.105469 0 2 0.894531 2 2 s -0.894531 2 -2 2 h -12 c -1.105469 0 -2 -0.894531 -2 -2 s 0.894531 -2 2 -2 z m 0 0" fill="#deddda"/>
        </g>
    </g>
    <g clip-path="url(#k)">
        <g clip-path="url(#l)">
            <path d="m 82 68 h 12 c 1.105469 0 2 0.894531 2 2 s -0.894531 2 -2 2 h -12 c -1.105469 0 -2 -0.894531 -2 -2 s 0.894531 -2 2 -2 z m 0 0" fill="#deddda"/>
        </g>
    </g>
    <g clip-path="url(#m)">
        <g clip-path="url(#n)">
            <path d="m 82 60 h 12 c 1.105469 0 2 0.894531 2 2 s -0.894531 2 -2 2 h -12 c -1.105469 0 -2 -0.894531 -2 -2 s 0.894531 -2 2 -2 z m 0 0" fill="#deddda"/>
        </g>
    </g>
    <g clip-path="url(#o)">
        <g clip-path="url(#p)">
            <path d="m 82 52 h 12 c 1.105469 0 2 0.894531 2 2 s -0.894531 2 -2 2 h -12 c -1.105469 0 -2 -0.894531 -2 -2 s 0.894531 -2 2 -2 z m 0 0" fill="#deddda"/>
        </g>
    </g>
    <g clip-path="url(#q)">
        <g clip-path="url(#r)">
            <path d="m 34 44 h 60 c 1.105469 0 2 0.894531 2 2 s -0.894531 2 -2 2 h -60 c -1.105469 0 -2 -0.894531 -2 -2 s 0.894531 -2 2 -2 z m 0 0" fill="#deddda"/>
        </g>
    </g>
    <g clip-path="url(#s)">
        <g clip-path="url(#t)">
            <path d="m 34 36 h 36 c 1.105469 0 2 0.59375 2 1.324219 v 1.351562 c 0 0.730469 -0.894531 1.324219 -2 1.324219 h -36 c -1.105469 0 -2 -0.59375 -2 -1.324219 v -1.351562 c 0 -0.730469 0.894531 -1.324219 2 -1.324219 z m 0 0" fill="#deddda"/>
        </g>
    </g>
    <g clip-path="url(#u)">
        <g clip-path="url(#v)">
            <path d="m 34 28 h 36 c 1.105469 0 2 0.59375 2 1.324219 v 1.351562 c 0 0.730469 -0.894531 1.324219 -2 1.324219 h -36 c -1.105469 0 -2 -0.59375 -2 -1.324219 v -1.351562 c 0 -0.730469 0.894531 -1.324219 2 -1.324219 z m 0 0" fill="#deddda"/>
        </g>
    </g>
    <g clip-path="url(#w)">
        <g clip-path="url(#x)">
            <path d="m 36 104 h 34 c 2.210938 0 4 -1.789062 4 -4 v -42.035156 c 0 -2.207032 -1.789062 -4 -4 -4 h -34 c -2.210938 0 -4 1.792968 -4 4 v 42.035156 c 0 2.210938 1.789062 4 4 4 z m 0 0" fill="url(#y)"/>
            <path d="m 36 104 h 34 c 2.210938 0 4 -1.789062 4 -4 v -42.035156 c 0 -2.207032 -1.789062 -4 -4 -4 h -34 c -2.210938 0 -4 1.792968 -4 4 v 42.035156 c 0 2.210938 1.789062 4 4 4 z m 0 0" fill="#deddda"/>
        </g>
    </g>
    <g clip-path="url(#z)">
        <g clip-path="url(#A)">
            <path d="m 64 8 l -48 112 v -112 z m 0 0" fill-opacity="0.035294"/>
        </g>
    </g>
    <g clip-path="url(#B)">
        <g clip-path="url(#C)">
            <path d="m 64 8 l 48 112 v -112 z m 0 0" fill="#ffffff" fill-opacity="0.454902"/>
        </g>
    </g>
    <path d="m 78 8 v 22 c 0 4.433594 3.609375 7.921875 8.042969 7.921875 l 22 -0.003906 z m 0 0" fill="#deddda"/>
</svg>
