<?xml version="1.0" encoding="UTF-8"?>
<svg height="128px" viewBox="0 0 128 128" width="128px" xmlns="http://www.w3.org/2000/svg" xmlns:xlink="http://www.w3.org/1999/xlink">
    <linearGradient id="a" gradientUnits="userSpaceOnUse" x1="64" x2="64" y1="276" y2="284">
        <stop offset="0" stop-color="#414140"/>
        <stop offset="1" stop-color="#949390"/>
    </linearGradient>
    <linearGradient id="b" gradientUnits="userSpaceOnUse" x1="18.20984075" x2="109.79022225" y1="102" y2="102">
        <stop offset="0" stop-color="#c7c6c3"/>
        <stop offset="0.024221" stop-color="#e8e7e3"/>
        <stop offset="0.0686115" stop-color="#cbcac7"/>
        <stop offset="0.916655" stop-color="#cbcac7"/>
        <stop offset="0.960246" stop-color="#eae8e4"/>
        <stop offset="1" stop-color="#acaba8"/>
    </linearGradient>
    <linearGradient id="c" gradientTransform="matrix(0.2875 0 0 0.27027 -331.600006 -696.756775)" gradientUnits="userSpaceOnUse" x1="1376" x2="1376" y1="2692" y2="2932">
        <stop offset="0" stop-color="#f6f5f4"/>
        <stop offset="1" stop-color="#ffffff"/>
    </linearGradient>
    <linearGradient id="d" gradientUnits="userSpaceOnUse" x1="82.25" x2="82.25" y1="12" y2="26">
        <stop offset="0" stop-color="#deddda"/>
        <stop offset="1" stop-color="#9a9996"/>
    </linearGradient>
    <path d="m 83 286 l -14 -14 m -24 14 l 14 -14" fill="none" stroke="url(#a)" stroke-linecap="round" stroke-width="6" transform="matrix(1 0 0 1 0 -172)"/>
    <path d="m 24 24 h 80 c 3.3125 0 6 2.6875 6 6 v 68 c 0 3.3125 -2.6875 6 -6 6 h -80 c -3.3125 0 -6 -2.6875 -6 -6 v -68 c 0 -3.3125 2.6875 -6 6 -6 z m 0 0" fill="url(#b)"/>
    <path d="m 24 20 h 80 c 3.3125 0 6 2.6875 6 6 v 68 c 0 3.3125 -2.6875 6 -6 6 h -80 c -3.3125 0 -6 -2.6875 -6 -6 v -68 c 0 -3.3125 2.6875 -6 6 -6 z m 0 0" fill="url(#c)"/>
    <path d="m 20 12 h 88 c 4.417969 0 8 3.582031 8 8 s -3.582031 8 -8 8 h -88 c -4.417969 0 -8 -3.582031 -8 -8 s 3.582031 -8 8 -8 z m 0 0" fill="url(#d)"/>
    <path d="m 69.88671875 69.99609375 c -0.6484375 5.8046875 -4.08203125 10.9453125 -9.19921875 13.765625 c -0.96484375 0.53125 -2.625 1.21875 -3.6875 1.52734375 c -5.609375 1.625 -11.67578125 0.41796875 -16.234375 -3.23046875 c -0.86328125 -0.69140625 -2.1328125 -1.9609375 -2.82421875 -2.82421875 c -3.6484375 -4.55859375 -4.85546875 -10.625 -3.23046875 -16.234375 c 0.30859375 -1.0625 0.99609375 -2.72265625 1.52734375 -3.6875 c 2.8203125 -5.1171875 7.9609375 -8.55078125 13.765625 -9.19921875 c 1.09765625 -0.12109375 1.99609375 0.78515625 1.99609375 1.890625 v 13.99609375 c 0 1.10546875 0.89453125 2 2 2 h 13.99609375 c 1.10546875 0 2.01171875 0.8984375 1.890625 1.99609375 z m 0 0" fill="#1a5fb4" stroke="#204a87" stroke-width="0.0018155"/>
    <path d="m 57.99609375 46.11328125 c 8.34375 0.921875 14.96875 7.546875 15.890625 15.890625 c 0.12109375 1.09765625 -0.78515625 1.99609375 -1.890625 1.99609375 h -13.99609375 c -1.10546875 0 -2 -0.89453125 -2 -2 v -13.99609375 c 0 -1.10546875 0.8984375 -2.01171875 1.99609375 -1.890625 z m 0 0" fill="#26a269" stroke="#204a87" stroke-width="0.0018155"/>
    <path d="m 84 80 h 10 c 1.105469 0 2 0.894531 2 2 s -0.894531 2 -2 2 h -10 c -1.105469 0 -2 -0.894531 -2 -2 s 0.894531 -2 2 -2 z m 0 -10 h 10 c 1.105469 0 2 0.894531 2 2 s -0.894531 2 -2 2 h -10 c -1.105469 0 -2 -0.894531 -2 -2 s 0.894531 -2 2 -2 z m 0 -10 h 10 c 1.105469 0 2 0.894531 2 2 s -0.894531 2 -2 2 h -10 c -1.105469 0 -2 -0.894531 -2 -2 s 0.894531 -2 2 -2 z m 0 -10 h 10 c 1.105469 0 2 0.894531 2 2 s -0.894531 2 -2 2 h -10 c -1.105469 0 -2 -0.894531 -2 -2 s 0.894531 -2 2 -2 z m 0 -10 h 10 c 1.105469 0 2 0.894531 2 2 s -0.894531 2 -2 2 h -10 c -1.105469 0 -2 -0.894531 -2 -2 s 0.894531 -2 2 -2 z m 0 0" fill="#d5d3cf"/>
    <path d="m 69.88671875 67.99609375 c -0.6484375 5.8046875 -4.08203125 10.9453125 -9.19921875 13.765625 c -0.96484375 0.53125 -2.625 1.21875 -3.6875 1.52734375 c -5.609375 1.625 -11.67578125 0.41796875 -16.234375 -3.23046875 c -0.86328125 -0.69140625 -2.1328125 -1.9609375 -2.82421875 -2.82421875 c -3.6484375 -4.55859375 -4.85546875 -10.625 -3.23046875 -16.234375 c 0.30859375 -1.0625 0.99609375 -2.72265625 1.52734375 -3.6875 c 2.8203125 -5.1171875 7.9609375 -8.55078125 13.765625 -9.19921875 c 1.09765625 -0.12109375 1.99609375 0.78515625 1.99609375 1.890625 v 13.99609375 c 0 1.10546875 0.89453125 2 2 2 h 13.99609375 c 1.10546875 0 2.01171875 0.8984375 1.890625 1.99609375 z m 0 0" fill="#4a86cf" stroke="#204a87" stroke-width="0.0018155"/>
    <path d="m 57.99609375 44.11328125 c 8.34375 0.921875 14.96875 7.546875 15.890625 15.890625 c 0.12109375 1.09765625 -0.78515625 1.99609375 -1.890625 1.99609375 h -13.99609375 c -1.10546875 0 -2 -0.89453125 -2 -2 v -13.99609375 c 0 -1.10546875 0.8984375 -2.01171875 1.99609375 -1.890625 z m 0 0" fill="#50db81" stroke="#204a87" stroke-width="0.0018155"/>
    <path d="m 18 18 h 92" fill="none" stroke="#deddda" stroke-linecap="round" stroke-width="4"/>
</svg>
