<?xml version="1.0" encoding="UTF-8"?>
<svg height="128px" viewBox="0 0 128 128" width="128px" xmlns="http://www.w3.org/2000/svg" xmlns:xlink="http://www.w3.org/1999/xlink">
    <linearGradient id="a" gradientUnits="userSpaceOnUse" x1="92" x2="100" y1="83.000015" y2="83.000015">
        <stop offset="0" stop-color="#e8e7e4"/>
        <stop offset="0.511049" stop-color="#ffffff"/>
        <stop offset="1" stop-color="#c2bfba"/>
    </linearGradient>
    <filter id="b" height="100%" width="100%" x="0%" y="0%">
        <feColorMatrix in="SourceGraphic" type="matrix" values="0 0 0 0 1 0 0 0 0 1 0 0 0 0 1 0 0 0 1 0"/>
    </filter>
    <mask id="c">
        <g filter="url(#b)">
            <rect fill-opacity="0.187" height="128" width="128"/>
        </g>
    </mask>
    <clipPath id="d">
        <rect height="152" width="192"/>
    </clipPath>
    <path d="m 100 24 c 4.417969 0 8 3.582031 8 8 v 8 c 0 4.417969 -3.582031 8 -8 8 s -8 -3.582031 -8 -8 v -8 c 0 -4.417969 3.582031 -8 8 -8 z m 0 0" fill="#f9f06b"/>
    <path d="m 100 40 c 4.417969 0 8 3.582031 8 8 v 8 c 0 4.417969 -3.582031 8 -8 8 s -8 -3.582031 -8 -8 v -8 c 0 -4.417969 3.582031 -8 8 -8 z m 0 0" fill="#26a269"/>
    <path d="m 100 56 c 4.417969 0 8 3.582031 8 8 v 8 c 0 4.417969 -3.582031 8 -8 8 s -8 -3.582031 -8 -8 v -8 c 0 -4.417969 3.582031 -8 8 -8 z m 0 0" fill="#8f5aa0"/>
    <path d="m 100 72 c 4.417969 0 8 3.582031 8 8 v 8 c 0 4.417969 -3.582031 8 -8 8 s -8 -3.582031 -8 -8 v -8 c 0 -4.417969 3.582031 -8 8 -8 z m 0 0" fill="#f66151"/>
    <path d="m 20 8 v 112 h 72 c 4.433594 0 8 -3.566406 8 -8 v -96 c 0 -4.433594 -3.566406 -8 -8 -8 z m 0 0" fill="#9d8c68"/>
    <path d="m 22 48 v 70 h 70 c 4.433594 0 8 -3.566406 8 -8 v -54 c 0 -4.433594 -3.566406 -8 -8 -8 z m 0 0" fill="url(#a)"/>
    <path d="m 20 8 v 104 h 72 c 4.433594 0 8 -3.566406 8 -8 v -88 c 0 -4.433594 -3.566406 -8 -8 -8 z m 0 0" fill="#9d8c68"/>
    <path d="m 20 8 v 102 h 72 c 4.433594 0 8 -3.566406 8 -8 v -86 c 0 -4.433594 -3.566406 -8 -8 -8 z m 0 0" fill="#c0b59e"/>
    <g clip-path="url(#d)" mask="url(#c)" transform="matrix(1 0 0 1 -8 -16)">
        <path d="m 30 24 h 2 v 102 h -2 z m 0 0" fill="#ffffff"/>
    </g>
    <path d="m 57.84375 60.089844 c 0 1.859375 0.394531 3.324218 1.179688 4.394531 c 0.800781 1.070313 1.878906 1.609375 3.238281 1.609375 c 1.34375 0 2.414062 -0.539062 3.214843 -1.609375 c 0.800782 -1.085937 1.203126 -2.550781 1.203126 -4.394531 c 0 -1.828125 -0.410157 -3.269532 -1.226563 -4.324219 c -0.796875 -1.074219 -1.878906 -1.609375 -3.238281 -1.609375 c -1.328125 0 -2.390625 0.535156 -3.191406 1.609375 c -0.785157 1.054687 -1.179688 2.496094 -1.179688 4.324219 z m 9.289062 6.816406 c -0.453124 1.074219 -1.1875 1.910156 -2.199218 2.515625 c -0.996094 0.589844 -2.167969 0.882813 -3.511719 0.882813 c -2.597656 0 -4.710937 -0.9375 -6.339844 -2.808594 c -1.617187 -1.886719 -2.425781 -4.339844 -2.425781 -7.359375 s 0.816406 -5.476563 2.449219 -7.363281 c 1.628906 -1.886719 3.734375 -2.832032 6.316406 -2.832032 c 1.34375 0 2.515625 0.304688 3.511719 0.90625 c 1.011718 0.605469 1.746094 1.445313 2.199218 2.515625 v -2.96875 h 4.730469 v 15.699219 c 1.875 -0.289062 3.347657 -1.1875 4.417969 -2.695312 c 1.070312 -1.527344 1.609375 -3.472657 1.609375 -5.84375 c 0 -1.511719 -0.21875 -2.921876 -0.65625 -4.238282 c -0.441406 -1.328125 -1.105469 -2.542968 -1.996094 -3.644531 c -1.433593 -1.84375 -3.230469 -3.261719 -5.390625 -4.257813 c -2.144531 -0.996093 -4.46875 -1.496093 -6.976562 -1.496093 c -1.75 0 -3.425782 0.234375 -5.027344 0.703125 c -1.601562 0.453125 -3.078125 1.125 -4.4375 2.015625 c -2.234375 1.480469 -3.980469 3.398437 -5.234375 5.753906 c -1.238281 2.339844 -1.855469 4.875 -1.855469 7.609375 c 0 2.25 0.398438 4.363281 1.199219 6.339844 c 0.816406 1.964844 1.988281 3.699218 3.511719 5.210937 c 1.507812 1.480469 3.238281 2.605469 5.1875 3.375 c 1.960937 0.785157 4.054687 1.175781 6.273437 1.175781 c 1.902344 0 3.804688 -0.351562 5.707031 -1.0625 c 1.902344 -0.710937 3.527344 -1.667968 4.871094 -2.875 l 2.421875 3.667969 c -1.886719 1.464844 -3.949219 2.582031 -6.183593 3.351563 c -2.21875 0.785156 -4.476563 1.179687 -6.773438 1.179687 c -2.792969 0 -5.425781 -0.5 -7.902344 -1.496093 c -2.476562 -0.980469 -4.679687 -2.417969 -6.613281 -4.304688 s -3.40625 -4.070312 -4.417969 -6.546875 c -1.011718 -2.488281 -1.515625 -5.164063 -1.515625 -8.015625 c 0 -2.75 0.511719 -5.367188 1.539063 -7.859375 s 2.492187 -4.679687 4.394531 -6.570313 c 1.902344 -1.871093 4.113281 -3.320312 6.636719 -4.347656 c 2.535156 -1.027344 5.164062 -1.539062 7.878906 -1.539062 c 3.382812 0 6.457031 0.648437 9.21875 1.945312 c 2.765625 1.285156 5.074219 3.144532 6.933594 5.574219 c 1.132812 1.480469 1.984375 3.085937 2.558594 4.824219 c 0.589843 1.722656 0.882812 3.53125 0.882812 5.433594 c 0 4.09375 -1.230469 7.273437 -3.691406 9.539062 c -2.460938 2.261719 -5.933594 3.394531 -10.417969 3.394531 h -0.882813 z m 0 0" fill="#ffffff"/>
</svg>
