<?xml version="1.0" encoding="UTF-8"?>
<svg height="128px" viewBox="0 0 128 128" width="128px" xmlns="http://www.w3.org/2000/svg" xmlns:xlink="http://www.w3.org/1999/xlink">
    <linearGradient id="a" gradientUnits="userSpaceOnUse" x1="44.20664292648" x2="40.78685574741" y1="55.29408859426" y2="58.71387539619">
        <stop offset="0" stop-color="#e9b96e"/>
        <stop offset="1" stop-color="#dc9321"/>
    </linearGradient>
    <linearGradient id="b" gradientUnits="userSpaceOnUse" x1="68.9334157623" x2="72.7353432269" y1="88.537116" y2="84.73519456973">
        <stop offset="0" stop-color="#bcbcb4"/>
        <stop offset="1" stop-color="#eeeeec"/>
    </linearGradient>
    <radialGradient id="c" cx="75.85711561276" cy="81.45731688733" gradientUnits="userSpaceOnUse" r="24.83847316942">
        <stop offset="0" stop-color="#505050"/>
        <stop offset="1"/>
    </radialGradient>
    <path d="m 28 8 h 50 l 30.042969 29.917969 v 74.058593 c 0 4.433594 -3.609375 8.023438 -8.042969 8.023438 h -72 c -4.433594 0 -8 -3.566406 -8 -8 v -96 c 0 -4.433594 3.566406 -8 8 -8 z m 0 0" fill="#f6f5f4"/>
    <path d="m 78 8 v 22 c 0 4.433594 3.609375 7.921875 8.042969 7.921875 l 22 -0.003906 z m 0 0" fill="#deddda"/>
    <path d="m 36 54.398438 l 40.730469 40.734374 c 1.757812 1.828126 4.671875 1.855469 6.464843 0.0625 c 1.792969 -1.792968 1.765626 -4.707031 -0.0625 -6.464843 l -34.515624 -34.511719 c -3.917969 -3.359375 -9.417969 -3.019531 -12.617188 0.179688 z m 0 0" fill="url(#a)"/>
    <path d="m 58.746094 64.714844 c -2.453125 0 -4.664063 1.492187 -5.589844 3.765625 c -0.921875 2.277343 -0.375 4.886719 1.386719 6.597656 l 21.121093 21.121094 c 1.519532 1.546875 3.753907 2.15625 5.847657 1.601562 c 2.097656 -0.554687 3.734375 -2.191406 4.289062 -4.289062 c 0.554688 -2.09375 -0.054687 -4.328125 -1.601562 -5.847657 l -21.121094 -21.121093 c -1.136719 -1.167969 -2.699219 -1.828125 -4.332031 -1.828125 z m 0 0" fill="url(#b)"/>
    <path d="m 76.914062 73.828125 c -8.332031 0 -15.085937 6.753906 -15.085937 15.085937 c 0 8.332032 6.753906 15.085938 15.085937 15.085938 h 15.085938 v -15.085938 c 0 -8.332031 -6.753906 -15.085937 -15.085938 -15.085937 z m 0 0" fill="url(#c)"/>
    <path d="m 77.800781 81.503906 c 0 -1.324218 -1.070312 -2.394531 -2.394531 -2.394531 s -2.398438 1.070313 -2.398438 2.394531 c 0 1.324219 1.074219 2.398438 2.398438 2.398438 s 2.394531 -1.074219 2.394531 -2.398438 z m 0 0" fill="#7a8599"/>
</svg>
