<?xml version="1.0" encoding="UTF-8" standalone="no"?>
<!-- Created with Inkscape (http://www.inkscape.org/) -->
<svg
   xmlns:dc="http://purl.org/dc/elements/1.1/"
   xmlns:cc="http://creativecommons.org/ns#"
   xmlns:rdf="http://www.w3.org/1999/02/22-rdf-syntax-ns#"
   xmlns:svg="http://www.w3.org/2000/svg"
   xmlns="http://www.w3.org/2000/svg"
   xmlns:sodipodi="http://sodipodi.sourceforge.net/DTD/sodipodi-0.dtd"
   xmlns:inkscape="http://www.inkscape.org/namespaces/inkscape"
   width="48"
   height="48"
   id="svg1307"
   sodipodi:version="0.32"
   inkscape:version="0.46"
   sodipodi:docname="applications-science.svg"
   inkscape:export-xdpi="90"
   inkscape:export-ydpi="90"
   inkscape:output_extension="org.inkscape.output.svg.inkscape"
   version="1.0"
   style="display:inline">
  <defs
     id="defs1309" />
  <sodipodi:namedview
     id="base"
     pagecolor="#ffffff"
     bordercolor="#666666"
     borderopacity="1.0"
     inkscape:pageopacity="0.0"
     inkscape:pageshadow="2"
     inkscape:zoom="15.6875"
     inkscape:cx="22.884462"
     inkscape:cy="24"
     inkscape:current-layer="layer5"
     showgrid="true"
     inkscape:grid-bbox="true"
     inkscape:document-units="px"
     fill="#d3d7cf"
     inkscape:window-width="1280"
     inkscape:window-height="949"
     inkscape:window-x="0"
     inkscape:window-y="49"
     showguides="true"
     inkscape:guide-bbox="true">
    <sodipodi:guide
       orientation="1,0"
       position="24,49.265625"
       id="guide3282" />
    <sodipodi:guide
       orientation="0,1"
       position="0.1640625,24"
       id="guide3284" />
    <sodipodi:guide
       orientation="1,0"
       position="48,41.875"
       id="guide2415" />
    <sodipodi:guide
       orientation="1,0"
       position="0,41.896077"
       id="guide2417" />
    <sodipodi:guide
       orientation="0,1"
       position="14.5,48"
       id="guide2419" />
    <sodipodi:guide
       orientation="0,1"
       position="18.384776,0"
       id="guide2421" />
    <inkscape:grid
       type="xygrid"
       id="grid2413"
       visible="true"
       enabled="true" />
  </sodipodi:namedview>
  <metadata
     id="metadata1312">
    <rdf:RDF>
      <cc:Work
         rdf:about="">
        <dc:format>image/svg+xml</dc:format>
        <dc:type
           rdf:resource="http://purl.org/dc/dcmitype/StillImage" />
      </cc:Work>
    </rdf:RDF>
  </metadata>
  <g
     inkscape:groupmode="layer"
     id="layer1"
     inkscape:label="background">
    <rect
       style="fill:none;fill-opacity:0.32916667999999999;stroke:none;stroke-width:2;stroke-linecap:round;stroke-miterlimit:4;stroke-dasharray:none;stroke-opacity:1"
       id="rect2415"
       width="48"
       height="48.063744"
       x="0"
       y="-0.063745022" />
  </g>
  <g
     inkscape:groupmode="layer"
     id="layer5"
     inkscape:label="title-2"
     style="display:inline">
    <path
       sodipodi:nodetypes="cccscssccccccc"
       d="M 17.640395,6.9464633 L 19.384859,8.4918542 C 19.384857,12.271226 19.323258,14.168309 19.323258,18.033922 C 18.159742,19.58003 11.432722,25.874301 7.7482592,32.402307 C 6.5847461,34.463778 6.5878953,37.040555 8.3331675,39.102031 C 9.4966836,40.648135 11.528443,41.165583 13.566559,41.165583 C 20.547646,41.165583 27.5293,41.165583 34.510385,41.165583 C 36.548492,41.165583 38.580247,40.648137 39.743776,39.102031 C 41.489045,37.040554 41.492196,34.463781 40.328684,32.402307 C 37.03205,25.874299 31.367004,19.903739 29.795171,18.033922 C 29.795171,14.254551 29.856771,12.271225 29.856771,8.4918542 L 31.544797,6.9964613 L 31.601235,6.9464633 L 17.640395,6.9464633 z"
       id="path3191"
       style="fill:none;fill-opacity:1;fill-rule:evenodd;stroke:#ffffff;stroke-width:12;stroke-linecap:round;stroke-linejoin:round;stroke-miterlimit:4;stroke-dasharray:none;stroke-opacity:1" />
    <path
       style="fill:#ffffff;fill-opacity:1;fill-rule:evenodd;stroke:#000000;stroke-width:3.88134241;stroke-linecap:round;stroke-linejoin:round;stroke-miterlimit:4;stroke-dasharray:none;stroke-opacity:1"
       id="path29274"
       d="M 17.640395,6.9464633 L 19.384859,8.4918542 C 19.384857,12.271226 19.323258,14.168309 19.323258,18.033922 C 18.159742,19.58003 11.432722,25.874301 7.7482592,32.402307 C 6.5847461,34.463778 6.5878953,37.040555 8.3331675,39.102031 C 9.4966836,40.648135 11.528443,41.165583 13.566559,41.165583 C 20.547646,41.165583 27.5293,41.165583 34.510385,41.165583 C 36.548492,41.165583 38.580247,40.648137 39.743776,39.102031 C 41.489045,37.040554 41.492196,34.463781 40.328684,32.402307 C 37.03205,25.874299 31.367004,19.903739 29.795171,18.033922 C 29.795171,14.254551 29.856771,12.271225 29.856771,8.4918542 L 31.544797,6.9964613 L 31.601235,6.9464633 L 17.640395,6.9464633 z"
       sodipodi:nodetypes="cccscssccccccc" />
    <path
       style="fill:#000000;fill-opacity:1;fill-rule:evenodd;stroke:#000000;stroke-width:0.07398678;stroke-linecap:round;stroke-linejoin:round;stroke-miterlimit:4;stroke-opacity:1"
       id="path6798"
       d="M 19.262679,23.118632 C 17.395195,26.044608 15.765861,27.718615 13.80476,31.048687 C 12.966165,32.472671 12.969154,34.250436 14.227045,35.674421 C 15.06564,36.742409 16.531043,37.099591 18,37.099591 C 23.03157,37.099588 24.994905,37.050904 30.02647,37.050904 C 31.495421,37.050901 32.960822,36.693723 33.799424,35.625734 C 35.057315,34.201745 35.060303,32.423986 34.22171,31 C 32.213683,27.189106 31.451032,26.929758 29.350199,23.118632 L 19.262679,23.118632 z"
       sodipodi:nodetypes="cscsscccc" />
  </g>
</svg>
