<?xml version="1.0" encoding="UTF-8"?>
<svg height="16px" viewBox="0 0 16 16" width="16px" xmlns="http://www.w3.org/2000/svg">
    <g fill="#2e3436">
        <path d="m 6 7 c 0.675781 0.023438 1.035156 0.695312 1.507812 1.09375 c 0.453126 0.484375 0.980469 0.910156 1.378907 1.441406 c 0.308593 0.539063 -0.039063 1.117188 -0.46875 1.460938 c -0.625 0.605468 -1.214844 1.253906 -1.863281 1.835937 c -0.472657 0.277344 -1.03125 0.132813 -1.554688 0.167969 c 0 -2 0 -4 0 -6 z m 0 0"/>
        <path d="m 5.019531 4 v -3 c 0 -0.550781 -0.445312 -1 -1 -1 c -0.550781 0 -1 0.449219 -1 1 v 3 c 0 0.550781 0.449219 1 1 1 c 0.554688 0 1 -0.449219 1 -1 z m -2.019531 3.003906 c 0.003906 -0.882812 -0.058594 -1.347656 0.230469 -1.632812 c 0.011719 -0.011719 0.023437 -0.023438 0.035156 -0.035156 c 0.007813 -0.011719 0.019531 -0.027344 0.027344 -0.039063 c 0.210937 -0.253906 0.648437 -0.332031 1.308593 -0.296875 h 0.023438 h 0.027344 c 2.511718 0.007812 5.019531 -0.015625 7.523437 0.011719 l -0.0625 -0.003907 c 0.535157 0.039063 0.960938 0.613282 0.894531 1.160157 c -0.003906 0.015625 -0.003906 0.03125 -0.007812 0.046875 v 0.066406 c -0.015625 1.34375 0.027344 2.660156 -0.023438 3.964844 l 0.007813 -0.082032 c -0.0625 0.511719 -0.621094 0.90625 -1.160156 0.84375 c -0.015625 -0.003906 -0.03125 -0.003906 -0.046875 -0.007812 h -0.777344 c -0.550781 0 -1 0.449219 -1 1 s 0.449219 1 1 1 h 0.707031 l -0.117187 -0.007812 c 1.574218 0.1875 3.175781 -0.945313 3.378906 -2.582032 c 0.003906 -0.015625 0.003906 -0.03125 0.003906 -0.046875 c 0.003906 -0.011719 0.003906 -0.023437 0.003906 -0.035156 c 0.050782 -1.355469 0.007813 -2.707031 0.023438 -4.023437 l -0.007812 0.109374 c 0.203124 -1.632812 -1.035157 -3.277343 -2.734376 -3.402343 c -0.011718 0 -0.023437 0 -0.035156 0 c -0.007812 0 -0.015625 0 -0.027344 0 c -2.515624 -0.023438 -5.03125 -0.003907 -7.539062 -0.011719 h 0.050781 c -0.855469 -0.042969 -2.125 0.019531 -2.953125 1.023438 l 0.066406 -0.070313 c -0.964843 0.957031 -0.816406 2.320313 -0.820312 3.042969 c 0 0.359375 0.1875 0.691406 0.496094 0.871094 c 0.308594 0.179687 0.691406 0.179687 1.003906 0.003906 c 0.308594 -0.179688 0.5 -0.511719 0.5 -0.867188 z m 6 -3.003906 v -3 c 0 -0.550781 -0.449219 -1 -1 -1 s -1 0.449219 -1 1 v 3 c 0 0.550781 0.449219 1 1 1 s 1 -0.449219 1 -1 z m 4 0 v -3 c 0 -0.550781 -0.449219 -1 -1 -1 s -1 0.449219 -1 1 v 3 c 0 0.550781 0.449219 1 1 1 s 1 -0.449219 1 -1 z m -7 5 h -1 c -2.214844 0 -4 1.785156 -4 4 v 2 c 0 0.550781 0.449219 1 1 1 s 1 -0.449219 1 -1 v -2 c 0 -1.097656 0.902344 -2 2 -2 h 1 c 0.550781 0 1 -0.449219 1 -1 s -0.449219 -1 -1 -1 z m 0 0"/>
    </g>
</svg>
