<?xml version="1.0" encoding="UTF-8"?>
<svg height="128px" viewBox="0 0 128 128" width="128px" xmlns="http://www.w3.org/2000/svg" xmlns:xlink="http://www.w3.org/1999/xlink">
    <radialGradient id="a" cx="-1298.143433" cy="-403.16449" gradientTransform="matrix(1.087387 0 0 -1.087387 1474.072042 -385.638012)" gradientUnits="userSpaceOnUse" r="60.125">
        <stop offset="0" stop-color="#f6f5f4" stop-opacity="0.945098"/>
        <stop offset="0.645993" stop-color="#ffffff"/>
        <stop offset="1" stop-color="#d3cfca"/>
    </radialGradient>
    <radialGradient id="b" cx="310.766907" cy="-1.73383" gradientTransform="matrix(1.426383 0 0 -1.426383 -392.367018 46.804292)" gradientUnits="userSpaceOnUse" r="49.999992">
        <stop offset="0" stop-color="#c061cb"/>
        <stop offset="1" stop-color="#ed333b"/>
    </radialGradient>
    <radialGradient id="c" cx="296" cy="-63.300095" gradientTransform="matrix(0.578507 0 0 -0.578507 -107.23821 47.606445)" gradientUnits="userSpaceOnUse" r="49.999992">
        <stop offset="0" stop-color="#5e5c64"/>
        <stop offset="1" stop-color="#241f31"/>
    </radialGradient>
    <radialGradient id="d" cx="392.67242373823" cy="1296.23650532734" gradientUnits="userSpaceOnUse" r="71.66658090072">
        <stop offset="0" stop-color="#cecdd1"/>
        <stop offset="1" stop-color="#5e5c64" stop-opacity="0.839216"/>
    </radialGradient>
    <path d="m 124 64.042969 c 0 -33.140625 -26.863281 -60 -60 -60 s -60 26.859375 -60 60 c 0 33.136719 26.863281 60 60 60 s 60 -26.863281 60 -60 z m 0 0" fill="url(#a)"/>
    <path d="m 64 97.113281 c -18.265625 0 -33.070312 -14.808593 -33.070312 -33.070312 c 0 -18.265625 14.804687 -33.070313 33.070312 -33.070313 s 33.070312 14.804688 33.070312 33.070313 c 0 18.261719 -14.804687 33.070312 -33.070312 33.070312 z m 0 0"/>
    <path d="m 92.925781 64.042969 c 0 -15.976563 -12.949219 -28.925781 -28.925781 -28.925781 s -28.925781 12.949218 -28.925781 28.925781 c 0 15.972656 12.949219 28.921875 28.925781 28.921875 s 28.925781 -12.949219 28.925781 -28.921875 z m 0 0" fill="url(#b)"/>
    <path d="m 92.925781 64.042969 c 0 -15.976563 -12.949219 -28.925781 -28.925781 -28.925781 s -28.925781 12.949218 -28.925781 28.925781 c 0 15.972656 12.949219 28.921875 28.925781 28.921875 s 28.925781 -12.949219 28.925781 -28.921875 z m 0 0" fill="url(#c)"/>
    <path d="m 64 50.976562 c 7.214844 0 13.066406 5.847657 13.066406 13.066407 c 0 7.214843 -5.851562 13.0625 -13.066406 13.0625 s -13.066406 -5.847657 -13.066406 -13.0625 c 0 -7.21875 5.851562 -13.066407 13.066406 -13.066407 z m 0 0"/>
    <g fill="#ffffff">
        <path d="m 62.558594 53.859375 c 0 -4.777344 -3.875 -8.652344 -8.652344 -8.652344 s -8.648438 3.875 -8.648438 8.652344 s 3.871094 8.648437 8.648438 8.648437 s 8.652344 -3.871093 8.652344 -8.648437 z m 0 0" fill-opacity="0.831373"/>
        <path d="m 81.300781 76.925781 c 0 -2.386719 -1.9375 -4.324219 -4.324219 -4.324219 c -2.390624 0 -4.324218 1.9375 -4.324218 4.324219 c 0 2.390625 1.933594 4.328125 4.324218 4.328125 c 2.386719 0 4.324219 -1.9375 4.324219 -4.328125 z m 0 0" fill-opacity="0.545098"/>
        <path d="m 73.371094 70.4375 c 0 -1.589844 -1.289063 -2.882812 -2.882813 -2.882812 s -2.882812 1.292968 -2.882812 2.882812 c 0 1.59375 1.289062 2.886719 2.882812 2.886719 s 2.882813 -1.292969 2.882813 -2.886719 z m 0 0" fill-opacity="0.603922"/>
    </g>
    <path d="m 457.472682 1296.627994 c 0 23.748586 -19.254869 42.99954 -42.999539 42.99954 c -23.748586 0 -43.003455 -19.250954 -43.003455 -42.99954 c 0 -23.748585 19.254869 -42.99954 43.003455 -42.99954 c 23.74467 0 42.999539 19.250955 42.999539 42.99954 z m 0 0" fill="none" stroke="url(#d)" stroke-width="9.99999" transform="matrix(0 0.997921 -0.997921 0 1357.932678 -349.568604)"/>
</svg>
