<?xml version="1.0" encoding="UTF-8"?>
<svg height="128px" viewBox="0 0 128 128" width="128px" xmlns="http://www.w3.org/2000/svg" xmlns:xlink="http://www.w3.org/1999/xlink">
    <clipPath id="a">
        <path d="m 41 70 h 46 v 52 h -46 z m 0 0"/>
    </clipPath>
    <clipPath id="b">
        <path d="m 40.402344 54.339844 h 47.421875 v 68.484375 h -47.421875 z m 35.910156 42.734375 c 0 -6.742188 -5.453125 -12.210938 -12.183594 -12.210938 c -6.726562 0 -12.183594 5.46875 -12.183594 12.210938 c 0 6.742187 5.457032 12.210937 12.183594 12.210937 c 6.730469 0 12.183594 -5.46875 12.183594 -12.210937 z m 0 0"/>
    </clipPath>
    <linearGradient id="c" gradientTransform="matrix(0.164687 0 0 0.165054 -25.111408 -9.834853)" gradientUnits="userSpaceOnUse" x1="403.496033" x2="678.908813" y1="793.565552" y2="793.565552">
        <stop offset="0" stop-color="#9a9996"/>
        <stop offset="0.0414257" stop-color="#c0bfbc"/>
        <stop offset="0.0815191" stop-color="#9a9996"/>
        <stop offset="0.899024" stop-color="#77767b"/>
        <stop offset="0.952865" stop-color="#c0bfbc"/>
        <stop offset="1" stop-color="#77767b"/>
    </linearGradient>
    <clipPath id="d">
        <path d="m 41 68 h 46 v 52 h -46 z m 0 0"/>
    </clipPath>
    <clipPath id="e">
        <path d="m 40.402344 54.339844 h 47.421875 v 68.484375 h -47.421875 z m 35.910156 42.734375 c 0 -6.742188 -5.453125 -12.210938 -12.183594 -12.210938 c -6.726562 0 -12.183594 5.46875 -12.183594 12.210938 c 0 6.742187 5.457032 12.210937 12.183594 12.210937 c 6.730469 0 12.183594 -5.46875 12.183594 -12.210937 z m 0 0"/>
    </clipPath>
    <clipPath id="f">
        <path d="m 41 55 h 46 v 54 h -46 z m 0 0"/>
    </clipPath>
    <clipPath id="g">
        <path d="m 40.402344 54.339844 h 47.421875 v 68.484375 h -47.421875 z m 35.910156 42.734375 c 0 -6.742188 -5.453125 -12.210938 -12.183594 -12.210938 c -6.726562 0 -12.183594 5.46875 -12.183594 12.210938 c 0 6.742187 5.457032 12.210937 12.183594 12.210937 c 6.730469 0 12.183594 -5.46875 12.183594 -12.210937 z m 0 0"/>
    </clipPath>
    <linearGradient id="h" gradientTransform="matrix(0.299808 0 0 0.300475 -270.58579 35.155126)" gradientUnits="userSpaceOnUse" x1="928.741516" x2="1302.490479" y1="216.638611" y2="216.638611">
        <stop offset="0" stop-color="#3d3846"/>
        <stop offset="0.0279595" stop-color="#79718e"/>
        <stop offset="0.0654033" stop-color="#4e475a"/>
        <stop offset="0.938181" stop-color="#716881"/>
        <stop offset="0.971878" stop-color="#847a96"/>
        <stop offset="1" stop-color="#3d3846"/>
    </linearGradient>
    <linearGradient id="i" gradientTransform="matrix(0.45451 0 0 0.455522 -1210.292114 616.172607)" gradientUnits="userSpaceOnUse" x1="2704.463135" x2="2868.168457" y1="-1148.187378" y2="-1311.529175">
        <stop offset="0" stop-color="#1c71d8"/>
        <stop offset="1" stop-color="#62a0ea"/>
    </linearGradient>
    <g clip-path="url(#a)">
        <g clip-path="url(#b)">
            <path d="m 44.664062 70.726562 h 38.898438 c 1.902344 0 3.4375 1.523438 3.4375 3.414063 v 44.445313 c 0 1.890624 -1.535156 3.414062 -3.4375 3.414062 h -38.898438 c -1.902343 0 -3.4375 -1.523438 -3.4375 -3.414062 v -44.445313 c 0 -1.890625 1.535157 -3.414063 3.4375 -3.414063 z m 0 0" fill="url(#c)"/>
        </g>
    </g>
    <g clip-path="url(#d)">
        <g clip-path="url(#e)">
            <path d="m 44.664062 68.726562 h 38.898438 c 1.902344 0 3.4375 1.523438 3.4375 3.414063 v 44.445313 c 0 1.890624 -1.535156 3.414062 -3.4375 3.414062 h -38.898438 c -1.902343 0 -3.4375 -1.523438 -3.4375 -3.414062 v -44.445313 c 0 -1.890625 1.535157 -3.414063 3.4375 -3.414063 z m 0 0" fill="#77767b"/>
        </g>
    </g>
    <g clip-path="url(#f)">
        <g clip-path="url(#g)">
            <path d="m 41.226562 55.164062 h 45.773438 v 53.414063 h -45.773438 z m 0 0" fill="#434348" fill-opacity="0.509804"/>
        </g>
    </g>
    <path d="m 120 21.613281 v 72.773438 c 0 5.308593 -4.296875 9.613281 -9.59375 9.613281 h -92.8125 c -5.296875 0 -9.59375 -4.304688 -9.59375 -9.613281 v -72.773438 c 0 -5.308593 4.296875 -9.613281 9.59375 -9.613281 h 92.8125 c 5.296875 0 9.59375 4.304688 9.59375 9.613281 z m 0 0" fill="url(#h)"/>
    <path d="m 120 21.613281 v 68.773438 c 0 5.308593 -4.296875 9.613281 -9.59375 9.613281 h -92.8125 c -5.296875 0 -9.59375 -4.304688 -9.59375 -9.613281 v -68.773438 c 0 -5.308593 4.296875 -9.613281 9.59375 -9.613281 h 92.8125 c 5.296875 0 9.59375 4.304688 9.59375 9.613281 z m 0 0" fill="#241f31"/>
    <path d="m 17.378906 14 h 93.242188 c 4.074218 0 7.378906 3.3125 7.378906 7.394531 v 69.210938 c 0 4.082031 -3.304688 7.394531 -7.378906 7.394531 h -93.242188 c -4.074218 0 -7.378906 -3.3125 -7.378906 -7.394531 v -69.210938 c 0 -4.082031 3.304688 -7.394531 7.378906 -7.394531 z m 0 0" fill="url(#i)"/>
</svg>
