<?xml version="1.0" encoding="UTF-8"?>
<svg height="128px" viewBox="0 0 128 128" width="128px" xmlns="http://www.w3.org/2000/svg" xmlns:xlink="http://www.w3.org/1999/xlink">
    <linearGradient id="a" gradientUnits="userSpaceOnUse" x1="12.000031" x2="116.000031" y1="63.999756" y2="63.999756">
        <stop offset="0" stop-color="#babdb6"/>
        <stop offset="0.0416667" stop-color="#f6f5f4"/>
        <stop offset="0.0833333" stop-color="#d5d3cf"/>
        <stop offset="0.916667" stop-color="#deddda"/>
        <stop offset="0.958333" stop-color="#f6f5f4"/>
        <stop offset="1" stop-color="#babdb6"/>
    </linearGradient>
    <path d="m 20 32 h 88 c 4.417969 0 8 3.582031 8 8 v 68 c 0 4.417969 -3.582031 8 -8 8 h -88 c -4.417969 0 -8 -3.582031 -8 -8 v -68 c 0 -4.417969 3.582031 -8 8 -8 z m 0 0" fill="url(#a)"/>
    <path d="m 20 12 h 88 c 4.417969 0 8 3.582031 8 8 v 70 c 0 4.417969 -3.582031 8 -8 8 h -88 c -4.417969 0 -8 -3.582031 -8 -8 v -70 c 0 -4.417969 3.582031 -8 8 -8 z m 0 0" fill="#f6f5f4"/>
    <path d="m 25.09375 104.007812 h 77.8125 c 1.707031 0 3.09375 1.339844 3.09375 2.992188 s -1.386719 2.992188 -3.09375 2.992188 h -77.8125 c -1.707031 0 -3.09375 -1.339844 -3.09375 -2.992188 s 1.386719 -2.992188 3.09375 -2.992188 z m 0 0" fill="#ffffff"/>
    <path d="m 24.09375 104.007812 h 79.8125 c 1.15625 0 2.09375 0.9375 2.09375 2.09375 s -0.9375 2.09375 -2.09375 2.09375 h -79.8125 c -1.15625 0 -2.09375 -0.9375 -2.09375 -2.09375 s 0.9375 -2.09375 2.09375 -2.09375 z m 0 0" fill="#5e5c64"/>
    <path d="m 20 12 c -4.433594 0 -8 3.566406 -8 8 v 66 h 104 v -66 c 0 -4.433594 -3.566406 -8 -8 -8 z m 0 0" fill="#ffa348"/>
</svg>
