<?xml version="1.0" encoding="UTF-8"?>
<svg height="128px" viewBox="0 0 128 128" width="128px" xmlns="http://www.w3.org/2000/svg" xmlns:xlink="http://www.w3.org/1999/xlink">
    <linearGradient id="a" gradientTransform="matrix(0.25 0 0 0.243056 -16 -80.435722)" gradientUnits="userSpaceOnUse" x1="176" x2="494.999939" y1="799.963867" y2="799.963867">
        <stop offset="0"/>
        <stop offset="0.0470219" stop-color="#424048"/>
        <stop offset="0.0971787" stop-color="#241f31"/>
        <stop offset="0.899687" stop-color="#241f31"/>
        <stop offset="0.949843" stop-color="#424048"/>
        <stop offset="1"/>
    </linearGradient>
    <linearGradient id="b" gradientTransform="matrix(0.25 0 0 0.243056 -16 -80.435722)" gradientUnits="userSpaceOnUse" x1="177" x2="496" y1="619.963867" y2="619.963867">
        <stop offset="0" stop-color="#424048"/>
        <stop offset="0.0470219" stop-color="#f6f5f4"/>
        <stop offset="0.0971787" stop-color="#949390"/>
        <stop offset="0.899687" stop-color="#d5d3cf"/>
        <stop offset="0.949843" stop-color="#f6f5f4"/>
        <stop offset="1" stop-color="#424048"/>
    </linearGradient>
    <linearGradient id="c" gradientUnits="userSpaceOnUse" x1="68.00000775" x2="68.00000775" y1="2.249954" y2="106.249954">
        <stop offset="0" stop-color="#deddda"/>
        <stop offset="1" stop-color="#f6f5f4"/>
    </linearGradient>
    <radialGradient id="d" cx="112.042053" cy="132.151825" gradientTransform="matrix(0.573927 -0.480654 0.340622 0.406722 -24.35643 101.866379)" gradientUnits="userSpaceOnUse" r="144">
        <stop offset="0" stop-color="#d5d3cf"/>
        <stop offset="0.129392" stop-color="#949390"/>
        <stop offset="0.257694" stop-color="#d5d3cf"/>
        <stop offset="0.334113" stop-color="#deddda"/>
        <stop offset="0.446104" stop-color="#949390"/>
        <stop offset="0.51534" stop-color="#deddda"/>
        <stop offset="0.657589" stop-color="#f6f5f4"/>
        <stop offset="0.809046" stop-color="#949390"/>
        <stop offset="1" stop-color="#ffffff"/>
    </radialGradient>
    <linearGradient id="e" gradientUnits="userSpaceOnUse" x1="71.73707575" x2="58.4499625" y1="55.1854875" y2="32.17152775">
        <stop offset="0" stop-color="#dfddd9"/>
        <stop offset="1" stop-color="#f9f9f8"/>
    </linearGradient>
    <linearGradient id="f" gradientUnits="userSpaceOnUse">
        <stop offset="0" stop-opacity="0.25098"/>
        <stop offset="1" stop-opacity="0.031373"/>
    </linearGradient>
    <radialGradient id="g" cx="35.99999" cy="104.8950995" r="4" xlink:href="#f"/>
    <linearGradient id="h" gradientUnits="userSpaceOnUse">
        <stop offset="0" stop-color="#949390"/>
        <stop offset="1" stop-color="#424048"/>
    </linearGradient>
    <radialGradient id="i" cx="28.1048890128" cy="105.27128512586" r="2.077984" xlink:href="#h"/>
    <radialGradient id="j" cx="99.999989" cy="104.8950995" r="4" xlink:href="#f"/>
    <radialGradient id="k" cx="100.00003990404" cy="104.93936984209" r="2.751304" xlink:href="#h"/>
    <radialGradient id="l" cx="99.999989" cy="14.8950995" r="4" xlink:href="#f"/>
    <radialGradient id="m" cx="100.00003990404" cy="14.93936984209" r="2.751304" xlink:href="#h"/>
    <radialGradient id="n" cx="27.99999" cy="14.8950995" r="4" xlink:href="#f"/>
    <radialGradient id="o" cx="28.00004190404" cy="14.93936984209" r="2.751304" xlink:href="#h"/>
    <path d="m 28 50 h 72 c 4.433594 0 8 3.566406 8 8 v 54 c 0 4.433594 -3.566406 8 -8 8 h -72 c -4.433594 0 -8 -3.566406 -8 -8 v -54 c 0 -4.433594 3.566406 -8 8 -8 z m 0 0" fill="url(#a)"/>
    <path d="m 28 44 h 72 c 4.433594 0 8 3.566406 8 8 v 54 c 0 4.433594 -3.566406 8 -8 8 h -72 c -4.433594 0 -8 -3.566406 -8 -8 v -54 c 0 -4.433594 3.566406 -8 8 -8 z m 0 0" fill="url(#b)"/>
    <path d="m 28 8 h 72 c 4.433594 0 8 3.773438 8 8.457031 v 87.085938 c 0 4.683593 -3.566406 8.457031 -8 8.457031 h -72 c -4.433594 0 -8 -3.773438 -8 -8.457031 v -87.085938 c 0 -4.683593 3.566406 -8.457031 8 -8.457031 z m 0 0" fill="url(#c)"/>
    <path d="m 38 12 c -2.214844 0 -4 1.785156 -4 4 c 0 3.3125 -2.6875 6 -6 6 c -2.214844 0 -4 1.785156 -4 4 v 8 c 0 2.214844 1.785156 4 4 4 c 3.3125 0 6 2.6875 6 6 c -0.003906 1.476562 -0.550781 2.902344 -1.539062 4 c -5.921876 6.59375 -8.445313 15.136719 -8.460938 24 c 0 19.882812 20.117188 36 40 36 s 40 -16.117188 40 -36 c -0.015625 -8.863281 -2.539062 -17.410156 -8.464844 -24 c -0.984375 -1.097656 -1.53125 -2.523438 -1.535156 -4 c 0 -3.3125 2.6875 -6 6 -6 c 2.214844 0 4 -1.785156 4 -4 v -8 c 0 -2.214844 -1.785156 -4 -4 -4 c -3.3125 0 -6 -2.6875 -6 -6 c 0 -2.214844 -1.785156 -4 -4 -4 z m 26 52 c 3.3125 0 6 2.6875 6 6 s -2.6875 6 -6 6 s -6 -2.6875 -6 -6 s 2.6875 -6 6 -6 z m 0 0" fill="url(#d)"/>
    <path d="m 38 10 c -2.214844 0 -4 1.785156 -4 4 c 0 3.3125 -2.6875 6 -6 6 c -2.214844 0 -4 1.785156 -4 4 v 8 c 0 2.214844 1.785156 4 4 4 c 3.3125 0 6 2.6875 6 6 c -0.003906 1.476562 -0.550781 2.902344 -1.539062 4 c -5.921876 6.59375 -8.445313 15.136719 -8.460938 24 c 0 19.882812 20.117188 36 40 36 s 40 -16.117188 40 -36 c -0.015625 -8.863281 -2.539062 -17.410156 -8.464844 -24 c -0.984375 -1.097656 -1.53125 -2.523438 -1.535156 -4 c 0 -3.3125 2.6875 -6 6 -6 c 2.214844 0 4 -1.785156 4 -4 v -8 c 0 -2.214844 -1.785156 -4 -4 -4 c -3.3125 0 -6 -2.6875 -6 -6 c 0 -2.214844 -1.785156 -4 -4 -4 z m 26 52 c 3.3125 0 6 2.6875 6 6 s -2.6875 6 -6 6 s -6 -2.6875 -6 -6 s 2.6875 -6 6 -6 z m 0 0" fill="url(#e)"/>
    <path d="m 32 106 c 0 2.210938 -1.789062 4 -4 4 s -4 -1.789062 -4 -4 s 1.789062 -4 4 -4 s 4 1.789062 4 4 z m 0 0" fill="url(#g)"/>
    <path d="m 30 106 c 0 1.105469 -0.894531 2 -2 2 s -2 -0.894531 -2 -2 s 0.894531 -2 2 -2 s 2 0.894531 2 2 z m 0 0" fill="url(#i)"/>
    <path d="m 104 106 c 0 2.210938 -1.789062 4 -4 4 s -4 -1.789062 -4 -4 s 1.789062 -4 4 -4 s 4 1.789062 4 4 z m 0 0" fill="url(#j)"/>
    <path d="m 102 106 c 0 1.105469 -0.894531 2 -2 2 s -2 -0.894531 -2 -2 s 0.894531 -2 2 -2 s 2 0.894531 2 2 z m 0 0" fill="url(#k)"/>
    <path d="m 104 16 c 0 2.210938 -1.789062 4 -4 4 s -4 -1.789062 -4 -4 s 1.789062 -4 4 -4 s 4 1.789062 4 4 z m 0 0" fill="url(#l)"/>
    <path d="m 102 16 c 0 1.105469 -0.894531 2 -2 2 s -2 -0.894531 -2 -2 s 0.894531 -2 2 -2 s 2 0.894531 2 2 z m 0 0" fill="url(#m)"/>
    <path d="m 32 16 c 0 2.210938 -1.789062 4 -4 4 s -4 -1.789062 -4 -4 s 1.789062 -4 4 -4 s 4 1.789062 4 4 z m 0 0" fill="url(#n)"/>
    <path d="m 30 16 c 0 1.105469 -0.894531 2 -2 2 s -2 -0.894531 -2 -2 s 0.894531 -2 2 -2 s 2 0.894531 2 2 z m 0 0" fill="url(#o)"/>
</svg>
