<?xml version="1.0" encoding="UTF-8"?>
<svg height="128px" viewBox="0 0 128 128" width="128px" xmlns="http://www.w3.org/2000/svg" xmlns:xlink="http://www.w3.org/1999/xlink">
    <linearGradient id="a" gradientUnits="userSpaceOnUse" x1="12" x2="116" y1="55.9999" y2="55.9999">
        <stop offset="0" stop-color="#babdb6"/>
        <stop offset="0.0416667" stop-color="#f6f5f4"/>
        <stop offset="0.0833333" stop-color="#d5d3cf"/>
        <stop offset="0.916667" stop-color="#deddda"/>
        <stop offset="0.958333" stop-color="#f6f5f4"/>
        <stop offset="1" stop-color="#babdb6"/>
    </linearGradient>
    <clipPath id="b">
        <path d="m 24 96 h 81 v 28 h -81 z m 0 0"/>
    </clipPath>
    <clipPath id="c">
        <path d="m -5.238281 96 h 156 c 1.105469 0 2 0.894531 2 2 v 38 c 0 1.105469 -0.894531 2 -2 2 h -156 c -1.105469 0 -2 -0.894531 -2 -2 v -38 c 0 -1.105469 0.894531 -2 2 -2 z m 0 0"/>
    </clipPath>
    <clipPath id="d">
        <path d="m 24 96 h 81 v 26 h -81 z m 0 0"/>
    </clipPath>
    <clipPath id="e">
        <path d="m -5.238281 96 h 156 c 1.105469 0 2 0.894531 2 2 v 38 c 0 1.105469 -0.894531 2 -2 2 h -156 c -1.105469 0 -2 -0.894531 -2 -2 v -38 c 0 -1.105469 0.894531 -2 2 -2 z m 0 0"/>
    </clipPath>
    <clipPath id="f">
        <path d="m 26 96 h 77 v 24 h -77 z m 0 0"/>
    </clipPath>
    <clipPath id="g">
        <path d="m -5.238281 96 h 156 c 1.105469 0 2 0.894531 2 2 v 38 c 0 1.105469 -0.894531 2 -2 2 h -156 c -1.105469 0 -2 -0.894531 -2 -2 v -38 c 0 -1.105469 0.894531 -2 2 -2 z m 0 0"/>
    </clipPath>
    <path d="m 20 24 h 88 c 4.417969 0 8 3.582031 8 8 v 68 c 0 4.417969 -3.582031 8 -8 8 h -88 c -4.417969 0 -8 -3.582031 -8 -8 v -68 c 0 -4.417969 3.582031 -8 8 -8 z m 0 0" fill="url(#a)"/>
    <path d="m 20 4 h 88 c 4.417969 0 8 3.582031 8 8 v 70 c 0 4.417969 -3.582031 8 -8 8 h -88 c -4.417969 0 -8 -3.582031 -8 -8 v -70 c 0 -4.417969 3.582031 -8 8 -8 z m 0 0" fill="#f6f5f4"/>
    <path d="m 20 4 c -4.433594 0 -8 3.566406 -8 8 v 66 h 104 v -66 c 0 -4.433594 -3.566406 -8 -8 -8 z m 0 0" fill="#ffa348"/>
    <path d="m 26.761719 94 h 76 c 1.105469 0 2 0.894531 2 2 s -0.894531 2 -2 2 h -76 c -1.105469 0 -2 -0.894531 -2 -2 s 0.894531 -2 2 -2 z m 0 0" fill="#3d3846"/>
    <g clip-path="url(#b)">
        <g clip-path="url(#c)">
            <path d="m 64.761719 44 c -22.089844 0 -40 17.910156 -40 40 s 17.910156 40 40 40 c 22.089843 0 40 -17.910156 40 -40 s -17.910157 -40 -40 -40 z m 0 32 c 4.417969 0 8 3.582031 8 8 s -3.582031 8 -8 8 s -8 -3.582031 -8 -8 s 3.582031 -8 8 -8 z m 0 0" fill="#c0bfbc"/>
        </g>
    </g>
    <g clip-path="url(#d)">
        <g clip-path="url(#e)">
            <path d="m 64.761719 42 c -22.089844 0 -40 17.910156 -40 40 s 17.910156 40 40 40 c 22.089843 0 40 -17.910156 40 -40 s -17.910157 -40 -40 -40 z m 0 32 c 4.417969 0 8 3.582031 8 8 s -3.582031 8 -8 8 s -8 -3.582031 -8 -8 s 3.582031 -8 8 -8 z m 0 0" fill="#deddda"/>
        </g>
    </g>
    <g clip-path="url(#f)">
        <g clip-path="url(#g)">
            <path d="m 64.761719 44 c -20.988281 0 -38 17.011719 -38 38 s 17.011719 38 38 38 s 38 -17.011719 38 -38 s -17.011719 -38 -38 -38 z m 0 26 c 6.628906 0 12 5.371094 12 12 s -5.371094 12 -12 12 c -6.628907 0 -12 -5.371094 -12 -12 s 5.371093 -12 12 -12 z m 0 0" fill="#f6f5f4"/>
        </g>
    </g>
</svg>
