<?xml version="1.0" encoding="UTF-8"?>
<svg height="128px" viewBox="0 0 128 128" width="128px" xmlns="http://www.w3.org/2000/svg" xmlns:xlink="http://www.w3.org/1999/xlink">
    <linearGradient id="a" gradientTransform="matrix(1.27411 0 0 1.04477 -17.482213 -189.366334)" gradientUnits="userSpaceOnUse" x1="20.000008" x2="107.999992" y1="247.3125" y2="247.709961">
        <stop offset="0" stop-color="#5e5c64"/>
        <stop offset="0.0321218" stop-color="#adabb2"/>
        <stop offset="0.101963" stop-color="#5e5c64"/>
        <stop offset="0.890502" stop-color="#5e5c64"/>
        <stop offset="0.954617" stop-color="#84818a"/>
        <stop offset="1" stop-color="#3a393e"/>
    </linearGradient>
    <clipPath id="b">
        <path d="m 20 94.152344 h 88 v 19.847656 h -88 z m 0 0"/>
    </clipPath>
    <linearGradient id="c" gradientUnits="userSpaceOnUse">
        <stop offset="0"/>
        <stop offset="0.0470219" stop-color="#424048"/>
        <stop offset="0.0971787" stop-color="#241f31"/>
        <stop offset="0.899687" stop-color="#241f31"/>
        <stop offset="0.949843" stop-color="#424048"/>
        <stop offset="1"/>
    </linearGradient>
    <linearGradient id="d" gradientTransform="matrix(0.272115 0 0 0.25955 -27.369698 -100.662817)" x1="176" x2="494.999939" xlink:href="#c" y1="799.963867" y2="799.963867"/>
    <clipPath id="e">
        <path d="m 20 94.152344 h 88 v 13.847656 h -88 z m 0 0"/>
    </clipPath>
    <linearGradient id="f" gradientUnits="userSpaceOnUse">
        <stop offset="0" stop-color="#424048"/>
        <stop offset="0.0470219" stop-color="#f6f5f4"/>
        <stop offset="0.0971787" stop-color="#949390"/>
        <stop offset="0.899687" stop-color="#d5d3cf"/>
        <stop offset="0.949843" stop-color="#f6f5f4"/>
        <stop offset="1" stop-color="#424048"/>
    </linearGradient>
    <linearGradient id="g" gradientTransform="matrix(0.272115 0 0 0.25955 -27.369698 -99.630599)" x1="177" x2="496" xlink:href="#f" y1="619.963867" y2="619.963867"/>
    <clipPath id="h">
        <path d="m 20 94.152344 h 88 v 11.847656 h -88 z m 0 0"/>
    </clipPath>
    <linearGradient id="i" gradientUnits="userSpaceOnUse">
        <stop offset="0" stop-color="#f6f5f4"/>
        <stop offset="1" stop-color="#ffffff"/>
    </linearGradient>
    <linearGradient id="j" gradientTransform="matrix(0.272115 0 0 0.266966 -5.600525 40.860293)" x1="256.000031" x2="256.000031" xlink:href="#i" y1="-203" y2="213"/>
    <clipPath id="k">
        <path d="m 20 85.609375 h 88 v 18.390625 h -88 z m 0 0"/>
    </clipPath>
    <linearGradient id="l" gradientTransform="matrix(0.272115 0 0 0.25955 -27.369698 -110.037773)" x1="176" x2="494.999939" xlink:href="#c" y1="799.963867" y2="799.963867"/>
    <clipPath id="m">
        <path d="m 20 85.609375 h 88 v 14.390625 h -88 z m 0 0"/>
    </clipPath>
    <linearGradient id="n" gradientTransform="matrix(0.272115 0 0 0.25955 -27.369698 -107.630602)" x1="177" x2="496" xlink:href="#f" y1="619.963867" y2="619.963867"/>
    <clipPath id="o">
        <path d="m 20 85.609375 h 88 v 12.390625 h -88 z m 0 0"/>
    </clipPath>
    <linearGradient id="p" gradientTransform="matrix(0.272115 0 0 0.266966 -5.600525 32.797019)" x1="256.000031" x2="256.000031" xlink:href="#i" y1="-203" y2="213"/>
    <clipPath id="q">
        <path d="m 20 77.066406 h 88 v 18.933594 h -88 z m 0 0"/>
    </clipPath>
    <linearGradient id="r" gradientTransform="matrix(0.272115 0 0 0.25955 -27.369698 -118.037776)" x1="176" x2="494.999939" xlink:href="#c" y1="799.963867" y2="799.963867"/>
    <clipPath id="s">
        <path d="m 20 77.066406 h 88 v 15.933594 h -88 z m 0 0"/>
    </clipPath>
    <linearGradient id="t" gradientTransform="matrix(0.272115 0 0 0.25955 -27.369698 -115.612886)" x1="177" x2="496" xlink:href="#f" y1="619.963867" y2="619.963867"/>
    <clipPath id="u">
        <path d="m 20 77.066406 h 88 v 12.933594 h -88 z m 0 0"/>
    </clipPath>
    <linearGradient id="v" gradientTransform="matrix(0.272115 0 0 0.266966 -5.600525 24.860287)" x1="256.000031" x2="256.000031" xlink:href="#i" y1="-203" y2="213"/>
    <clipPath id="w">
        <path d="m 20 74.933594 h 88 v 13.066406 h -88 z m 0 0"/>
    </clipPath>
    <linearGradient id="x" gradientTransform="matrix(0.272115 0 0 0.25955 -27.369698 -126.037771)" x1="176" x2="494.999939" xlink:href="#c" y1="799.963867" y2="799.963867"/>
    <clipPath id="y">
        <path d="m 20 74.933594 h 88 v 9.066406 h -88 z m 0 0"/>
    </clipPath>
    <linearGradient id="z" gradientTransform="matrix(0.272115 0 0 0.25955 -27.369698 -123.630601)" x1="177" x2="496" xlink:href="#f" y1="619.963867" y2="619.963867"/>
    <clipPath id="A">
        <path d="m 20 74.933594 h 88 v 7.066406 h -88 z m 0 0"/>
    </clipPath>
    <linearGradient id="B" gradientTransform="matrix(0.272115 0 0 0.266966 -5.600525 16.860283)" x1="256.000031" x2="256.000031" xlink:href="#i" y1="-203" y2="213"/>
    <path d="m 16.707031 27.945312 h 94.707031 c 4.808594 0 8.707032 3.742188 8.707032 8.359376 v 71.335937 c 0 4.617187 -3.898438 8.359375 -8.707032 8.359375 h -94.707031 c -4.808593 0 -8.707031 -3.742188 -8.707031 -8.359375 v -71.335937 c 0 -4.617188 3.898438 -8.359376 8.707031 -8.359376 z m 0 0" fill="url(#a)"/>
    <path d="m 16.707031 20 h 94.707031 c 4.808594 0 8.707032 3.738281 8.707032 8.347656 v 31.304688 c 0 4.609375 -3.898438 8.347656 -8.707032 8.347656 h -94.707031 c -4.808593 0 -8.707031 -3.738281 -8.707031 -8.347656 v -31.304688 c 0 -4.609375 3.898438 -8.347656 8.707031 -8.347656 z m 0 0" fill="#b5b3b0"/>
    <g clip-path="url(#b)">
        <path d="m 29.230469 38.625 h 69.660156 c 4.808594 0 8.707031 3.824219 8.707031 8.542969 v 57.664062 c 0 4.71875 -3.898437 8.542969 -8.707031 8.542969 h -69.660156 c -4.808594 0 -8.707031 -3.824219 -8.707031 -8.542969 v -57.664062 c 0 -4.71875 3.898437 -8.542969 8.707031 -8.542969 z m 0 0" fill="url(#d)"/>
    </g>
    <g clip-path="url(#e)">
        <path d="m 29.230469 33.25 h 69.660156 c 4.808594 0 8.707031 3.824219 8.707031 8.542969 v 57.664062 c 0 4.71875 -3.898437 8.542969 -8.707031 8.542969 h -69.660156 c -4.808594 0 -8.707031 -3.824219 -8.707031 -8.542969 v -57.664062 c 0 -4.71875 3.898437 -8.542969 8.707031 -8.542969 z m 0 0" fill="url(#g)"/>
    </g>
    <g clip-path="url(#h)">
        <path d="m 29.230469 -7.195312 h 69.660156 c 4.808594 0 8.707031 4.046874 8.707031 9.03125 v 95.132812 c 0 4.988281 -3.898437 9.03125 -8.707031 9.03125 h -69.660156 c -4.808594 0 -8.707031 -4.042969 -8.707031 -9.03125 v -95.132812 c 0 -4.984376 3.898437 -9.03125 8.707031 -9.03125 z m 0 0" fill="url(#j)"/>
    </g>
    <g clip-path="url(#k)">
        <path d="m 29.230469 29.25 h 69.660156 c 4.808594 0 8.707031 3.824219 8.707031 8.542969 v 57.664062 c 0 4.71875 -3.898437 8.542969 -8.707031 8.542969 h -69.660156 c -4.808594 0 -8.707031 -3.824219 -8.707031 -8.542969 v -57.664062 c 0 -4.71875 3.898437 -8.542969 8.707031 -8.542969 z m 0 0" fill="url(#l)"/>
    </g>
    <g clip-path="url(#m)">
        <path d="m 29.230469 25.25 h 69.660156 c 4.808594 0 8.707031 3.824219 8.707031 8.542969 v 57.664062 c 0 4.71875 -3.898437 8.542969 -8.707031 8.542969 h -69.660156 c -4.808594 0 -8.707031 -3.824219 -8.707031 -8.542969 v -57.664062 c 0 -4.71875 3.898437 -8.542969 8.707031 -8.542969 z m 0 0" fill="url(#n)"/>
    </g>
    <g clip-path="url(#o)">
        <path d="m 29.230469 -15.257812 h 69.660156 c 4.808594 0 8.707031 4.042968 8.707031 9.03125 v 95.132812 c 0 4.988281 -3.898437 9.03125 -8.707031 9.03125 h -69.660156 c -4.808594 0 -8.707031 -4.042969 -8.707031 -9.03125 v -95.132812 c 0 -4.988282 3.898437 -9.03125 8.707031 -9.03125 z m 0 0" fill="url(#p)"/>
    </g>
    <g clip-path="url(#q)">
        <path d="m 29.230469 21.25 h 69.660156 c 4.808594 0 8.707031 3.824219 8.707031 8.542969 v 57.664062 c 0 4.71875 -3.898437 8.542969 -8.707031 8.542969 h -69.660156 c -4.808594 0 -8.707031 -3.824219 -8.707031 -8.542969 v -57.664062 c 0 -4.71875 3.898437 -8.542969 8.707031 -8.542969 z m 0 0" fill="url(#r)"/>
    </g>
    <g clip-path="url(#s)">
        <path d="m 29.230469 17.265625 h 69.660156 c 4.808594 0 8.707031 3.828125 8.707031 8.542969 v 57.667968 c 0 4.714844 -3.898437 8.542969 -8.707031 8.542969 h -69.660156 c -4.808594 0 -8.707031 -3.828125 -8.707031 -8.542969 v -57.667968 c 0 -4.714844 3.898437 -8.542969 8.707031 -8.542969 z m 0 0" fill="url(#t)"/>
    </g>
    <g clip-path="url(#u)">
        <path d="m 29.230469 -23.195312 h 69.660156 c 4.808594 0 8.707031 4.046874 8.707031 9.03125 v 95.132812 c 0 4.988281 -3.898437 9.03125 -8.707031 9.03125 h -69.660156 c -4.808594 0 -8.707031 -4.042969 -8.707031 -9.03125 v -95.132812 c 0 -4.984376 3.898437 -9.03125 8.707031 -9.03125 z m 0 0" fill="url(#v)"/>
    </g>
    <g clip-path="url(#w)">
        <path d="m 29.230469 13.25 h 69.660156 c 4.808594 0 8.707031 3.824219 8.707031 8.542969 v 57.664062 c 0 4.71875 -3.898437 8.542969 -8.707031 8.542969 h -69.660156 c -4.808594 0 -8.707031 -3.824219 -8.707031 -8.542969 v -57.664062 c 0 -4.71875 3.898437 -8.542969 8.707031 -8.542969 z m 0 0" fill="url(#x)"/>
    </g>
    <g clip-path="url(#y)">
        <path d="m 29.230469 9.25 h 69.660156 c 4.808594 0 8.707031 3.824219 8.707031 8.542969 v 57.664062 c 0 4.71875 -3.898437 8.542969 -8.707031 8.542969 h -69.660156 c -4.808594 0 -8.707031 -3.824219 -8.707031 -8.542969 v -57.664062 c 0 -4.71875 3.898437 -8.542969 8.707031 -8.542969 z m 0 0" fill="url(#z)"/>
    </g>
    <g clip-path="url(#A)">
        <path d="m 29.230469 -31.195312 h 69.660156 c 4.808594 0 8.707031 4.046874 8.707031 9.03125 v 95.132812 c 0 4.988281 -3.898437 9.03125 -8.707031 9.03125 h -69.660156 c -4.808594 0 -8.707031 -4.042969 -8.707031 -9.03125 v -95.132812 c 0 -4.984376 3.898437 -9.03125 8.707031 -9.03125 z m 0 0" fill="url(#B)"/>
    </g>
    <path d="m 16.707031 18 h 94.707031 c 4.808594 0 8.707032 3.738281 8.707032 8.347656 v 31.304688 c 0 4.609375 -3.898438 8.347656 -8.707032 8.347656 h -94.707031 c -4.808593 0 -8.707031 -3.738281 -8.707031 -8.347656 v -31.304688 c 0 -4.609375 3.898438 -8.347656 8.707031 -8.347656 z m 0 0" fill="#9a9996"/>
</svg>
