<?xml version="1.0" encoding="UTF-8"?>
<svg height="128px" viewBox="0 0 128 128" width="128px" xmlns="http://www.w3.org/2000/svg" xmlns:xlink="http://www.w3.org/1999/xlink">
    <linearGradient id="a" gradientTransform="matrix(0.211538 0 0 0.25 9.846159 57.000019)" gradientUnits="userSpaceOnUse" x1="48" x2="464" y1="204" y2="204">
        <stop offset="0" stop-color="#3d3846"/>
        <stop offset="0.0454544" stop-color="#5e5c64"/>
        <stop offset="0.090909" stop-color="#3d3846"/>
        <stop offset="0.909091" stop-color="#3d3846"/>
        <stop offset="0.954545" stop-color="#5e5c64"/>
        <stop offset="1" stop-color="#3d3846"/>
    </linearGradient>
    <filter id="b" height="100%" width="100%" x="0%" y="0%">
        <feColorMatrix in="SourceGraphic" type="matrix" values="0 0 0 0 1 0 0 0 0 1 0 0 0 0 1 0 0 0 1 0"/>
    </filter>
    <mask id="c">
        <g filter="url(#b)">
            <rect fill-opacity="0.5" height="128" width="128"/>
        </g>
    </mask>
    <clipPath id="d">
        <rect height="152" width="192"/>
    </clipPath>
    <path d="m 28 36 h 72 c 4.417969 0 8 3.582031 8 8 v 68 c 0 4.417969 -3.582031 8 -8 8 h -72 c -4.417969 0 -8 -3.582031 -8 -8 v -68 c 0 -4.417969 3.582031 -8 8 -8 z m 0 0" fill="url(#a)"/>
    <path d="m 28 8 h 72 c 4.417969 0 8 3.582031 8 8 v 92 c 0 4.417969 -3.582031 8 -8 8 h -72 c -4.417969 0 -8 -3.582031 -8 -8 v -92 c 0 -4.417969 3.582031 -8 8 -8 z m 0 0" fill="#5e5c64"/>
    <path d="m 32 16 h 64 c 2.210938 0 4 1.789062 4 4 v 80 c 0 2.210938 -1.789062 4 -4 4 h -64 c -2.210938 0 -4 -1.789062 -4 -4 v -80 c 0 -2.210938 1.789062 -4 4 -4 z m 0 0" fill="#deddda"/>
    <path d="m 30 78 v 22 c 0 1.109375 0.890625 2 2 2 h 64 c 1.109375 0 1.933594 -0.894531 2 -2 v -18 s -10 -6 -28.785156 -5.59375 c -13.203125 0.289062 -25.214844 11.59375 -39.214844 1.59375 z m 0 0" fill="#c0bfbc"/>
    <path d="m 32 14 c -2.214844 0 -4 1.785156 -4 4 v 2 c 0 -2.214844 1.785156 -4 4 -4 h 64 c 2.214844 0 4 1.785156 4 4 v -2 c 0 -2.214844 -1.785156 -4 -4 -4 z m 0 0" fill="#3d3846"/>
    <g fill="#c0bfbc">
        <path d="m 75.21875 42.59375 c -0.5625 5.21875 -5.253906 8.996094 -10.472656 8.429688 c -5.222656 -0.5625 -9 -5.25 -8.433594 -10.472657 c 0.5625 -5.222656 5.253906 -8.996093 10.472656 -8.433593 c 5.222656 0.5625 8.996094 5.253906 8.433594 10.476562 z m 0 0"/>
        <path d="m 67.933594 51.933594 l -0.378906 2.570312 c 0.015624 0.570313 -0.070313 1.128906 -0.246094 1.679688 c -0.996094 0.214844 -1.949219 0.234375 -2.878906 0.140625 c -0.324219 -0.601563 -0.328126 -1.203125 -0.339844 -1.800781 l -0.558594 -2.921876 l 0.328125 0.148438 l 0.488281 2.761719 c 1.050782 -0.082031 1.859375 -0.082031 2.964844 -0.0625 l 0.347656 -2.441407 z m 0 0"/>
        <path d="m 67.925781 52.027344 c -1.46875 0.195312 -2.910156 0.125 -4.324219 -0.195313 c -0.585937 -0.832031 -1.371093 -1.351562 -2.328124 -1.882812 l 4.347656 -0.796875 l 4.699218 0.773437 c -1.441406 0.871094 -2.066406 1.246094 -2.394531 2.101563 z m 0 0"/>
        <path d="m 66.054688 53.296875 c 0.023437 0.25 -0.164063 0.46875 -0.414063 0.488281 c -0.246094 0.023438 -0.46875 -0.160156 -0.488281 -0.410156 c -0.023438 -0.25 0.164062 -0.46875 0.414062 -0.492188 c 0.246094 -0.019531 0.46875 0.164063 0.488282 0.414063 z m 0 0"/>
        <path d="m 65.644531 53.851562 c 0.382813 -0.035156 0.722657 0.25 0.757813 0.636719 c 0.03125 0.382813 -0.253906 0.722657 -0.640625 0.757813 c -0.382813 0.03125 -0.722657 -0.253906 -0.753907 -0.640625 c -0.035156 -0.382813 0.25 -0.722657 0.636719 -0.753907 z m 0 0"/>
        <path d="m 65.117188 53.394531 l -0.410157 0.140625 l 0.234375 0.019532 l -0.140625 0.140624 l 0.199219 -0.054687 l -0.097656 0.226563 l 0.28125 -0.296876 l -0.042969 -0.074218 z m 0 0"/>
        <path d="m 66.097656 53.3125 l 0.429688 0.066406 l -0.230469 0.058594 l 0.164063 0.113281 l -0.207032 -0.015625 l 0.136719 0.203125 l -0.328125 -0.246093 l 0.03125 -0.078126 z m 0 0"/>
        <path d="m 96.820312 52.886719 c -0.226562 3.578125 -3.3125 6.292969 -6.890624 6.066406 c -3.574219 -0.226563 -6.292969 -3.308594 -6.066407 -6.886719 c 0.226563 -3.578125 3.308594 -6.292968 6.886719 -6.070312 c 3.578125 0.226562 6.296875 3.3125 6.070312 6.890625 z m 0 0"/>
        <path d="m 92.132812 59.476562 l -0.179687 1.765626 c 0.027344 0.386718 -0.015625 0.769531 -0.117187 1.152343 c -0.671876 0.175781 -1.320313 0.21875 -1.957032 0.183594 c -0.242187 -0.402344 -0.261718 -0.808594 -0.289062 -1.21875 l -0.46875 -1.976563 l 0.445312 0.070313 l 0.417969 1.867187 c 0.714844 -0.085937 0.867187 -0.066406 1.621094 -0.089843 l 0.164062 -1.675781 z m 0 0"/>
        <path d="m 92.132812 59.539062 c -0.996093 0.179688 -1.980468 0.175782 -2.957031 0 c -0.425781 -0.550781 -0.976562 -0.882812 -1.644531 -1.214843 l 2.941406 -0.675781 l 3.226563 0.386718 c -0.957031 0.636719 -1.367188 0.914063 -1.566407 1.503906 z m 0 0"/>
        <path d="m 91.015625 61.253906 c 0.035156 0.324219 -0.046875 0.601563 -0.1875 0.617188 s -0.28125 -0.238282 -0.316406 -0.5625 c -0.035157 -0.324219 0.046875 -0.597656 0.1875 -0.613282 c 0.140625 -0.015624 0.28125 0.234376 0.316406 0.558594 z m 0 0"/>
        <path d="m 51.425781 55.5625 c -0.308593 2.917969 -2.925781 5.03125 -5.84375 4.71875 s -5.03125 -2.929688 -4.71875 -5.847656 c 0.308594 -2.917969 2.925781 -5.027344 5.84375 -4.71875 c 2.917969 0.3125 5.03125 2.929687 4.71875 5.847656 z m 0 0"/>
        <path d="m 47.363281 60.785156 l -0.210937 1.4375 c 0.007812 0.316406 -0.039063 0.628906 -0.136719 0.9375 c -0.554687 0.121094 -1.085937 0.132813 -1.605469 0.082032 c -0.183594 -0.335938 -0.183594 -0.671876 -0.195312 -1.007813 l -0.3125 -1.632813 l 0.320312 0.074219 l 0.273438 1.539063 c 0.589844 -0.046875 0.800781 -0.019532 1.417968 -0.011719 l 0.191407 -1.363281 z m 0 0"/>
        <path d="m 47.359375 60.835938 c -0.820313 0.113281 -1.625 0.074218 -2.417969 -0.101563 c -0.328125 -0.464844 -0.765625 -0.757813 -1.300781 -1.054687 l 2.429687 -0.445313 l 2.625 0.429687 c -0.804687 0.488282 -1.152343 0.699219 -1.335937 1.171876 z m 0 0"/>
        <path d="m 46.386719 62.199219 c 0.019531 0.269531 -0.0625 0.488281 -0.175781 0.496093 c -0.113282 0.007813 -0.222657 -0.199218 -0.238282 -0.46875 c -0.019531 -0.265624 0.058594 -0.488281 0.175782 -0.496093 c 0.113281 -0.003907 0.222656 0.203125 0.238281 0.46875 z m 0 0"/>
    </g>
    <g clip-path="url(#d)" mask="url(#c)" transform="matrix(1 0 0 1 -8 -16)">
        <path d="m 64 124 h 16 c 1.105469 0 2 0.894531 2 2 s -0.894531 2 -2 2 h -16 c -1.105469 0 -2 -0.894531 -2 -2 s 0.894531 -2 2 -2 z m 0 0" fill="#3d3846"/>
    </g>
</svg>
