<?xml version="1.0" encoding="UTF-8"?>
<svg height="128px" viewBox="0 0 128 128" width="128px" xmlns="http://www.w3.org/2000/svg" xmlns:xlink="http://www.w3.org/1999/xlink">
    <linearGradient id="a" gradientTransform="matrix(0.955178 0 0 0.955175 2.762901 9.024742)" gradientUnits="userSpaceOnUse" x1="0" x2="128" y1="88" y2="88">
        <stop offset="0" stop-color="#3d3846"/>
        <stop offset="0.109375" stop-color="#9a9996"/>
        <stop offset="0.235497" stop-color="#5e5c64"/>
        <stop offset="0.765625" stop-color="#5e5c64"/>
        <stop offset="0.890625" stop-color="#9a9996"/>
        <stop offset="1" stop-color="#3d3846"/>
    </linearGradient>
    <linearGradient id="b" gradientUnits="userSpaceOnUse">
        <stop offset="0" stop-color="#9a9996"/>
        <stop offset="1" stop-color="#9a9996" stop-opacity="0"/>
    </linearGradient>
    <linearGradient id="c" gradientTransform="matrix(0 -1.335685 -1.33569 0 414.265195 140.752426)" x1="38" x2="50" xlink:href="#b" y1="248" y2="248"/>
    <linearGradient id="d" gradientTransform="matrix(0 -1.335685 -1.33569 0 375.233384 140.752426)" x1="38" x2="50" xlink:href="#b" y1="248" y2="248"/>
    <path d="m 25.877 220.091913 l -9.876263 47.909249 l 35.403233 -43.999625" fill="none" stroke="#77767b" stroke-linejoin="round" stroke-width="32" transform="matrix(-0.955178 0 0 0.955175 125.025747 -155.265364)"/>
    <path d="m 90.874 86.094187 l -9.872173 47.909249 l 35.403233 -43.999626" fill="none" stroke="#77767b" stroke-linejoin="round" stroke-width="32" transform="matrix(0.955178 0 0 0.955175 -59.324328 -27.274081)"/>
    <path d="m 60.503906 65.648438 l -30.550781 37.964843 c -3.6875 4.570313 -9.664063 6.621094 -15.378906 5.28125 c -5.714844 -1.335937 -10.160157 -5.832031 -11.433594 -11.5625 l -0.0625 0.304688 c -1.417969 6.910156 2.074219 13.894531 8.457031 16.902343 c 6.378906 3.007813 13.992188 1.253907 18.417969 -4.238281 l 33.816406 -42.027343 z m 6.78125 0 l -3.265625 2.625 l 33.816407 42.027343 c 4.425781 5.492188 12.039062 7.246094 18.417968 4.238281 c 6.382813 -3.007812 9.875 -9.992187 8.457032 -16.902343 l -0.0625 -0.304688 c -1.273438 5.730469 -5.71875 10.226563 -11.433594 11.5625 c -5.714844 1.339844 -11.691406 -0.710937 -15.378906 -5.28125 z m 0 0" fill="url(#a)"/>
    <g fill="#5e5c64">
        <path d="m 54.34375 55.828125 c 0 11.605469 -9.410156 21.015625 -21.015625 21.015625 s -21.011719 -9.410156 -21.011719 -21.015625 s 9.40625 -21.011719 21.011719 -21.011719 s 21.015625 9.40625 21.015625 21.011719 z m 0 0"/>
        <path d="m 60.074219 85.4375 c 0 8.441406 -6.84375 15.285156 -15.285157 15.285156 c -8.4375 0 -15.28125 -6.84375 -15.28125 -15.285156 c 0 -8.4375 6.84375 -15.28125 15.28125 -15.28125 c 8.441407 0 15.285157 6.84375 15.285157 15.28125 z m 0 0"/>
        <path d="m 98.28125 85.4375 c 0 8.441406 -6.84375 15.285156 -15.285156 15.285156 c -8.4375 0 -15.28125 -6.84375 -15.28125 -15.285156 c 0 -8.4375 6.84375 -15.28125 15.28125 -15.28125 c 8.441406 0 15.285156 6.84375 15.285156 15.28125 z m 0 0"/>
        <path d="m 46.699219 72.066406 h 34.386719 v 15.28125 h -34.386719 z m 0 0"/>
        <path d="m 115.472656 55.828125 c 0 11.605469 -9.40625 21.015625 -21.011718 21.015625 c -11.605469 0 -21.015626 -9.410156 -21.015626 -21.015625 s 9.410157 -21.011719 21.015626 -21.011719 c 11.605468 0 21.011718 9.40625 21.011718 21.011719 z m 0 0"/>
    </g>
    <path d="m 46.699219 45.320312 h 34.386719 v 40.117188 h -34.386719 z m 0 0" fill="#deddda"/>
    <path d="m 60.074219 83.527344 c 0 8.441406 -6.84375 15.285156 -15.285157 15.285156 c -8.4375 0 -15.28125 -6.84375 -15.28125 -15.285156 c 0 -8.4375 6.84375 -15.28125 15.28125 -15.28125 c 8.441407 0 15.285157 6.84375 15.285157 15.28125 z m 0 0" fill="#deddda"/>
    <path d="m 98.28125 83.527344 c 0 8.441406 -6.84375 15.285156 -15.285156 15.285156 c -8.4375 0 -15.28125 -6.84375 -15.28125 -15.285156 c 0 -8.4375 6.84375 -15.28125 15.28125 -15.28125 c 8.441406 0 15.285156 6.84375 15.285156 15.28125 z m 0 0" fill="#deddda"/>
    <path d="m 33.328125 32 c -11.605469 0 -21.011719 9.398438 -21.011719 20.988281 c 0 11.59375 9.40625 20.988281 21.011719 20.988281 v 0.957032 h 61.132813 v -0.957032 c 11.605468 0 21.011718 -9.394531 21.011718 -20.988281 c 0 -11.589843 -9.40625 -20.988281 -21.011718 -20.988281 z m 0 0" fill="#deddda"/>
    <path d="m 32 40 c -1.109375 0 -2 0.890625 -2 2 v 6 h -6 c -1.109375 0 -2 0.890625 -2 2 v 4 c 0 1.109375 0.890625 2 2 2 h 6 v 6 c 0 1.109375 0.890625 2 2 2 h 4 c 1.109375 0 2 -0.890625 2 -2 v -6 h 6 c 1.109375 0 2 -0.890625 2 -2 v -4 c 0 -1.109375 -0.890625 -2 -2 -2 h -6 v -6 c 0 -1.109375 -0.890625 -2 -2 -2 z m 0 0" fill="#3d3846"/>
    <path d="m 32 38 c -1.109375 0 -2 0.890625 -2 2 v 6 h -6 c -1.109375 0 -2 0.890625 -2 2 v 4 c 0 1.109375 0.890625 2 2 2 h 6 v 6 c 0 1.109375 0.890625 2 2 2 h 4 c 1.109375 0 2 -0.890625 2 -2 v -6 h 6 c 1.109375 0 2 -0.890625 2 -2 v -4 c 0 -1.109375 -0.890625 -2 -2 -2 h -6 v -6 c 0 -1.109375 -0.890625 -2 -2 -2 z m 0 0" fill="#5e5c64"/>
    <path d="m 108 54 v 2 c 0 3.324219 -2.675781 6 -6 6 s -6 -2.675781 -6 -6 v -2 z m 0 0" fill="#c01c28"/>
    <path d="m 96 54 c 0 3.3125 2.6875 6 6 6 s 6 -2.6875 6 -6 s -2.6875 -6 -6 -6 s -6 2.6875 -6 6 z m 0 0" fill="#ed333b"/>
    <path d="m 92 46 v 2 c 0 3.324219 -2.675781 6 -6 6 s -6 -2.675781 -6 -6 v -2 z m 0 0" fill="#1a5fb4"/>
    <path d="m 80 46 c 0 3.3125 2.6875 6 6 6 s 6 -2.6875 6 -6 s -2.6875 -6 -6 -6 s -6 2.6875 -6 6 z m 0 0" fill="#3584e4"/>
    <path d="m 93.03125 83.984375 c 0 5.535156 -4.484375 10.019531 -10.015625 10.019531 c -5.535156 0 -10.019531 -4.484375 -10.019531 -10.019531 c 0 -5.53125 4.484375 -10.015625 10.019531 -10.015625 c 5.53125 0 10.015625 4.484375 10.015625 10.015625 z m 0 0" fill="#3d3846"/>
    <path d="m 93.03125 81.980469 c 0 5.535156 -4.484375 10.019531 -10.015625 10.019531 c -5.535156 0 -10.019531 -4.484375 -10.019531 -10.019531 c 0 -5.53125 4.484375 -10.015625 10.019531 -10.015625 c 5.53125 0 10.015625 4.484375 10.015625 10.015625 z m 0 0" fill="#5e5c64"/>
    <path d="m 83.015625 73.96875 c -4.425781 0 -8.015625 3.585938 -8.015625 8.011719 c 0 4.429687 3.589844 8.015625 8.015625 8.015625 s 8.011719 -3.585938 8.011719 -8.015625 c 0 -4.425781 -3.585938 -8.011719 -8.011719 -8.011719 z m 0 0" fill="url(#c)"/>
    <path d="m 54 83.984375 c 0 5.535156 -4.484375 10.019531 -10.019531 10.019531 c -5.53125 0 -10.015625 -4.484375 -10.015625 -10.019531 c 0 -5.53125 4.484375 -10.015625 10.015625 -10.015625 c 5.535156 0 10.019531 4.484375 10.019531 10.015625 z m 0 0" fill="#3d3846"/>
    <path d="m 54 81.980469 c 0 5.535156 -4.484375 10.019531 -10.019531 10.019531 c -5.53125 0 -10.015625 -4.484375 -10.015625 -10.019531 c 0 -5.53125 4.484375 -10.015625 10.015625 -10.015625 c 5.535156 0 10.019531 4.484375 10.019531 10.015625 z m 0 0" fill="#5e5c64"/>
    <path d="m 43.980469 73.96875 c -4.425781 0 -8.011719 3.585938 -8.011719 8.011719 c 0 4.429687 3.585938 8.015625 8.011719 8.015625 c 4.429687 0 8.015625 -3.585938 8.015625 -8.015625 c 0 -4.425781 -3.585938 -8.011719 -8.015625 -8.011719 z m 0 0" fill="url(#d)"/>
</svg>
