<?xml version="1.0" encoding="UTF-8"?>
<svg height="128px" viewBox="0 0 128 128" width="128px" xmlns="http://www.w3.org/2000/svg" xmlns:xlink="http://www.w3.org/1999/xlink">
    <clipPath id="a">
        <path d="m 26 6 h 76 v 117 h -76 z m 0 0"/>
    </clipPath>
    <clipPath id="b">
        <path d="m 63.984375 3.710938 c -21.042969 0 -37.984375 16.945312 -37.984375 37.996093 v 44.804688 c 0 21.113281 16.949219 38.113281 38 38.113281 s 38 -17 38 -38.113281 v -39.851563 c 0 -0.476562 -0.011719 -0.949218 -0.03125 -1.421875 v -3.53125 c 0 -21.050781 -16.941406 -37.996093 -37.984375 -37.996093 z m 0 0"/>
    </clipPath>
    <linearGradient id="c" gradientTransform="matrix(3.328982 0 0 3.274149 -802.952087 -509.838066)" gradientUnits="userSpaceOnUse" x1="250.349533" x2="269.731781" y1="190.470139" y2="190.470139">
        <stop offset="0" stop-color="#c0bfbc"/>
        <stop offset="0.520393" stop-color="#deddda"/>
        <stop offset="1" stop-color="#9a9996"/>
    </linearGradient>
    <clipPath id="d">
        <path d="m 26 3 h 76 v 113 h -76 z m 0 0"/>
    </clipPath>
    <clipPath id="e">
        <path d="m 63.984375 3.710938 c -21.042969 0 -37.984375 16.945312 -37.984375 37.996093 v 44.804688 c 0 21.113281 16.949219 38.113281 38 38.113281 s 38 -17 38 -38.113281 v -39.851563 c 0 -0.476562 -0.011719 -0.949218 -0.03125 -1.421875 v -3.53125 c 0 -21.050781 -16.941406 -37.996093 -37.984375 -37.996093 z m 0 0"/>
    </clipPath>
    <radialGradient id="f" cx="260.464172" cy="168.527557" gradientTransform="matrix(3.759806 0 0 4.911226 -915.080062 -791.519447)" gradientUnits="userSpaceOnUse" r="11.410563">
        <stop offset="0" stop-color="#f6f5f4"/>
        <stop offset="1" stop-color="#c0bfbc"/>
    </radialGradient>
    <clipPath id="g">
        <path d="m 62 3 h 2 v 16 h -2 z m 0 0"/>
    </clipPath>
    <clipPath id="h">
        <path d="m 63.984375 3.710938 c -21.042969 0 -37.984375 16.945312 -37.984375 37.996093 v 44.804688 c 0 21.113281 16.949219 38.113281 38 38.113281 s 38 -17 38 -38.113281 v -39.851563 c 0 -0.476562 -0.011719 -0.949218 -0.03125 -1.421875 v -3.53125 c 0 -21.050781 -16.941406 -37.996093 -37.984375 -37.996093 z m 0 0"/>
    </clipPath>
    <clipPath id="i">
        <path d="m 64 3 h 2 v 16 h -2 z m 0 0"/>
    </clipPath>
    <clipPath id="j">
        <path d="m 63.984375 3.710938 c -21.042969 0 -37.984375 16.945312 -37.984375 37.996093 v 44.804688 c 0 21.113281 16.949219 38.113281 38 38.113281 s 38 -17 38 -38.113281 v -39.851563 c 0 -0.476562 -0.011719 -0.949218 -0.03125 -1.421875 v -3.53125 c 0 -21.050781 -16.941406 -37.996093 -37.984375 -37.996093 z m 0 0"/>
    </clipPath>
    <clipPath id="k">
        <path d="m 56 16 h 16 v 42 h -16 z m 0 0"/>
    </clipPath>
    <clipPath id="l">
        <path d="m 63.984375 3.710938 c -21.042969 0 -37.984375 16.945312 -37.984375 37.996093 v 44.804688 c 0 21.113281 16.949219 38.113281 38 38.113281 s 38 -17 38 -38.113281 v -39.851563 c 0 -0.476562 -0.011719 -0.949218 -0.03125 -1.421875 v -3.53125 c 0 -21.050781 -16.941406 -37.996093 -37.984375 -37.996093 z m 0 0"/>
    </clipPath>
    <clipPath id="m">
        <path d="m 59 17 h 10 v 11 h -10 z m 0 0"/>
    </clipPath>
    <clipPath id="n">
        <path d="m 63.984375 3.710938 c -21.042969 0 -37.984375 16.945312 -37.984375 37.996093 v 44.804688 c 0 21.113281 16.949219 38.113281 38 38.113281 s 38 -17 38 -38.113281 v -39.851563 c 0 -0.476562 -0.011719 -0.949218 -0.03125 -1.421875 v -3.53125 c 0 -21.050781 -16.941406 -37.996093 -37.984375 -37.996093 z m 0 0"/>
    </clipPath>
    <g clip-path="url(#a)">
        <g clip-path="url(#b)">
            <path d="m 64 6.46875 c 20.988281 0 38 16.984375 38 37.941406 v 39.664063 c 0 20.957031 -17.011719 37.941406 -38 37.941406 s -38 -16.984375 -38 -37.941406 v -39.664063 c 0 -20.957031 17.011719 -37.941406 38 -37.941406 z m 0 0" fill="url(#c)"/>
        </g>
    </g>
    <g clip-path="url(#d)">
        <g clip-path="url(#e)">
            <path d="m 63.984375 3.710938 c 20.980469 0 37.988281 16.476562 37.988281 36.800781 v 38.476562 c 0 20.324219 -17.007812 36.800781 -37.988281 36.800781 c -20.976563 0 -37.984375 -16.476562 -37.984375 -36.800781 v -38.476562 c 0 -20.324219 17.007812 -36.800781 37.984375 -36.800781 z m 0 0" fill="url(#f)"/>
        </g>
    </g>
    <g clip-path="url(#g)">
        <g clip-path="url(#h)">
            <path d="m 62.640625 -2.394531 h 0.71875 c 0.355469 0 0.640625 0.582031 0.640625 1.300781 v 17.8125 c 0 0.714844 -0.285156 1.296875 -0.640625 1.296875 h -0.71875 c -0.355469 0 -0.640625 -0.582031 -0.640625 -1.296875 v -17.8125 c 0 -0.71875 0.285156 -1.300781 0.640625 -1.300781 z m 0 0" fill="#deddda"/>
        </g>
    </g>
    <g clip-path="url(#i)">
        <g clip-path="url(#j)">
            <path d="m 64.640625 -2.394531 h 0.71875 c 0.355469 0 0.640625 0.582031 0.640625 1.300781 v 17.8125 c 0 0.714844 -0.285156 1.296875 -0.640625 1.296875 h -0.71875 c -0.351563 0 -0.640625 -0.582031 -0.640625 -1.296875 v -17.8125 c 0 -0.71875 0.289062 -1.300781 0.640625 -1.300781 z m 0 0" fill="#c3c2bf"/>
        </g>
    </g>
    <g clip-path="url(#k)">
        <g clip-path="url(#l)">
            <path d="m 64 16 c 4.417969 0 8 3.691406 8 8.242188 v 25.515624 c 0 4.550782 -3.582031 8.242188 -8 8.242188 s -8 -3.691406 -8 -8.242188 v -25.515624 c 0 -4.550782 3.582031 -8.242188 8 -8.242188 z m 0 0" fill="#36343d"/>
        </g>
    </g>
    <g clip-path="url(#m)">
        <g clip-path="url(#n)">
            <path d="m 68.828125 22.660156 c 0 2.632813 -2.167969 4.765625 -4.84375 4.765625 s -4.84375 -2.132812 -4.84375 -4.765625 c 0 -2.628906 2.167969 -4.765625 4.84375 -4.765625 s 4.84375 2.136719 4.84375 4.765625 z m 0 0" fill="#c0bfbc" fill-opacity="0.101961"/>
        </g>
    </g>
</svg>
