<?xml version="1.0" encoding="UTF-8"?>
<svg height="128px" viewBox="0 0 128 128" width="128px" xmlns="http://www.w3.org/2000/svg" xmlns:xlink="http://www.w3.org/1999/xlink">
    <linearGradient id="a" gradientTransform="matrix(1.602174 0 0 1.755688 -48.191921 -324.765829)" gradientUnits="userSpaceOnUse" x1="68" x2="68" y1="200" y2="194">
        <stop offset="0" stop-color="#241f31"/>
        <stop offset="0.423401" stop-color="#2e2939"/>
        <stop offset="0.666667" stop-color="#5e5c64"/>
        <stop offset="0.833333" stop-color="#383341"/>
        <stop offset="1" stop-color="#3d3846"/>
    </linearGradient>
    <clipPath id="b">
        <path d="m 8 27 h 112 v 87 h -112 z m 0 0"/>
    </clipPath>
    <clipPath id="c">
        <path d="m 15.894531 27.878906 h 96.132813 c 4.421875 0 8.007812 3.585938 8.007812 8.011719 v 70.097656 c 0 4.421875 -3.585937 8.007813 -8.007812 8.007813 h -96.132813 c -4.425781 0 -8.011719 -3.585938 -8.011719 -8.007813 v -70.097656 c 0 -4.425781 3.585938 -8.011719 8.011719 -8.011719 z m 0 0"/>
    </clipPath>
    <clipPath id="d">
        <path d="m 7 27 h 114 v 21 h -114 z m 0 0"/>
    </clipPath>
    <clipPath id="e">
        <path d="m 15.894531 27.878906 h 96.132813 c 4.421875 0 8.007812 3.585938 8.007812 8.011719 v 70.097656 c 0 4.421875 -3.585937 8.007813 -8.007812 8.007813 h -96.132813 c -4.425781 0 -8.011719 -3.585938 -8.011719 -8.007813 v -70.097656 c 0 -4.425781 3.585938 -8.011719 8.011719 -8.011719 z m 0 0"/>
    </clipPath>
    <filter id="f" height="100%" width="100%" x="0%" y="0%">
        <feColorMatrix in="SourceGraphic" type="matrix" values="0 0 0 0 1 0 0 0 0 1 0 0 0 0 1 0 0 0 1 0"/>
    </filter>
    <mask id="g">
        <g filter="url(#f)">
            <rect fill-opacity="0.2" height="128" width="128"/>
        </g>
    </mask>
    <clipPath id="h">
        <rect height="152" width="192"/>
    </clipPath>
    <linearGradient id="i" gradientTransform="matrix(0.708068 0.708068 -0.708068 0.708068 299.583661 -18.721936)" gradientUnits="userSpaceOnUse" x1="-112" x2="-96" y1="224" y2="224">
        <stop offset="0" stop-color="#3d3846"/>
        <stop offset="0.354492" stop-color="#5e5c64"/>
        <stop offset="1" stop-color="#342f3b"/>
    </linearGradient>
    <path d="m 49.941406 15.835938 h 28.039063 c 1.105469 0 2 0.898437 2 2.007812 v 10.03125 c 0 1.109375 -0.894531 2.007812 -2 2.007812 h -28.039063 c -1.105468 0 -2.003906 -0.898437 -2.003906 -2.007812 v -10.03125 c 0 -1.109375 0.898438 -2.007812 2.003906 -2.007812 z m 0 0" fill="url(#a)"/>
    <path d="m 15.929688 30 h 96.058593 c 4.445313 0 8.046875 3.519531 8.046875 7.863281 v 70.273438 c 0 4.34375 -3.601562 7.863281 -8.046875 7.863281 h -96.058593 c -4.441407 0 -8.046876 -3.519531 -8.046876 -7.863281 v -70.273438 c 0 -4.34375 3.605469 -7.863281 8.046876 -7.863281 z m 0 0" fill="#342f3b"/>
    <g clip-path="url(#b)">
        <g clip-path="url(#c)">
            <path d="m 8 27.878906 h 112 v 86.121094 h -112 z m 0 0" fill="#3d3846"/>
        </g>
    </g>
    <g clip-path="url(#d)">
        <g clip-path="url(#e)">
            <path d="m 7.882812 27.878906 h 112.152344 v 20.027344 h -112.152344 z m 0 0" fill="#5e5c64"/>
        </g>
    </g>
    <path d="m 106.015625 102.980469 c 0 0.554687 -0.445313 1.003906 -1 1.003906 c -0.550781 0 -1 -0.449219 -1 -1.003906 c 0 -0.550781 0.449219 -1 1 -1 c 0.554687 0 1 0.449219 1 1 z m 0 -8.007813 c 0 0.550782 -0.445313 1 -1 1 c -0.550781 0 -1 -0.449218 -1 -1 c 0 -0.554687 0.449219 -1.003906 1 -1.003906 c 0.554687 0 1 0.449219 1 1.003906 z m 0 -8.011718 c 0 0.550781 -0.445313 1 -1 1 c -0.550781 0 -1 -0.449219 -1 -1 c 0 -0.554688 0.449219 -1 1 -1 c 0.554687 0 1 0.445312 1 1 z m 0 -8.011719 c 0 0.554687 -0.445313 1 -1 1 c -0.550781 0 -1 -0.445313 -1 -1 c 0 -0.550781 0.449219 -1 1 -1 c 0.554687 0 1 0.449219 1 1 z m 0 -8.011719 c 0 0.554688 -0.445313 1.003906 -1 1.003906 c -0.550781 0 -1 -0.449218 -1 -1.003906 c 0 -0.550781 0.449219 -1 1 -1 c 0.554687 0 1 0.449219 1 1 z m 0 -8.007812 c 0 0.550781 -0.445313 1 -1 1 c -0.550781 0 -1 -0.449219 -1 -1 c 0 -0.554688 0.449219 -1.003907 1 -1.003907 c 0.554687 0 1 0.449219 1 1.003907 z m 0 -8.011719 c 0 0.550781 -0.445313 1 -1 1 c -0.550781 0 -1 -0.449219 -1 -1 c 0 -0.554688 0.449219 -1.003907 1 -1.003907 c 0.554687 0 1 0.449219 1 1.003907 z m -8.007813 48.0625 c 0 0.554687 -0.449218 1.003906 -1.003906 1.003906 c -0.550781 0 -1 -0.449219 -1 -1.003906 c 0 -0.550781 0.449219 -1 1 -1 c 0.554688 0 1.003906 0.449219 1.003906 1 z m -8.011718 0 c 0 0.554687 -0.449219 1.003906 -1 1.003906 c -0.554688 0 -1.003906 -0.449219 -1.003906 -1.003906 c 0 -0.550781 0.449218 -1 1.003906 -1 c 0.550781 0 1 0.449219 1 1 z m -8.011719 0 c 0 0.554687 -0.449219 1.003906 -1 1.003906 c -0.554687 0 -1.003906 -0.449219 -1.003906 -1.003906 c 0 -0.550781 0.449219 -1 1.003906 -1 c 0.550781 0 1 0.449219 1 1 z m -8.011719 0 c 0 0.554687 -0.445312 1.003906 -1 1.003906 c -0.554687 0 -1 -0.449219 -1 -1.003906 c 0 -0.550781 0.445313 -1 1 -1 c 0.554688 0 1 0.449219 1 1 z m -8.007812 0 c 0 0.554687 -0.449219 1.003906 -1.003906 1.003906 c -0.550782 0 -1 -0.449219 -1 -1.003906 c 0 -0.550781 0.449218 -1 1 -1 c 0.554687 0 1.003906 0.449219 1.003906 1 z m -8.011719 0 c 0 0.554687 -0.449219 1.003906 -1.003906 1.003906 c -0.550781 0 -1 -0.449219 -1 -1.003906 c 0 -0.550781 0.449219 -1 1 -1 c 0.554687 0 1.003906 0.449219 1.003906 1 z m -8.011719 0 c 0 0.554687 -0.449218 1.003906 -1 1.003906 c -0.554687 0 -1.003906 -0.449219 -1.003906 -1.003906 c 0 -0.550781 0.449219 -1 1.003906 -1 c 0.550782 0 1 0.449219 1 1 z m -8.011718 0 c 0 0.554687 -0.449219 1.003906 -1 1.003906 c -0.554688 0 -1.003907 -0.449219 -1.003907 -1.003906 c 0 -0.550781 0.449219 -1 1.003907 -1 c 0.550781 0 1 0.449219 1 1 z m -8.011719 0 c 0 0.554687 -0.445313 1.003906 -1 1.003906 c -0.554688 0 -1 -0.449219 -1 -1.003906 c 0 -0.550781 0.445312 -1 1 -1 c 0.554687 0 1 0.449219 1 1 z m -8.007813 0 c 0 0.554687 -0.449218 1.003906 -1.003906 1.003906 c -0.550781 0 -1 -0.449219 -1 -1.003906 c 0 -0.550781 0.449219 -1 1 -1 c 0.554688 0 1.003906 0.449219 1.003906 1 z m 72.097656 -8.007813 c 0 0.550782 -0.449218 1 -1.003906 1 c -0.550781 0 -1 -0.449218 -1 -1 c 0 -0.554687 0.449219 -1.003906 1 -1.003906 c 0.554688 0 1.003906 0.449219 1.003906 1.003906 z m -8.011718 0 c 0 0.550782 -0.449219 1 -1 1 c -0.554688 0 -1.003906 -0.449218 -1.003906 -1 c 0 -0.554687 0.449218 -1.003906 1.003906 -1.003906 c 0.550781 0 1 0.449219 1 1.003906 z m -8.011719 0 c 0 0.550782 -0.449219 1 -1 1 c -0.554687 0 -1.003906 -0.449218 -1.003906 -1 c 0 -0.554687 0.449219 -1.003906 1.003906 -1.003906 c 0.550781 0 1 0.449219 1 1.003906 z m -8.011719 0 c 0 0.550782 -0.445312 1 -1 1 c -0.554687 0 -1 -0.449218 -1 -1 c 0 -0.554687 0.445313 -1.003906 1 -1.003906 c 0.554688 0 1 0.449219 1 1.003906 z m -8.007812 0 c 0 0.550782 -0.449219 1 -1.003906 1 c -0.550782 0 -1 -0.449218 -1 -1 c 0 -0.554687 0.449218 -1.003906 1 -1.003906 c 0.554687 0 1.003906 0.449219 1.003906 1.003906 z m -8.011719 0 c 0 0.550782 -0.449219 1 -1.003906 1 c -0.550781 0 -1 -0.449218 -1 -1 c 0 -0.554687 0.449219 -1.003906 1 -1.003906 c 0.554687 0 1.003906 0.449219 1.003906 1.003906 z m -8.011719 0 c 0 0.550782 -0.449218 1 -1 1 c -0.554687 0 -1.003906 -0.449218 -1.003906 -1 c 0 -0.554687 0.449219 -1.003906 1.003906 -1.003906 c 0.550782 0 1 0.449219 1 1.003906 z m -8.011718 0 c 0 0.550782 -0.449219 1 -1 1 c -0.554688 0 -1.003907 -0.449218 -1.003907 -1 c 0 -0.554687 0.449219 -1.003906 1.003907 -1.003906 c 0.550781 0 1 0.449219 1 1.003906 z m -8.011719 0 c 0 0.550782 -0.445313 1 -1 1 c -0.554688 0 -1 -0.449218 -1 -1 c 0 -0.554687 0.445312 -1.003906 1 -1.003906 c 0.554687 0 1 0.449219 1 1.003906 z m -8.007813 0 c 0 0.550782 -0.449218 1 -1.003906 1 c -0.550781 0 -1 -0.449218 -1 -1 c 0 -0.554687 0.449219 -1.003906 1 -1.003906 c 0.554688 0 1.003906 0.449219 1.003906 1.003906 z m 72.097656 -8.011718 c 0 0.550781 -0.449218 1 -1.003906 1 c -0.550781 0 -1 -0.449219 -1 -1 c 0 -0.554688 0.449219 -1 1 -1 c 0.554688 0 1.003906 0.445312 1.003906 1 z m -8.011718 0 c 0 0.550781 -0.449219 1 -1 1 c -0.554688 0 -1.003906 -0.449219 -1.003906 -1 c 0 -0.554688 0.449218 -1 1.003906 -1 c 0.550781 0 1 0.445312 1 1 z m -8.011719 0 c 0 0.550781 -0.449219 1 -1 1 c -0.554687 0 -1.003906 -0.449219 -1.003906 -1 c 0 -0.554688 0.449219 -1 1.003906 -1 c 0.550781 0 1 0.445312 1 1 z m -8.011719 0 c 0 0.550781 -0.445312 1 -1 1 c -0.554687 0 -1 -0.449219 -1 -1 c 0 -0.554688 0.445313 -1 1 -1 c 0.554688 0 1 0.445312 1 1 z m -8.007812 0 c 0 0.550781 -0.449219 1 -1.003906 1 c -0.550782 0 -1 -0.449219 -1 -1 c 0 -0.554688 0.449218 -1 1 -1 c 0.554687 0 1.003906 0.445312 1.003906 1 z m -8.011719 0 c 0 0.550781 -0.449219 1 -1.003906 1 c -0.550781 0 -1 -0.449219 -1 -1 c 0 -0.554688 0.449219 -1 1 -1 c 0.554687 0 1.003906 0.445312 1.003906 1 z m -8.011719 0 c 0 0.550781 -0.449218 1 -1 1 c -0.554687 0 -1.003906 -0.449219 -1.003906 -1 c 0 -0.554688 0.449219 -1 1.003906 -1 c 0.550782 0 1 0.445312 1 1 z m -8.011718 0 c 0 0.550781 -0.449219 1 -1 1 c -0.554688 0 -1.003907 -0.449219 -1.003907 -1 c 0 -0.554688 0.449219 -1 1.003907 -1 c 0.550781 0 1 0.445312 1 1 z m -8.011719 0 c 0 0.550781 -0.445313 1 -1 1 c -0.554688 0 -1 -0.449219 -1 -1 c 0 -0.554688 0.445312 -1 1 -1 c 0.554687 0 1 0.445312 1 1 z m -8.007813 0 c 0 0.550781 -0.449218 1 -1.003906 1 c -0.550781 0 -1 -0.449219 -1 -1 c 0 -0.554688 0.449219 -1 1 -1 c 0.554688 0 1.003906 0.445312 1.003906 1 z m 72.097656 -8.011719 c 0 0.554687 -0.449218 1 -1.003906 1 c -0.550781 0 -1 -0.445313 -1 -1 c 0 -0.550781 0.449219 -1 1 -1 c 0.554688 0 1.003906 0.449219 1.003906 1 z m -8.011718 0 c 0 0.554687 -0.449219 1 -1 1 c -0.554688 0 -1.003906 -0.445313 -1.003906 -1 c 0 -0.550781 0.449218 -1 1.003906 -1 c 0.550781 0 1 0.449219 1 1 z m -8.011719 0 c 0 0.554687 -0.449219 1 -1 1 c -0.554687 0 -1.003906 -0.445313 -1.003906 -1 c 0 -0.550781 0.449219 -1 1.003906 -1 c 0.550781 0 1 0.449219 1 1 z m -8.011719 0 c 0 0.554687 -0.445312 1 -1 1 c -0.554687 0 -1 -0.445313 -1 -1 c 0 -0.550781 0.445313 -1 1 -1 c 0.554688 0 1 0.449219 1 1 z m -8.007812 0 c 0 0.554687 -0.449219 1 -1.003906 1 c -0.550782 0 -1 -0.445313 -1 -1 c 0 -0.550781 0.449218 -1 1 -1 c 0.554687 0 1.003906 0.449219 1.003906 1 z m -8.011719 0 c 0 0.554687 -0.449219 1 -1.003906 1 c -0.550781 0 -1 -0.445313 -1 -1 c 0 -0.550781 0.449219 -1 1 -1 c 0.554687 0 1.003906 0.449219 1.003906 1 z m -8.011719 0 c 0 0.554687 -0.449218 1 -1 1 c -0.554687 0 -1.003906 -0.445313 -1.003906 -1 c 0 -0.550781 0.449219 -1 1.003906 -1 c 0.550782 0 1 0.449219 1 1 z m -8.011718 0 c 0 0.554687 -0.449219 1 -1 1 c -0.554688 0 -1.003907 -0.445313 -1.003907 -1 c 0 -0.550781 0.449219 -1 1.003907 -1 c 0.550781 0 1 0.449219 1 1 z m -8.011719 0 c 0 0.554687 -0.445313 1 -1 1 c -0.554688 0 -1 -0.445313 -1 -1 c 0 -0.550781 0.445312 -1 1 -1 c 0.554687 0 1 0.449219 1 1 z m -8.007813 0 c 0 0.554687 -0.449218 1 -1.003906 1 c -0.550781 0 -1 -0.445313 -1 -1 c 0 -0.550781 0.449219 -1 1 -1 c 0.554688 0 1.003906 0.449219 1.003906 1 z m 72.097656 -8.011719 c 0 0.554688 -0.449218 1.003906 -1.003906 1.003906 c -0.550781 0 -1 -0.449218 -1 -1.003906 c 0 -0.550781 0.449219 -1 1 -1 c 0.554688 0 1.003906 0.449219 1.003906 1 z m -8.011718 0 c 0 0.554688 -0.449219 1.003906 -1 1.003906 c -0.554688 0 -1.003906 -0.449218 -1.003906 -1.003906 c 0 -0.550781 0.449218 -1 1.003906 -1 c 0.550781 0 1 0.449219 1 1 z m -8.011719 0 c 0 0.554688 -0.449219 1.003906 -1 1.003906 c -0.554687 0 -1.003906 -0.449218 -1.003906 -1.003906 c 0 -0.550781 0.449219 -1 1.003906 -1 c 0.550781 0 1 0.449219 1 1 z m -8.011719 0 c 0 0.554688 -0.445312 1.003906 -1 1.003906 c -0.554687 0 -1 -0.449218 -1 -1.003906 c 0 -0.550781 0.445313 -1 1 -1 c 0.554688 0 1 0.449219 1 1 z m -8.007812 0 c 0 0.554688 -0.449219 1.003906 -1.003906 1.003906 c -0.550782 0 -1 -0.449218 -1 -1.003906 c 0 -0.550781 0.449218 -1 1 -1 c 0.554687 0 1.003906 0.449219 1.003906 1 z m -8.011719 0 c 0 0.554688 -0.449219 1.003906 -1.003906 1.003906 c -0.550781 0 -1 -0.449218 -1 -1.003906 c 0 -0.550781 0.449219 -1 1 -1 c 0.554687 0 1.003906 0.449219 1.003906 1 z m -8.011719 0 c 0 0.554688 -0.449218 1.003906 -1 1.003906 c -0.554687 0 -1.003906 -0.449218 -1.003906 -1.003906 c 0 -0.550781 0.449219 -1 1.003906 -1 c 0.550782 0 1 0.449219 1 1 z m -8.011718 0 c 0 0.554688 -0.449219 1.003906 -1 1.003906 c -0.554688 0 -1.003907 -0.449218 -1.003907 -1.003906 c 0 -0.550781 0.449219 -1 1.003907 -1 c 0.550781 0 1 0.449219 1 1 z m -8.011719 0 c 0 0.554688 -0.445313 1.003906 -1 1.003906 c -0.554688 0 -1 -0.449218 -1 -1.003906 c 0 -0.550781 0.445312 -1 1 -1 c 0.554687 0 1 0.449219 1 1 z m -8.007813 0 c 0 0.554688 -0.449218 1.003906 -1.003906 1.003906 c -0.550781 0 -1 -0.449218 -1 -1.003906 c 0 -0.550781 0.449219 -1 1 -1 c 0.554688 0 1.003906 0.449219 1.003906 1 z m 72.097656 -8.007812 c 0 0.550781 -0.449218 1 -1.003906 1 c -0.550781 0 -1 -0.449219 -1 -1 c 0 -0.554688 0.449219 -1.003907 1 -1.003907 c 0.554688 0 1.003906 0.449219 1.003906 1.003907 z m -8.011718 0 c 0 0.550781 -0.449219 1 -1 1 c -0.554688 0 -1.003906 -0.449219 -1.003906 -1 c 0 -0.554688 0.449218 -1.003907 1.003906 -1.003907 c 0.550781 0 1 0.449219 1 1.003907 z m -8.011719 0 c 0 0.550781 -0.449219 1 -1 1 c -0.554687 0 -1.003906 -0.449219 -1.003906 -1 c 0 -0.554688 0.449219 -1.003907 1.003906 -1.003907 c 0.550781 0 1 0.449219 1 1.003907 z m -8.011719 0 c 0 0.550781 -0.445312 1 -1 1 c -0.554687 0 -1 -0.449219 -1 -1 c 0 -0.554688 0.445313 -1.003907 1 -1.003907 c 0.554688 0 1 0.449219 1 1.003907 z m -8.007812 0 c 0 0.550781 -0.449219 1 -1.003906 1 c -0.550782 0 -1 -0.449219 -1 -1 c 0 -0.554688 0.449218 -1.003907 1 -1.003907 c 0.554687 0 1.003906 0.449219 1.003906 1.003907 z m -8.011719 0 c 0 0.550781 -0.449219 1 -1.003906 1 c -0.550781 0 -1 -0.449219 -1 -1 c 0 -0.554688 0.449219 -1.003907 1 -1.003907 c 0.554687 0 1.003906 0.449219 1.003906 1.003907 z m -8.011719 0 c 0 0.550781 -0.449218 1 -1 1 c -0.554687 0 -1.003906 -0.449219 -1.003906 -1 c 0 -0.554688 0.449219 -1.003907 1.003906 -1.003907 c 0.550782 0 1 0.449219 1 1.003907 z m -8.011718 0 c 0 0.550781 -0.449219 1 -1 1 c -0.554688 0 -1.003907 -0.449219 -1.003907 -1 c 0 -0.554688 0.449219 -1.003907 1.003907 -1.003907 c 0.550781 0 1 0.449219 1 1.003907 z m -8.011719 0 c 0 0.550781 -0.445313 1 -1 1 c -0.554688 0 -1 -0.449219 -1 -1 c 0 -0.554688 0.445312 -1.003907 1 -1.003907 c 0.554687 0 1 0.449219 1 1.003907 z m -8.007813 0 c 0 0.550781 -0.449218 1 -1.003906 1 c -0.550781 0 -1 -0.449219 -1 -1 c 0 -0.554688 0.449219 -1.003907 1 -1.003907 c 0.554688 0 1.003906 0.449219 1.003906 1.003907 z m 72.097656 -8.011719 c 0 0.550781 -0.449218 1 -1.003906 1 c -0.550781 0 -1 -0.449219 -1 -1 c 0 -0.554688 0.449219 -1.003907 1 -1.003907 c 0.554688 0 1.003906 0.449219 1.003906 1.003907 z m -8.011718 0 c 0 0.550781 -0.449219 1 -1 1 c -0.554688 0 -1.003906 -0.449219 -1.003906 -1 c 0 -0.554688 0.449218 -1.003907 1.003906 -1.003907 c 0.550781 0 1 0.449219 1 1.003907 z m -8.011719 0 c 0 0.550781 -0.449219 1 -1 1 c -0.554687 0 -1.003906 -0.449219 -1.003906 -1 c 0 -0.554688 0.449219 -1.003907 1.003906 -1.003907 c 0.550781 0 1 0.449219 1 1.003907 z m -8.011719 0 c 0 0.550781 -0.445312 1 -1 1 c -0.554687 0 -1 -0.449219 -1 -1 c 0 -0.554688 0.445313 -1.003907 1 -1.003907 c 0.554688 0 1 0.449219 1 1.003907 z m -8.007812 0 c 0 0.550781 -0.449219 1 -1.003906 1 c -0.550782 0 -1 -0.449219 -1 -1 c 0 -0.554688 0.449218 -1.003907 1 -1.003907 c 0.554687 0 1.003906 0.449219 1.003906 1.003907 z m -8.011719 0 c 0 0.550781 -0.449219 1 -1.003906 1 c -0.550781 0 -1 -0.449219 -1 -1 c 0 -0.554688 0.449219 -1.003907 1 -1.003907 c 0.554687 0 1.003906 0.449219 1.003906 1.003907 z m -8.011719 0 c 0 0.550781 -0.449218 1 -1 1 c -0.554687 0 -1.003906 -0.449219 -1.003906 -1 c 0 -0.554688 0.449219 -1.003907 1.003906 -1.003907 c 0.550782 0 1 0.449219 1 1.003907 z m -8.011718 0 c 0 0.550781 -0.449219 1 -1 1 c -0.554688 0 -1.003907 -0.449219 -1.003907 -1 c 0 -0.554688 0.449219 -1.003907 1.003907 -1.003907 c 0.550781 0 1 0.449219 1 1.003907 z m -8.011719 0 c 0 0.550781 -0.445313 1 -1 1 c -0.554688 0 -1 -0.449219 -1 -1 c 0 -0.554688 0.445312 -1.003907 1 -1.003907 c 0.554687 0 1 0.449219 1 1.003907 z m -8.007813 0 c 0 0.550781 -0.449218 1 -1.003906 1 c -0.550781 0 -1 -0.449219 -1 -1 c 0 -0.554688 0.449219 -1.003907 1 -1.003907 c 0.554688 0 1.003906 0.449219 1.003906 1.003907 z m 0 0" fill="#5e5c64"/>
    <path d="m 23.90625 35.890625 c 0 2.210937 -1.792969 4.007813 -4.003906 4.007813 c -2.214844 0 -4.007813 -1.796876 -4.007813 -4.007813 s 1.792969 -4.003906 4.007813 -4.003906 c 2.210937 0 4.003906 1.792969 4.003906 4.003906 z m 0 0" fill="#5e5c64"/>
    <g clip-path="url(#h)" mask="url(#g)" transform="matrix(1 0 0 1 -8 -16)">
        <path d="m 104.878906 43.878906 l -52.199218 52.199219 l -2.125 9.207031 l 4.25 4.246094 l 9.203124 -2.125 l 5.664063 -5.664062 l 55.761719 -55.757813 c -1.425782 -1.304687 -3.316406 -2.105469 -5.40625 -2.105469 z m -54.324218 62.820313 l -2.65625 4.425781 l 1.0625 1.0625 l 4.425781 -2.65625 z m 0 0"/>
    </g>
    <path d="m 118.316406 15.265625 c -3.136718 -3.136719 -8.1875 -3.136719 -11.328125 0 l -62.308593 62.308594 l -2.125 9.207031 l 4.25 4.246094 l 9.203124 -2.121094 l 5.664063 -5.667969 l 56.644531 -56.644531 c 3.140625 -3.136719 3.140625 -8.191406 0 -11.328125 z m 0 0" fill="url(#i)"/>
    <g fill="#241f31">
        <path d="m 42.554688 88.195312 l 2.832031 2.832032 l -4.425781 2.65625 l -1.0625 -1.0625 z m 0 0"/>
        <path d="m 44.679688 77.574219 l -2.125 9.207031 l 4.25 4.246094 l 9.203124 -2.121094 z m 0 0"/>
    </g>
</svg>
