<?xml version="1.0" encoding="UTF-8"?>
<svg height="128px" viewBox="0 0 128 128" width="128px" xmlns="http://www.w3.org/2000/svg" xmlns:xlink="http://www.w3.org/1999/xlink">
    <linearGradient id="a" gradientUnits="userSpaceOnUse" x1="37.000977" x2="123.273438" y1="121.84668" y2="121.84668">
        <stop offset="0" stop-color="#deddda"/>
        <stop offset="0.369815" stop-color="#deddda"/>
        <stop offset="0.788404" stop-color="#deddda"/>
        <stop offset="1" stop-color="#f6f5f4"/>
    </linearGradient>
    <clipPath id="b">
        <path d="m 8 7 h 112 v 114 h -112 z m 0 0"/>
    </clipPath>
    <clipPath id="c">
        <path d="m 64 4 c -33.136719 0 -60 26.414062 -60 59 s 26.863281 59 60 59 s 60 -26.414062 60 -59 s -26.863281 -59 -60 -59 z m 0 47.199219 c 6.625 0 12 5.285156 12 11.800781 s -5.375 11.800781 -12 11.800781 c -6.628906 0 -12 -5.285156 -12 -11.800781 s 5.371094 -11.800781 12 -11.800781 z m 0 0"/>
    </clipPath>
    <clipPath id="d">
        <path d="m 4 4 h 120 v 118 h -120 z m 0 0"/>
    </clipPath>
    <clipPath id="e">
        <path d="m 64 4 c -33.136719 0 -60 26.414062 -60 59 s 26.863281 59 60 59 s 60 -26.414062 60 -59 s -26.863281 -59 -60 -59 z m 0 47.199219 c 6.625 0 12 5.285156 12 11.800781 s -5.375 11.800781 -12 11.800781 c -6.628906 0 -12 -5.285156 -12 -11.800781 s 5.371094 -11.800781 12 -11.800781 z m 0 0"/>
    </clipPath>
    <clipPath id="f">
        <path d="m 64 36 h 60 v 50 h -60 z m 0 0"/>
    </clipPath>
    <clipPath id="g">
        <path d="m 64 4 c -33.136719 0 -60 26.414062 -60 59 s 26.863281 59 60 59 s 60 -26.414062 60 -59 s -26.863281 -59 -60 -59 z m 0 47.199219 c 6.625 0 12 5.285156 12 11.800781 s -5.375 11.800781 -12 11.800781 c -6.628906 0 -12 -5.285156 -12 -11.800781 s 5.371094 -11.800781 12 -11.800781 z m 0 0"/>
    </clipPath>
    <clipPath id="h">
        <path d="m 4 59 h 61 v 46 h -61 z m 0 0"/>
    </clipPath>
    <clipPath id="i">
        <path d="m 64 4 c -33.136719 0 -60 26.414062 -60 59 s 26.863281 59 60 59 s 60 -26.414062 60 -59 s -26.863281 -59 -60 -59 z m 0 47.199219 c 6.625 0 12 5.285156 12 11.800781 s -5.375 11.800781 -12 11.800781 c -6.628906 0 -12 -5.285156 -12 -11.800781 s 5.371094 -11.800781 12 -11.800781 z m 0 0"/>
    </clipPath>
    <path d="m 63.910156 3.691406 c -33.1875 0 -60.09375 26.902344 -60.089844 60.089844 c 0 33.1875 26.902344 60.09375 60.089844 60.09375 c 33.1875 -0.003906 60.089844 -26.90625 60.089844 -60.09375 c 0 -33.183594 -26.902344 -60.089844 -60.089844 -60.089844 z m 0 50.0625 c 6.710938 0 12.152344 5.441406 12.152344 12.152344 c 0 6.714844 -5.441406 12.152344 -12.152344 12.15625 c -6.710937 0 -12.152344 -5.441406 -12.15625 -12.15625 c 0 -6.710938 5.441406 -12.152344 12.15625 -12.152344 z m 0 0" fill="url(#a)"/>
    <g clip-path="url(#b)">
        <g clip-path="url(#c)">
            <path d="m 64 7.933594 c 30.925781 0 56 24.65625 56 55.066406 v 1.96875 c 0 30.410156 -25.074219 55.066406 -56 55.066406 c -30.929688 0 -56 -24.65625 -56 -55.066406 v -1.96875 c 0 -30.410156 25.070312 -55.066406 56 -55.066406 z m 0 0" fill="#d5d3cf"/>
        </g>
    </g>
    <g clip-path="url(#d)">
        <g clip-path="url(#e)">
            <path d="m 64 4 c -33.136719 0 -60 26.414062 -60 59 s 26.863281 59 60 59 s 60 -26.414062 60 -59 s -26.863281 -59 -60 -59 z m 0 48.03125 c 6.160156 0 11.15625 4.910156 11.15625 10.96875 s -4.996094 10.96875 -11.15625 10.96875 s -11.15625 -4.910156 -11.15625 -10.96875 s 4.996094 -10.96875 11.15625 -10.96875 z m 0 0" fill="#f6f5f4"/>
            <path d="m 85.352131 236.414077 c 0 11.476431 -9.558663 20.775956 -21.351717 20.775956 s -21.351717 -9.299525 -21.351717 -20.775956 s 9.558663 -20.775955 21.351717 -20.775955 s 21.351717 9.299524 21.351717 20.775955 z m 0 0" fill="none" stroke="#000000" stroke-opacity="0.129412" stroke-width="9.29268" transform="matrix(0.999993 0 0 0.983333 0.000049 -169.473819)"/>
        </g>
    </g>
    <g clip-path="url(#f)">
        <g clip-path="url(#g)">
            <path d="m 128 36.742188 l -64 26.257812 l 73.664062 22.761719" fill-opacity="0.05098"/>
        </g>
    </g>
    <g clip-path="url(#h)">
        <g clip-path="url(#i)">
            <path d="m 9.113281 104.816406 l 54.910157 -41.648437 l -77.144532 -3.242188" fill-opacity="0.05098"/>
        </g>
    </g>
</svg>
