<svg height="128" width="128" xmlns="http://www.w3.org/2000/svg"><linearGradient id="a" gradientTransform="matrix(1.29413 0 0 1 183.059 -424.001)" gradientUnits="userSpaceOnUse" x1="-126" x2="-58" y1="497" y2="497"><stop offset="0" stop-color="#1a5fb4"/><stop offset=".029" stop-color="#99c1f1"/><stop offset=".12" stop-color="#1a5fb4"/><stop offset=".865" stop-color="#1a5fb4"/><stop offset=".942" stop-color="#1c71d8"/><stop offset="1" stop-color="#1a5fb4"/></linearGradient><path d="m98 24.004-78 .398v11.602h2c1.11 0 2 .89 2 2v20c0 1.11-1.219 2.781-2 2h-2v51.73A8.246 8.246 0 0 0 28.262 120h71.472a8.249 8.249 0 0 0 8.266-8.266v-71.73zm0 0" fill="url(#a)"/><path d="M22 36.004h4c1.105 0 2 .894 2 2v4c0 1.105-.895 2-2 2h-4c-1.105 0-2-.895-2-2v-4c0-1.106.895-2 2-2zm0 0" fill="#c64600"/><path d="M20 34.004s0-2 2-2h6v8h-6s-2 0-2-2zm0 0" fill="#e66100"/><path d="M28.805 8A8.783 8.783 0 0 0 20 16.8v15.204h2c1.11 0 2 .89 2 2v16s0 2-2 2h-2v55.195a8.784 8.784 0 0 0 8.805 8.805h70.39a8.784 8.784 0 0 0 8.805-8.805V20.004l-12-12zm0 0" fill="#3584e4"/><path d="M36 24.004h56a4 4 0 0 1 4 4v56c0 2.207-1.793 4-4 4H36a4 4 0 0 1-4-4v-56c0-2.211 1.79-4 4-4zm0 0" fill="#f6f5f4"/><path d="M36 92.004c-2.215 0-4-1.785-4-4v-16c24-20 40 12 64 0v16c0 2.215-1.785 4-4 4zm0 0" fill="#ed333b"/><path d="M36 84.004h12v4H36zM52 84.004h6v4h-6zm0 0" fill="#fff"/><path d="M20 104.004v3.195a8.784 8.784 0 0 0 8.805 8.805h70.39a8.784 8.784 0 0 0 8.805-8.805v-3.195s-20-4-44-4c-24.004 0-44 4-44 4zm0 0" fill="#1c71d8"/></svg>