<?xml version="1.0" encoding="UTF-8"?>
<svg height="128px" viewBox="0 0 128 128" width="128px" xmlns="http://www.w3.org/2000/svg" xmlns:xlink="http://www.w3.org/1999/xlink">
    <linearGradient id="a" gradientUnits="userSpaceOnUse" x1="26.563435" x2="99.860764" y1="113.500183" y2="113.500183">
        <stop offset="0" stop-color="#c0bfbc"/>
        <stop offset="0.0557713" stop-color="#f6f5f4"/>
        <stop offset="0.115081" stop-color="#deddda"/>
        <stop offset="0.844546" stop-color="#c0bfbc"/>
        <stop offset="0.932276" stop-color="#f6f5f4"/>
        <stop offset="1" stop-color="#c0bfbc"/>
    </linearGradient>
    <path d="m 40 82 h 48 c 4.417969 0 8 3.582031 8 8 v 22 c 0 4.417969 -3.582031 8 -8 8 h -48 c -4.417969 0 -8 -3.582031 -8 -8 v -22 c 0 -4.417969 3.582031 -8 8 -8 z m 0 0" fill="#464153"/>
    <path d="m 36 40 h 56 c 4.417969 0 8 3.582031 8 8 v 64 c 0 4.417969 -3.582031 8 -8 8 h -56 c -4.417969 0 -8 -3.582031 -8 -8 v -64 c 0 -4.417969 3.582031 -8 8 -8 z m 0 0" fill="url(#a)"/>
    <path d="m 36 8 h 56 c 4.417969 0 8 3.582031 8 8 v 84 c 0 4.417969 -3.582031 8 -8 8 h -56 c -4.417969 0 -8 -3.582031 -8 -8 v -84 c 0 -4.417969 3.582031 -8 8 -8 z m 0 0" fill="#f6f5f4"/>
    <path d="m 36 12 h 56 c 2.210938 0 4 1.789062 4 4 v 84 c 0 2.210938 -1.789062 4 -4 4 h -56 c -2.210938 0 -4 -1.789062 -4 -4 v -84 c 0 -2.210938 1.789062 -4 4 -4 z m 0 0" fill="#3d3846"/>
    <path d="m 82 17 c 0 1.105469 -0.894531 2 -2 2 s -2 -0.894531 -2 -2 s 0.894531 -2 2 -2 s 2 0.894531 2 2 z m 0 0" fill="#9a9996"/>
    <path d="m 60 16 h 8 c 0.550781 0 1 0.449219 1 1 s -0.449219 1 -1 1 h -8 c -0.550781 0 -1 -0.449219 -1 -1 s 0.449219 -1 1 -1 z m 0 0" fill="#9a9996"/>
    <path d="m 61.5 111 h 5 c 1.378906 0 2.5 1.121094 2.5 2.5 s -1.121094 2.5 -2.5 2.5 h -5 c -1.378906 0 -2.5 -1.121094 -2.5 -2.5 s 1.121094 -2.5 2.5 -2.5 z m 0 0" fill="#241f31"/>
    <path d="m 59.050781 113 c -0.03125 0.160156 -0.050781 0.328125 -0.050781 0.5 c 0 1.386719 1.113281 2.5 2.5 2.5 h 5 c 1.386719 0 2.5 -1.113281 2.5 -2.5 c 0 -0.171875 -0.019531 -0.339844 -0.050781 -0.5 c -0.230469 1.144531 -1.234375 2 -2.449219 2 h -5 c -1.214844 0 -2.21875 -0.855469 -2.449219 -2 z m 0 0" fill="#9a9996"/>
    <g fill="#241f31">
        <path d="m 46.5 112 c -0.828125 0 -1.5 0.671875 -1.5 1.5 s 0.671875 1.5 1.5 1.5 s 1.5 -0.671875 1.5 -1.5 s -0.671875 -1.5 -1.5 -1.5 z m 4 0 c -0.828125 0 -1.5 0.671875 -1.5 1.5 s 0.671875 1.5 1.5 1.5 s 1.5 -0.671875 1.5 -1.5 s -0.671875 -1.5 -1.5 -1.5 z m 4 0 c -0.828125 0 -1.5 0.671875 -1.5 1.5 s 0.671875 1.5 1.5 1.5 s 1.5 -0.671875 1.5 -1.5 s -0.671875 -1.5 -1.5 -1.5 z m 0 0"/>
        <path d="m 75 113.5 c 0 0.828125 -0.671875 1.5 -1.5 1.5 s -1.5 -0.671875 -1.5 -1.5 s 0.671875 -1.5 1.5 -1.5 s 1.5 0.671875 1.5 1.5 z m 0 0"/>
        <path d="m 79 113.5 c 0 0.828125 -0.671875 1.5 -1.5 1.5 s -1.5 -0.671875 -1.5 -1.5 s 0.671875 -1.5 1.5 -1.5 s 1.5 0.671875 1.5 1.5 z m 0 0"/>
        <path d="m 83 113.5 c 0 0.828125 -0.671875 1.5 -1.5 1.5 s -1.5 -0.671875 -1.5 -1.5 s 0.671875 -1.5 1.5 -1.5 s 1.5 0.671875 1.5 1.5 z m 0 0"/>
    </g>
    <path d="m 47.914062 113 c -0.210937 0.597656 -0.777343 1 -1.414062 1 s -1.203125 -0.398438 -1.414062 -1 c -0.054688 0.160156 -0.085938 0.332031 -0.085938 0.5 c 0 0.828125 0.671875 1.5 1.5 1.5 s 1.5 -0.671875 1.5 -1.5 c 0 -0.171875 -0.027344 -0.339844 -0.085938 -0.5 z m 4 0 c -0.210937 0.597656 -0.777343 1 -1.414062 1 s -1.203125 -0.398438 -1.414062 -1 c -0.054688 0.160156 -0.085938 0.332031 -0.085938 0.5 c 0 0.828125 0.671875 1.5 1.5 1.5 s 1.5 -0.671875 1.5 -1.5 c 0 -0.171875 -0.027344 -0.339844 -0.085938 -0.5 z m 4 0 c -0.210937 0.597656 -0.777343 1 -1.414062 1 s -1.203125 -0.398438 -1.414062 -1 c -0.054688 0.160156 -0.085938 0.332031 -0.085938 0.5 c 0 0.828125 0.671875 1.5 1.5 1.5 s 1.5 -0.671875 1.5 -1.5 c 0 -0.171875 -0.027344 -0.339844 -0.085938 -0.5 z m 0 0" fill="#9a9996"/>
    <path d="m 74.914062 113 c -0.210937 0.597656 -0.777343 1 -1.414062 1 s -1.203125 -0.398438 -1.414062 -1 c -0.054688 0.160156 -0.085938 0.332031 -0.085938 0.5 c 0 0.828125 0.671875 1.5 1.5 1.5 s 1.5 -0.671875 1.5 -1.5 c 0 -0.171875 -0.027344 -0.339844 -0.085938 -0.5 z m 4 0 c -0.210937 0.597656 -0.777343 1 -1.414062 1 s -1.203125 -0.398438 -1.414062 -1 c -0.054688 0.160156 -0.085938 0.332031 -0.085938 0.5 c 0 0.828125 0.671875 1.5 1.5 1.5 s 1.5 -0.671875 1.5 -1.5 c 0 -0.171875 -0.027344 -0.339844 -0.085938 -0.5 z m 4 0 c -0.210937 0.597656 -0.777343 1 -1.414062 1 s -1.203125 -0.398438 -1.414062 -1 c -0.054688 0.160156 -0.085938 0.332031 -0.085938 0.5 c 0 0.828125 0.671875 1.5 1.5 1.5 s 1.5 -0.671875 1.5 -1.5 c 0 -0.171875 -0.027344 -0.339844 -0.085938 -0.5 z m 0 0" fill="#9a9996"/>
    <path d="m 52 89 c 0 3.3125 -2.6875 6 -6 6 s -6 -2.6875 -6 -6 s 2.6875 -6 6 -6 s 6 2.6875 6 6 z m 0 0" fill="#f8e45c"/>
    <path d="m 70 89 c 0 3.3125 -2.6875 6 -6 6 s -6 -2.6875 -6 -6 s 2.6875 -6 6 -6 s 6 2.6875 6 6 z m 0 0" fill="#33d17a"/>
    <path d="m 88 89 c 0 3.3125 -2.6875 6 -6 6 s -6 -2.6875 -6 -6 s 2.6875 -6 6 -6 s 6 2.6875 6 6 z m 0 0" fill="#ed333b"/>
    <path d="m 52 70 c 0 3.3125 -2.6875 6 -6 6 s -6 -2.6875 -6 -6 s 2.6875 -6 6 -6 s 6 2.6875 6 6 z m 0 0" fill="#ed333b"/>
    <path d="m 70 70 c 0 3.3125 -2.6875 6 -6 6 s -6 -2.6875 -6 -6 s 2.6875 -6 6 -6 s 6 2.6875 6 6 z m 0 0" fill="#62a0ea"/>
    <path d="m 88 70 c 0 3.3125 -2.6875 6 -6 6 s -6 -2.6875 -6 -6 s 2.6875 -6 6 -6 s 6 2.6875 6 6 z m 0 0" fill="#33d17a"/>
    <path d="m 52 51 c 0 3.3125 -2.6875 6 -6 6 s -6 -2.6875 -6 -6 s 2.6875 -6 6 -6 s 6 2.6875 6 6 z m 0 0" fill="#33d17a"/>
    <path d="m 70 51 c 0 3.3125 -2.6875 6 -6 6 s -6 -2.6875 -6 -6 s 2.6875 -6 6 -6 s 6 2.6875 6 6 z m 0 0" fill="#deddda"/>
    <path d="m 88 51 c 0 3.3125 -2.6875 6 -6 6 s -6 -2.6875 -6 -6 s 2.6875 -6 6 -6 s 6 2.6875 6 6 z m 0 0" fill="#f8e45c"/>
    <path d="m 52 32 c 0 3.3125 -2.6875 6 -6 6 s -6 -2.6875 -6 -6 s 2.6875 -6 6 -6 s 6 2.6875 6 6 z m 0 0" fill="#62a0ea"/>
    <path d="m 70 32 c 0 3.3125 -2.6875 6 -6 6 s -6 -2.6875 -6 -6 s 2.6875 -6 6 -6 s 6 2.6875 6 6 z m 0 0" fill="#ed333b"/>
    <path d="m 88 32 c 0 3.3125 -2.6875 6 -6 6 s -6 -2.6875 -6 -6 s 2.6875 -6 6 -6 s 6 2.6875 6 6 z m 0 0" fill="#deddda"/>
</svg>
