<?xml version="1.0" encoding="UTF-8"?>
<svg height="128px" viewBox="0 0 128 128" width="128px" xmlns="http://www.w3.org/2000/svg" xmlns:xlink="http://www.w3.org/1999/xlink">
    <linearGradient id="a" gradientUnits="userSpaceOnUse" x1="18.03776306626" x2="107.81836491515" y1="85.699033" y2="85.699033">
        <stop offset="0" stop-color="#c0bfbc"/>
        <stop offset="0.0451807" stop-color="#d4d4d1"/>
        <stop offset="0.111446" stop-color="#c0bfbc" stop-opacity="0.886275"/>
        <stop offset="0.905431" stop-color="#c0bfbc" stop-opacity="0.996078"/>
        <stop offset="0.974366" stop-color="#d7d6d5"/>
        <stop offset="1" stop-color="#aaa9a5"/>
    </linearGradient>
    <radialGradient id="b" cx="80" cy="194.384613" gradientTransform="matrix(2.934341 0 0 2.243908 -154.85874 -413.086298)" gradientUnits="userSpaceOnUse" r="17">
        <stop offset="0" stop-color="#f2f1f0"/>
        <stop offset="1" stop-color="#deddda"/>
    </radialGradient>
    <filter id="c" height="100%" width="100%" x="0%" y="0%">
        <feColorMatrix in="SourceGraphic" type="matrix" values="0 0 0 0 1 0 0 0 0 1 0 0 0 0 1 0 0 0 1 0"/>
    </filter>
    <mask id="d">
        <g filter="url(#c)">
            <rect fill-opacity="0.417" height="128" width="128"/>
        </g>
    </mask>
    <clipPath id="e">
        <rect height="152" width="192"/>
    </clipPath>
    <mask id="f">
        <g filter="url(#c)">
            <rect fill-opacity="0.417" height="128" width="128"/>
        </g>
    </mask>
    <clipPath id="g">
        <rect height="152" width="192"/>
    </clipPath>
    <mask id="h">
        <g filter="url(#c)">
            <rect fill-opacity="0.417" height="128" width="128"/>
        </g>
    </mask>
    <clipPath id="i">
        <rect height="152" width="192"/>
    </clipPath>
    <mask id="j">
        <g filter="url(#c)">
            <rect fill-opacity="0.417" height="128" width="128"/>
        </g>
    </mask>
    <clipPath id="k">
        <rect height="152" width="192"/>
    </clipPath>
    <mask id="l">
        <g filter="url(#c)">
            <rect fill-opacity="0.417" height="128" width="128"/>
        </g>
    </mask>
    <clipPath id="m">
        <rect height="152" width="192"/>
    </clipPath>
    <mask id="n">
        <g filter="url(#c)">
            <rect fill-opacity="0.417" height="128" width="128"/>
        </g>
    </mask>
    <clipPath id="o">
        <rect height="152" width="192"/>
    </clipPath>
    <mask id="p">
        <g filter="url(#c)">
            <rect fill-opacity="0.417" height="128" width="128"/>
        </g>
    </mask>
    <clipPath id="q">
        <rect height="152" width="192"/>
    </clipPath>
    <path d="m 28.191406 27.796875 h 71.824219 c 4.40625 0 7.980469 3.574219 7.980469 7.980469 v 76.242187 c 0 4.40625 -3.574219 7.980469 -7.980469 7.980469 h -71.824219 c -4.40625 0 -7.980468 -3.574219 -7.980468 -7.980469 v -76.242187 c 0 -4.40625 3.574218 -7.980469 7.980468 -7.980469 z m 0 0" fill="#9c9b98"/>
    <path d="m 55.945312 69.984375 l -7.980468 -5.984375 v -28.921875 h 7.980468 z m 0 0" fill="#898784"/>
    <path d="m 28.644531 31.378906 h -18.015625 v 33.15625 l 18.34375 10.589844 z m 0 0" fill="#ecebe9"/>
    <path d="m 28.644531 61.808594 h -18.015625 v 2.726562 l 18.34375 10.589844 z m 0 0" fill="#c0bfbc"/>
    <path d="m 46.167969 33.378906 h 52.652343 c 2.871094 0 5.179688 2.3125 5.179688 5.179688 v 20.261718 c 0 2.871094 -2.308594 5.179688 -5.179688 5.179688 h -42.824218 l -15.003906 -10.597656 v -14.84375 c 0 -2.867188 2.308593 -5.179688 5.175781 -5.179688 z m 0 0" fill="#3d3846"/>
    <path d="m 20.03125 33.085938 h 28.179688 v 30.914062 h -28.179688 z m 0 0" fill="#b1b0ac"/>
    <path d="m 46.183594 27.433594 h 52.625 c 2.867187 0 5.191406 2.308594 5.191406 5.160156 v 20.191406 c 0 2.851563 -2.324219 5.160156 -5.191406 5.160156 h -52.625 c -2.867188 0 -5.191406 -2.308593 -5.191406 -5.160156 v -20.191406 c 0 -2.851562 2.324218 -5.160156 5.191406 -5.160156 z m 0 0" fill="#5e5c64"/>
    <path d="m 45.191406 13.90625 h 46.652344 c 4.472656 0 8.070312 3.601562 8.070312 8.070312 v 20.921876 l -12.527343 11.101562 h -42.195313 c -4.472656 0 -8.074218 -3.601562 -8.074218 -8.070312 v -23.953126 c 0 -4.46875 3.601562 -8.070312 8.074218 -8.070312 z m 0 0" fill-opacity="0.180392"/>
    <path d="m 28.105469 7.90625 h 63.738281 c 4.472656 0 8.070312 3.601562 8.070312 8.070312 v 20.921876 l -12.527343 11.101562 h -59.28125 c -4.472657 0 -8.074219 -3.601562 -8.074219 -8.070312 v -23.953126 c 0 -4.46875 3.601562 -8.070312 8.074219 -8.070312 z m 0 0" fill="#c0bfbc"/>
    <path d="m 20.03125 64 v 47.929688 c 0 4.46875 3.601562 8.070312 8.074219 8.070312 h 71.820312 c 4.46875 0 8.070313 -3.601562 8.070313 -8.070312 v -41.945313 h -52.050782 l -7.980468 -5.984375 z m 0 0" fill="#9c9b98"/>
    <path d="m 20.03125 101.910156 v 7.945313 c 0 3.003906 1.863281 3.988281 3.988281 3.988281 h 80.023438 c 2.296875 0 3.953125 -1.34375 3.953125 -3.988281 v -7.945313 c 0 2.964844 -1.726563 3.992188 -3.988282 3.992188 h -31.070312 v 3.9375 c 0 1.132812 -0.910156 2.046875 -2.046875 2.046875 h -10.902344 c -1.136719 0 -2.046875 -0.914063 -2.046875 -2.046875 v -3.9375 h -33.921875 c -2.046875 0 -3.988281 -1.605469 -3.988281 -3.992188 z m 0 0" fill-opacity="0.109804"/>
    <path d="m 20.03125 102.910156 v 9.109375 c 0 4.367188 3.832031 7.980469 8.074219 7.980469 h 71.539062 c 4.878907 0 8.351563 -3.207031 8.351563 -8.070312 v -9.019532 c 0 2.605469 -1.570313 3.988282 -4.042969 3.988282 h -30.066406 v 4.070312 c 0 1.136719 -0.914063 2.050781 -2.050781 2.050781 h -15.273438 c -1.136719 0 -2.050781 -0.914062 -2.050781 -2.050781 v -4.070312 h -30.492188 c -2.207031 0 -3.988281 -1.074219 -3.988281 -3.988282 z m 0 0" fill="url(#a)"/>
    <path d="m 28.105469 7.941406 h 63.738281 c 4.472656 0 8.070312 3.601563 8.070312 8.074219 v 16.882813 l -12.527343 11.101562 h -59.28125 c -4.472657 0 -8.074219 -3.601562 -8.074219 -8.070312 v -19.914063 c 0 -4.472656 3.601562 -8.074219 8.074219 -8.074219 z m 0 0" fill="#deddda"/>
    <path d="m 43.972656 12 h 1.996094 v 25.941406 h -1.996094 z m 0 0" fill="#9a9996"/>
    <path d="m 79.886719 12.121094 l -33.917969 5.984375 v 17.960937 h 33.917969 z m 0 0" fill="url(#b)"/>
    <path d="m 32 32 h 27.933594 c 2.207031 0 3.992187 1.785156 3.992187 3.992188 v 18.953124 c 0 2.207032 -1.785156 3.992188 -3.992187 3.992188 h -27.933594 c -2.203125 0 -3.992188 -1.785156 -3.992188 -3.992188 v -18.953124 c 0 -2.207032 1.789063 -3.992188 3.992188 -3.992188 z m 0 0" fill="#f6f5f4"/>
    <path d="m 32 34 h 27.933594 c 2.207031 0 3.992187 1.785156 3.992187 3.992188 v 20.042968 c 0 2.203125 -1.785156 3.988282 -3.992187 3.988282 h -27.933594 c -2.203125 0 -3.992188 -1.785157 -3.992188 -3.988282 v -20.042968 c 0 -2.207032 1.789063 -3.992188 3.992188 -3.992188 z m 0 0" fill="#c0bfbc"/>
    <path d="m 32.738281 36.054688 h 26.457031 c 1.511719 0 2.734376 1.226562 2.734376 2.734374 v 18.484376 c 0 1.511718 -1.222657 2.734374 -2.734376 2.734374 h -26.457031 c -1.507812 0 -2.734375 -1.222656 -2.734375 -2.734374 v -18.484376 c 0 -1.507812 1.226563 -2.734374 2.734375 -2.734374 z m 0 0"/>
    <path d="m 20.03125 73.976562 v 12.96875 c 0 3.003907 1.863281 3.992188 3.988281 3.992188 h 80.023438 c 2.296875 0 3.953125 -1.34375 3.953125 -3.992188 v -12.96875 c 0 2.960938 -1.726563 3.992188 -3.988282 3.992188 h -31.070312 v 3.933594 c 0 1.136718 -0.910156 2.050781 -2.046875 2.050781 h -10.902344 c -1.136719 0 -2.046875 -0.914063 -2.046875 -2.050781 v -3.933594 h -33.921875 c -2.046875 0 -3.988281 -1.605469 -3.988281 -3.992188 z m 0 0" fill-opacity="0.109804"/>
    <path d="m 20.03125 74.972656 v 12.972656 c 0 3 1.863281 3.988282 3.988281 3.988282 h 80.023438 c 2.296875 0 3.953125 -1.34375 3.953125 -3.988282 v -12.972656 c 0 2.964844 -1.726563 3.992188 -3.988282 3.992188 h -30.121093 v 3.980468 c 0 1.136719 -0.914063 2.050782 -2.050781 2.050782 h -15.273438 c -1.136719 0 -2.050781 -0.914063 -2.050781 -2.050782 v -3.980468 h -30.492188 c -2.046875 0 -3.988281 -1.601563 -3.988281 -3.992188 z m 0 0" fill="url(#a)"/>
    <path d="m 20.03125 87.945312 v 12.96875 c 0 3.003907 1.863281 3.992188 3.988281 3.992188 h 80.023438 c 2.296875 0 3.953125 -1.34375 3.953125 -3.992188 v -12.96875 c 0 2.960938 -1.726563 3.988282 -3.988282 3.988282 h -31.070312 v 3.9375 c 0 1.136718 -0.910156 2.050781 -2.046875 2.050781 h -10.902344 c -1.136719 0 -2.046875 -0.914063 -2.046875 -2.050781 v -3.9375 h -33.921875 c -2.046875 0 -3.988281 -1.601563 -3.988281 -3.988282 z m 0 0" fill-opacity="0.109804"/>
    <path d="m 20.03125 88.941406 v 12.96875 c 0 2.835938 2.132812 3.992188 3.988281 3.992188 h 79.980469 c 2.335938 0 3.996094 -1.429688 3.996094 -3.992188 v -12.96875 c 0 2.425782 -1.703125 3.992188 -3.910156 3.992188 h -30.199219 v 4.066406 c 0 1.136719 -0.914063 2.050781 -2.050781 2.050781 h -15.273438 c -1.136719 0 -2.050781 -0.914062 -2.050781 -2.050781 v -4.066406 h -30.492188 c -2.207031 0 -3.988281 -1.257813 -3.988281 -3.992188 z m 0 0" fill="url(#a)"/>
    <path d="m 20.03125 60.007812 v 13.96875 c 0 2.382813 1.863281 3.992188 3.988281 3.992188 h 79.902344 c 2.558594 0 4.074219 -1.824219 4.074219 -3.992188 v -7.980468 c 0 2.910156 -1.78125 3.988281 -4.074219 3.988281 h -47.976563 l -7.980468 -5.984375 h -23.945313 z m 0 0" fill="url(#a)"/>
    <path d="m 45.96875 12 v 5.984375 l 33.917969 -5.984375 z m 0 0" fill="#9a9996"/>
    <g clip-path="url(#e)" mask="url(#d)" transform="matrix(1 0 0 1 -8 -16)">
        <path d="m 41.996094 54 h 4.988281 v 4.988281 h -4.988281 z m 0 0" fill="#898784"/>
    </g>
    <g clip-path="url(#g)" mask="url(#f)" transform="matrix(1 0 0 1 -8 -16)">
        <path d="m 53.96875 54 c 1.375 0 2.492188 1.117188 2.492188 2.496094 c 0 1.375 -1.117188 2.492187 -2.492188 2.492187 c -1.378906 0 -2.496094 -1.117187 -2.496094 -2.492187 c 0 -1.378906 1.117188 -2.496094 2.496094 -2.496094 z m 0 0" fill="#898784"/>
    </g>
    <g clip-path="url(#i)" mask="url(#h)" transform="matrix(1 0 0 1 -8 -16)">
        <path d="m 62.945312 54 c 1.378907 0 2.496094 1.117188 2.496094 2.496094 c 0 1.375 -1.117187 2.492187 -2.496094 2.492187 c -1.375 0 -2.492187 -1.117187 -2.492187 -2.492187 c 0 -1.378906 1.117187 -2.496094 2.492187 -2.496094 z m 0 0" fill="#898784"/>
    </g>
    <g clip-path="url(#k)" mask="url(#j)" transform="matrix(1 0 0 1 -8 -16)">
        <path d="m 41.996094 62 h 4.988281 v 4.988281 h -4.988281 z m 0 0" fill="#898784"/>
    </g>
    <g clip-path="url(#m)" mask="url(#l)" transform="matrix(1 0 0 1 -8 -16)">
        <path d="m 53.96875 62 c 1.375 0 2.492188 1.117188 2.492188 2.496094 c 0 1.375 -1.117188 2.492187 -2.492188 2.492187 c -1.378906 0 -2.496094 -1.117187 -2.496094 -2.492187 c 0 -1.378906 1.117188 -2.496094 2.496094 -2.496094 z m 0 0" fill="#898784"/>
    </g>
    <g clip-path="url(#o)" mask="url(#n)" transform="matrix(1 0 0 1 -8 -16)">
        <path d="m 44.488281 69.023438 c 1.378907 0 2.496094 1.117187 2.496094 2.496093 c 0 1.378907 -1.117187 2.492188 -2.496094 2.492188 c -1.375 0 -2.492187 -1.113281 -2.492187 -2.492188 c 0 -1.378906 1.117187 -2.496093 2.492187 -2.496093 z m 0 0" fill="#898784"/>
    </g>
    <g clip-path="url(#q)" mask="url(#p)" transform="matrix(1 0 0 1 -8 -16)">
        <path d="m 60.453125 69.023438 h 4.988281 v 4.988281 h -4.988281 z m 0 0" fill="#898784"/>
    </g>
</svg>
