<?xml version="1.0" encoding="UTF-8" standalone="no"?>
<!-- Created with Inkscape (http://www.inkscape.org/) -->

<svg
   width="2560"
   height="1440"
   viewBox="0 0 677.33334 381.00001"
   version="1.1"
   id="svg5"
   xml:space="preserve"
   inkscape:version="1.2.1 (9c6d41e410, 2022-07-14, custom)"
   sodipodi:docname="Xfce-4.18_blue_2.svg"
   inkscape:export-filename="Xfce-4.18_blue_2.png"
   inkscape:export-xdpi="96"
   inkscape:export-ydpi="96"
   xmlns:inkscape="http://www.inkscape.org/namespaces/inkscape"
   xmlns:sodipodi="http://sodipodi.sourceforge.net/DTD/sodipodi-0.dtd"
   xmlns:xlink="http://www.w3.org/1999/xlink"
   xmlns="http://www.w3.org/2000/svg"
   xmlns:svg="http://www.w3.org/2000/svg"
   xmlns:rdf="http://www.w3.org/1999/02/22-rdf-syntax-ns#"
   xmlns:cc="http://creativecommons.org/ns#"><sodipodi:namedview
     id="namedview7"
     pagecolor="#505050"
     bordercolor="#eeeeee"
     borderopacity="1"
     inkscape:showpageshadow="0"
     inkscape:pageopacity="0"
     inkscape:pagecheckerboard="0"
     inkscape:deskcolor="#505050"
     inkscape:document-units="px"
     showgrid="false"
     inkscape:zoom="0.22627418"
     inkscape:cx="1370.0193"
     inkscape:cy="903.77081"
     inkscape:window-width="1336"
     inkscape:window-height="739"
     inkscape:window-x="0"
     inkscape:window-y="0"
     inkscape:window-maximized="1"
     inkscape:current-layer="layer1" /><defs
     id="defs2"><linearGradient
       inkscape:collect="always"
       id="linearGradient1024"><stop
         style="stop-color:#005873;stop-opacity:1;"
         offset="0"
         id="stop1020" /><stop
         style="stop-color:#00aade;stop-opacity:1;"
         offset="1"
         id="stop1022" /></linearGradient><linearGradient
       id="linearGradient5830"
       inkscape:swatch="solid"><stop
         style="stop-color:#000000;stop-opacity:1;"
         offset="0"
         id="stop5828" /></linearGradient><linearGradient
       id="linearGradient5797"
       inkscape:swatch="solid"><stop
         style="stop-color:#ff8379;stop-opacity:1;"
         offset="0"
         id="stop5795" /></linearGradient><radialGradient
       inkscape:collect="always"
       xlink:href="#linearGradient1024"
       id="radialGradient5424"
       cx="338.66666"
       cy="190.5"
       fx="338.66666"
       fy="190.5"
       r="45.632874"
       gradientUnits="userSpaceOnUse"
       gradientTransform="translate(119.95598)" /><radialGradient
       inkscape:collect="always"
       xlink:href="#linearGradient1024"
       id="radialGradient5573"
       gradientUnits="userSpaceOnUse"
       cx="338.66666"
       cy="190.5"
       fx="338.66666"
       fy="190.5"
       r="45.632874"
       gradientTransform="matrix(1.5966948,0.42783308,-0.42783308,1.5966948,-0.62245747,-258.56317)" /><radialGradient
       inkscape:collect="always"
       xlink:href="#linearGradient1024"
       id="radialGradient5577"
       gradientUnits="userSpaceOnUse"
       gradientTransform="matrix(1.9892018,1.1484662,-1.1484662,1.9892018,3.7291225,-577.39017)"
       cx="338.66666"
       cy="190.5"
       fx="338.66666"
       fy="190.5"
       r="45.632874" /><radialGradient
       inkscape:collect="always"
       xlink:href="#linearGradient1024"
       id="radialGradient5581"
       gradientUnits="userSpaceOnUse"
       gradientTransform="matrix(2.0137704,2.0137704,-2.0137704,2.0137704,160.24901,-875.1202)"
       cx="338.66666"
       cy="190.5"
       fx="338.66666"
       fy="190.5"
       r="45.632874" /><radialGradient
       inkscape:collect="always"
       xlink:href="#linearGradient1024"
       id="radialGradient5685"
       gradientUnits="userSpaceOnUse"
       gradientTransform="matrix(1.8305586,3.1706205,-3.1706205,1.8305586,442.6767,-1232.005)"
       cx="338.66666"
       cy="190.5"
       fx="338.66666"
       fy="190.5"
       r="45.632874" /><radialGradient
       inkscape:collect="always"
       xlink:href="#linearGradient1024"
       id="radialGradient5689"
       gradientUnits="userSpaceOnUse"
       gradientTransform="matrix(1.2004491,4.4801368,-4.4801368,1.2004491,905.53671,-1555.4587)"
       cx="338.66666"
       cy="190.5"
       fx="338.66666"
       fy="190.5"
       r="45.632874" /><radialGradient
       inkscape:collect="always"
       xlink:href="#linearGradient1024"
       id="radialGradient351"
       gradientUnits="userSpaceOnUse"
       gradientTransform="matrix(0,5.7166839,-5.7166839,0,1547.651,-1745.5504)"
       cx="338.66666"
       cy="190.5"
       fx="338.66666"
       fy="190.5"
       r="45.632874" /><radialGradient
       inkscape:collect="always"
       xlink:href="#linearGradient1024"
       id="radialGradient355"
       gradientUnits="userSpaceOnUse"
       gradientTransform="matrix(-1.8399547,6.8668041,-6.8668041,-1.8399547,2389.8803,-1784.5464)"
       cx="338.66666"
       cy="190.5"
       fx="338.66666"
       fy="190.5"
       r="45.632874" /><radialGradient
       inkscape:collect="always"
       xlink:href="#linearGradient1024"
       id="radialGradient359"
       gradientUnits="userSpaceOnUse"
       gradientTransform="matrix(-4.3800576,7.5864822,-7.5864822,-4.3800576,3387.2272,-1544.3878)"
       cx="338.66666"
       cy="190.5"
       fx="338.66666"
       fy="190.5"
       r="45.632874" /><radialGradient
       inkscape:collect="always"
       xlink:href="#linearGradient1024"
       id="radialGradient363"
       gradientUnits="userSpaceOnUse"
       gradientTransform="matrix(-7.8025186,7.8025186,-7.8025186,-7.8025186,4587.4556,-965.57325)"
       cx="338.66666"
       cy="190.5"
       fx="338.66666"
       fy="190.5"
       r="45.632874" /><radialGradient
       inkscape:collect="always"
       xlink:href="#linearGradient1024"
       id="radialGradient367"
       gradientUnits="userSpaceOnUse"
       gradientTransform="matrix(-12.211428,7.0502715,-7.0502715,-12.211428,5937.3034,129.08512)"
       cx="338.66666"
       cy="190.5"
       fx="338.66666"
       fy="190.5"
       r="45.632874" /></defs><g
     inkscape:label="Слой 1"
     inkscape:groupmode="layer"
     id="layer1"><rect
       style="fill:#006888;fill-opacity:1;stroke-width:0.264583"
       id="rect3981"
       width="677.33331"
       height="381"
       x="1.6283637e-05"
       y="3.4375e-06"
       inkscape:export-filename="rect231ы22.png"
       inkscape:export-xdpi="96"
       inkscape:export-ydpi="96" /><path
       id="path365"
       style="opacity:0.5;fill:url(#radialGradient367);fill-opacity:1;fill-rule:evenodd;stroke-width:2.42309;stroke-linecap:round;stroke-linejoin:round"
       d="M 0 0 L 0 261.35149 A 643.44826 643.44826 0 0 0 458.62266 190.5 A 643.44826 643.44826 0 0 0 289.81022 0 L 0 0 z M 458.62266 190.5 A 643.44826 643.44826 0 0 0 665.56145 0 L 386.51337 0 A 643.44826 643.44826 0 0 0 458.62266 190.5 z M 458.62266 190.5 A 643.44826 643.44826 0 0 0 627.4351 381.00001 L 677.33335 381.00001 L 677.33335 112.92127 A 643.44826 643.44826 0 0 0 458.62266 190.5 z M 458.62266 190.5 A 643.44826 643.44826 0 0 0 251.7836 381.00001 L 531.24924 381.00001 A 643.44826 643.44826 0 0 0 458.62266 190.5 z " /><path
       id="path361"
       style="opacity:0.5;fill:url(#radialGradient363);fill-opacity:1;fill-rule:evenodd;stroke-width:1.8962;stroke-linecap:round;stroke-linejoin:round"
       d="M 339.40565 0 A 503.53261 503.53261 0 0 0 458.62266 190.5 A 503.53261 503.53261 0 0 0 578.09082 0 L 339.40565 0 z M 458.62266 190.5 A 503.53261 503.53261 0 0 0 677.33335 318.61157 L 677.33335 62.388441 A 503.53261 503.53261 0 0 0 458.62266 190.5 z M 458.62266 190.5 A 503.53261 503.53261 0 0 0 339.40565 381.00001 L 578.09082 381.00001 A 503.53261 503.53261 0 0 0 458.62266 190.5 z M 458.62266 190.5 A 503.53261 503.53261 0 0 0 0 54.023577 L 0 326.97643 A 503.53261 503.53261 0 0 0 458.62266 190.5 z " /><path
       id="path357"
       style="opacity:0.5;fill:url(#radialGradient359);fill-opacity:1;fill-rule:evenodd;stroke-width:1.50537;stroke-linecap:round;stroke-linejoin:round"
       d="M 290.71404 0 A 399.74921 399.74921 0 0 0 458.62266 190.5 A 399.74921 399.74921 0 0 0 512.04989 0 L 290.71404 0 z M 458.62266 190.5 A 399.74921 399.74921 0 0 0 677.33335 243.23374 L 677.33335 11.819434 A 399.74921 399.74921 0 0 0 458.62266 190.5 z M 458.62266 190.5 A 399.74921 399.74921 0 0 0 405.47552 381.00001 L 626.90541 381.00001 A 399.74921 399.74921 0 0 0 458.62266 190.5 z M 458.62266 190.5 A 399.74921 399.74921 0 0 0 0 232.1109 L 0 373.92654 A 399.74921 399.74921 0 0 0 28.120765 381.00001 L 196.73838 381.00001 A 399.74921 399.74921 0 0 0 458.62266 190.5 z " /><path
       id="path353"
       style="opacity:0.5;fill:url(#radialGradient355);fill-opacity:1;fill-rule:evenodd;stroke-width:1.22164;stroke-linecap:round;stroke-linejoin:round"
       d="M 242.47926 0 A 324.40585 324.40585 0 0 0 458.62266 190.5 A 324.40585 324.40585 0 0 0 451.65719 0 L 242.47926 0 z M 458.62266 190.5 A 324.40585 324.40585 0 0 0 677.33335 171.96677 L 677.33335 0 L 599.09988 0 A 324.40585 324.40585 0 0 0 458.62266 190.5 z M 458.62266 190.5 A 324.40585 324.40585 0 0 0 465.76073 381.00001 L 674.88388 381.00001 A 324.40585 324.40585 0 0 0 458.62266 190.5 z M 458.62266 190.5 A 324.40585 324.40585 0 0 0 74.714304 381.00001 L 318.14544 381.00001 A 324.40585 324.40585 0 0 0 458.62266 190.5 z " /><path
       id="path349"
       style="opacity:0.5;fill:url(#radialGradient351);fill-opacity:1;fill-rule:evenodd;stroke-width:0.982372;stroke-linecap:round;stroke-linejoin:round"
       d="M 207.5956 0 A 260.8687 260.8687 0 0 0 458.62266 190.5 A 260.8687 260.8687 0 0 0 375.95277 0 L 207.5956 0 z M 458.62266 190.5 A 260.8687 260.8687 0 0 0 677.33335 71.537754 L 677.33335 0 L 541.32562 0 A 260.8687 260.8687 0 0 0 458.62266 190.5 z M 458.62266 190.5 A 260.8687 260.8687 0 0 0 541.32562 381.00001 L 677.33335 381.00001 L 677.33335 309.21576 A 260.8687 260.8687 0 0 0 458.62266 190.5 z M 458.62266 190.5 A 260.8687 260.8687 0 0 0 207.5956 381.00001 L 375.95277 381.00001 A 260.8687 260.8687 0 0 0 458.62266 190.5 z " /><path
       id="path5687"
       style="opacity:0.5;fill:url(#radialGradient5689);fill-opacity:1;fill-rule:evenodd;stroke-width:0.797039;stroke-linecap:round;stroke-linejoin:round"
       d="M 500.88055 0 A 211.65343 211.65343 0 0 0 458.62266 190.5 A 211.65343 211.65343 0 0 0 615.0188 0 L 500.88055 0 z M 458.62266 190.5 A 211.65343 211.65343 0 0 0 677.33335 346.72923 L 677.33335 261.30343 A 211.65343 211.65343 0 0 0 458.62266 190.5 z M 458.62266 190.5 A 211.65343 211.65343 0 0 0 302.23375 381.00001 L 416.5782 381.00001 A 211.65343 211.65343 0 0 0 458.62266 190.5 z M 458.62266 190.5 A 211.65343 211.65343 0 0 0 199.40127 40.838335 A 211.65343 211.65343 0 0 0 458.62266 190.5 z " /><path
       id="path5683"
       style="opacity:0.5;fill:url(#radialGradient5685);fill-opacity:1;fill-rule:evenodd;stroke-width:0.629138;stroke-linecap:round;stroke-linejoin:round"
       d="M 475.00202 0 A 167.06729 167.06729 0 0 0 458.62266 190.5 A 167.06729 167.06729 0 0 0 535.73578 0 L 475.00202 0 z M 458.62266 190.5 A 167.06729 167.06729 0 0 0 677.33335 256.62775 L 677.33335 237.19173 A 167.06729 167.06729 0 0 0 458.62266 190.5 z M 458.62266 190.5 A 167.06729 167.06729 0 0 0 381.59377 381.00001 L 442.26294 381.00001 A 167.06729 167.06729 0 0 0 458.62266 190.5 z M 458.62266 190.5 A 167.06729 167.06729 0 0 0 230.40455 129.34921 A 167.06729 167.06729 0 0 0 458.62266 190.5 z " /><path
       id="path5579"
       style="opacity:0.5;fill:url(#radialGradient5581);fill-opacity:1;fill-rule:evenodd;stroke-width:0.489392;stroke-linecap:round;stroke-linejoin:round"
       d="M 458.62266,6.7117555 A 129.95791,129.95791 0 0 0 458.62265,190.5 129.95791,129.95791 0 0 0 458.62266,6.7117555 Z M 458.62265,190.5 a 129.95791,129.95791 0 0 0 183.78826,1e-5 129.95791,129.95791 0 0 0 -183.78826,-1e-5 z m 0,0 a 129.95791,129.95791 0 0 0 0,183.78826 129.95791,129.95791 0 0 0 0,-183.78826 z m 0,0 a 129.95791,129.95791 0 0 0 -183.78825,0 129.95791,129.95791 0 0 0 183.78825,0 z" /><path
       id="path5575"
       style="opacity:0.5;fill:url(#radialGradient5577);fill-opacity:1;fill-rule:evenodd;stroke-width:0.394712;stroke-linecap:round;stroke-linejoin:round"
       d="M 420.25748,47.319206 A 104.81561,104.81561 0 0 0 458.62265,190.5 104.81561,104.81561 0 0 0 420.25748,47.319206 Z M 458.62265,190.5 A 104.81561,104.81561 0 0 0 601.80346,152.13483 104.81561,104.81561 0 0 0 458.62265,190.5 Z m 0,0 A 104.81561,104.81561 0 0 0 496.98783,333.68081 104.81561,104.81561 0 0 0 458.62265,190.5 Z m 0,0 A 104.81561,104.81561 0 0 0 315.44185,228.86518 104.81561,104.81561 0 0 0 458.62265,190.5 Z" /><path
       id="path5571"
       style="opacity:0.5;fill:url(#radialGradient5573);fill-opacity:1;fill-rule:evenodd;stroke-width:0.28406;stroke-linecap:round;stroke-linejoin:round"
       d="M 405.28414,98.114983 A 75.432045,75.432045 0 0 0 458.62265,190.5 75.432045,75.432045 0 0 0 405.28414,98.114983 Z M 458.62265,190.5 A 75.432045,75.432045 0 0 0 551.00768,137.16149 75.432045,75.432045 0 0 0 458.62265,190.5 Z m 0,0 A 75.432045,75.432045 0 0 0 511.96117,282.88503 75.432045,75.432045 0 0 0 458.62265,190.5 Z m 0,0 A 75.432045,75.432045 0 0 0 366.23763,243.83852 75.432045,75.432045 0 0 0 458.62265,190.5 Z" /><path
       id="path5385"
       style="opacity:0.5;fill:url(#radialGradient5424);fill-opacity:1;fill-rule:evenodd;stroke-width:0.171843;stroke-linecap:round;stroke-linejoin:round"
       d="M 412.98978,144.86713 A 45.632867,45.632867 0 0 0 458.62265,190.5 45.632867,45.632867 0 0 0 412.98978,144.86713 Z M 458.62265,190.5 A 45.632867,45.632867 0 0 0 504.25553,144.86713 45.632867,45.632867 0 0 0 458.62265,190.5 Z m 0,0 A 45.632867,45.632867 0 0 0 504.25553,236.13288 45.632867,45.632867 0 0 0 458.62265,190.5 Z m 0,0 A 45.632867,45.632867 0 0 0 412.98978,236.13288 45.632867,45.632867 0 0 0 458.62265,190.5 Z" /><path
       id="path2557"
       style="fill:#f1f3f5;fill-opacity:1;stroke-width:0.0642365"
       d="m 435.88694,178.03213 c -0.2212,0.12098 1.76985,1.41931 5.49019,2.95097 3.72057,1.53163 8.86055,5.41363 8.45757,6.04022 -1.20844,1.70208 -1.92163,3.73744 -1.42969,7.22428 0.0886,0.61376 -1.81854,1.67943 -1.67978,2.60553 0.11597,0.70466 2.13185,-0.69823 2.35231,-0.4212 0.13495,0.49722 -1.0784,3.01358 -0.58792,3.19345 0.35873,0.10656 3.51228,-2.99258 3.6955,-2.94086 5.20074,1.57228 11.96775,0.3851 12.09876,0.33532 -0.0122,-0.0274 4.8689,2.29513 5.29315,2.01761 1.07018,-1.15888 -2.02774,-2.79234 -1.51115,-3.44477 0.2265,-0.34158 3.77332,1.28257 3.94809,0.83925 0.2543,-0.76752 -1.64703,-2.37945 -1.933,-2.85688 -0.24876,-0.44022 -0.30263,-1.15098 0.33532,-1.59578 0.63816,-0.4448 7.16322,-2.94048 6.88958,-4.87196 -0.47309,-3.50955 -8.27543,-3.73729 -8.40137,-4.0327 -0.0593,-0.13881 0.34345,-5.01878 -1.933,-4.11734 -1.40159,0.52166 -0.25735,3.63134 -0.16671,4.03335 0.0836,0.37008 -0.62332,0.33105 -0.75652,0.1686 -0.29734,-0.36309 -1.27901,-3.60419 -2.43694,-3.02548 -1.624,0.8954 -0.0953,3.68945 -0.41931,3.78012 -0.60168,0.33626 -0.5679,1.15777 -1.05017,1.82691 -0.7953,1.13977 -6.74599,-0.53391 -8.66976,-0.65044 -1.40836,-0.0831 -2.75561,1.0721 -2.88276,0.92513 -1.71488,-1.71731 -5.26278,-4.70782 -9.14968,-5.70111 -2.17974,-0.59154 -5.42267,-2.30397 -5.55271,-2.28222 z m 39.70064,3.14169 c -0.12443,0.0133 -0.65832,2.75479 -0.40289,2.87896 0.22457,0.168 0.61611,-2.7258 0.41111,-2.87518 -7.6e-4,-0.002 -0.005,-0.004 -0.009,-0.004 z m 1.92542,0.36752 v 0.001 c -0.29454,-0.006 -1.86857,2.50369 -1.50674,2.77161 0.22455,0.16801 1.62695,-2.66777 1.53074,-2.76278 -0.006,-0.006 -0.0143,-0.01 -0.024,-0.01 z m -7.61453,3.05705 c 0.37193,0 0.67254,0.34319 0.67254,0.76663 0,0.42343 -0.30061,0.76663 -0.67254,0.76663 -0.37188,0 -0.67444,-0.3432 -0.67444,-0.76663 0,-0.42344 0.30256,-0.76663 0.67444,-0.76663 z m -1.5118,0.46541 c 0.2862,1.23551 0.73316,1.6295 2.07383,1.5901 -1.70642,1.56477 -2.7437,-1.11654 -2.07383,-1.5901 z m 3.68982,3.23008 c 0.0699,0.002 0.12348,0.0189 0.15851,0.0524 0.67226,0.24369 -2.88877,1.5255 -2.91245,1.34446 -0.0369,-0.12932 2.07901,-1.42244 2.75394,-1.39687 z m 0.36121,0.82095 c 0.0369,-0.002 0.0695,8.2e-4 0.0967,0.0158 0.63457,0.63045 -2.00945,2.02879 -1.97972,1.97972 -0.21304,-0.12874 1.33117,-1.95269 1.88311,-1.99551 z" /></g><metadata
     id="metadata1123"><rdf:RDF><cc:Work
         rdf:about=""><cc:license
           rdf:resource="http://creativecommons.org/licenses/by-sa/4.0/" /></cc:Work><cc:License
         rdf:about="http://creativecommons.org/licenses/by-sa/4.0/"><cc:permits
           rdf:resource="http://creativecommons.org/ns#Reproduction" /><cc:permits
           rdf:resource="http://creativecommons.org/ns#Distribution" /><cc:requires
           rdf:resource="http://creativecommons.org/ns#Notice" /><cc:requires
           rdf:resource="http://creativecommons.org/ns#Attribution" /><cc:permits
           rdf:resource="http://creativecommons.org/ns#DerivativeWorks" /><cc:requires
           rdf:resource="http://creativecommons.org/ns#ShareAlike" /></cc:License></rdf:RDF></metadata></svg>
