<svg version="1" viewBox="0 0 256 256" xmlns="http://www.w3.org/2000/svg">
	<defs>
		<linearGradient id="a" x1="211.18" x2="349.73" y1="370.82" y2="232.27" gradientTransform="matrix(.85656 0 0 .85656 13.706 39.131)" gradientUnits="userSpaceOnUse">
			<stop stop-color="#249eff" offset="0"/>
			<stop stop-color="#2777ff" offset="1"/>
		</linearGradient>
	</defs>
	<g transform="matrix(.5 0 0 .5 -7.2698 -1.205)" stroke-width=".80766">
		<circle cx="270.54" cy="258.41" r="181.72" fill="url(#a)"/>
		<path d="m452.08 253.39a181.72 181.72 0 0 1-181.54 178.17 181.72 181.72 0 0 1-181.54-176.71 181.72 181.72 0 0 0-0.17734 3.555 181.72 181.72 0 0 0 181.72 181.72 181.72 181.72 0 0 0 181.72-181.72 181.72 181.72 0 0 0-0.17733-5.0189z" opacity=".3"/>
		<path d="m270.54 76.691a181.72 181.72 0 0 0-181.72 181.72 181.72 181.72 0 0 0 0.17734 5.0105 181.72 181.72 0 0 1 181.54-178.16 181.72 181.72 0 0 1 181.54 176.7 181.72 181.72 0 0 0 0.17733-3.5467 181.72 181.72 0 0 0-181.72-181.72z" fill="#fff" opacity=".1"/>
	</g>
	<path d="m35.971 66.11c-14.711 0.0168-24.428 1.2011-24.509 1.211-3.3e-4 4e-5 -0.05566 5e-3 -0.05566 5e-3 -0.9604 0.11048-0.8383 1.5412 0.12695 1.4873 0 0 53.49-2.5271 96.365 14.705 1.5298 6.5445 5.5695 16.576 7.956 21.908-3.2488 2.2298-6.734 4.4932-9.6015 8.085-3.0099 3.7704-5.2845 8.9735-5.8905 16.93-1.2286 16.138 12.612 30.266 29.732 30.702 15.874 0.84515 26.668 0.9617 39.806 7.7715 6.136 3.3968 11.851 10.38 16.119 18.909 4.2706 8.534 7.104 18.602 7.6125 28.098 0.0477 0.9331 1.4194 0.95015 1.4902 0.0186 2e-3 -0.0289-1e-3 -0.0686 1e-3 -0.0976 0.5513-7.2705-0.5224-18.524-4.8808-29.23-3.6506-8.9675-9.682-17.505-18.955-22.86 13.328 3.6394 20.957 10.404 25.343 16.584 5.0325 7.0915 5.7755 13.403 5.7715 13.368 0.10592 0.8923 1.4076 0.8717 1.4854-0.0234 0 0 0.66155-7.7365-4.6768-16.26-5.3385-8.524-16.671-17.842-40.297-21.308-5.9845-0.87805-13.537-1.5529-21.19-1.5722-4e-3 -3e-5 -8e-3 -3e-5 -0.0117 0-18.521 0.24488-27.858-10.312-29.312-21.14-0.72685-5.414 0.54435-10.898 3.6894-15.148 3.1452-4.2494 8.1505-7.292 15.047-7.831h3e-3c11.324-0.93435 25.134 5.1895 38.716 11.509-0.0135 1.5694 0.12556 3.1524 1.2724 4.586 0.76795 0.9599 2.1534 1.6269 3.5635 2.293 1.4098 0.6659 2.8608 1.2694 3.4365 1.5996 1.3088 0.75125 5.6745 3.5516 8.248 6.9015 0.33033 0.43061 0.99515 0.37612 1.251-0.10254 0.0134-0.025 0.40459-0.4762 0.9209-0.9082 0.5163-0.432 1.1714-0.9244 1.8096-1.3838 1.2762-0.91875 2.4844-1.706 2.4844-1.706 0.6289-0.40989 0.32767-1.3873-0.42285-1.372 0 0-0.18339 0.0103-0.76955-0.10156-0.58615-0.11193-1.518-0.3473-2.8438-0.84275-1.22-0.45593-2.6775-1.4432-3.8018-2.336-0.56215-0.44635-1.046-0.86835-1.3877-1.1846-0.0408-0.0378-0.058-0.0562-0.0947-0.0908 0.35722-0.32141 0.40614-0.83515 0.33399-1.1582-0.0738-0.33015-0.2176-0.59775-0.37891-0.8584-0.32234-0.52085-0.7322-0.9852-1.0156-1.2686l-1e-3 -1e-3c0.0411 0.041-0.0839-0.10495-0.20996-0.28906-0.12657-0.18482-0.28942-0.43449-0.47266-0.72265-0.36649-0.57635-0.81585-1.3092-1.2529-2.0312-0.87415-1.4441-1.663-2.7864-1.7392-2.914-1e-3 -2e-3 -0.1899-0.39965-0.55665-0.64455-0.0577-0.0385-0.12048-0.0687-0.18653-0.0898-0.41401-0.13314-0.7422-0.10195-1.167-0.0801-0.42477 0.0219-0.89615 0.0718-1.3428 0.1289-0.74715 0.0954-1.2108 0.17963-1.4131 0.21485-0.50515-0.26644-4.4536-2.4536-5.9045-6.91-0.26765-0.8174-1.4775-0.60885-1.456 0.25098 8e-3 0.29281-0.43503 1.1653-0.33887 2.4854-1.7543-1.057-3.2635-2.7366-4.5781-6.1965-0.24137-0.638-1.1414-0.64495-1.3926-0.0108-0.50345 1.266-0.53385 2.3254-0.43164 3.1465-1.6664-0.78355-4.3948-2.5076-4.9892-5.9345-0.12752-0.7332-1.1318-0.849-1.4228-0.16406-0.49006 1.1554-0.53355 2.1116-0.45118 2.8818-3.1054-1.3319-11.658-4.4465-24.422-4.5156-2.4635-0.22625-4.4214-1.459-6.0295-3.3076-1.6082-1.8488-2.8295-4.3132-3.6944-6.865-0.86485-2.5521-1.376-5.19-1.6074-7.366-0.23136-2.1762-0.13405-3.9754 0.0273-4.4912 0.10777-0.3439-0.0454-0.7157-0.36426-0.8838 0 0-15.609-8.211-46.122-11.82-11.441-1.3534-22.105-1.767-30.969-1.7568zm35.634 16.26c-4.6494 0.03505-9.64 0.20833-14.884 0.58105-28.013 1.9912-56.215 11.778-56.215 11.778-0.90215 0.31136-0.49845 1.6638 0.42676 1.4297 0 0 57.52-14.436 105.57-5.9745 0.0426 0.0076 0.0857 0.01155 0.12891 0.0117h2e-3c0.5029-2.05e-4 0.8618-0.48742 0.7129-0.9678l-1.2558-4.0528c-0.0826-0.2672-0.30763-0.46582-0.583-0.51465 0 0-13.758-2.4422-33.902-2.291-2e-3 -1e-5 -4e-3 -1e-5 -0.0058 0zm34.155 8.632c-4.9441-0.0209-20.157 0.602-43.008 7.752-28.677 8.973-44.999 21.73-44.999 21.73-0.7192 0.56875 0.02161 1.6826 0.8242 1.2392 0 0 42.461-23.682 90.28-25.026 0.49953-0.0144 0.8442-0.50595 0.6875-0.98045l-1.374-4.1592c-0.0953-0.28852-0.356-0.49048-0.6592-0.51075 0 0-0.60885-0.0401-1.75-0.04495zm31.266-0.06934c-0.73245 0.0107-1.0131 0.95985-0.4043 1.3672h1e-3c0.0438 0.02925 0.0906 0.05383 0.13964 0.07324 13.114 5.3315 24.488 12.379 33.304 22.066 8e-3 9e-3 0.0161 0.0171 0.0244 0.0254l1e-3 1e-3c0.15195 0.15176 0.36188 0.23075 0.57615 0.21679l2.1396-0.13965c0.607-0.04 0.91405-0.75015 0.52735-1.2197 0 0-12.389-15.014-36.01-22.331-3e-3 -1e-3 -5e-3 -3e-3 -8e-3 -4e-3 -0.012-0.0045-0.024-0.0088-0.0362-0.0127-7e-3 -0.0025-0.0136-0.0045-0.0205-0.0069-0.0757-0.0241-0.15487-0.036-0.23437-0.03515zm37.34 31.613c0.429 0.0864 1.2382 1.6784 1.9814 2.8154 0.0652 0.0924 0.13168 0.1908 0.19433 0.26855 0 7e-3 1e-3 0.0118 6e-3 0.0186 0.0839 0.11984 0.16765 0.24397 0.24805 0.34375 0.0405 0.23779 0.10811 0.38303-0.44824 0.26856-0.047-0.24443-0.12696-0.31543-0.12696-0.31543s-1.3432-0.79845-1.7549-1.3652c-0.41205-0.56675-0.48405-1.5576-0.2832-1.9336 0.0486-0.084 0.1106-0.1145 0.1836-0.10059z" color="#000000" color-rendering="auto" dominant-baseline="auto" image-rendering="auto" opacity=".3" shape-rendering="auto" solid-color="#000000" stroke-width=".5" style="font-feature-settings:normal;font-variant-alternates:normal;font-variant-caps:normal;font-variant-ligatures:normal;font-variant-numeric:normal;font-variant-position:normal;isolation:auto;mix-blend-mode:normal;shape-padding:0;text-decoration-color:#000000;text-decoration-line:none;text-decoration-style:solid;text-indent:0;text-orientation:mixed;text-transform:none;white-space:normal"/>
	<g transform="matrix(.5 0 0 .5 1.0075 -.00020183)" fill="#fff">
		<path d="m69.929 127.71c-29.464 0.0337-48.949 2.4206-48.949 2.4206s107.73-5.1706 194.03 29.769c2.9338 13.122 11.759 34.976 16.513 45.481-13.602 9.4041-28.94 18.249-31.328 49.612-2.3877 31.362 24.576 58.947 58.013 59.798 31.751 1.6913 53.688 1.9323 80.277 15.718 25.38 14.034 46.192 56.794 48.251 95.252 2.2244-28.534-8.4845-89.895-58.453-108.53 69.826 12.219 75.982 63.973 75.984 63.994 0 0 5.2056-59.754-88.677-73.531-11.899-1.7458-26.947-3.0899-42.168-3.1283-75.246 0.99487-77.989-86.786-21.288-91.218 23.499-1.9389 51.556 10.738 78.986 23.512-0.10182 3.4068 0.0405 6.4339 2.2787 9.2314 2.2375 2.7966 10.832 5.8474 13.579 7.4233 2.7464 1.5764 11.545 7.1715 16.937 14.189 1.1692-2.1872 10.933-8.5432 10.933-8.5432s-2.3391 0.0507-7.781-1.9832c-5.4426-2.0339-11.9-8.1876-12.053-8.5432-0.15246-0.35625-0.25501-0.91601 1.0169-1.1705 0.96572-0.81305-1.2209-3.4575-2.1873-4.4232-0.96572-0.96636-7.4247-11.95-7.5769-12.204-0.15245-0.25447-0.20376-0.50931-0.66105-0.81465-1.4244-0.45805-7.6799 0.66106-7.6799 0.66106s-9.6211-4.7252-12.937-14.913c0.0482 1.7844-1.6497 3.734 0 7.8335-5.0162-2.122-9.325-5.7416-12.723-14.685-2.0227 5.0868 0 8.3215 0 8.3215s-11.811-3.3016-13.701-14.195c-2.0742 4.8902 0 7.8316 0 7.8316s-19.258-10.048-51.255-10.194c-21.422-1.965-25.882-39.65-23.897-45.994 0 0-30.899-16.285-91.723-23.479-22.809-2.6982-44.081-3.5238-61.76-3.5036zm71.276 32.521c-9.2697 0.0699-19.22 0.41577-29.674 1.1588-55.751 3.9628-112.04 23.477-112.04 23.477s115.18-28.98 211.77-11.971h2e-3l-2.512-8.1057s-27.374-4.862-67.542-4.5594zm68.293 17.263c-9.75-0.0412-40.02 1.1848-85.564 15.436-57.124 17.874-89.522 43.21-89.522 43.21s85.141-47.539 181.24-50.24l-2.7492-8.3176s-1.1564-0.0779-3.4064-0.0875zm62.559-0.13932c26.38 10.723 49.34 24.931 67.165 44.514l2e-3 2e-3 4.2794-0.27998s-24.518-29.746-71.447-44.236zm72.712 57.183 5.2496 3.8672c0.65793-1.1408 3.31 6.0651 4.9229 8.0668 0.0683 0.3997-2.6812 3.6124-3.6164 3.42-0.0787-0.41087-4.3494-1.6449-4.3494-1.6449s-4.853-2.932-5.5451-3.8847c-0.6926-0.9527 3.0007-9.1925 3.3383-9.8244z" stroke="#fff" stroke-linejoin="round" stroke-width="2.9864"/>
		<path d="m69.929 127.71c-29.464 0.0337-48.949 2.4206-48.949 2.4206s107.73-5.1706 194.03 29.769c2.9338 13.122 11.759 34.976 16.513 45.481-13.602 9.4041-28.94 18.249-31.328 49.612-2.3877 31.362 24.576 58.947 58.013 59.798 31.751 1.6913 53.688 1.9323 80.277 15.718 25.38 14.034 46.192 56.794 48.251 95.252 2.2244-28.534-8.4845-89.895-58.453-108.53 69.826 12.219 75.982 63.973 75.984 63.994 0 0 5.2056-59.754-88.677-73.531-11.899-1.7458-26.947-3.0899-42.168-3.1283-75.246 0.99487-77.989-86.786-21.288-91.218 23.499-1.9389 51.556 10.738 78.986 23.512-0.10182 3.4068 0.0404 6.4339 2.2787 9.2314 2.2375 2.7966 10.832 5.8474 13.579 7.4233 2.7464 1.5764 11.545 7.1715 16.937 14.189 1.1692-2.1872 10.933-8.5432 10.933-8.5432s-2.3391 0.0507-7.781-1.9832c-5.4426-2.0339-11.9-8.1876-12.053-8.5432-0.15246-0.35625-0.25501-0.91601 1.0169-1.1705 0.96572-0.81305-1.2209-3.4575-2.1873-4.4232-0.96572-0.96636-7.4247-11.95-7.5769-12.204-0.15245-0.25447-0.20376-0.50931-0.66105-0.81465-1.4244-0.45805-7.6799 0.66106-7.6799 0.66106s-9.6211-4.7252-12.937-14.913c0.0482 1.7844-1.6497 3.734 0 7.8335-5.0162-2.122-9.325-5.7416-12.723-14.685-2.0227 5.0868 0 8.3215 0 8.3215s-11.811-3.3016-13.701-14.195c-2.0742 4.8902 0 7.8316 0 7.8316s-19.258-10.048-51.255-10.194c-21.422-1.965-25.882-39.65-23.897-45.994 0 0-30.899-16.285-91.723-23.479-22.809-2.6982-44.081-3.5238-61.76-3.5036zm71.276 32.521c-9.2697 0.0699-19.22 0.41577-29.674 1.1588-55.751 3.9628-112.04 23.477-112.04 23.477s115.18-28.98 211.77-11.971h2e-3l-2.512-8.1057s-27.373-4.5594-67.542-4.5594zm68.293 17.263c-9.75-0.0412-40.02 1.1848-85.564 15.436-57.124 17.874-89.522 43.21-89.522 43.21s85.141-47.539 181.24-50.24l-2.7492-8.3176s-1.1564-0.0779-3.4064-0.0875zm62.559-0.13932c26.38 10.723 49.34 24.931 67.165 44.514l2e-3 2e-3 4.2794-0.27998s-24.518-29.746-71.446-44.236zm74.662 61.731c0.85796 0.17286 2.4779 3.3567 3.9644 5.6306 0.13054 0.18477 0.26356 0.38112 0.38886 0.53662 2e-3 0.0138 3e-3 0.0234 6e-3 0.037 0.16796 0.23967 0.33693 0.4887 0.49774 0.68826 0.0812 0.47558 0.21641 0.76558-0.89631 0.53663-0.0936-0.48886-0.25471-0.62995-0.25471-0.62995s-2.686-1.5982-3.5094-2.7317c-0.82408-1.1335-0.96948-3.1153-0.56774-3.8672 0.0978-0.16967 0.2236-0.23004 0.37137-0.20027z"/>
	</g>
</svg>
