<svg version="1.1" viewBox="0 0 16 16" xmlns="http://www.w3.org/2000/svg"><path d="m6.2617 2.666 0.18164 0.5293 1.25 3.6289h-2.7012l-0.35938-0.62695h-1.9316l0.58203 1.8027-0.58203 1.8027h1.9316l0.35938-0.62695h2.7012l-1.4316 4.1582h1.8438l2.0996-4.2246h2.0703 0.001953s0.25349 0.0030637 0.50781-0.14258c0.25432-0.14565 0.51367-0.4965 0.51367-0.9668 0-0.4703-0.25935-0.82115-0.51367-0.9668-0.25428-0.14565-0.50781-0.14258-0.50781-0.14258h-0.001953-2.0703l-2.0996-4.2246h-1.8438zm0.48633 0.40039h1.0352l2.0996 4.2246h2.3164s0.625 0.004678 0.625 0.70898c0 0.70431-0.625 0.70898-0.625 0.70898h-2.3164l-2.0996 4.2246h-1.0352l1.4316-4.1563h-3.4922l-0.35938 0.625h-1.1523l0.45117-1.4023-0.45117-1.4023h1.1523l0.35938 0.625h3.4922l-1.4316-4.1562z" color="#000000" color-rendering="auto" dominant-baseline="auto" fill="#fff" image-rendering="auto" shape-rendering="auto" solid-color="#000000" style="font-feature-settings:normal;font-variant-alternates:normal;font-variant-caps:normal;font-variant-ligatures:normal;font-variant-numeric:normal;font-variant-position:normal;isolation:auto;mix-blend-mode:normal;shape-padding:0;text-decoration-color:#000000;text-decoration-line:none;text-decoration-style:solid;text-indent:0;text-orientation:mixed;text-transform:none;white-space:normal"/></svg>
