<svg version="1.1" viewBox="0 0 16 16" xmlns="http://www.w3.org/2000/svg"><g transform="matrix(.7509 0 0 .7509 1.9928 1.9928)" fill="#fff" shape-rendering="auto"><path d="m6.1016 1.0801-3.7402 3.7402h-2.3613v6.3555h2.3613l3.7402 3.7441v-6.9219zm-1 2.4141v9.0098l-2.3262-2.3281h-1.7754v-4.3555h1.7754z" color="#000000" color-rendering="auto" dominant-baseline="auto" image-rendering="auto" solid-color="#000000" style="font-feature-settings:normal;font-variant-alternates:normal;font-variant-caps:normal;font-variant-ligatures:normal;font-variant-numeric:normal;font-variant-position:normal;isolation:auto;mix-blend-mode:normal;shape-padding:0;text-decoration-color:#000000;text-decoration-line:none;text-decoration-style:solid;text-indent:0;text-orientation:mixed;text-transform:none;white-space:normal"/><path d="m8.8672 5.0352-0.62695 0.77734s0.91211 0.71448 0.91211 2.1875-0.91211 2.1875-0.91211 2.1875l0.62695 0.77734s1.2852-1.0586 1.2852-2.9648-1.2852-2.9648-1.2852-2.9648z" color="#000000" color-rendering="auto" dominant-baseline="auto" image-rendering="auto" solid-color="#000000" style="font-feature-settings:normal;font-variant-alternates:normal;font-variant-caps:normal;font-variant-ligatures:normal;font-variant-numeric:normal;font-variant-position:normal;isolation:auto;mix-blend-mode:normal;shape-padding:0;text-decoration-color:#000000;text-decoration-line:none;text-decoration-style:solid;text-indent:0;text-orientation:mixed;text-transform:none;white-space:normal"/><path d="m10.883 2.9004-0.62891 0.77734s1.8223 1.4489 1.8223 4.3223-1.8223 4.3223-1.8223 4.3223l0.62891 0.77734s2.1934-1.793 2.1934-5.0996-2.1934-5.0996-2.1934-5.0996z" color="#000000" color-rendering="auto" dominant-baseline="auto" image-rendering="auto" opacity=".3" solid-color="#000000" style="font-feature-settings:normal;font-variant-alternates:normal;font-variant-caps:normal;font-variant-ligatures:normal;font-variant-numeric:normal;font-variant-position:normal;isolation:auto;mix-blend-mode:normal;shape-padding:0;text-decoration-color:#000000;text-decoration-line:none;text-decoration-style:solid;text-indent:0;text-orientation:mixed;text-transform:none;white-space:normal"/><path d="m12.953 0.89648-0.62891 0.77734s2.6758 2.139 2.6758 6.3262-2.6758 6.3262-2.6758 6.3262l0.62891 0.77734s3.0469-2.4831 3.0469-7.1035c0-4.6205-3.0469-7.1035-3.0469-7.1035z" color="#000000" color-rendering="auto" dominant-baseline="auto" image-rendering="auto" opacity=".3" solid-color="#000000" style="font-feature-settings:normal;font-variant-alternates:normal;font-variant-caps:normal;font-variant-ligatures:normal;font-variant-numeric:normal;font-variant-position:normal;isolation:auto;mix-blend-mode:normal;shape-padding:0;text-decoration-color:#000000;text-decoration-line:none;text-decoration-style:solid;text-indent:0;text-orientation:mixed;text-transform:none;white-space:normal"/></g></svg>
