<svg version="1.1" viewBox="0 0 16 16" xmlns="http://www.w3.org/2000/svg"><path d="m8 0a8 8 0 0 0-8 8 8 8 0 0 0 8 8 8 8 0 0 0 8-8 8 8 0 0 0-8-8zm-0.10156 4.4844c1.1911 0 2.1621 0.96903 2.1621 2.1602 0 0.87197-0.52149 1.6254-1.2676 1.9668 1.3421 0.3319 2.3438 1.4851 2.3438 2.8652 0 0.01363-0.001753 0.025473-0.001953 0.039063h-0.48242c2.37e-4 -0.01356 0-0.025453 0-0.039063 0-1.3629-1.1767-2.4785-2.6523-2.4785s-2.6523 1.1157-2.6523 2.4785c0 0.01361-2.358e-4 0.025503 0 0.039063h-0.48242c-1.671e-4 -0.01359-0.0019532-0.025422-0.0019532-0.039063 0-1.3363 0.93891-2.4608 2.2168-2.832-0.78657-0.32379-1.3438-1.0987-1.3438-2 0-1.1911 0.97099-2.1602 2.1621-2.1602zm0 0.48242c-0.92971 0-1.6777 0.75-1.6777 1.6797 0 0.92974 0.74804 1.6777 1.6777 1.6777 0.92971 0 1.6777-0.74804 1.6777-1.6777 0-0.92971-0.74804-1.6797-1.6777-1.6797z" fill="#fff"/></svg>
