<svg version="1.1" viewBox="0 0 16 16" xmlns="http://www.w3.org/2000/svg">
  <circle cx="8" cy="8" r="8" fill="#666"/>
  <path d="m7.904 4.6604c-1.1312 0-2.0533 0.92201-2.0533 2.0532 0 0.856 0.5284 1.5912 1.2754 1.8987-1.2136 0.35256-2.1046 1.4195-2.1046 2.6886 0 0.01295 9.43e-4 0.02568 0.0011 0.03859h0.45924c-2.24e-4 -0.01288-8.96e-4 -0.02566-8.96e-4 -0.03859 0-1.2943 1.1176-2.353 2.519-2.353 1.4014 0 2.519 1.0587 2.519 2.353 0 0.01293-6.72e-4 0.02571-8.97e-4 0.03859h0.45924c1.9e-4 -0.01291 0.0011-0.02564 0.0011-0.03859 0-1.3107-0.95035-2.4057-2.2249-2.7209 0.70855-0.3242 1.2036-1.0383 1.2036-1.8664 0-1.1312-0.92201-2.0532-2.0532-2.0532zm0 0.45947c0.88292 0 1.5938 0.71086 1.5938 1.5938 0 0.88292-0.71086 1.5936-1.5938 1.5936-0.88292 0-1.5938-0.71063-1.5938-1.5936 0-0.88292 0.71086-1.5938 1.5938-1.5938z" color="#000000" color-rendering="auto" dominant-baseline="auto" fill="#fff" image-rendering="auto" shape-rendering="auto" solid-color="#000000" style="font-feature-settings:normal;font-variant-alternates:normal;font-variant-caps:normal;font-variant-ligatures:normal;font-variant-numeric:normal;font-variant-position:normal;isolation:auto;mix-blend-mode:normal;shape-padding:0;text-decoration-color:#000000;text-decoration-line:none;text-decoration-style:solid;text-indent:0;text-orientation:mixed;text-transform:none;white-space:normal"/>
</svg>
