<svg version="1.1" viewBox="0 0 16 16" xmlns="http://www.w3.org/2000/svg"><path d="m6.6187 5.5872v0.69077h5.5261v4.8354h-6.9077v0.69077h7.5985v-2.0724h0.69077v-2.0723h-0.69077v-2.0723zm0 1.3815v0.31031c0-1e-7 0.029368 0.57937-0.26039 1.1859-0.19496 0.40811-0.60943 0.75265-1.1212 0.99703v0.96064h4.2165v-3.4539z" fill="#fff" stroke-width=".71227"/><path d="m3.1647 4.1958v1.3816h-0.69081v1.7176s-0.015877 0.42505 0.19294 0.86218c0.18031 0.37744 0.58 0.77307 1.2157 0.87429h-0.026985v2.7633h0.69081v-2.7633h-0.026985c0.63566-0.10126 1.0353-0.49687 1.2157-0.87429 0.20882-0.43711 0.19294-0.86218 0.19294-0.86218v-1.7176h-0.69081v-1.3816h-0.69081v1.3816h-0.69081v-1.3816zm0 2.0725h2.0725v1.0457s0.0019 0.27847-0.12548 0.54509c-0.12737 0.26662-0.31573 0.50731-0.91076 0.50731-0.595 0-0.7834-0.24069-0.91076-0.50731s-0.12548-0.54509-0.12548-0.54509v-0.0054z" fill="#fff" stroke-width=".71231"/></svg>
