<svg version="1.1" viewBox="0 0 16 16" xmlns="http://www.w3.org/2000/svg"><path d="m7.3027 0.0039062-0.88086 2.9766a5.2679 5.2679 0 0 1 1.5781-0.24805 5.2679 5.2679 0 0 1 1.6035 0.25195l-0.86719-2.9785-1.4336-0.0019531zm-4.4414 1.834-1.0137 1.0117 1.4824 2.7207a5.2679 5.2679 0 0 1 2.2461-2.2461l-2.7148-1.4863zm10.305 0.0058594-2.7324 1.4883a5.2679 5.2679 0 0 1 2.2461 2.25l1.498-2.7266-1.0117-1.0117zm-5.166 2.6914a3.4657 3.4657 0 0 0-3.4648 3.4648 3.4657 3.4657 0 0 0 3.4648 3.4648 3.4657 3.4657 0 0 0 3.4648-3.4648 3.4657 3.4657 0 0 0-3.4648-3.4648zm-5.0215 1.873-2.9785 0.87305-0.0058594 1.4277 2.9902 0.87891a5.2679 5.2679 0 0 1-0.25195-1.5879 5.2679 5.2679 0 0 1 0.24609-1.5918zm10.037 0.0039063a5.2679 5.2679 0 0 1 0.25195 1.5879 5.2679 5.2679 0 0 1-0.24609 1.5898l2.9785-0.87109 0.005859-1.4297-2.9902-0.87695zm-9.6953 4.0039-1.498 2.7266 1.0117 1.0137 2.7324-1.4883a5.2679 5.2679 0 0 1-2.2461-2.252zm9.3496 0.009765a5.2679 5.2679 0 0 1-2.248 2.25l2.7168 1.4844 1.0137-1.0098-1.4824-2.7246zm-6.2734 2.5898 0.86719 2.9785h1.4336l0.88086-2.9746a5.2679 5.2679 0 0 1-1.5781 0.24805 5.2679 5.2679 0 0 1-1.6035-0.25195z" color="#000000" color-rendering="auto" dominant-baseline="auto" fill="#fff" image-rendering="auto" shape-rendering="auto" solid-color="#000000" style="font-feature-settings:normal;font-variant-alternates:normal;font-variant-caps:normal;font-variant-ligatures:normal;font-variant-numeric:normal;font-variant-position:normal;isolation:auto;mix-blend-mode:normal;shape-padding:0;text-decoration-color:#000000;text-decoration-line:none;text-decoration-style:solid;text-indent:0;text-orientation:mixed;text-transform:none;white-space:normal"/></svg>
