<svg version="1.1" viewBox="0 0 16 16" xmlns="http://www.w3.org/2000/svg"><g transform="matrix(.88482 0 0 .88482 .030539 -.038588)" fill="#fff" shape-rendering="auto"><path d="m13.494 12.113c-0.8225 0-1.5 0.6775-1.5 1.5s0.6775 1.5 1.5 1.5c0.8225 0 1.5-0.6775 1.5-1.5s-0.6775-1.5-1.5-1.5z" color="#000000" color-rendering="auto" dominant-baseline="auto" image-rendering="auto" opacity=".3" solid-color="#000000" style="font-feature-settings:normal;font-variant-alternates:normal;font-variant-caps:normal;font-variant-ligatures:normal;font-variant-numeric:normal;font-variant-position:normal;isolation:auto;mix-blend-mode:normal;shape-padding:0;text-decoration-color:#000000;text-decoration-line:none;text-decoration-style:solid;text-indent:0;text-orientation:mixed;text-transform:none;white-space:normal"/><path d="m9.9316 14.941c0-2.753 2.2216-4.9746 4.9746-4.9746v-0.89453c-3.2362 1e-7 -5.8691 2.633-5.8691 5.8691z" color="#000000" color-rendering="auto" dominant-baseline="auto" image-rendering="auto" opacity=".3" solid-color="#000000" style="font-feature-settings:normal;font-variant-alternates:normal;font-variant-caps:normal;font-variant-ligatures:normal;font-variant-numeric:normal;font-variant-position:normal;isolation:auto;mix-blend-mode:normal;shape-padding:0;text-decoration-color:#000000;text-decoration-line:none;text-decoration-style:solid;text-indent:0;text-orientation:mixed;text-transform:none;white-space:normal"/><path d="m6.9102 14.941c0-4.421 3.5751-7.9941 7.9961-7.9941v-0.89453c-4.9042 1e-7 -8.8906 3.9845-8.8906 8.8887z" color="#000000" color-rendering="auto" dominant-baseline="auto" image-rendering="auto" opacity=".3" solid-color="#000000" style="font-feature-settings:normal;font-variant-alternates:normal;font-variant-caps:normal;font-variant-ligatures:normal;font-variant-numeric:normal;font-variant-position:normal;isolation:auto;mix-blend-mode:normal;shape-padding:0;text-decoration-color:#000000;text-decoration-line:none;text-decoration-style:solid;text-indent:0;text-orientation:mixed;text-transform:none;white-space:normal"/><path d="m3.9141 14.941c0-6.0757 4.9164-10.99 10.992-10.99v-0.89453c-6.559 2e-7 -11.887 5.3258-11.887 11.885z" color="#000000" color-rendering="auto" dominant-baseline="auto" image-rendering="auto" opacity=".3" solid-color="#000000" style="font-feature-settings:normal;font-variant-alternates:normal;font-variant-caps:normal;font-variant-ligatures:normal;font-variant-numeric:normal;font-variant-position:normal;isolation:auto;mix-blend-mode:normal;shape-padding:0;text-decoration-color:#000000;text-decoration-line:none;text-decoration-style:solid;text-indent:0;text-orientation:mixed;text-transform:none;white-space:normal"/></g><path d="m3.748 2.666-0.48438 0.2793 0.00195 0.00195 0.55078 0.96484-1.1113 0.00586h-0.00195v0.56055h0.00195l1.1113 0.00586-0.55078 0.96484-0.00195 0.00195 0.48438 0.2793 0.00195-0.00195 0.033203-0.058594 0.52539-0.90039 0.5625 0.95898v0.00195l0.48438-0.2793v-0.00195l-0.048825-0.082029-0.50391-0.88281 1.1133-0.0058594h0.00195v-0.56055h-0.00195l-1.1133-0.00586 0.50391-0.88281 0.048828-0.082031v-0.00195l-0.48437-0.2793v0.00195l-0.5625 0.95899-0.52539-0.90039-0.033203-0.058594z" color="#000000" color-rendering="auto" dominant-baseline="auto" fill="#fff" image-rendering="auto" shape-rendering="auto" solid-color="#000000" style="font-feature-settings:normal;font-variant-alternates:normal;font-variant-caps:normal;font-variant-ligatures:normal;font-variant-numeric:normal;font-variant-position:normal;isolation:auto;mix-blend-mode:normal;shape-padding:0;text-decoration-color:#000000;text-decoration-line:none;text-decoration-style:solid;text-indent:0;text-orientation:mixed;text-transform:none;white-space:normal"/></svg>
