<svg version="1.1" viewBox="0 0 16 16" xmlns="http://www.w3.org/2000/svg"><path d="m1.4351 2.666v4.9238h1.6413v5.7442h0.82061v-2.4619h4.1031v1.6413h-2.4619v0.82061h5.7442v-0.82061h-2.4619v-1.6413h5.7442v-8.2061h-9.0269zm0.82061 0.82061h0.82061v0.82061h-0.82061zm1.6412 0h0.82061v0.82061h-0.82061zm1.6412 0h8.2061v6.565h-9.8474v-2.4619h1.6412v-3.2824zm-3.2824 1.6412h0.82061v1.6412h-0.82061zm1.6412 0h0.82061v1.6412h-0.82061z" fill="#fff" stroke-width="1.2309"/><g transform="matrix(.62803 0 0 .62803 4.5164 3.2855)"><path d="m7 16h9l-4.5-9z" fill="#fce100"/><path d="m11 10v3h1v-3zm0 4v1h1v-1z"/></g></svg>
