<svg version="1.1" viewBox="0 0 16 16" xmlns="http://www.w3.org/2000/svg"><g transform="matrix(.88482 0 0 .88482 .030539 -.038588)" fill="#fff" opacity=".3" shape-rendering="auto"><path d="m13.494 12.113c-0.8225 0-1.5 0.6775-1.5 1.5s0.6775 1.5 1.5 1.5c0.8225 0 1.5-0.6775 1.5-1.5s-0.6775-1.5-1.5-1.5z" color="#000000" color-rendering="auto" dominant-baseline="auto" image-rendering="auto" opacity="1" solid-color="#000000" style="font-feature-settings:normal;font-variant-alternates:normal;font-variant-caps:normal;font-variant-ligatures:normal;font-variant-numeric:normal;font-variant-position:normal;isolation:auto;mix-blend-mode:normal;shape-padding:0;text-decoration-color:#000000;text-decoration-line:none;text-decoration-style:solid;text-indent:0;text-orientation:mixed;text-transform:none;white-space:normal"/><path d="m9.9316 14.941c0-2.753 2.2216-4.9746 4.9746-4.9746v-0.89453c-3.2362 1e-7 -5.8691 2.633-5.8691 5.8691z" color="#000000" color-rendering="auto" dominant-baseline="auto" image-rendering="auto" opacity="1" solid-color="#000000" style="font-feature-settings:normal;font-variant-alternates:normal;font-variant-caps:normal;font-variant-ligatures:normal;font-variant-numeric:normal;font-variant-position:normal;isolation:auto;mix-blend-mode:normal;shape-padding:0;text-decoration-color:#000000;text-decoration-line:none;text-decoration-style:solid;text-indent:0;text-orientation:mixed;text-transform:none;white-space:normal"/><path transform="matrix(1.1302 0 0 1.1302 -.034514 .043611)" d="m13.221 2.666c-1.7559 1e-7 -3.4092 0.43681-4.8652 1.1992 0.13418 0.22466 0.23891 0.46587 0.31641 0.7207 1.3575-0.71882 2.9043-1.1289 4.5488-1.1289zm0 2.6504c-1.7669 1e-7 -3.3945 0.5901-4.709 1.5762-0.32576 0.69643-0.88586 1.26-1.582 1.5859-0.98433 1.3133-1.5762 2.9383-1.5762 4.7031h0.79102c0-3.9118 3.1644-7.0723 7.0762-7.0723zm-9.3184 3.0039c-0.76203 1.4553-1.1992 3.1062-1.1992 4.8613h0.79102c0-1.6436 0.41062-3.1883 1.1289-4.5449-0.25483-0.077582-0.49604-0.18209-0.7207-0.31641z" color="#000000" color-rendering="auto" dominant-baseline="auto" image-rendering="auto" opacity="1" solid-color="#000000" style="font-feature-settings:normal;font-variant-alternates:normal;font-variant-caps:normal;font-variant-ligatures:normal;font-variant-numeric:normal;font-variant-position:normal;isolation:auto;mix-blend-mode:normal;shape-padding:0;text-decoration-color:#000000;text-decoration-line:none;text-decoration-style:solid;text-indent:0;text-orientation:mixed;text-transform:none;white-space:normal"/></g><g transform="translate(.74687 1.0159)" fill="#fff" stroke-width=".81665"><path d="m4.8136 1.6501c-1.5737 0-2.8581 1.2846-2.8581 2.8584 0 1.5738 1.2844 2.8584 2.8581 2.8584 1.5737 0 2.8581-1.2846 2.8581-2.8584 0-1.5738-1.2844-2.8584-2.8581-2.8584zm0 0.81668c1.1323 0 2.0415 0.90929 2.0415 2.0417 0 1.1324-0.90921 2.0417-2.0415 2.0417-1.1323 0-2.0415-0.90929-2.0415-2.0417 0-1.1324 0.90921-2.0417 2.0415-2.0417z" color="#000000" color-rendering="auto" dominant-baseline="auto" image-rendering="auto" opacity=".5" solid-color="#000000" style="font-feature-settings:normal;font-variant-alternates:normal;font-variant-caps:normal;font-variant-ligatures:normal;font-variant-numeric:normal;font-variant-position:normal;isolation:auto;mix-blend-mode:normal;shape-padding:0;text-decoration-color:#000000;text-decoration-line:none;text-decoration-style:solid;text-indent:0;text-orientation:mixed;text-transform:none;white-space:normal"/><path d="m2.0203 3.9058c-0.12678 0.58912-0.067808 1.2195 0.19614 1.7947 0.52789 1.1505 1.7534 1.8176 3.006 1.6361l-0.11678-0.80908c-0.89778 0.13002-1.7689-0.34368-2.1473-1.1683-0.37835-0.8246-0.17067-1.7947 0.51337-2.3907 0.68404-0.59589 1.6749-0.66969 2.4396-0.18182 0.76482 0.48789 1.1152 1.4157 0.86332 2.2873l0.78466 0.22678c0.35148-1.216-0.1422-2.5217-1.2093-3.2024-1.0671-0.68071-2.4591-0.57699-3.4135 0.25443-0.4772 0.41572-0.78956 0.9636-0.91632 1.5528z" color="#000000" color-rendering="auto" dominant-baseline="auto" image-rendering="auto" solid-color="#000000" style="font-feature-settings:normal;font-variant-alternates:normal;font-variant-caps:normal;font-variant-ligatures:normal;font-variant-numeric:normal;font-variant-position:normal;isolation:auto;mix-blend-mode:normal;shape-padding:0;text-decoration-color:#000000;text-decoration-line:none;text-decoration-style:solid;text-indent:0;text-orientation:mixed;text-transform:none;white-space:normal"/></g></svg>
