<svg version="1.1" viewBox="0 0 16 16" xmlns="http://www.w3.org/2000/svg"><g transform="matrix(.81661 0 0 .81668 1.4991 .26718)" fill="#fff" shape-rendering="auto"><path d="m12.5 9c-1.9271 0-3.5 1.5729-3.5 3.5s1.5729 3.5 3.5 3.5 3.5-1.5729 3.5-3.5-1.5729-3.5-3.5-3.5zm0 1c1.3866 0 2.5 1.1134 2.5 2.5s-1.1134 2.5-2.5 2.5-2.5-1.1134-2.5-2.5 1.1134-2.5 2.5-2.5z" color="#000000" color-rendering="auto" dominant-baseline="auto" image-rendering="auto" opacity=".5" solid-color="#000000" style="font-feature-settings:normal;font-variant-alternates:normal;font-variant-caps:normal;font-variant-ligatures:normal;font-variant-numeric:normal;font-variant-position:normal;isolation:auto;mix-blend-mode:normal;shape-padding:0;text-decoration-color:#000000;text-decoration-line:none;text-decoration-style:solid;text-indent:0;text-orientation:mixed;text-transform:none;white-space:normal"/><path d="m9.0795 11.762c-0.15525 0.72136-0.083036 1.4932 0.24019 2.1976 0.64644 1.4087 2.1472 2.2256 3.6811 2.0034l-0.143-0.99069c-1.0994 0.1592-2.1662-0.42083-2.6295-1.4305-0.46332-1.0097-0.209-2.1976 0.62866-2.9273 0.83766-0.72965 2.051-0.82002 2.9875-0.22263 0.93658 0.59741 1.3657 1.7335 1.0572 2.8007l0.96087 0.27768c0.43041-1.489-0.17413-3.0877-1.4809-3.9212-1.3068-0.83351-3.0114-0.70651-4.1801 0.31154-0.58437 0.50904-0.96688 1.1799-1.1221 1.9013z" color="#000000" color-rendering="auto" dominant-baseline="auto" image-rendering="auto" solid-color="#000000" style="font-feature-settings:normal;font-variant-alternates:normal;font-variant-caps:normal;font-variant-ligatures:normal;font-variant-numeric:normal;font-variant-position:normal;isolation:auto;mix-blend-mode:normal;shape-padding:0;text-decoration-color:#000000;text-decoration-line:none;text-decoration-style:solid;text-indent:0;text-orientation:mixed;text-transform:none;white-space:normal"/></g><path d="m1.4355 2.666v4.9238h1.6406v5.7441h0.82031v-2.4609h4.1035v1.6406h-2.4609v0.82031h4.2441c-0.32651-0.22129-0.60522-0.5038-0.83984-0.82031h-0.12305v-0.16797c-0.35239-0.54041-0.5625-1.1811-0.5625-1.8691 0-0.14575 0.02509-0.28457 0.042969-0.42578h-4.4043v-2.4609h1.6426v-4.1035h8.2051v4.2246c0.31661 0.23486 0.59897 0.515 0.82031 0.8418v-5.8867h-9.0273zm0.82031 0.82031h0.82031v0.82031h-0.82031zm1.6406 0h0.82031v0.82031h-0.82031zm-1.6406 1.6406h0.82031v1.6426h-0.82031zm1.6406 0h0.82031v1.6426h-0.82031z" fill="#fff" opacity=".7" stroke-width="1.2309"/></svg>
