<svg xmlns="http://www.w3.org/2000/svg" xmlns:xlink="http://www.w3.org/1999/xlink" width="128" height="128"><defs><linearGradient id="N"><stop offset="0" stop-color="#fff"/><stop offset=".694" stop-color="#e8e8e8"/><stop offset="1" stop-color="#fff"/></linearGradient><linearGradient id="O" gradientUnits="userSpaceOnUse" x1="176" y1="799.964" x2="495" y2="799.964" gradientTransform="matrix(.25 0 0 .24306 -20 -80.436)"><stop offset="0"/><stop offset=".047" stop-color="#424048"/><stop offset=".097" stop-color="#241f31"/><stop offset=".9" stop-color="#241f31"/><stop offset=".95" stop-color="#424048"/><stop offset="1"/></linearGradient><linearGradient id="P" gradientUnits="userSpaceOnUse" x1="177" y1="619.964" x2="496" y2="619.964" gradientTransform="matrix(.25 0 0 .24306 -20 -80.436)"><stop offset="0" stop-color="#424048"/><stop offset=".047" stop-color="#f6f5f4"/><stop offset=".097" stop-color="#949390"/><stop offset=".9" stop-color="#d5d3cf"/><stop offset=".95" stop-color="#f6f5f4"/><stop offset="1" stop-color="#424048"/></linearGradient><linearGradient id="Q" gradientUnits="userSpaceOnUse" x1="347" y1="217" x2="323" y2="-172" gradientTransform="matrix(.25 0 0 .25 0 53)"><stop offset="0" stop-color="#f6f5f4"/><stop offset="1" stop-color="#fff"/></linearGradient><radialGradient id="R" gradientUnits="userSpaceOnUse" cx="128" cy="199.581" fx="128" fy="199.581" r="16" gradientTransform="matrix(.25 0 0 .25 0 53)"><stop offset="0" stop-opacity=".251"/><stop offset="1" stop-opacity=".031"/></radialGradient><radialGradient id="S" gradientUnits="userSpaceOnUse" cx="127.937" cy="200.072" fx="127.937" fy="200.072" r="8" gradientTransform="matrix(.34391 0 0 .34391 -12 34.132)"><stop offset="0" stop-color="#949390"/><stop offset="1" stop-color="#424048"/></radialGradient><linearGradient id="T" gradientUnits="userSpaceOnUse" x1="249" y1="125" x2="249" y2="-112.155" gradientTransform="matrix(.25 0 0 .25 0 53)"><stop offset="0" stop-color="#c0bfbc"/><stop offset="1" stop-color="#f6f5f4"/></linearGradient><radialGradient id="U" gradientUnits="userSpaceOnUse" cx="128" cy="199.581" fx="128" fy="199.581" r="16" gradientTransform="matrix(.25 0 0 .25 64 53)"><stop offset="0" stop-opacity=".251"/><stop offset="1" stop-opacity=".031"/></radialGradient><radialGradient id="V" gradientUnits="userSpaceOnUse" cx="127.937" cy="200.072" fx="127.937" fy="200.072" r="8" gradientTransform="matrix(.34391 0 0 .34391 52 34.132)"><stop offset="0" stop-color="#949390"/><stop offset="1" stop-color="#424048"/></radialGradient><filter id="a" filterUnits="objectBoundingBox" x="0%" y="0%" width="100%" height="100%"><feColorMatrix in="SourceGraphic" values="0 0 0 0 1 0 0 0 0 1 0 0 0 0 1 0 0 0 1 0"/></filter><clipPath id="b"><path d="M0 0h192v152H0z"/></clipPath><g id="q" clip-path="url(#b)"><path d="M69.398 58.945c-2.398 0-4.683.547-6.761 1.27a.93.93 0 0 0-.352 1.531l10.649 10.617c1.84 1.836 1.84 4.688 0 6.524l-4.012 4c-1.844 1.836-4.707 1.836-6.547 0L51.723 72.27a.917.917 0 0 0-.86-.247.932.932 0 0 0-.668.594c-.726 2.074-1.273 4.36-1.273 6.75 0 11.27 9.18 20.426 20.476 20.426 2.184 0 4.258-.484 6.184-1.113l28.625 28.61c.234.233.473.44.711.651 3.996-.48 7.082-4.043 7.082-8.398v-10.79L88.766 85.536c.629-1.922 1.109-3.988 1.109-6.168 0-11.27-9.18-20.422-20.477-20.422zm0 0"/></g><radialGradient id="W" gradientUnits="userSpaceOnUse" cx="128" cy="199.581" fx="128" fy="199.581" r="16" gradientTransform="matrix(.25 0 0 .25 64 -7)"><stop offset="0" stop-opacity=".251"/><stop offset="1" stop-opacity=".031"/></radialGradient><radialGradient id="X" gradientUnits="userSpaceOnUse" cx="127.937" cy="200.072" fx="127.937" fy="200.072" r="8" gradientTransform="matrix(.34391 0 0 .34391 52 -25.868)"><stop offset="0" stop-color="#949390"/><stop offset="1" stop-color="#424048"/></radialGradient><radialGradient id="Y" gradientUnits="userSpaceOnUse" cx="128" cy="199.581" fx="128" fy="199.581" r="16" gradientTransform="matrix(.25 0 0 .25 64 -35)"><stop offset="0" stop-opacity=".251"/><stop offset="1" stop-opacity=".031"/></radialGradient><radialGradient id="Z" gradientUnits="userSpaceOnUse" cx="127.937" cy="200.072" fx="127.937" fy="200.072" r="8" gradientTransform="matrix(.34391 0 0 .34391 52 -53.868)"><stop offset="0" stop-color="#949390"/><stop offset="1" stop-color="#424048"/></radialGradient><radialGradient id="aa" gradientUnits="userSpaceOnUse" cx="128" cy="199.581" fx="128" fy="199.581" r="16" gradientTransform="matrix(.25 0 0 .25 0 -35)"><stop offset="0" stop-opacity=".251"/><stop offset="1" stop-opacity=".031"/></radialGradient><radialGradient id="ab" gradientUnits="userSpaceOnUse" cx="127.937" cy="200.072" fx="127.937" fy="200.072" r="8" gradientTransform="matrix(.34391 0 0 .34391 -12 -53.868)"><stop offset="0" stop-color="#949390"/><stop offset="1" stop-color="#424048"/></radialGradient><radialGradient id="ac" gradientUnits="userSpaceOnUse" cx="128" cy="199.581" fx="128" fy="199.581" r="16" gradientTransform="matrix(.25 0 0 .25 0 -7)"><stop offset="0" stop-opacity=".251"/><stop offset="1" stop-opacity=".031"/></radialGradient><radialGradient id="ad" gradientUnits="userSpaceOnUse" cx="127.937" cy="200.072" fx="127.937" fy="200.072" r="8" gradientTransform="matrix(.34391 0 0 .34391 -12 -25.868)"><stop offset="0" stop-color="#949390"/><stop offset="1" stop-color="#424048"/></radialGradient><radialGradient id="d" gradientUnits="userSpaceOnUse" cx="62.562" cy="221.951" fx="62.562" fy="221.951" r="36.044" gradientTransform="matrix(.59826 .63515 -.11523 .10854 58.71 2.173)"><stop offset="0" stop-color="#010101"/><stop offset="1" stop-color="#010101" stop-opacity="0"/></radialGradient><clipPath id="c"><path d="M0 0h192v152H0z"/></clipPath><g id="B" clip-path="url(#c)"><path d="M69.398 53.852c-2.566 0-4.968.578-7.12 1.328a2.018 2.018 0 0 0-.762 3.34L72.16 69.14c1.43 1.426 1.43 3.544 0 4.97l-4.015 4.003c-1.426 1.426-3.57 1.426-5 0L52.5 67.493a2.024 2.024 0 0 0-1.879-.536c-.68.152-1.23.645-1.46 1.3-.75 2.15-1.333 4.548-1.333 7.11 0 11.863 9.684 21.52 21.57 21.52 2.09 0 4.036-.434 5.864-.98l28.172 28.156c5.265 5.265 12.035 4.722 15.734 1.023 3.703-3.695 4.281-10.438-.832-15.547L89.988 81.211c.551-1.824.98-3.762.98-5.844 0-11.863-9.683-21.515-21.57-21.515zm0 0" fill="url(#d)"/></g><linearGradient id="i" gradientUnits="userSpaceOnUse" x1="176" y1="799.964" x2="495" y2="799.964" gradientTransform="matrix(.25 0 0 .24306 -20 -80.436)"><stop offset="0"/><stop offset=".047" stop-color="#424048"/><stop offset=".097" stop-color="#241f31"/><stop offset=".9" stop-color="#241f31"/><stop offset=".95" stop-color="#424048"/><stop offset="1"/></linearGradient><linearGradient id="j" gradientUnits="userSpaceOnUse" x1="177" y1="619.964" x2="496" y2="619.964" gradientTransform="matrix(.25 0 0 .24306 -20 -80.436)"><stop offset="0" stop-color="#424048"/><stop offset=".047" stop-color="#f6f5f4"/><stop offset=".097" stop-color="#949390"/><stop offset=".9" stop-color="#d5d3cf"/><stop offset=".95" stop-color="#f6f5f4"/><stop offset="1" stop-color="#424048"/></linearGradient><linearGradient id="k" gradientUnits="userSpaceOnUse" x1="347" y1="217" x2="323" y2="-172" gradientTransform="matrix(.25 0 0 .25 0 53)"><stop offset="0" stop-color="#f6f5f4"/><stop offset="1" stop-color="#fff"/></linearGradient><radialGradient id="l" gradientUnits="userSpaceOnUse" cx="128" cy="199.581" fx="128" fy="199.581" r="16" gradientTransform="matrix(.25 0 0 .25 0 53)"><stop offset="0" stop-opacity=".251"/><stop offset="1" stop-opacity=".031"/></radialGradient><radialGradient id="m" gradientUnits="userSpaceOnUse" cx="127.937" cy="200.072" fx="127.937" fy="200.072" r="8" gradientTransform="matrix(.34391 0 0 .34391 -12 34.132)"><stop offset="0" stop-color="#949390"/><stop offset="1" stop-color="#424048"/></radialGradient><linearGradient id="n" gradientUnits="userSpaceOnUse" x1="249" y1="125" x2="249" y2="-112.155" gradientTransform="matrix(.25 0 0 .25 0 53)"><stop offset="0" stop-color="#c0bfbc"/><stop offset="1" stop-color="#f6f5f4"/></linearGradient><radialGradient id="o" gradientUnits="userSpaceOnUse" cx="128" cy="199.581" fx="128" fy="199.581" r="16" gradientTransform="matrix(.25 0 0 .25 64 53)"><stop offset="0" stop-opacity=".251"/><stop offset="1" stop-opacity=".031"/></radialGradient><radialGradient id="p" gradientUnits="userSpaceOnUse" cx="127.937" cy="200.072" fx="127.937" fy="200.072" r="8" gradientTransform="matrix(.34391 0 0 .34391 52 34.132)"><stop offset="0" stop-color="#949390"/><stop offset="1" stop-color="#424048"/></radialGradient><mask id="r"><g filter="url(#a)"><path fill-opacity=".1" d="M0 0h128v128H0z"/></g></mask><clipPath id="e"><path d="M0 0h192v152H0z"/></clipPath><linearGradient id="s" gradientUnits="userSpaceOnUse" x1="298.658" y1="125.793" x2="328.098" y2="70.897" gradientTransform="matrix(.25 0 0 .25 0 53)"><stop offset="0" stop-color="#47454b"/><stop offset="1" stop-color="#dfdee0"/></linearGradient><radialGradient id="t" gradientUnits="userSpaceOnUse" cx="128" cy="199.581" fx="128" fy="199.581" r="16" gradientTransform="matrix(.25 0 0 .25 64 -7)"><stop offset="0" stop-opacity=".251"/><stop offset="1" stop-opacity=".031"/></radialGradient><radialGradient id="u" gradientUnits="userSpaceOnUse" cx="127.937" cy="200.072" fx="127.937" fy="200.072" r="8" gradientTransform="matrix(.34391 0 0 .34391 52 -25.868)"><stop offset="0" stop-color="#949390"/><stop offset="1" stop-color="#424048"/></radialGradient><radialGradient id="v" gradientUnits="userSpaceOnUse" cx="128" cy="199.581" fx="128" fy="199.581" r="16" gradientTransform="matrix(.25 0 0 .25 64 -35)"><stop offset="0" stop-opacity=".251"/><stop offset="1" stop-opacity=".031"/></radialGradient><radialGradient id="w" gradientUnits="userSpaceOnUse" cx="127.937" cy="200.072" fx="127.937" fy="200.072" r="8" gradientTransform="matrix(.34391 0 0 .34391 52 -53.868)"><stop offset="0" stop-color="#949390"/><stop offset="1" stop-color="#424048"/></radialGradient><radialGradient id="x" gradientUnits="userSpaceOnUse" cx="128" cy="199.581" fx="128" fy="199.581" r="16" gradientTransform="matrix(.25 0 0 .25 0 -35)"><stop offset="0" stop-opacity=".251"/><stop offset="1" stop-opacity=".031"/></radialGradient><radialGradient id="y" gradientUnits="userSpaceOnUse" cx="127.937" cy="200.072" fx="127.937" fy="200.072" r="8" gradientTransform="matrix(.34391 0 0 .34391 -12 -53.868)"><stop offset="0" stop-color="#949390"/><stop offset="1" stop-color="#424048"/></radialGradient><radialGradient id="z" gradientUnits="userSpaceOnUse" cx="128" cy="199.581" fx="128" fy="199.581" r="16" gradientTransform="matrix(.25 0 0 .25 0 -7)"><stop offset="0" stop-opacity=".251"/><stop offset="1" stop-opacity=".031"/></radialGradient><radialGradient id="A" gradientUnits="userSpaceOnUse" cx="127.937" cy="200.072" fx="127.937" fy="200.072" r="8" gradientTransform="matrix(.34391 0 0 .34391 -12 -25.868)"><stop offset="0" stop-color="#949390"/><stop offset="1" stop-color="#424048"/></radialGradient><mask id="C"><g filter="url(#a)"><path fill-opacity=".58" d="M0 0h128v128H0z"/></g></mask><radialGradient id="g" gradientUnits="userSpaceOnUse" cx="62.562" cy="221.951" fx="62.562" fy="221.951" r="36.044" gradientTransform="matrix(.59826 .63515 -.11523 .10854 58.71 2.173)"><stop offset="0" stop-color="#010101"/><stop offset="1" stop-color="#010101" stop-opacity="0"/></radialGradient><clipPath id="f"><path d="M0 0h192v152H0z"/></clipPath><linearGradient id="D" gradientUnits="userSpaceOnUse" x1="301.624" y1="113.77" x2="318.912" y2="59.234" gradientTransform="matrix(.25 0 0 .25 0 53)"><stop offset="0" stop-color="#5e5c64"/><stop offset="1" stop-color="#77767b"/></linearGradient><clipPath id="h"><path d="M0 0h128v128H0z"/></clipPath><g id="F" clip-path="url(#h)"><path d="M32 50h64a8 8 0 0 1 8 8v54a8 8 0 0 1-8 8H32a8 8 0 0 1-8-8V58a8 8 0 0 1 8-8zm0 0" fill="url(#i)"/><path d="M32 44h64a8 8 0 0 1 8 8v54a8 8 0 0 1-8 8H32a8 8 0 0 1-8-8V52a8 8 0 0 1 8-8zm0 0" fill="url(#j)"/><path d="M32 8h64c4.418 0 8 3.785 8 8.457v87.086c0 4.672-3.582 8.457-8 8.457H32c-4.418 0-8-3.785-8-8.457V16.457C24 11.785 27.582 8 32 8zm0 0" fill="url(#k)"/><path d="M36 104c0 2.21-1.79 4-4 4s-4-1.79-4-4 1.79-4 4-4 4 1.79 4 4zm0 0" fill="url(#l)"/><path d="M34 104a1.999 1.999 0 1 1-4 0 1.999 1.999 0 1 1 4 0zm0 0" fill="url(#m)"/><path d="M42 12c-2.215 0-4 1.785-4 4 0 3.313-2.688 6-6 6-2.215 0-4 1.785-4 4v8c0 2.215 1.785 4 4 4 3.313 0 6 2.688 6 6a6.003 6.003 0 0 1-1.54 4c-5.92 6.594-8.444 15.137-8.46 24 0 19.883 16.117 36 36 36s36-16.117 36-36c-.016-8.863-2.54-17.41-8.465-24A6.018 6.018 0 0 1 90 44c0-3.313 2.688-6 6-6 2.215 0 4-1.785 4-4v-8c0-2.215-1.785-4-4-4-3.313 0-6-2.688-6-6 0-2.215-1.785-4-4-4zm22 56c3.313 0 6 2.688 6 6 0 3.313-2.688 6-6 6-3.313 0-6-2.688-6-6 0-3.313 2.688-6 6-6zm0 0" fill="#9a9996"/><path d="M42 10c-2.215 0-4 1.785-4 4 0 3.313-2.688 6-6 6-2.215 0-4 1.785-4 4v8c0 2.215 1.785 4 4 4 3.313 0 6 2.688 6 6a6.003 6.003 0 0 1-1.54 4c-5.92 6.594-8.444 15.137-8.46 24 0 19.883 16.117 36 36 36s36-16.117 36-36c-.016-8.863-2.54-17.41-8.465-24A6.018 6.018 0 0 1 90 42c0-3.313 2.688-6 6-6 2.215 0 4-1.785 4-4v-8c0-2.215-1.785-4-4-4-3.313 0-6-2.688-6-6 0-2.215-1.785-4-4-4zm22 56c3.313 0 6 2.688 6 6 0 3.313-2.688 6-6 6-3.313 0-6-2.688-6-6 0-3.313 2.688-6 6-6zm0 0" fill="url(#n)"/><path d="M100 104c0 2.21-1.79 4-4 4s-4-1.79-4-4 1.79-4 4-4 4 1.79 4 4zm0 0" fill="url(#o)"/><path d="M98 104a1.999 1.999 0 1 1-4 0 1.999 1.999 0 1 1 4 0zm0 0" fill="url(#p)"/><use xlink:href="#q" transform="translate(-8 -16)" mask="url(#r)"/><path d="M61.398 37.95c-2.55 0-4.941.581-7.086 1.323a1.924 1.924 0 0 0-.73 3.176L64.23 53.07c1.47 1.465 1.47 3.645 0 5.11l-4.011 4.004c-1.469 1.464-3.676 1.464-5.14 0L44.425 51.563a1.919 1.919 0 0 0-1.785-.512 1.928 1.928 0 0 0-1.387 1.242c-.746 2.14-1.328 4.527-1.328 7.074 0 11.809 9.64 21.422 21.472 21.422 2.098 0 4.051-.437 5.887-.996L95.5 107.988c5.238 5.239 11.934 4.688 15.598 1.028 3.664-3.66 4.25-10.329-.832-15.41L81.879 65.237c.555-1.828.992-3.777.992-5.87 0-11.81-9.64-21.419-21.473-21.419zm0 0" fill="url(#s)"/><path d="M100 44c0 2.21-1.79 4-4 4s-4-1.79-4-4 1.79-4 4-4 4 1.79 4 4zm0 0" fill="url(#t)"/><path d="M98 44a1.999 1.999 0 1 1-4 0 1.999 1.999 0 1 1 4 0zm0 0" fill="url(#u)"/><path d="M100 16c0 2.21-1.79 4-4 4s-4-1.79-4-4 1.79-4 4-4 4 1.79 4 4zm0 0" fill="url(#v)"/><path d="M98 16a1.999 1.999 0 1 1-4 0 1.999 1.999 0 1 1 4 0zm0 0" fill="url(#w)"/><path d="M36 16c0 2.21-1.79 4-4 4s-4-1.79-4-4 1.79-4 4-4 4 1.79 4 4zm0 0" fill="url(#x)"/><path d="M34 16a1.999 1.999 0 1 1-4 0 1.999 1.999 0 1 1 4 0zm0 0" fill="url(#y)"/><path d="M36 44c0 2.21-1.79 4-4 4s-4-1.79-4-4 1.79-4 4-4 4 1.79 4 4zm0 0" fill="url(#z)"/><path d="M34 44a1.999 1.999 0 1 1-4 0 1.999 1.999 0 1 1 4 0zm0 0" fill="url(#A)"/><use xlink:href="#B" transform="translate(-8 -16)" mask="url(#C)"/><path d="M61.398 39.871c-2.253 0-4.441.516-6.457 1.219L65.59 51.707a5.499 5.499 0 0 1 0 7.836l-4.016 4.004a5.536 5.536 0 0 1-7.855 0L43.07 52.926c-.703 2.011-1.222 4.191-1.222 6.441 0 10.77 8.754 19.496 19.55 19.496 2.258 0 4.442-.515 6.461-1.218l29 28.984c9.325 9.324 21.008-2.7 12.047-11.66l-29.18-29.16c.704-2.012 1.223-4.192 1.223-6.442 0-10.765-8.754-19.496-19.55-19.496zm0 0" fill="url(#D)"/></g><clipPath id="E"><path d="M0 0h128v128H0z"/></clipPath><g id="G" clip-path="url(#E)" filter="url(#a)"><use xlink:href="#F"/></g><mask id="af"><use xlink:href="#G"/></mask><mask id="L"><g filter="url(#a)"><path fill-opacity=".8" d="M0 0h128v128H0z"/></g></mask><linearGradient id="I" gradientUnits="userSpaceOnUse" x1="300" y1="235" x2="428" y2="235" gradientTransform="matrix(0 .37 -.98462 0 295.385 -30.36)"><stop offset="0" stop-color="#f9f06b"/><stop offset="1" stop-color="#f5c211"/></linearGradient><clipPath id="H"><path d="M0 0h128v128H0z"/></clipPath><g id="K" clip-path="url(#H)"><path d="M128 80.64V128H0V80.64zm0 0" fill="url(#I)"/><path d="M13.309 80.64L60.664 128H81.88l-47.36-47.36zm42.421 0L103.094 128h21.215L76.945 80.64zm42.43 0L128 110.48V89.27l-8.629-8.63zM0 88.548v21.215L18.238 128h21.215zm0 0"/></g><clipPath id="J"><path d="M0 0h128v128H0z"/></clipPath><g id="ae" clip-path="url(#J)"><use xlink:href="#K" mask="url(#L)"/></g><filter id="M" filterUnits="objectBoundingBox" x="0" y="0" width="1" height="1"><feColorMatrix in="SourceGraphic" values="0 0 0 0 1 0 0 0 0 1 0 0 0 0 1 0 0 0 1 0"/></filter><mask id="ag"><g filter="url(#M)"><path fill-opacity=".1" d="M0 0h128v128H0z"/></g></mask><linearGradient xlink:href="#N" id="ah" x1="86" y1="90.25" x2="68" y2="57.625" gradientUnits="userSpaceOnUse"/></defs><path d="M32 50h64a8 8 0 0 1 8 8v54a8 8 0 0 1-8 8H32a8 8 0 0 1-8-8V58a8 8 0 0 1 8-8zm0 0" fill="url(#O)"/><path d="M32 44h64a8 8 0 0 1 8 8v54a8 8 0 0 1-8 8H32a8 8 0 0 1-8-8V52a8 8 0 0 1 8-8zm0 0" fill="url(#P)"/><path d="M32 8h64c4.418 0 8 3.785 8 8.457v87.086c0 4.672-3.582 8.457-8 8.457H32c-4.418 0-8-3.785-8-8.457V16.457C24 11.785 27.582 8 32 8zm0 0" fill="url(#Q)"/><path d="M36 104c0 2.21-1.79 4-4 4s-4-1.79-4-4 1.79-4 4-4 4 1.79 4 4zm0 0" fill="url(#R)"/><path d="M34 104a1.999 1.999 0 1 1-4 0 1.999 1.999 0 1 1 4 0zm0 0" fill="url(#S)"/><path d="M42 12c-2.215 0-4 1.785-4 4 0 3.313-2.688 6-6 6-2.215 0-4 1.785-4 4v8c0 2.215 1.785 4 4 4 3.313 0 6 2.688 6 6a6.003 6.003 0 0 1-1.54 4c-5.92 6.594-8.444 15.137-8.46 24 0 19.883 16.117 36 36 36s36-16.117 36-36c-.016-8.863-2.54-17.41-8.465-24A6.018 6.018 0 0 1 90 44c0-3.313 2.688-6 6-6 2.215 0 4-1.785 4-4v-8c0-2.215-1.785-4-4-4-3.313 0-6-2.688-6-6 0-2.215-1.785-4-4-4zm22 56c3.313 0 6 2.688 6 6 0 3.313-2.688 6-6 6-3.313 0-6-2.688-6-6 0-3.313 2.688-6 6-6zm0 0" fill="#9a9996"/><path d="M42 10c-2.215 0-4 1.785-4 4 0 3.313-2.688 6-6 6-2.215 0-4 1.785-4 4v8c0 2.215 1.785 4 4 4 3.313 0 6 2.688 6 6a6.003 6.003 0 0 1-1.54 4c-5.92 6.594-8.444 15.137-8.46 24 0 19.883 16.117 36 36 36s36-16.117 36-36c-.016-8.863-2.54-17.41-8.465-24A6.018 6.018 0 0 1 90 42c0-3.313 2.688-6 6-6 2.215 0 4-1.785 4-4v-8c0-2.215-1.785-4-4-4-3.313 0-6-2.688-6-6 0-2.215-1.785-4-4-4zm22 56c3.313 0 6 2.688 6 6 0 3.313-2.688 6-6 6-3.313 0-6-2.688-6-6 0-3.313 2.688-6 6-6zm0 0" fill="url(#T)"/><path d="M100 104c0 2.21-1.79 4-4 4s-4-1.79-4-4 1.79-4 4-4 4 1.79 4 4zm0 0" fill="url(#U)"/><path d="M98 104a1.999 1.999 0 1 1-4 0 1.999 1.999 0 1 1 4 0zm0 0" fill="url(#V)"/><path d="M100 44c0 2.21-1.79 4-4 4s-4-1.79-4-4 1.79-4 4-4 4 1.79 4 4zm0 0" fill="url(#W)"/><path d="M98 44a1.999 1.999 0 1 1-4 0 1.999 1.999 0 1 1 4 0zm0 0" fill="url(#X)"/><path d="M100 16c0 2.21-1.79 4-4 4s-4-1.79-4-4 1.79-4 4-4 4 1.79 4 4zm0 0" fill="url(#Y)"/><path d="M98 16a1.999 1.999 0 1 1-4 0 1.999 1.999 0 1 1 4 0zm0 0" fill="url(#Z)"/><path d="M36 16c0 2.21-1.79 4-4 4s-4-1.79-4-4 1.79-4 4-4 4 1.79 4 4zm0 0" fill="url(#aa)"/><path d="M34 16a1.999 1.999 0 1 1-4 0 1.999 1.999 0 1 1 4 0zm0 0" fill="url(#ab)"/><path d="M36 44c0 2.21-1.79 4-4 4s-4-1.79-4-4 1.79-4 4-4 4 1.79 4 4zm0 0" fill="url(#ac)"/><path d="M34 44a1.999 1.999 0 1 1-4 0 1.999 1.999 0 1 1 4 0zm0 0" fill="url(#ad)"/><use xlink:href="#ae" mask="url(#af)"/><use height="100%" width="100%" xlink:href="#q" transform="translate(-8 -16)" mask="url(#ag)"/><path d="M61.398 37.95c-2.55 0-4.941.581-7.086 1.323a1.924 1.924 0 0 0-.73 3.176L64.23 53.07c1.47 1.465 1.47 3.645 0 5.11l-4.011 4.004c-1.469 1.464-3.676 1.464-5.14 0L44.425 51.563a1.919 1.919 0 0 0-1.785-.512 1.928 1.928 0 0 0-1.387 1.242c-.746 2.14-1.328 4.527-1.328 7.074 0 11.809 9.64 21.422 21.472 21.422 2.098 0 4.051-.437 5.887-.996L95.5 107.988c5.238 5.239 11.934 4.688 15.598 1.028 3.664-3.66 4.25-10.329-.832-15.41L81.879 65.237c.555-1.828.992-3.777.992-5.87 0-11.81-9.64-21.419-21.473-21.419zm0 0" fill="#deddda"/><path d="M61.398 39.871c-2.253 0-4.441.516-6.457 1.219L65.59 51.707a5.499 5.499 0 0 1 0 7.836l-4.016 4.004a5.536 5.536 0 0 1-7.855 0L43.07 52.926c-.703 2.011-1.222 4.191-1.222 6.441 0 10.77 8.754 19.496 19.55 19.496 2.258 0 4.442-.515 6.461-1.218l29 28.984c9.325 9.324 21.008-2.7 12.047-11.66l-29.18-29.16c.704-2.012 1.223-4.192 1.223-6.442 0-10.765-8.754-19.496-19.55-19.496zm0 0" fill="url(#ah)"/></svg>