<?xml version="1.0" encoding="UTF-8" standalone="no"?>
<svg
   xmlns:dc="http://purl.org/dc/elements/1.1/"
   xmlns:cc="http://creativecommons.org/ns#"
   xmlns:rdf="http://www.w3.org/1999/02/22-rdf-syntax-ns#"
   xmlns:svg="http://www.w3.org/2000/svg"
   xmlns="http://www.w3.org/2000/svg"
   xmlns:xlink="http://www.w3.org/1999/xlink"
   xmlns:sodipodi="http://sodipodi.sourceforge.net/DTD/sodipodi-0.dtd"
   xmlns:inkscape="http://www.inkscape.org/namespaces/inkscape"
   height="128"
   width="128"
   version="1.1"
   id="svg18"
   sodipodi:docname="org.xfce.xfdesktop.svg"
   inkscape:version="0.92.4 (5da689c313, 2019-01-14)">
  <metadata
     id="metadata24">
    <rdf:RDF>
      <cc:Work
         rdf:about="">
        <dc:format>image/svg+xml</dc:format>
        <dc:type
           rdf:resource="http://purl.org/dc/dcmitype/StillImage" />
        <dc:title />
      </cc:Work>
    </rdf:RDF>
  </metadata>
  <defs
     id="defs22">
    <linearGradient
       id="linearGradient948"
       inkscape:collect="always">
      <stop
         id="stop944"
         offset="0"
         style="stop-color:#d2d8dc;stop-opacity:1" />
      <stop
         id="stop946"
         offset="1"
         style="stop-color:#758087;stop-opacity:1" />
    </linearGradient>
    <linearGradient
       inkscape:collect="always"
       xlink:href="#linearGradient29735"
       id="linearGradient29737"
       x1="1118.7346"
       y1="283.53955"
       x2="1118.7346"
       y2="233.40434"
       gradientUnits="userSpaceOnUse" />
    <linearGradient
       inkscape:collect="always"
       id="linearGradient29735">
      <stop
         style="stop-color:#d2d8dc;stop-opacity:1"
         offset="0"
         id="stop29731" />
      <stop
         style="stop-color:#758087;stop-opacity:1"
         offset="1"
         id="stop29733" />
    </linearGradient>
    <linearGradient
       inkscape:collect="always"
       xlink:href="#linearGradient948"
       id="linearGradient942"
       gradientUnits="userSpaceOnUse"
       x1="1118.7346"
       y1="283.53955"
       x2="1118.7346"
       y2="233.40434" />
    <linearGradient
       id="linearGradient9567">
      <stop
         style="stop-color:#204a87;stop-opacity:1"
         offset="0"
         id="stop9569" />
      <stop
         style="stop-color:#081527;stop-opacity:0.99"
         offset="1"
         id="stop9571" />
    </linearGradient>
    <clipPath
       clipPathUnits="userSpaceOnUse"
       id="clipPath1204-8-9">
      <path
         style="fill:#e74747;stroke:none;stroke-width:1px;stroke-linecap:butt;stroke-linejoin:miter;stroke-opacity:1"
         d="M 278.54547,124 401.45456,1.0909127 392.00002,-276 H 87.999979 v 400 z"
         id="path1206-4-5"
         inkscape:connector-curvature="0"
         sodipodi:nodetypes="cccccc" />
    </clipPath>
  </defs>
  <sodipodi:namedview
     pagecolor="#ffffff"
     bordercolor="#666666"
     borderopacity="1"
     objecttolerance="10"
     gridtolerance="10"
     guidetolerance="10"
     inkscape:pageopacity="0"
     inkscape:pageshadow="2"
     inkscape:window-width="1920"
     inkscape:window-height="1019"
     id="namedview20"
     showgrid="true"
     inkscape:zoom="8.0000003"
     inkscape:cx="70.337812"
     inkscape:cy="74.64706"
     inkscape:window-x="0"
     inkscape:window-y="0"
     inkscape:window-maximized="1"
     inkscape:current-layer="g16"
     showguides="true"
     inkscape:guide-bbox="true"
     inkscape:pagecheckerboard="false">
    <sodipodi:guide
       position="-32.300885,140.26549"
       orientation="0,1"
       id="guide1036"
       inkscape:locked="false" />
    <inkscape:grid
       type="xygrid"
       id="grid841"
       empspacing="4" />
    <sodipodi:guide
       position="-31.532847,112.9927"
       orientation="1,0"
       id="guide895"
       inkscape:locked="false" />
  </sodipodi:namedview>
  <g
     id="g16"
     style="stroke-width:4">
    <path
       transform="matrix(0.29272427,0,0,0.25983253,-262.68029,36.117737)"
       sodipodi:type="inkscape:offset"
       inkscape:radius="27.15708"
       inkscape:original="M 1084 88.28125 L 1068 280.28125 L 1116 280.28125 L 1164 280.28125 L 1148 88.28125 L 1116 88.28125 L 1084 88.28125 z "
       style="display:inline;opacity:1;fill:#a7b0b7;fill-opacity:1;stroke:none;stroke-width:20;stroke-linecap:square;stroke-linejoin:miter;stroke-miterlimit:4;stroke-dasharray:none;stroke-dashoffset:0;stroke-opacity:1;enable-background:new"
       id="rect2101-7"
       d="m 1084,61.125 a 27.159795,27.159795 0 0 0 -27.0625,24.900391 l -16,191.999999 A 27.159795,27.159795 0 0 0 1068,307.4375 h 48 48 a 27.159795,27.159795 0 0 0 27.0625,-29.41211 l -16,-191.999999 A 27.159795,27.159795 0 0 0 1148,61.125 h -32 z" />
    <path
       transform="matrix(0.29272427,0,0,0.25983253,-262.68029,34.117737)"
       sodipodi:type="inkscape:offset"
       inkscape:radius="27.15708"
       inkscape:original="M 1084 88.28125 L 1068 280.28125 L 1116 280.28125 L 1164 280.28125 L 1148 88.28125 L 1116 88.28125 L 1084 88.28125 z "
       style="display:inline;opacity:1;fill:url(#linearGradient29737);fill-opacity:1;stroke:none;stroke-width:20;stroke-linecap:square;stroke-linejoin:miter;stroke-miterlimit:4;stroke-dasharray:none;stroke-dashoffset:0;stroke-opacity:1;enable-background:new"
       id="rect2101"
       d="m 1084,61.125 a 27.159795,27.159795 0 0 0 -27.0625,24.900391 l -16,191.999999 A 27.159795,27.159795 0 0 0 1068,307.4375 h 48 48 a 27.159795,27.159795 0 0 0 27.0625,-29.41211 l -16,-191.999999 A 27.159795,27.159795 0 0 0 1148,61.125 h -32 z" />
    <path
       d="m 44.457421,158 c -1.353324,0 -2.442822,1.984 -2.442822,4.444 v 11.112 c 0,2.46 1.089498,4.444 2.442822,4.444 h 39.085158 c 1.353324,0 2.442822,-1.984 2.442822,-4.444 V 162.44 c 0,-2.46 -1.089498,-4.444 -2.442822,-4.444 z"
       id="path2"
       style="fill:#d2d8dc;fill-opacity:1;stroke-width:3.12590623"
       inkscape:connector-curvature="0" />
    <path
       d="m 44.457421,160 c -1.353324,0 -2.442822,1.984 -2.442822,4.444 v 11.112 c 0,2.46 1.089498,4.444 2.442822,4.444 h 39.085158 c 1.353324,0 2.442822,-1.984 2.442822,-4.444 V 164.44 c 0,-2.46 -1.089498,-4.444 -2.442822,-4.444 z"
       id="path4"
       style="fill:#f1f3f5;fill-opacity:1;stroke-width:3.12590623"
       inkscape:connector-curvature="0" />
    <path
       d="M 12,16 C 9.784,16 8,17.7823 8,20.0014 V 89.9986 A 4.04,3.939 0 0 0 12,94 h 104 c 2.216,0 4,-1.7862 4,-4.0014 V 20.0014 A 4.04,3.939 0 0 0 116,16 Z"
       id="path6"
       style="fill:#bcc5ca;fill-opacity:1;stroke-width:3.94968367"
       inkscape:connector-curvature="0" />
    <path
       d="m 12,12 c -2.216,0 -4,1.784 -4,4 v 72 c 0,2.216 1.784,4 4,4 h 104 c 2.216,0 4,-1.784 4,-4 V 16 c 0,-2.216 -1.784,-4 -4,-4 z"
       id="path8"
       style="fill:#d1d7db;fill-opacity:1"
       inkscape:connector-curvature="0" />
    <path
       d="M 11,15 H 117 V 89 H 11 Z"
       id="path10"
       style="fill:#344958;fill-opacity:1;stroke-width:4.09398031"
       inkscape:connector-curvature="0" />
    <g
       clip-path="none"
       id="g1960-5-0"
       style="display:inline;fill:#00aade;fill-opacity:1;stroke:none;stroke-width:0.91016608;enable-background:new"
       transform="matrix(0.325,0,0,-0.23214286,7.7255391,48.188522)">
      <path
         sodipodi:nodetypes="cccccc"
         inkscape:connector-curvature="0"
         id="path1958-0-4"
         d="M 19.398492,-162.88021 H 262.38296 l 64.61538,90.461536 5e-5,202.461534 H 19.306034 Z"
         clip-path="none"
         style="display:inline;opacity:1;fill:#00aade;fill-opacity:1;stroke:none;stroke-width:1.91648817;stroke-linejoin:round;stroke-miterlimit:4;stroke-dasharray:none;stroke-opacity:1;enable-background:new" />
    </g>
    <path
       inkscape:connector-curvature="0"
       d="m 27.276049,34.253211 c 0.202404,-0.03375 5.249324,2.621147 8.641652,3.538606 6.049155,1.540595 11.570858,6.177376 14.239724,8.840892 0.19789,0.227959 2.292277,-1.562716 4.484103,-1.433739 2.993916,0.180717 12.257831,2.776744 13.495568,1.008941 0.750551,-1.03781 0.696752,-2.311079 1.633157,-2.83261 0.504122,-0.140599 -1.873934,-4.475186 0.653483,-5.863933 1.802065,-0.897586 3.329119,4.127624 3.791869,4.690772 0.207288,0.251954 1.306968,0.313442 1.176791,-0.260577 -0.141079,-0.623513 -1.919822,-5.44551 0.261478,-6.254613 3.54281,-1.398121 2.914906,6.169878 3.007085,6.385089 0.196002,0.458167 12.338706,0.811352 13.074961,6.254611 0.425868,2.995705 -9.728164,6.867627 -10.72137,7.5575 -0.992825,0.689876 -0.910062,1.7933 -0.522936,2.47605 0.445062,0.74049 3.403237,3.239787 3.007456,4.430195 -0.271998,0.687624 -5.792948,-1.832667 -6.14546,-1.302888 -0.803969,1.011941 4.019103,3.54498 2.353601,5.342403 -0.660259,0.430421 -8.256789,-3.169674 -8.237604,-3.127306 -0.203903,0.07724 -10.734153,1.917026 -18.828037,-0.52153 -0.285169,-0.08024 -5.194771,4.726389 -5.753074,4.561046 -0.763339,-0.27895 1.125259,-4.18049 0.91533,-4.951725 -0.343107,-0.429673 -3.480361,1.744557 -3.660944,0.651631 -0.215947,-1.436364 2.753139,-3.087564 2.615067,-4.039515 -0.765596,-5.408016 0.34198,-8.566067 2.222677,-11.205961 0.62715,-0.971824 -7.370798,-6.990979 -13.161118,-9.366546 -5.789943,-2.375569 -8.887694,-4.388952 -8.543459,-4.576793 z"
       id="path14-7"
       style="fill:#020202;fill-opacity:1;fill-rule:evenodd;stroke:#000002;stroke-width:0.3755727pt;stroke-linecap:butt;stroke-linejoin:miter;stroke-opacity:1" />
    <path
       style="fill:#c1ebf7;stroke:#070c0f;stroke-width:0.01;stroke-linecap:butt;stroke-linejoin:miter;stroke-miterlimit:4;stroke-dasharray:none;stroke-opacity:1"
       d="M 114,65 H 93 v 21 z"
       id="path908"
       inkscape:connector-curvature="0" />
  </g>
</svg>
