<?xml version="1.0" encoding="UTF-8" standalone="no"?>
<svg
   xmlns:osb="http://www.openswatchbook.org/uri/2009/osb"
   xmlns:dc="http://purl.org/dc/elements/1.1/"
   xmlns:cc="http://creativecommons.org/ns#"
   xmlns:rdf="http://www.w3.org/1999/02/22-rdf-syntax-ns#"
   xmlns:svg="http://www.w3.org/2000/svg"
   xmlns="http://www.w3.org/2000/svg"
   xmlns:xlink="http://www.w3.org/1999/xlink"
   xmlns:sodipodi="http://sodipodi.sourceforge.net/DTD/sodipodi-0.dtd"
   xmlns:inkscape="http://www.inkscape.org/namespaces/inkscape"
   width="128"
   height="128"
   id="svg11300"
   version="1.0"
   style="display:inline;enable-background:new"
   viewBox="0 0 128 128"
   sodipodi:docname="org.xfce.notification.svg"
   inkscape:version="0.92.4 (5da689c313, 2019-01-14)"
   inkscape:export-filename="/home/ochosi/Nerdstuff/xfce/xfce4-notifyd/icons/128x128/org.xfce.notification.png"
   inkscape:export-xdpi="96"
   inkscape:export-ydpi="96">
  <sodipodi:namedview
     pagecolor="#ffffff"
     bordercolor="#666666"
     borderopacity="1"
     objecttolerance="10"
     gridtolerance="10"
     guidetolerance="10"
     inkscape:pageopacity="0"
     inkscape:pageshadow="2"
     inkscape:window-width="1920"
     inkscape:window-height="1027"
     id="namedview44"
     showgrid="false"
     inkscape:zoom="3.8044132"
     inkscape:cx="36.518056"
     inkscape:cy="42.217224"
     inkscape:window-x="0"
     inkscape:window-y="29"
     inkscape:window-maximized="1"
     inkscape:current-layer="svg11300"
     inkscape:lockguides="false"
     showguides="true"
     inkscape:guide-bbox="true">
    <inkscape:grid
       type="xygrid"
       id="grid4761"
       empspacing="4" />
  </sodipodi:namedview>
  <title
     id="title4162">Adwaita Icon Template</title>
  <defs
     id="defs3">
    <linearGradient
       inkscape:collect="always"
       id="linearGradient882">
      <stop
         style="stop-color:#f9da02;stop-opacity:1;"
         offset="0"
         id="stop878" />
      <stop
         style="stop-color:#dcb102;stop-opacity:1"
         offset="1"
         id="stop880" />
    </linearGradient>
    <linearGradient
       inkscape:collect="always"
       id="linearGradient907">
      <stop
         style="stop-color:#fbeb83;stop-opacity:1"
         offset="0"
         id="stop903" />
      <stop
         style="stop-color:#ad7702;stop-opacity:1"
         offset="1"
         id="stop905" />
    </linearGradient>
    <linearGradient
       id="linearGradient1020"
       osb:paint="gradient">
      <stop
         style="stop-color:#ffffff;stop-opacity:1;"
         offset="0"
         id="stop1016" />
      <stop
         style="stop-color:#ffffff;stop-opacity:0.09411765"
         offset="1"
         id="stop1018" />
    </linearGradient>
    <clipPath
       clipPathUnits="userSpaceOnUse"
       id="clipPath1058">
      <path
         style="fill:#dcb102;stroke:none;stroke-width:0.1;stroke-linecap:butt;stroke-linejoin:miter;stroke-miterlimit:4;stroke-dasharray:none;stroke-opacity:1"
         d="m 60,100 14,4 v -4 z"
         id="path1060"
         inkscape:connector-curvature="0" />
    </clipPath>
    <clipPath
       clipPathUnits="userSpaceOnUse"
       id="clipPath1058-0">
      <path
         style="fill:#dcb102;stroke:none;stroke-width:0.1;stroke-linecap:butt;stroke-linejoin:miter;stroke-miterlimit:4;stroke-dasharray:none;stroke-opacity:1"
         d="m 60,100 14,4 v -4 z"
         id="path1060-9"
         inkscape:connector-curvature="0" />
    </clipPath>
    <clipPath
       clipPathUnits="userSpaceOnUse"
       id="clipPath1114">
      <rect
         style="opacity:0.40400002;fill:#fcf4c0;fill-opacity:1;stroke:none;stroke-width:0.1;stroke-linecap:butt;stroke-miterlimit:4;stroke-dasharray:none;stroke-opacity:1"
         id="rect1116"
         width="48"
         height="88"
         x="-4"
         y="-184" />
    </clipPath>
    <clipPath
       clipPathUnits="userSpaceOnUse"
       id="clipPath1141">
      <rect
         style="opacity:1;fill:#ad7702;fill-opacity:1;stroke:none;stroke-width:0.1;stroke-linecap:butt;stroke-miterlimit:4;stroke-dasharray:none;stroke-opacity:1"
         id="rect1143"
         width="48"
         height="8"
         x="-4.000001"
         y="-111.90909" />
    </clipPath>
    <clipPath
       clipPathUnits="userSpaceOnUse"
       id="clipPath1141-1">
      <rect
         style="opacity:1;fill:#ad7702;fill-opacity:1;stroke:none;stroke-width:0.1;stroke-linecap:butt;stroke-miterlimit:4;stroke-dasharray:none;stroke-opacity:1"
         id="rect1143-8"
         width="48"
         height="8"
         x="-4.000001"
         y="-111.90909" />
    </clipPath>
    <clipPath
       clipPathUnits="userSpaceOnUse"
       id="clipPath1114-9">
      <rect
         style="opacity:0.40400002;fill:#fcf4c0;fill-opacity:1;stroke:none;stroke-width:0.1;stroke-linecap:butt;stroke-miterlimit:4;stroke-dasharray:none;stroke-opacity:1"
         id="rect1116-20"
         width="48"
         height="88"
         x="-4"
         y="-184" />
    </clipPath>
    <clipPath
       clipPathUnits="userSpaceOnUse"
       id="clipPath1141-3">
      <rect
         style="opacity:1;fill:#ad7702;fill-opacity:1;stroke:none;stroke-width:0.1;stroke-linecap:butt;stroke-miterlimit:4;stroke-dasharray:none;stroke-opacity:1"
         id="rect1143-7"
         width="48"
         height="8"
         x="-4.000001"
         y="-111.90909" />
    </clipPath>
    <linearGradient
       inkscape:collect="always"
       xlink:href="#linearGradient907"
       id="linearGradient909"
       x1="-4.000001"
       y1="-107.90909"
       x2="25.600317"
       y2="-107.90909"
       gradientUnits="userSpaceOnUse" />
    <clipPath
       clipPathUnits="userSpaceOnUse"
       id="clipPath958">
      <path
         style="opacity:1;fill:#fbeb83;fill-opacity:1;stroke:none;stroke-width:6.00000048;stroke-linecap:butt;stroke-miterlimit:4;stroke-dasharray:none;stroke-opacity:1"
         id="path960"
         sodipodi:type="arc"
         sodipodi:cx="65.5"
         sodipodi:cy="107"
         sodipodi:rx="9"
         sodipodi:ry="9"
         sodipodi:start="0"
         sodipodi:end="6.2808815"
         sodipodi:open="true"
         d="m 74.5,107 a 9,9 0 0 1 -8.994816,9 9,9 0 0 1 -9.005178,-8.98963 9,9 0 0 1 8.984443,-9.010357 9,9 0 0 1 9.015527,8.979257" />
    </clipPath>
    <clipPath
       clipPathUnits="userSpaceOnUse"
       id="clipPath958-3">
      <path
         style="opacity:1;fill:#fbeb83;fill-opacity:1;stroke:none;stroke-width:6.00000048;stroke-linecap:butt;stroke-miterlimit:4;stroke-dasharray:none;stroke-opacity:1"
         id="path960-6"
         sodipodi:type="arc"
         sodipodi:cx="65.5"
         sodipodi:cy="107"
         sodipodi:rx="9"
         sodipodi:ry="9"
         sodipodi:start="0"
         sodipodi:end="6.2808815"
         sodipodi:open="true"
         d="m 74.5,107 a 9,9 0 0 1 -8.994816,9 9,9 0 0 1 -9.005178,-8.98963 9,9 0 0 1 8.984443,-9.010357 9,9 0 0 1 9.015527,8.979257" />
    </clipPath>
    <clipPath
       clipPathUnits="userSpaceOnUse"
       id="clipPath958-35">
      <path
         style="opacity:1;fill:#fbeb83;fill-opacity:1;stroke:none;stroke-width:6.00000048;stroke-linecap:butt;stroke-miterlimit:4;stroke-dasharray:none;stroke-opacity:1"
         id="path960-62"
         sodipodi:type="arc"
         sodipodi:cx="65.5"
         sodipodi:cy="107"
         sodipodi:rx="9"
         sodipodi:ry="9"
         sodipodi:start="0"
         sodipodi:end="6.2808815"
         sodipodi:open="true"
         d="m 74.5,107 a 9,9 0 0 1 -8.994816,9 9,9 0 0 1 -9.005178,-8.98963 9,9 0 0 1 8.984443,-9.010357 9,9 0 0 1 9.015527,8.979257" />
    </clipPath>
    <clipPath
       clipPathUnits="userSpaceOnUse"
       id="clipPath958-36">
      <path
         style="opacity:1;fill:#fbeb83;fill-opacity:1;stroke:none;stroke-width:6.00000048;stroke-linecap:butt;stroke-miterlimit:4;stroke-dasharray:none;stroke-opacity:1"
         id="path960-7"
         sodipodi:type="arc"
         sodipodi:cx="65.5"
         sodipodi:cy="107"
         sodipodi:rx="9"
         sodipodi:ry="9"
         sodipodi:start="0"
         sodipodi:end="6.2808815"
         sodipodi:open="true"
         d="m 74.5,107 a 9,9 0 0 1 -8.994816,9 9,9 0 0 1 -9.005178,-8.98963 9,9 0 0 1 8.984443,-9.010357 9,9 0 0 1 9.015527,8.979257" />
    </clipPath>
    <clipPath
       clipPathUnits="userSpaceOnUse"
       id="clipPath958-7">
      <path
         style="opacity:1;fill:#fbeb83;fill-opacity:1;stroke:none;stroke-width:6.00000048;stroke-linecap:butt;stroke-miterlimit:4;stroke-dasharray:none;stroke-opacity:1"
         id="path960-0"
         sodipodi:type="arc"
         sodipodi:cx="65.5"
         sodipodi:cy="107"
         sodipodi:rx="9"
         sodipodi:ry="9"
         sodipodi:start="0"
         sodipodi:end="6.2808815"
         sodipodi:open="true"
         d="m 74.5,107 a 9,9 0 0 1 -8.994816,9 9,9 0 0 1 -9.005178,-8.98963 9,9 0 0 1 8.984443,-9.010357 9,9 0 0 1 9.015527,8.979257" />
    </clipPath>
    <clipPath
       clipPathUnits="userSpaceOnUse"
       id="clipPath1114-93">
      <rect
         style="opacity:0.40400002;fill:#fcf4c0;fill-opacity:1;stroke:none;stroke-width:0.1;stroke-linecap:butt;stroke-miterlimit:4;stroke-dasharray:none;stroke-opacity:1"
         id="rect1116-6"
         width="48"
         height="88"
         x="-4"
         y="-184" />
    </clipPath>
    <filter
       inkscape:collect="always"
       style="color-interpolation-filters:sRGB"
       id="filter968"
       x="-0.066696971"
       width="1.1333939"
       y="-0.066696971"
       height="1.1333939">
      <feGaussianBlur
         inkscape:collect="always"
         stdDeviation="0.50022728"
         id="feGaussianBlur970" />
    </filter>
    <filter
       inkscape:collect="always"
       style="color-interpolation-filters:sRGB"
       id="filter972"
       x="-0.066696971"
       width="1.1333939"
       y="-0.066696971"
       height="1.1333939">
      <feGaussianBlur
         inkscape:collect="always"
         stdDeviation="0.50022728"
         id="feGaussianBlur974" />
    </filter>
    <filter
       inkscape:collect="always"
       style="color-interpolation-filters:sRGB"
       id="filter976"
       x="-0.012505682"
       width="1.0250114"
       y="-0.013627076"
       height="1.0272542">
      <feGaussianBlur
         inkscape:collect="always"
         stdDeviation="0.50022728"
         id="feGaussianBlur978" />
    </filter>
    <linearGradient
       inkscape:collect="always"
       xlink:href="#linearGradient882"
       id="linearGradient884"
       x1="61.780254"
       y1="55.959087"
       x2="127.29436"
       y2="55.959087"
       gradientUnits="userSpaceOnUse"
       gradientTransform="translate(-40)" />
  </defs>
  <metadata
     id="metadata4">
    <rdf:RDF>
      <cc:Work
         rdf:about="">
        <dc:format>image/svg+xml</dc:format>
        <dc:type
           rdf:resource="http://purl.org/dc/dcmitype/StillImage" />
        <dc:creator>
          <cc:Agent>
            <dc:title>GNOME Design Team</dc:title>
          </cc:Agent>
        </dc:creator>
        <dc:source />
        <cc:license
           rdf:resource="http://creativecommons.org/licenses/by-sa/4.0/" />
        <dc:title>Adwaita Icon Template</dc:title>
        <dc:subject>
          <rdf:Bag />
        </dc:subject>
        <dc:date />
        <dc:rights>
          <cc:Agent>
            <dc:title />
          </cc:Agent>
        </dc:rights>
        <dc:publisher>
          <cc:Agent>
            <dc:title />
          </cc:Agent>
        </dc:publisher>
        <dc:identifier />
        <dc:relation />
        <dc:language />
        <dc:coverage />
        <dc:description />
        <dc:contributor>
          <cc:Agent>
            <dc:title />
          </cc:Agent>
        </dc:contributor>
      </cc:Work>
      <cc:License
         rdf:about="http://creativecommons.org/licenses/by-sa/4.0/">
        <cc:permits
           rdf:resource="http://creativecommons.org/ns#Reproduction" />
        <cc:permits
           rdf:resource="http://creativecommons.org/ns#Distribution" />
        <cc:requires
           rdf:resource="http://creativecommons.org/ns#Notice" />
        <cc:requires
           rdf:resource="http://creativecommons.org/ns#Attribution" />
        <cc:permits
           rdf:resource="http://creativecommons.org/ns#DerivativeWorks" />
        <cc:requires
           rdf:resource="http://creativecommons.org/ns#ShareAlike" />
      </cc:License>
    </rdf:RDF>
  </metadata>
  <path
     style="display:inline;opacity:0.4;fill:#ad7702;fill-opacity:1;stroke:none;stroke-width:6.00000048;stroke-linecap:butt;stroke-miterlimit:4;stroke-dasharray:none;stroke-opacity:1;enable-background:new;filter:url(#filter972)"
     id="path2024-0"
     sodipodi:type="arc"
     sodipodi:cx="65.5"
     sodipodi:cy="106.99998"
     sodipodi:rx="9"
     sodipodi:ry="9"
     sodipodi:start="0"
     sodipodi:end="6.2808815"
     sodipodi:open="true"
     d="m 74.5,106.99998 a 9,9 0 0 1 -8.994816,9 9,9 0 0 1 -9.005178,-8.98964 9,9 0 0 1 8.984443,-9.010349 9,9 0 0 1 9.015527,8.979249" />
  <path
     inkscape:connector-curvature="0"
     d="m 64,11.909086 c -17.673119,0 -26.64104,12.013637 -31.999999,32.036364 l -8,40.045456 c -0.86648,4.337403 -3.58176,8.00909 -8,8.00909 v 8.009094 H 112 v -8.009094 c -4.41833,0 -7.13353,-3.671687 -8,-8.00909 L 96,43.94545 C 91.757361,23.922723 81.673121,11.909086 64,11.909086 Z"
     id="path40220-6"
     sodipodi:nodetypes="ccsccccscc"
     style="display:inline;opacity:0.4;fill:#ad7702;fill-opacity:1;stroke:none;stroke-width:8.0045433;stroke-linecap:butt;stroke-linejoin:miter;stroke-miterlimit:4;stroke-dasharray:none;stroke-dashoffset:0;stroke-opacity:1;marker:none;paint-order:normal;enable-background:new;filter:url(#filter976)" />
  <path
     transform="translate(2.499981,-0.0230415)"
     style="display:inline;opacity:0.4;fill:#ad7702;fill-opacity:1;stroke:none;stroke-width:1.20000005;stroke-linecap:butt;stroke-miterlimit:4;stroke-dasharray:none;stroke-opacity:1;enable-background:new;filter:url(#filter968)"
     id="path2024-3-1"
     sodipodi:type="arc"
     sodipodi:cx="63.000023"
     sodipodi:cy="107.02304"
     sodipodi:rx="9"
     sodipodi:ry="9"
     sodipodi:start="0"
     sodipodi:end="6.2808815"
     sodipodi:open="true"
     d="m 72.000023,107.02304 a 9,9 0 0 1 -8.994817,9 9,9 0 0 1 -9.005177,-8.98963 9,9 0 0 1 8.984443,-9.010356 9,9 0 0 1 9.015527,8.979256"
     clip-path="url(#clipPath958-7)" />
  <g
     transform="translate(0,-170)"
     id="g1063" />
  <rect
     style="opacity:1;fill:#00aade;fill-opacity:1;stroke:none;stroke-width:1;stroke-linecap:butt;stroke-miterlimit:4;stroke-dasharray:none;stroke-opacity:1"
     id="rect1260"
     width="0"
     height="0"
     x="0"
     y="0" />
  <g
     id="g874"
     transform="matrix(1.5,0,0,1.5,-28.101905,43.589436)" />
  <path
     style="opacity:1;fill:#fbeb83;fill-opacity:1;stroke:none;stroke-width:6.00000048;stroke-linecap:butt;stroke-miterlimit:4;stroke-dasharray:none;stroke-opacity:1"
     id="path2024"
     sodipodi:type="arc"
     sodipodi:cx="65.5"
     sodipodi:cy="107"
     sodipodi:rx="9"
     sodipodi:ry="9"
     sodipodi:start="0"
     sodipodi:end="6.2808815"
     sodipodi:open="true"
     d="m 74.5,107 a 9,9 0 0 1 -8.994816,9 9,9 0 0 1 -9.005178,-8.98963 9,9 0 0 1 8.984443,-9.010357 9,9 0 0 1 9.015527,8.979257" />
  <path
     inkscape:connector-curvature="0"
     d="m 44,-184 c -17.673119,0 -26.64104,12.01364 -31.999999,32.03636 l -8.000002,40.04546 c -0.866479,4.3374 -3.58176,8.00909 -8,8.00909 v 8.009091 H 92 v -8.009091 c -4.41833,0 -7.13353,-3.67169 -8,-8.00909 l -8,-40.04546 C 71.757361,-171.98636 61.673121,-184 44,-184 Z"
     id="path40220-0"
     sodipodi:nodetypes="ccsccccscc"
     style="display:inline;opacity:1;fill:#fcf4c0;fill-opacity:1;stroke:none;stroke-width:8.0045433;stroke-linecap:butt;stroke-linejoin:miter;stroke-miterlimit:4;stroke-dasharray:none;stroke-dashoffset:0;stroke-opacity:1;marker:none;paint-order:normal;enable-background:new"
     clip-path="url(#clipPath1114)"
     transform="translate(19.999999,195.96364)" />
  <path
     style="fill:#f9da02;stroke:#000000;stroke-width:1px;stroke-linecap:butt;stroke-linejoin:miter;stroke-opacity:1"
     d="m 128,40 v 0"
     id="path2086"
     inkscape:connector-curvature="0" />
  <path
     transform="translate(2.4999771,-0.02304077)"
     style="display:inline;opacity:1;fill:#f9da02;fill-opacity:1;stroke:none;stroke-width:1.20000005;stroke-linecap:butt;stroke-miterlimit:4;stroke-dasharray:none;stroke-opacity:1;enable-background:new"
     id="path2024-3"
     sodipodi:type="arc"
     sodipodi:cx="63.000023"
     sodipodi:cy="107.02304"
     sodipodi:rx="9"
     sodipodi:ry="9"
     sodipodi:start="0"
     sodipodi:end="6.2808815"
     sodipodi:open="true"
     d="m 72.000023,107.02304 a 9,9 0 0 1 -8.994817,9 9,9 0 0 1 -9.005177,-8.98963 9,9 0 0 1 8.984443,-9.010356 9,9 0 0 1 9.015527,8.979256"
     clip-path="url(#clipPath958)" />
  <path
     style="display:inline;opacity:1;fill:url(#linearGradient884);fill-opacity:1;stroke:#000000;stroke-width:0.005;stroke-linecap:butt;stroke-linejoin:miter;stroke-miterlimit:4;stroke-dasharray:none;stroke-dashoffset:0;stroke-opacity:1;marker:none;paint-order:normal;enable-background:new"
     sodipodi:nodetypes="ccsccccscc"
     id="path872"
     d="m 64,11.909086 c -17.673119,0 -26.64104,12.013637 -31.999999,32.036364 l -8.000002,40.045456 c -0.866479,4.337403 -3.58176,8.00909 -8,8.00909 v 8.009094 H 112 v -8.009094 c -4.41833,0 -7.13353,-3.671687 -8,-8.00909 L 96,43.94545 C 91.75736,23.922723 81.67312,11.909086 64,11.909086 Z"
     inkscape:connector-curvature="0" />
  <path
     style="display:inline;opacity:1;fill:#dcb102;fill-opacity:1;stroke:#dcb102;stroke-width:4.5;stroke-linecap:butt;stroke-miterlimit:4;stroke-dasharray:none;stroke-opacity:1;enable-background:new"
     id="path2024-36"
     sodipodi:type="arc"
     sodipodi:cx="65.500023"
     sodipodi:cy="107.01728"
     sodipodi:rx="6.75"
     sodipodi:ry="6.75"
     sodipodi:start="0"
     sodipodi:end="6.2808815"
     sodipodi:open="true"
     d="m 72.250023,107.01728 a 6.75,6.75 0 0 1 -6.746112,6.75 6.75,6.75 0 0 1 -6.753884,-6.74222 6.75,6.75 0 0 1 6.738333,-6.75777 6.75,6.75 0 0 1 6.761645,6.73444"
     clip-path="url(#clipPath1058-0)" />
  <path
     inkscape:connector-curvature="0"
     d="m 44,-184 c -17.673119,0 -26.64104,12.01364 -31.999999,32.03636 l -8.000002,40.04546 c -0.866479,4.3374 -3.58176,8.00909 -8,8.00909 v 8.009091 H 92 v -8.009091 c -4.41833,0 -7.13353,-3.67169 -8,-8.00909 l -8,-40.04546 C 71.757361,-171.98636 61.673121,-184 44,-184 Z"
     id="path40220-0-6-7"
     sodipodi:nodetypes="ccsccccscc"
     style="display:inline;opacity:1;fill:#ad7702;fill-opacity:1;stroke:none;stroke-width:8.0045433;stroke-linecap:butt;stroke-linejoin:miter;stroke-miterlimit:4;stroke-dasharray:none;stroke-dashoffset:0;stroke-opacity:1;marker:none;paint-order:normal;enable-background:new"
     clip-path="url(#clipPath1141-1)"
     transform="matrix(-1,0,0,1,108,195.90909)" />
  <path
     inkscape:connector-curvature="0"
     d="m 44,-184 c -17.673119,0 -26.64104,12.01364 -31.999999,32.03636 l -8.000002,40.04546 c -0.866479,4.3374 -3.58176,8.00909 -8,8.00909 v 8.009091 H 92 v -8.009091 c -4.41833,0 -7.13353,-3.67169 -8,-8.00909 l -8,-40.04546 C 71.757361,-171.98636 61.673121,-184 44,-184 Z"
     id="path40220-0-6"
     sodipodi:nodetypes="ccsccccscc"
     style="display:inline;opacity:1;fill:#ad7702;fill-opacity:1;stroke:none;stroke-width:8.0045433;stroke-linecap:butt;stroke-linejoin:miter;stroke-miterlimit:4;stroke-dasharray:none;stroke-dashoffset:0;stroke-opacity:1;marker:none;paint-order:normal;enable-background:new"
     clip-path="url(#clipPath1141)"
     transform="translate(28,195.90909)" />
  <path
     style="display:inline;opacity:0.632;fill:#fbeb83;fill-opacity:1;stroke:#000000;stroke-width:0.005;stroke-linecap:butt;stroke-linejoin:miter;stroke-miterlimit:4;stroke-dasharray:none;stroke-dashoffset:0;stroke-opacity:1;marker:none;paint-order:normal;enable-background:new"
     d="m 64,11.908203 c -17.673119,0 -26.641041,12.014382 -32,32.037109 L 24,83.990234 C 23.133521,88.327637 20.41824,92 16,92 v 0.05469 c 4.41824,0 15.133505,-3.672366 16,-8.009766 L 40,44 c 5.358959,-20.02272 13.161049,-32.037109 24,-32.037109 0,0 18.434678,0.42614 0,-0.05469 z"
     id="path40220"
     inkscape:connector-curvature="0"
     sodipodi:nodetypes="cccccccccc" />
  <path
     inkscape:connector-curvature="0"
     d="m 44,-184 c -17.673119,0 -26.64104,12.01364 -31.999999,32.03636 l -8.000002,40.04546 c -0.866479,4.3374 -3.58176,8.00909 -8,8.00909 v 8.009091 H 92 v -8.009091 c -4.41833,0 -7.13353,-3.67169 -8,-8.00909 l -8,-40.04546 C 71.757361,-171.98636 61.673121,-184 44,-184 Z"
     id="path40220-0-6-5"
     sodipodi:nodetypes="ccsccccscc"
     style="display:inline;opacity:1;fill:url(#linearGradient909);fill-opacity:1;stroke:none;stroke-width:8.0045433;stroke-linecap:butt;stroke-linejoin:miter;stroke-miterlimit:4;stroke-dasharray:none;stroke-dashoffset:0;stroke-opacity:1;marker:none;paint-order:normal;enable-background:new"
     clip-path="url(#clipPath1141-3)"
     transform="translate(20,195.90909)" />
</svg>
