<?xml version="1.0" encoding="UTF-8" standalone="no"?>
<svg
   xmlns:dc="http://purl.org/dc/elements/1.1/"
   xmlns:cc="http://creativecommons.org/ns#"
   xmlns:rdf="http://www.w3.org/1999/02/22-rdf-syntax-ns#"
   xmlns:svg="http://www.w3.org/2000/svg"
   xmlns="http://www.w3.org/2000/svg"
   xmlns:xlink="http://www.w3.org/1999/xlink"
   xmlns:sodipodi="http://sodipodi.sourceforge.net/DTD/sodipodi-0.dtd"
   xmlns:inkscape="http://www.inkscape.org/namespaces/inkscape"
   height="128"
   width="128"
   version="1.1"
   id="svg18"
   sodipodi:docname="org.xfce.screenshooter.svg"
   inkscape:version="0.92.4 (5da689c313, 2019-01-14)">
  <metadata
     id="metadata24">
    <rdf:RDF>
      <cc:Work
         rdf:about="">
        <dc:format>image/svg+xml</dc:format>
        <dc:type
           rdf:resource="http://purl.org/dc/dcmitype/StillImage" />
        <dc:title />
      </cc:Work>
    </rdf:RDF>
  </metadata>
  <defs
     id="defs22">
    <linearGradient
       id="linearGradient948"
       inkscape:collect="always">
      <stop
         id="stop944"
         offset="0"
         style="stop-color:#d2d8dc;stop-opacity:1" />
      <stop
         id="stop946"
         offset="1"
         style="stop-color:#758087;stop-opacity:1" />
    </linearGradient>
    <linearGradient
       inkscape:collect="always"
       xlink:href="#linearGradient948"
       id="linearGradient942"
       gradientUnits="userSpaceOnUse"
       x1="1118.7346"
       y1="283.53955"
       x2="1118.7346"
       y2="233.40434" />
    <linearGradient
       id="linearGradient9567">
      <stop
         style="stop-color:#204a87;stop-opacity:1"
         offset="0"
         id="stop9569" />
      <stop
         style="stop-color:#081527;stop-opacity:0.99"
         offset="1"
         id="stop9571" />
    </linearGradient>
  </defs>
  <sodipodi:namedview
     pagecolor="#ffffff"
     bordercolor="#666666"
     borderopacity="1"
     objecttolerance="10"
     gridtolerance="10"
     guidetolerance="10"
     inkscape:pageopacity="0"
     inkscape:pageshadow="2"
     inkscape:window-width="1920"
     inkscape:window-height="1019"
     id="namedview20"
     showgrid="true"
     inkscape:zoom="8.0000002"
     inkscape:cx="47.74742"
     inkscape:cy="49.147424"
     inkscape:window-x="0"
     inkscape:window-y="0"
     inkscape:window-maximized="1"
     inkscape:current-layer="g16"
     showguides="false"
     inkscape:guide-bbox="true"
     inkscape:pagecheckerboard="false">
    <sodipodi:guide
       position="-32.300885,140.26549"
       orientation="0,1"
       id="guide1036"
       inkscape:locked="false" />
    <inkscape:grid
       type="xygrid"
       id="grid841"
       empspacing="4" />
    <sodipodi:guide
       position="-31.532847,112.9927"
       orientation="1,0"
       id="guide895"
       inkscape:locked="false" />
  </sodipodi:namedview>
  <g
     id="g16"
     style="stroke-width:4">
    <path
       transform="matrix(0.29272427,0,0,0.25983253,-262.68029,36.117737)"
       sodipodi:type="inkscape:offset"
       inkscape:radius="27.15708"
       inkscape:original="M 1084 88.28125 L 1068 280.28125 L 1116 280.28125 L 1164 280.28125 L 1148 88.28125 L 1116 88.28125 L 1084 88.28125 z "
       style="display:inline;opacity:1;fill:#a7b0b7;fill-opacity:1;stroke:none;stroke-width:20;stroke-linecap:square;stroke-linejoin:miter;stroke-miterlimit:4;stroke-dasharray:none;stroke-dashoffset:0;stroke-opacity:1;enable-background:new"
       id="rect2101-7"
       d="m 1084,61.125 a 27.159795,27.159795 0 0 0 -27.0625,24.900391 l -16,191.999999 A 27.159795,27.159795 0 0 0 1068,307.4375 h 48 48 a 27.159795,27.159795 0 0 0 27.0625,-29.41211 l -16,-191.999999 A 27.159795,27.159795 0 0 0 1148,61.125 h -32 z" />
    <path
       transform="matrix(0.29272427,0,0,0.25983253,-262.68029,34.117737)"
       sodipodi:type="inkscape:offset"
       inkscape:radius="27.15708"
       inkscape:original="M 1084 88.28125 L 1068 280.28125 L 1116 280.28125 L 1164 280.28125 L 1148 88.28125 L 1116 88.28125 L 1084 88.28125 z "
       style="display:inline;opacity:1;fill:url(#linearGradient942);fill-opacity:1;stroke:none;stroke-width:20;stroke-linecap:square;stroke-linejoin:miter;stroke-miterlimit:4;stroke-dasharray:none;stroke-dashoffset:0;stroke-opacity:1;enable-background:new"
       id="rect2101"
       d="m 1084,61.125 a 27.159795,27.159795 0 0 0 -27.0625,24.900391 l -16,191.999999 A 27.159795,27.159795 0 0 0 1068,307.4375 h 48 48 a 27.159795,27.159795 0 0 0 27.0625,-29.41211 l -16,-191.999999 A 27.159795,27.159795 0 0 0 1148,61.125 h -32 z" />
    <path
       d="m 44.457421,158 c -1.353324,0 -2.442822,1.984 -2.442822,4.444 v 11.112 c 0,2.46 1.089498,4.444 2.442822,4.444 h 39.085158 c 1.353324,0 2.442822,-1.984 2.442822,-4.444 V 162.44 c 0,-2.46 -1.089498,-4.444 -2.442822,-4.444 z"
       id="path2"
       style="fill:#d2d8dc;fill-opacity:1;stroke-width:3.12590623"
       inkscape:connector-curvature="0" />
    <path
       d="m 44.457421,160 c -1.353324,0 -2.442822,1.984 -2.442822,4.444 v 11.112 c 0,2.46 1.089498,4.444 2.442822,4.444 h 39.085158 c 1.353324,0 2.442822,-1.984 2.442822,-4.444 V 164.44 c 0,-2.46 -1.089498,-4.444 -2.442822,-4.444 z"
       id="path4"
       style="fill:#f1f3f5;fill-opacity:1;stroke-width:3.12590623"
       inkscape:connector-curvature="0" />
    <path
       d="M 12,16 C 9.784,16 8,17.7823 8,20.0014 V 89.9986 A 4.04,3.939 0 0 0 12,94 h 104 c 2.216,0 4,-1.7862 4,-4.0014 V 20.0014 A 4.04,3.939 0 0 0 116,16 Z"
       id="path6"
       style="fill:#bcc5ca;fill-opacity:1;stroke-width:3.94968367"
       inkscape:connector-curvature="0" />
    <path
       d="m 12,12 c -2.216,0 -4,1.784 -4,4 v 72 c 0,2.216 1.784,4 4,4 h 104 c 2.216,0 4,-1.784 4,-4 V 16 c 0,-2.216 -1.784,-4 -4,-4 z"
       id="path8"
       style="fill:#d1d7db;fill-opacity:1"
       inkscape:connector-curvature="0" />
    <path
       d="M 11,15 H 117 V 89 H 11 Z"
       id="path10"
       style="fill:#344958;fill-opacity:1;stroke-width:4.09398079"
       inkscape:connector-curvature="0" />
    <path
       d="M 14,18 H 114 V 86 H 14 Z"
       id="path12"
       style="fill:#00aade;fill-opacity:1;stroke-width:4.20812702"
       inkscape:connector-curvature="0" />
    <g
       style="display:inline;stroke-width:4;enable-background:new"
       id="g6544"
       inkscape:label="edit-cut"
       transform="rotate(-90,338.73539,245.28587)">
      <rect
         style="color:#bebebe;display:inline;overflow:visible;visibility:visible;fill:none;stroke:none;stroke-width:1;marker:none;enable-background:new"
         id="rect6478"
         y="-39.006721"
         x="525.00061"
         height="16"
         width="16" />
    </g>
    <rect
       style="opacity:1;fill:#c1ebf7;fill-opacity:1;stroke:#c1ebf7;stroke-width:1.86819625;stroke-linecap:butt;stroke-miterlimit:4;stroke-dasharray:none;stroke-dashoffset:0;stroke-opacity:1"
       id="rect903"
       width="6.131804"
       height="0.13180383"
       x="25.164869"
       y="26.923889" />
    <rect
       style="opacity:1;fill:#c1ebf7;fill-opacity:1;stroke:#c1ebf7;stroke-width:1.86819625;stroke-linecap:butt;stroke-miterlimit:4;stroke-dasharray:none;stroke-dashoffset:0;stroke-opacity:1"
       id="rect903-3"
       width="6.131804"
       height="0.13180383"
       x="37.164875"
       y="26.923885" />
    <rect
       style="opacity:1;fill:#c1ebf7;fill-opacity:1;stroke:#c1ebf7;stroke-width:1.86819625;stroke-linecap:butt;stroke-miterlimit:4;stroke-dasharray:none;stroke-dashoffset:0;stroke-opacity:1"
       id="rect903-6"
       width="6.131804"
       height="0.13180383"
       x="49.164875"
       y="26.923889" />
    <rect
       style="opacity:1;fill:#c1ebf7;fill-opacity:1;stroke:#c1ebf7;stroke-width:1.86819625;stroke-linecap:butt;stroke-miterlimit:4;stroke-dasharray:none;stroke-dashoffset:0;stroke-opacity:1"
       id="rect903-7"
       width="6.131804"
       height="0.13180383"
       x="61.164875"
       y="26.923889" />
    <rect
       style="opacity:1;fill:#c1ebf7;fill-opacity:1;stroke:#c1ebf7;stroke-width:1.86819625;stroke-linecap:butt;stroke-miterlimit:4;stroke-dasharray:none;stroke-dashoffset:0;stroke-opacity:1"
       id="rect903-5"
       width="6.131804"
       height="0.13180383"
       x="73.164879"
       y="26.923889" />
    <rect
       style="opacity:1;fill:#c1ebf7;fill-opacity:1;stroke:#c1ebf7;stroke-width:1.86819625;stroke-linecap:butt;stroke-miterlimit:4;stroke-dasharray:none;stroke-dashoffset:0;stroke-opacity:1"
       id="rect903-5-6"
       width="6.131804"
       height="0.13180383"
       x="85.164879"
       y="26.923885" />
    <rect
       style="opacity:1;fill:#c1ebf7;fill-opacity:1;stroke:#c1ebf7;stroke-width:1.86819625;stroke-linecap:butt;stroke-miterlimit:4;stroke-dasharray:none;stroke-dashoffset:0;stroke-opacity:1"
       id="rect903-5-2-9"
       width="6.131804"
       height="0.13180383"
       x="34.92387"
       y="-103.29668"
       transform="rotate(90)" />
    <rect
       style="opacity:1;fill:#c1ebf7;fill-opacity:1;stroke:#c1ebf7;stroke-width:1.86819625;stroke-linecap:butt;stroke-miterlimit:4;stroke-dasharray:none;stroke-dashoffset:0;stroke-opacity:1"
       id="rect903-5-2-1"
       width="6.131804"
       height="0.13180383"
       x="46.92387"
       y="-103.29668"
       transform="rotate(90)" />
    <rect
       style="opacity:1;fill:#c1ebf7;fill-opacity:1;stroke:#c1ebf7;stroke-width:1.86819625;stroke-linecap:butt;stroke-miterlimit:4;stroke-dasharray:none;stroke-dashoffset:0;stroke-opacity:1"
       id="rect903-5-2-2"
       width="6.131804"
       height="0.13180383"
       x="58.92387"
       y="-103.29668"
       transform="rotate(90)" />
    <rect
       style="opacity:1;fill:#c1ebf7;fill-opacity:1;stroke:#c1ebf7;stroke-width:1.86819625;stroke-linecap:butt;stroke-miterlimit:4;stroke-dasharray:none;stroke-dashoffset:0;stroke-opacity:1"
       id="rect903-5-2-0"
       width="6.131804"
       height="0.13180383"
       x="26.923885"
       y="-25.296675"
       transform="rotate(90)" />
    <rect
       style="opacity:1;fill:#c1ebf7;fill-opacity:1;stroke:#c1ebf7;stroke-width:1.86819625;stroke-linecap:butt;stroke-miterlimit:4;stroke-dasharray:none;stroke-dashoffset:0;stroke-opacity:1"
       id="rect903-5-2-93"
       width="6.131804"
       height="0.13180383"
       x="38.92387"
       y="-25.296675"
       transform="rotate(90)" />
    <rect
       style="opacity:1;fill:#c1ebf7;fill-opacity:1;stroke:#c1ebf7;stroke-width:1.86819625;stroke-linecap:butt;stroke-miterlimit:4;stroke-dasharray:none;stroke-dashoffset:0;stroke-opacity:1"
       id="rect903-5-2-6"
       width="6.131804"
       height="0.13180383"
       x="50.92387"
       y="-25.296675"
       transform="rotate(90)" />
    <rect
       style="opacity:1;fill:#c1ebf7;fill-opacity:1;stroke:#c1ebf7;stroke-width:1.86819625;stroke-linecap:butt;stroke-miterlimit:4;stroke-dasharray:none;stroke-dashoffset:0;stroke-opacity:1"
       id="rect903-5-2-06"
       width="6.131804"
       height="0.13180383"
       x="62.92387"
       y="-25.296675"
       transform="rotate(90)" />
    <rect
       style="opacity:1;fill:#c1ebf7;fill-opacity:1;stroke:#c1ebf7;stroke-width:1.86819625;stroke-linecap:butt;stroke-miterlimit:4;stroke-dasharray:none;stroke-dashoffset:0;stroke-opacity:1"
       id="rect903-5-2-7-8"
       width="6.131804"
       height="0.13180383"
       x="-43.29668"
       y="-77.055679"
       transform="scale(-1)" />
    <rect
       style="opacity:1;fill:#c1ebf7;fill-opacity:1;stroke:#c1ebf7;stroke-width:1.86819625;stroke-linecap:butt;stroke-miterlimit:4;stroke-dasharray:none;stroke-dashoffset:0;stroke-opacity:1"
       id="rect903-5-2-7-7"
       width="6.131804"
       height="0.13180383"
       x="-91.296684"
       y="-77.055679"
       transform="scale(-1)" />
    <rect
       style="opacity:1;fill:#c1ebf7;fill-opacity:1;stroke:#c1ebf7;stroke-width:1.86819625;stroke-linecap:butt;stroke-miterlimit:4;stroke-dasharray:none;stroke-dashoffset:0;stroke-opacity:1"
       id="rect903-5-2-7-9"
       width="6.131804"
       height="0.13180383"
       x="-55.29668"
       y="-77.055679"
       transform="scale(-1)" />
    <rect
       style="opacity:1;fill:#c1ebf7;fill-opacity:1;stroke:#c1ebf7;stroke-width:1.86819625;stroke-linecap:butt;stroke-miterlimit:4;stroke-dasharray:none;stroke-dashoffset:0;stroke-opacity:1"
       id="rect903-5-2-7-2"
       width="6.131804"
       height="0.13180383"
       x="-67.296684"
       y="-77.055679"
       transform="scale(-1)" />
    <rect
       style="opacity:1;fill:#c1ebf7;fill-opacity:1;stroke:#c1ebf7;stroke-width:1.86819625;stroke-linecap:butt;stroke-miterlimit:4;stroke-dasharray:none;stroke-dashoffset:0;stroke-opacity:1"
       id="rect903-5-2-7-0"
       width="6.131804"
       height="0.13180383"
       x="-79.296684"
       y="-77.055679"
       transform="scale(-1)" />
    <rect
       style="opacity:1;fill:#c1ebf7;fill-opacity:1;stroke:#c1ebf7;stroke-width:1.86819625;stroke-linecap:butt;stroke-miterlimit:4;stroke-dasharray:none;stroke-dashoffset:0;stroke-opacity:1"
       id="rect903-5-2-26-7"
       width="6.131804"
       height="0.13180383"
       x="97.164879"
       y="26.923885" />
    <rect
       style="opacity:1;fill:#c1ebf7;fill-opacity:1;stroke:#c1ebf7;stroke-width:1.70614314;stroke-linecap:butt;stroke-miterlimit:4;stroke-dasharray:none;stroke-dashoffset:0;stroke-opacity:1"
       id="rect903-5-2-7-1-5"
       width="2.2938569"
       height="0.29385692"
       x="26.842857"
       y="-103.37772"
       transform="rotate(90)" />
    <rect
       style="opacity:1;fill:#c1ebf7;fill-opacity:1;stroke:#c1ebf7;stroke-width:1.86819625;stroke-linecap:butt;stroke-miterlimit:4;stroke-dasharray:none;stroke-dashoffset:0;stroke-opacity:1"
       id="rect903-9"
       width="6.131804"
       height="0.13180383"
       x="70.923874"
       y="-103.29668"
       transform="rotate(90)" />
    <rect
       style="opacity:1;fill:#c1ebf7;fill-opacity:1;stroke:#c1ebf7;stroke-width:1.81718874;stroke-linecap:butt;stroke-miterlimit:4;stroke-dasharray:none;stroke-dashoffset:0;stroke-opacity:1"
       id="rect903-5-2-0-2"
       width="4.1828113"
       height="0.18281132"
       x="-103.32219"
       y="-77.081192"
       transform="scale(-1)" />
    <rect
       style="opacity:1;fill:#c1ebf7;fill-opacity:1;stroke:#c1ebf7;stroke-width:1.86819625;stroke-linecap:butt;stroke-miterlimit:4;stroke-dasharray:none;stroke-dashoffset:0;stroke-opacity:1"
       id="rect903-5-2-26-7-2"
       width="6.131804"
       height="0.13180383"
       x="25.164885"
       y="77.011017" />
    <rect
       style="opacity:1;fill:#c1ebf7;fill-opacity:1;stroke:#c1ebf7;stroke-width:1.70614314;stroke-linecap:butt;stroke-miterlimit:4;stroke-dasharray:none;stroke-dashoffset:0;stroke-opacity:1"
       id="rect903-5-2-7-1-5-8"
       width="2.2938569"
       height="0.29385692"
       x="74.929993"
       y="-25.377701"
       transform="rotate(90)" />
    <path
       id="rect6492"
       d="m 48.23077,61.923059 c 0,3.398667 2.755175,6.153849 6.153847,6.153849 3.398669,0 6.153845,-2.755182 6.153845,-6.153849 0,-1.098043 -0.342203,-2.107519 -0.846155,-3 l 4.538463,-4.846152 4.538463,4.846152 c -0.503952,0.892481 -0.846155,1.901957 -0.846155,3 0,3.398667 2.755176,6.153849 6.153845,6.153849 3.398672,0 6.153847,-2.755182 6.153847,-6.153849 0,-3.398683 -2.755175,-6.153849 -6.153847,-6.153849 -0.564083,0 -1.096393,0.08872 -1.615383,0.230649 L 67.384617,50.769085 77.769233,39.769212 V 36.076908 H 75.307692 L 56,56 c -0.518989,-0.142222 -1.0513,-0.230666 -1.615383,-0.230666 -3.398672,0 -6.153847,2.755184 -6.153847,6.153867 z m 3.692308,0 c 0,-1.359448 1.102082,-2.461528 2.461539,-2.461528 1.359459,0 2.461538,1.10208 2.461538,2.461528 0,1.359466 -1.102079,2.461547 -2.461538,2.461547 -1.359457,0 -2.461539,-1.102081 -2.461539,-2.461547 z m -1.230771,-22.153847 9.153849,9.692319 3.153845,-3.230774 -9.846153,-10.153849 h -2.461541 z m 20.923078,22.153847 c 0,-1.359448 1.102079,-2.461528 2.461538,-2.461528 1.359457,0 2.461539,1.10208 2.461539,2.461528 0,1.359466 -1.102082,2.461547 -2.461539,2.461547 -1.359459,0 -2.461538,-1.102081 -2.461538,-2.461547 z"
       style="color:#000000;clip-rule:nonzero;display:inline;overflow:visible;visibility:visible;opacity:1;isolation:auto;mix-blend-mode:normal;color-interpolation:sRGB;color-interpolation-filters:linearRGB;solid-color:#000000;solid-opacity:1;fill:#003445;fill-opacity:1;fill-rule:nonzero;stroke:none;stroke-width:2.46153831;stroke-linecap:butt;stroke-linejoin:miter;stroke-miterlimit:4;stroke-dasharray:none;stroke-dashoffset:0;stroke-opacity:1;color-rendering:auto;image-rendering:auto;shape-rendering:auto;text-rendering:auto;enable-background:accumulate"
       inkscape:connector-curvature="0"
       sodipodi:nodetypes="csscccssssccccccsccsssssccccccsssss" />
  </g>
</svg>
