<?xml version="1.0" encoding="UTF-8" standalone="no"?>
<!-- Created with Inkscape (http://www.inkscape.org/) -->

<svg
   xmlns:dc="http://purl.org/dc/elements/1.1/"
   xmlns:cc="http://creativecommons.org/ns#"
   xmlns:rdf="http://www.w3.org/1999/02/22-rdf-syntax-ns#"
   xmlns:svg="http://www.w3.org/2000/svg"
   xmlns="http://www.w3.org/2000/svg"
   xmlns:sodipodi="http://sodipodi.sourceforge.net/DTD/sodipodi-0.dtd"
   xmlns:inkscape="http://www.inkscape.org/namespaces/inkscape"
   width="128"
   height="128"
   viewBox="0 0 33.866666 33.866668"
   version="1.1"
   id="svg1260"
   inkscape:version="0.92.2 5c3e80d, 2017-08-06"
   sodipodi:docname="org.xfce.settings.color.svg"
   inkscape:export-filename="/home/mau/GIT/xfce4-settings/icons/128x128/org.xfce.settings.color.png"
   inkscape:export-xdpi="96"
   inkscape:export-ydpi="96">
  <defs
     id="defs1254" />
  <sodipodi:namedview
     id="base"
     pagecolor="#ffffff"
     bordercolor="#666666"
     borderopacity="1.0"
     inkscape:pageopacity="0.0"
     inkscape:pageshadow="2"
     inkscape:zoom="2"
     inkscape:cx="-62.295809"
     inkscape:cy="-18.263084"
     inkscape:document-units="mm"
     inkscape:current-layer="layer1"
     showgrid="true"
     units="px"
     inkscape:window-width="1920"
     inkscape:window-height="1023"
     inkscape:window-x="0"
     inkscape:window-y="25"
     inkscape:window-maximized="1">
    <inkscape:grid
       type="xygrid"
       id="grid825"
       dotted="false"
       empspacing="4" />
  </sodipodi:namedview>
  <metadata
     id="metadata1257">
    <rdf:RDF>
      <cc:Work
         rdf:about="">
        <dc:format>image/svg+xml</dc:format>
        <dc:type
           rdf:resource="http://purl.org/dc/dcmitype/StillImage" />
        <dc:title />
      </cc:Work>
    </rdf:RDF>
  </metadata>
  <g
     inkscape:label="Layer 1"
     inkscape:groupmode="layer"
     id="layer1"
     transform="translate(0,-263.13332)">
    <circle
       r="7.4083333"
       cy="275.56873"
       cx="16.940037"
       id="circle1879-36"
       style="opacity:1;vector-effect:none;fill:#c02700;fill-opacity:1;fill-rule:nonzero;stroke:none;stroke-width:0.35924029;stroke-linecap:square;stroke-linejoin:round;stroke-miterlimit:4;stroke-dasharray:none;stroke-dashoffset:0;stroke-opacity:1;paint-order:normal" />
    <circle
       style="opacity:1;vector-effect:none;fill:#e6461d;fill-opacity:1;fill-rule:nonzero;stroke:none;stroke-width:0.35924029;stroke-linecap:square;stroke-linejoin:round;stroke-miterlimit:4;stroke-dasharray:none;stroke-dashoffset:0;stroke-opacity:1;paint-order:normal"
       id="path1251-7"
       cx="16.940037"
       cy="274.77499"
       r="7.4083333" />
    <circle
       r="7.4083333"
       cy="285.62289"
       cx="22.496288"
       id="circle1875-5"
       style="opacity:1;vector-effect:none;fill:#006888;fill-opacity:1;fill-rule:nonzero;stroke:none;stroke-width:0.35924029;stroke-linecap:square;stroke-linejoin:round;stroke-miterlimit:4;stroke-dasharray:none;stroke-dashoffset:0;stroke-opacity:1;paint-order:normal" />
    <circle
       style="opacity:1;vector-effect:none;fill:#52a302;fill-opacity:1;fill-rule:nonzero;stroke:none;stroke-width:0.35924029;stroke-linecap:square;stroke-linejoin:round;stroke-miterlimit:4;stroke-dasharray:none;stroke-dashoffset:0;stroke-opacity:1;paint-order:normal"
       id="circle1877-3"
       cx="11.383789"
       cy="285.62289"
       r="7.4083333" />
    <circle
       r="7.4083333"
       cy="284.82916"
       cx="11.383789"
       id="circle1253-5"
       style="opacity:1;vector-effect:none;fill:#6acc0a;fill-opacity:1;fill-rule:nonzero;stroke:none;stroke-width:0.35924029;stroke-linecap:square;stroke-linejoin:round;stroke-miterlimit:4;stroke-dasharray:none;stroke-dashoffset:0;stroke-opacity:1;paint-order:normal" />
    <circle
       style="opacity:1;vector-effect:none;fill:#00aade;fill-opacity:1;fill-rule:nonzero;stroke:none;stroke-width:0.35924029;stroke-linecap:square;stroke-linejoin:round;stroke-miterlimit:4;stroke-dasharray:none;stroke-dashoffset:0;stroke-opacity:1;paint-order:normal"
       id="circle1255-6"
       cx="22.501202"
       cy="284.85562"
       r="7.4083333" />
    <path
       style="opacity:1;vector-effect:none;fill:#753390;fill-opacity:1;fill-rule:nonzero;stroke:none;stroke-width:0.35282528;stroke-linecap:square;stroke-linejoin:round;stroke-miterlimit:4;stroke-dasharray:none;stroke-dashoffset:0;stroke-opacity:1;paint-order:normal"
       d="m 22.368941,277.43465 c -3.177345,0.004 -5.984925,2.06847 -6.93497,5.10046 0.490335,0.10571 0.990287,0.16044 1.49188,0.1633 3.177356,-0.004 5.936601,-2.1133 6.886649,-5.1453 -0.490345,-0.10571 -0.941956,-0.1156 -1.443559,-0.11846 z"
       id="circle1295-2"
       inkscape:connector-curvature="0"
       sodipodi:nodetypes="ccccc" />
    <path
       style="opacity:1;vector-effect:none;fill:#dcb102;fill-opacity:1;fill-rule:nonzero;stroke:none;stroke-width:0.35282528;stroke-linecap:square;stroke-linejoin:round;stroke-miterlimit:4;stroke-dasharray:none;stroke-dashoffset:0;stroke-opacity:1;paint-order:normal"
       d="m 11.511211,277.42082 c -0.513096,0.001 -0.955646,0.0101 -1.457044,0.11906 0.951591,3.03297 3.692941,5.15778 6.871684,5.15853 0.513096,-0.001 1.024612,-0.0569 1.52601,-0.16588 -0.951591,-3.03297 -3.761907,-5.11096 -6.94065,-5.11171 z"
       id="circle1306-9"
       inkscape:connector-curvature="0"
       sodipodi:nodetypes="ccccc" />
    <path
       style="opacity:1;vector-effect:none;fill:#006888;fill-opacity:1;fill-rule:nonzero;stroke:none;stroke-width:0.33958128;stroke-linecap:square;stroke-linejoin:round;stroke-miterlimit:4;stroke-dasharray:none;stroke-dashoffset:0;stroke-opacity:1;paint-order:normal"
       d="m 16.940054,279.80209 c -1.187359,1.23193 -1.843822,3.14372 -1.847153,4.7952 5.56e-4,0.13846 0.0057,0.27687 0.0155,0.41504 -0.0075,0.0975 -0.01263,0.19521 -0.0155,0.29296 0.003,1.67174 0.633846,3.31343 1.847153,4.55097 1.160035,-1.22588 1.843791,-2.83031 1.847197,-4.46049 -8e-6,-0.1562 -0.0059,-0.31236 -0.0176,-0.46818 0.0088,-0.10995 0.01465,-0.22008 0.0176,-0.3303 -0.0026,-1.65117 -0.660769,-3.56292 -1.847197,-4.7952 z"
       id="circle1273-1"
       inkscape:connector-curvature="0"
       sodipodi:nodetypes="ccccccccc" />
    <path
       style="fill:#f1f3f5;fill-opacity:1;stroke:none;stroke-width:0.00082682;stroke-miterlimit:4;stroke-dasharray:none;stroke-opacity:1"
       d="m 16.531114,282.68608 c -0.202442,-0.0105 -0.504497,-0.0431 -0.713323,-0.077 -0.107815,-0.0175 -0.3615,-0.0702 -0.38951,-0.0808 -0.01456,-0.006 -0.01124,-0.0192 0.04864,-0.20025 0.305832,-0.9247 0.754489,-1.72658 1.327707,-2.37298 0.04638,-0.0523 0.09589,-0.10601 0.110041,-0.11937 l 0.02572,-0.0243 0.02572,0.0243 c 0.01415,0.0134 0.06367,0.0671 0.110041,0.11937 0.571208,0.64414 1.023883,1.4535 1.328687,2.37564 0.0313,0.0947 0.0569,0.17696 0.0569,0.18284 0,0.0178 -0.309326,0.0802 -0.574641,0.11595 -0.177867,0.024 -0.372186,0.0428 -0.558106,0.054 -0.122035,0.007 -0.671059,0.009 -0.797884,0.003 z"
       id="path868"
       inkscape:connector-curvature="0" />
  </g>
</svg>
