<?xml version="1.0" encoding="UTF-8" standalone="no"?>
<svg
   xmlns:dc="http://purl.org/dc/elements/1.1/"
   xmlns:cc="http://creativecommons.org/ns#"
   xmlns:rdf="http://www.w3.org/1999/02/22-rdf-syntax-ns#"
   xmlns:svg="http://www.w3.org/2000/svg"
   xmlns="http://www.w3.org/2000/svg"
   xmlns:sodipodi="http://sodipodi.sourceforge.net/DTD/sodipodi-0.dtd"
   xmlns:inkscape="http://www.inkscape.org/namespaces/inkscape"
   width="128"
   height="128"
   version="1.0"
   enable-background="new"
   id="svg65"
   sodipodi:docname="org.xfce.mailreader.svg"
   inkscape:version="0.92.4 (5da689c313, 2019-01-14)">
  <metadata
     id="metadata69">
    <rdf:RDF>
      <cc:Work
         rdf:about="">
        <dc:format>image/svg+xml</dc:format>
        <dc:type
           rdf:resource="http://purl.org/dc/dcmitype/StillImage" />
        <dc:title />
      </cc:Work>
    </rdf:RDF>
  </metadata>
  <sodipodi:namedview
     inkscape:document-rotation="0"
     pagecolor="#ffffff"
     bordercolor="#666666"
     borderopacity="1"
     objecttolerance="10"
     gridtolerance="10"
     guidetolerance="10"
     inkscape:pageopacity="0"
     inkscape:pageshadow="2"
     inkscape:window-width="2560"
     inkscape:window-height="1387"
     id="namedview67"
     showgrid="true"
     inkscape:zoom="5.7768114"
     inkscape:cx="33.980825"
     inkscape:cy="78.52043"
     inkscape:window-x="0"
     inkscape:window-y="29"
     inkscape:window-maximized="1"
     inkscape:current-layer="svg65">
    <inkscape:grid
       empspacing="4"
       id="grid837"
       type="xygrid" />
  </sodipodi:namedview>
  <defs
     id="defs31">
    <filter
       id="f"
       color-interpolation-filters="sRGB">
      <feBlend
         mode="multiply"
         in2="BackgroundImage"
         id="feBlend24" />
    </filter>
  </defs>
  <path
     sodipodi:nodetypes="cccccccc"
     style="fill:#f9da02;marker:none"
     d="m 64,12 c -2.663,-0.009 -5.122,1.997 -7.812,4.688 L 16,48 v 68 h 96 V 48 L 72.187,16.687 C 69.531,14.031 66.663,12.01 64,12 Z"
     fill="#9a9996"
     id="path33" />
  <path
     style="marker:none;fill:#f1f3f5"
     fill="url(#e)"
     d="M24 16h80v88H24z"
     id="path35" />
  <path
     style="marker:none;fill:#fcf4c0"
     d="M16 48v68.001l96-.001V48L64 92z"
     fill="#d0d0cd"
     id="path37" />
  <path
     style="marker:none;fill:#fbeb83"
     d="M16 116h96L72.187 76.687c-5.312-5.312-10.618-5.381-16 0z"
     fill="#deddda"
     id="path39" />
  <path
     d="M69.953 251.55a28.557 28.557 0 0 0-7.01 18.714c.003 6.37 2.74 13.73 6.663 18.748h37.874z"
     style="marker:none;fill:#758087"
     transform="translate(-2.122 -187.612) scale(1.05052)"
     opacity=".15"
     filter="url(#f)"
     enable-background="new"
     id="path41" />
  <path
     style="marker:none;fill:#f1f3f5"
     d="M64.213 72.678c-2.663-.009-5.335 1.319-8.025 4.01L16 116h2.045l38.142-37.313c5.382-5.381 10.688-5.312 16 0L109.975 116H112L72.187 76.687c-2.656-2.656-5.311-4-7.974-4.01z"
     fill="#edeceb"
     id="path43" />
</svg>
