<?xml version="1.0" encoding="UTF-8" standalone="no"?>
<!-- Created with Inkscape (http://www.inkscape.org/) -->

<svg
   xmlns:dc="http://purl.org/dc/elements/1.1/"
   xmlns:cc="http://creativecommons.org/ns#"
   xmlns:rdf="http://www.w3.org/1999/02/22-rdf-syntax-ns#"
   xmlns:svg="http://www.w3.org/2000/svg"
   xmlns="http://www.w3.org/2000/svg"
   xmlns:xlink="http://www.w3.org/1999/xlink"
   xmlns:inkscape="http://www.inkscape.org/namespaces/inkscape"
   version="1.1"
   width="48"
   height="48"
   id="svg1328">
  <defs
     id="defs3">
    <linearGradient
       id="linearGradient3356">
      <stop
         id="stop3358"
         style="stop-color:#ff4141;stop-opacity:1"
         offset="0" />
      <stop
         id="stop3360"
         style="stop-color:#ff9d9d;stop-opacity:1"
         offset="1" />
    </linearGradient>
    <linearGradient
       id="linearGradient3348">
      <stop
         id="stop3350"
         style="stop-color:#ff4949;stop-opacity:1"
         offset="0" />
      <stop
         id="stop3352"
         style="stop-color:#ffb1b1;stop-opacity:1"
         offset="1" />
    </linearGradient>
    <linearGradient
       id="linearGradient3338">
      <stop
         id="stop3340"
         style="stop-color:#cc0000;stop-opacity:1"
         offset="0" />
      <stop
         id="stop3346"
         style="stop-color:#ff5858;stop-opacity:1"
         offset="0.5" />
      <stop
         id="stop3342"
         style="stop-color:#cc0000;stop-opacity:1"
         offset="1" />
    </linearGradient>
    <linearGradient
       id="linearGradient3247">
      <stop
         id="stop3249"
         style="stop-color:#f0f0f0;stop-opacity:1"
         offset="0" />
      <stop
         id="stop3251"
         style="stop-color:#f0f0f0;stop-opacity:0"
         offset="1" />
    </linearGradient>
    <linearGradient
       id="linearGradient3233">
      <stop
         id="stop3235"
         style="stop-color:#eeeeec;stop-opacity:1"
         offset="0" />
      <stop
         id="stop3237"
         style="stop-color:#a3a398;stop-opacity:1"
         offset="1" />
    </linearGradient>
    <linearGradient
       id="linearGradient6924">
      <stop
         id="stop6926"
         style="stop-color:#ffffff;stop-opacity:1"
         offset="0" />
      <stop
         id="stop6928"
         style="stop-color:#ffffff;stop-opacity:0"
         offset="1" />
    </linearGradient>
    <linearGradient
       id="linearGradient4176">
      <stop
         id="stop4178"
         style="stop-color:#ffffff;stop-opacity:1"
         offset="0" />
      <stop
         id="stop4180"
         style="stop-color:#ffffff;stop-opacity:0"
         offset="1" />
    </linearGradient>
    <linearGradient
       id="linearGradient4134">
      <stop
         id="stop4136"
         style="stop-color:#d6d7d5;stop-opacity:1"
         offset="0" />
      <stop
         id="stop4148"
         style="stop-color:#d1d2d0;stop-opacity:1"
         offset="0.25" />
      <stop
         id="stop4142"
         style="stop-color:#a5a6a3;stop-opacity:1"
         offset="0.5" />
      <stop
         id="stop4138"
         style="stop-color:#dddedc;stop-opacity:1"
         offset="1" />
    </linearGradient>
    <linearGradient
       id="linearGradient4126">
      <stop
         id="stop4128"
         style="stop-color:#000000;stop-opacity:1"
         offset="0" />
      <stop
         id="stop4130"
         style="stop-color:#000000;stop-opacity:0"
         offset="1" />
    </linearGradient>
    <radialGradient
       cx="23.857143"
       cy="40"
       r="17.142857"
       fx="23.857143"
       fy="40"
       id="radialGradient4132"
       xlink:href="#linearGradient4126"
       gradientUnits="userSpaceOnUse"
       gradientTransform="matrix(1,0,0,0.5,0,20)" />
    <linearGradient
       x1="9.3030529"
       y1="26.71875"
       x2="38.826412"
       y2="26.71875"
       id="linearGradient4140"
       xlink:href="#linearGradient4134"
       gradientUnits="userSpaceOnUse"
       gradientTransform="matrix(1.010754,0,0,0.991346,-0.183016,-3.765211)" />
    <linearGradient
       x1="17.160095"
       y1="14.004482"
       x2="37.969398"
       y2="56.575912"
       id="linearGradient4182"
       xlink:href="#linearGradient4176"
       gradientUnits="userSpaceOnUse"
       gradientTransform="matrix(1.010754,0,0,0.992756,-0.183016,-3.771417)" />
    <linearGradient
       x1="16.07143"
       y1="19.5"
       x2="16.035715"
       y2="31.75"
       id="linearGradient6930"
       xlink:href="#linearGradient6924"
       gradientUnits="userSpaceOnUse"
       gradientTransform="matrix(1.010754,0,0,1,-0.183017,-1.266534)" />
    <radialGradient
       cx="23.857143"
       cy="40"
       r="17.142857"
       fx="23.857143"
       fy="40"
       id="radialGradient6946"
       xlink:href="#linearGradient4126"
       gradientUnits="userSpaceOnUse"
       gradientTransform="matrix(1,0,0,0.5,0,20)" />
    <linearGradient
       x1="24"
       y1="17.245949"
       x2="23.433737"
       y2="8.0476589"
       id="linearGradient3243"
       xlink:href="#linearGradient3233"
       gradientUnits="userSpaceOnUse" />
    <linearGradient
       x1="34.244171"
       y1="17.695425"
       x2="34.244171"
       y2="29.91827"
       id="linearGradient3253"
       xlink:href="#linearGradient3247"
       gradientUnits="userSpaceOnUse"
       gradientTransform="matrix(1.010754,0,0,1,-0.183017,-2.123677)" />
    <linearGradient
       x1="24"
       y1="17.245949"
       x2="23.433737"
       y2="8.0476589"
       id="linearGradient3255"
       xlink:href="#linearGradient3233"
       gradientUnits="userSpaceOnUse" />
    <linearGradient
       x1="24"
       y1="17.245949"
       x2="23.433737"
       y2="8.0476589"
       id="linearGradient4230"
       xlink:href="#linearGradient3233"
       gradientUnits="userSpaceOnUse" />
    <linearGradient
       x1="11.003058"
       y1="33.489445"
       x2="30.452171"
       y2="33.489445"
       id="linearGradient4501"
       xlink:href="#linearGradient3338"
       gradientUnits="userSpaceOnUse"
       gradientTransform="matrix(1.010754,0,0,1,-0.200451,-2.021207)" />
    <linearGradient
       x1="24"
       y1="18.132908"
       x2="24"
       y2="8.0243998"
       id="linearGradient4518"
       xlink:href="#linearGradient3348"
       gradientUnits="userSpaceOnUse" />
    <linearGradient
       x1="24"
       y1="10.396756"
       x2="24"
       y2="20.118456"
       id="linearGradient4520"
       xlink:href="#linearGradient3356"
       gradientUnits="userSpaceOnUse" />
  </defs>
  <metadata
     id="metadata4">
    <rdf:RDF>
      <cc:Work
         rdf:about="">
        <dc:format>image/svg+xml</dc:format>
        <dc:type
           rdf:resource="http://purl.org/dc/dcmitype/StillImage" />
        <dc:title>Battery</dc:title>
        <dc:creator>
          <cc:Agent>
            <dc:title>Jakub Steiner</dc:title>
          </cc:Agent>
        </dc:creator>
        <dc:source>http://jimmac.musichall.cz</dc:source>
        <dc:subject>
          <rdf:Bag>
            <rdf:li>battery</rdf:li>
            <rdf:li>apm</rdf:li>
            <rdf:li>acpi</rdf:li>
            <rdf:li>power management</rdf:li>
          </rdf:Bag>
        </dc:subject>
        <cc:license
           rdf:resource="http://creativecommons.org/licenses/by-sa/2.0/" />
      </cc:Work>
      <cc:License
         rdf:about="http://creativecommons.org/licenses/by-sa/2.0/">
        <cc:permits
           rdf:resource="http://web.resource.org/cc/Reproduction" />
        <cc:permits
           rdf:resource="http://web.resource.org/cc/Distribution" />
        <cc:requires
           rdf:resource="http://web.resource.org/cc/Notice" />
        <cc:requires
           rdf:resource="http://web.resource.org/cc/Attribution" />
        <cc:permits
           rdf:resource="http://web.resource.org/cc/DerivativeWorks" />
        <cc:requires
           rdf:resource="http://web.resource.org/cc/ShareAlike" />
      </cc:License>
    </rdf:RDF>
  </metadata>
  <g
     id="layer1">
    <path
       d="M 41,40 A 17.142857,8.5714283 0 1 1 6.7142868,40 17.142857,8.5714283 0 1 1 41,40 z"
       transform="matrix(1.05,0,0,1.18297,-1.012555,-14.39721)"
       id="path3366"
       style="color:#000000;fill:url(#radialGradient4132);fill-opacity:1;fill-rule:nonzero;stroke:none;stroke-width:1;marker:none;visibility:visible;display:block;overflow:visible" />
    <path
       d="m 24.011908,5.0639635 c -7.943947,0 -14.4032434,2.7782481 -14.4032444,6.1959135 0,0.245244 0,22.669466 0,22.924876 0,3.417666 6.4592964,6.195913 14.4032444,6.195913 7.943948,0 14.660447,-2.778248 14.660445,-6.195913 0,-0.202295 0,-22.722581 0,-22.924876 0,-3.4176664 -6.716498,-6.1959135 -14.660445,-6.1959135 z"
       inkscape:connector-curvature="0"
       id="path3068"
       style="color:#000000;fill:url(#linearGradient4140);fill-opacity:1;fill-rule:nonzero;stroke:#767973;stroke-width:1;stroke-linecap:butt;stroke-linejoin:miter;stroke-miterlimit:10;stroke-opacity:1;stroke-dasharray:none;stroke-dashoffset:0;marker:none;visibility:visible;display:block;overflow:visible" />
    <path
       d="m 36.857142,14.071428 a 12.857142,5.5 0 1 1 -25.714284,0 12.857142,5.5 0 1 1 25.714284,0 z"
       transform="matrix(1.048446,0,0,0.971388,-0.883417,20.4951)"
       id="path3241"
       style="opacity:0.23626374;color:#000000;fill:#d3d7cf;fill-opacity:1;fill-rule:nonzero;stroke:url(#linearGradient3243);stroke-width:0.99090111;stroke-linecap:butt;stroke-linejoin:miter;stroke-miterlimit:10;stroke-opacity:1;stroke-dasharray:none;stroke-dashoffset:0;marker:none;visibility:visible;display:block;overflow:visible" />
    <path
       d="m 24.020624,5.8439904 c -7.406561,0 -13.428904,2.5939917 -13.428905,5.7849926 0,0.22898 0,21.727517 0,21.965988 0,3.191003 6.022343,5.784993 13.428905,5.784993 7.40656,0 13.668706,-2.593991 13.668704,-5.784993 0,-0.188877 0,-21.777108 0,-21.965988 0,-3.1910019 -6.262145,-5.7849926 -13.668704,-5.7849926 z"
       inkscape:connector-curvature="0"
       id="path4174"
       style="opacity:0.5443038;color:#000000;fill:none;stroke:url(#linearGradient4182);stroke-width:1.00000012;stroke-linecap:butt;stroke-linejoin:miter;stroke-miterlimit:10;stroke-opacity:1;stroke-dasharray:none;stroke-dashoffset:0;marker:none;visibility:visible;display:block;overflow:visible" />
    <path
       d="m 23.418863,26.500039 c -6.675131,0.134726 -11.994464,2.339938 -11.994464,5.028213 0,0.318691 0,1.565381 0,1.881904 0,2.774993 5.639541,5.02821 12.616399,5.028212 6.976859,0 12.646015,-2.253219 12.646016,-5.028212 0,-0.316523 0,-1.563213 0,-1.881904 0,-2.774994 -5.669157,-5.028212 -12.646016,-5.028213 -0.218026,0 -0.406609,-0.0043 -0.621935,0 z"
       inkscape:connector-curvature="0"
       id="path4432"
       style="opacity:0.61538463;color:#000000;fill:url(#linearGradient4501);fill-opacity:1;fill-rule:nonzero;stroke:#a40000;stroke-width:0.99621511;stroke-linecap:butt;stroke-linejoin:miter;stroke-miterlimit:10;stroke-opacity:1;stroke-dasharray:none;stroke-dashoffset:0;marker:none;visibility:visible;display:block;overflow:visible" />
    <path
       d="m 36.857142,14.071428 a 12.857142,5.5 0 1 1 -25.714284,0 12.857142,5.5 0 1 1 25.714284,0 z"
       transform="matrix(0.983052,0,0,0.914029,0.461329,18.67248)"
       id="path4434"
       style="color:#000000;fill:url(#linearGradient4518);fill-opacity:1;fill-rule:nonzero;stroke:url(#linearGradient4520);stroke-width:1.05494905;stroke-linecap:butt;stroke-linejoin:miter;stroke-miterlimit:10;stroke-opacity:1;stroke-dasharray:none;stroke-dashoffset:0;marker:none;visibility:visible;display:block;overflow:visible" />
    <path
       d="M 36.063047,9.5613391 C 34.942005,8.5762291 33.994098,8.2763011 33,7.7935722 l 0.306304,18.6878228 2.756743,3.232487 0,-20.1525429 z"
       inkscape:connector-curvature="0"
       id="path3245"
       style="color:#000000;fill:url(#linearGradient3253);fill-opacity:1;fill-rule:nonzero;stroke:none;stroke-width:0.99999946;marker:none;visibility:visible;display:block;overflow:visible" />
    <path
       d="m 36.857142,14.071428 a 12.857142,5.5 0 1 1 -25.714284,0 12.857142,5.5 0 1 1 25.714284,0 z"
       transform="matrix(1.048446,0,0,0.964345,-1.08762,-2.479089)"
       id="path3364"
       style="opacity:0.467033;color:#000000;fill:#f0f0f0;fill-opacity:1;fill-rule:nonzero;stroke:url(#linearGradient4230);stroke-width:0.99451303;stroke-linecap:butt;stroke-linejoin:miter;stroke-miterlimit:10;stroke-opacity:1;stroke-dasharray:none;stroke-dashoffset:0;marker:none;visibility:visible;display:block;overflow:visible" />
    <path
       d="M 41,40 A 17.142857,8.5714283 0 1 1 6.7142868,40 17.142857,8.5714283 0 1 1 41,40 z"
       transform="matrix(0.367338,0,0,0.36343,15.07873,-6.775991)"
       id="path6944"
       style="opacity:0.30769234;color:#000000;fill:url(#radialGradient6946);fill-opacity:1;fill-rule:nonzero;stroke:none;stroke-width:1;marker:none;visibility:visible;display:block;overflow:visible" />
    <path
       d="m 24.165629,3.5613261 c -2.024332,0 -4.681088,0.714153 -4.681088,1.592669 0,0.06304 0,2.564005 0,2.629659 0,0.878516 2.656756,1.592669 4.681088,1.592669 2.024333,0 4.457846,-0.714153 4.457845,-1.592669 0,-0.052 0,-2.577659 0,-2.629659 0,-0.878517 -2.433512,-1.592669 -4.457845,-1.592669 z"
       inkscape:connector-curvature="0"
       id="path3362"
       style="color:#000000;fill:#9d9e9b;fill-opacity:1;fill-rule:nonzero;stroke:#7d7f7a;stroke-width:0.99999994;stroke-linecap:butt;stroke-linejoin:miter;stroke-miterlimit:10;stroke-opacity:1;stroke-dasharray:none;stroke-dashoffset:0;marker:none;visibility:visible;display:block;overflow:visible" />
    <path
       d="m 13.750953,15.804894 0.360983,16.785715 4.62059,1.285714 -0.144393,-16.714286 c 0,0 1.959695,-0.08839 5.352942,-0.302674 -6.567248,-0.04998 -10.856946,-1.57817 -13.222385,-3.840183 1.432137,2.092176 3.032263,2.785714 3.032263,2.785714 z"
       inkscape:connector-curvature="0"
       id="path6922"
       style="opacity:0.58241763;color:#000000;fill:url(#linearGradient6930);fill-opacity:1;fill-rule:nonzero;stroke:none;stroke-width:1;marker:none;visibility:visible;display:block;overflow:visible" />
    <path
       d="m 36.857142,14.071428 a 12.857142,5.5 0 1 1 -25.714284,0 12.857142,5.5 0 1 1 25.714284,0 z"
       transform="matrix(0.274904,0,0,0.192106,17.47422,2.7297)"
       id="path6940"
       style="color:#000000;fill:#d3d7cf;fill-opacity:1;fill-rule:nonzero;stroke:url(#linearGradient3255);stroke-width:4.35150146;stroke-linecap:butt;stroke-linejoin:miter;stroke-miterlimit:10;stroke-opacity:1;stroke-dasharray:none;stroke-dashoffset:0;marker:none;visibility:visible;display:block;overflow:visible" />
    <g
       transform="translate(-53.99282,-31.64138)"
       id="g4438" />
  </g>
  <g
     id="layer2" />
</svg>
