<?xml version="1.0" encoding="UTF-8" standalone="no"?>
<!-- Created with Inkscape (http://www.inkscape.org/) -->

<svg
   xmlns:dc="http://purl.org/dc/elements/1.1/"
   xmlns:cc="http://creativecommons.org/ns#"
   xmlns:rdf="http://www.w3.org/1999/02/22-rdf-syntax-ns#"
   xmlns:svg="http://www.w3.org/2000/svg"
   xmlns="http://www.w3.org/2000/svg"
   xmlns:sodipodi="http://sodipodi.sourceforge.net/DTD/sodipodi-0.dtd"
   xmlns:inkscape="http://www.inkscape.org/namespaces/inkscape"
   height="1000"
   width="1000"
   version="1.1"
   viewBox="0 0 264.58333 264.58333"
   id="svg24"
   sodipodi:docname="xfce4-timer-plugin.svg"
   inkscape:version="0.92.1 r15371"
   inkscape:export-filename="/home/damufo/pro_linux/xfce4-timer-plugin/icons/scalable/xfce4-timer-plugin48.png"
   inkscape:export-xdpi="4.6079998"
   inkscape:export-ydpi="4.6079998">
  <defs
     id="defs28">
    <inkscape:path-effect
       effect="ruler"
       id="path-effect4557"
       is_visible="true"
       unit="px"
       mark_distance="20"
       mark_length="14"
       minor_mark_length="7"
       major_mark_steps="5"
       shift="0"
       offset="0"
       mark_dir="left"
       border_marks="both" />
  </defs>
  <sodipodi:namedview
     pagecolor="#ffffff"
     bordercolor="#666666"
     borderopacity="1"
     objecttolerance="10"
     gridtolerance="10"
     guidetolerance="10"
     inkscape:pageopacity="0"
     inkscape:pageshadow="2"
     inkscape:window-width="1440"
     inkscape:window-height="840"
     id="namedview26"
     showgrid="true"
     inkscape:pagecheckerboard="true"
     showguides="true"
     inkscape:zoom="0.35322341"
     inkscape:cx="-323.30688"
     inkscape:cy="414.02905"
     inkscape:window-x="0"
     inkscape:window-y="31"
     inkscape:window-maximized="1"
     inkscape:current-layer="layer1"
     units="px">
    <inkscape:grid
       type="xygrid"
       id="grid4561"
       spacingy="26.458333"
       spacingx="26.458333"
       empspacing="0"
       dotted="true"
       units="px" />
  </sodipodi:namedview>
  <metadata
     id="metadata2">
    <rdf:RDF>
      <cc:Work
         rdf:about="">
        <dc:format>image/svg+xml</dc:format>
        <dc:type
           rdf:resource="http://purl.org/dc/dcmitype/StillImage" />
        <dc:title></dc:title>
        <cc:license
           rdf:resource="GPL" />
        <dc:creator>
          <cc:Agent>
            <dc:title></dc:title>
          </cc:Agent>
        </dc:creator>
      </cc:Work>
    </rdf:RDF>
  </metadata>
  <g
     inkscape:groupmode="layer"
     id="layer3"
     inkscape:label="area"
     style="display:inline"
     transform="translate(0,-735.41665)">
    <g
       transform="translate(0,703)"
       id="g22"
       style="display:inline">
      <g
         transform="matrix(1.1919,0,0,0.93794,-99.757,-671.53)"
         id="g20">
        <g
           transform="matrix(0.1,0,0,-0.1,0,511)"
           id="g10">
          <g
             id="g54" />
        </g>
        <g
           id="g18">
          <g
             id="g59" />
        </g>
      </g>
    </g>
    <path
       transform="matrix(1.1919,0,0,0.93794,-99.756996,36.232499)"
       d="m 305.68164,10.263672 c -16.55727,0.0012 -33.01083,6.817791 -44.71875,18.52539 -11.70792,11.7076 -18.52572,28.16148 -18.52734,44.71875 0,106.857158 54.03343,188.709368 98.51562,259.367188 44.48219,70.65783 79.07227,129.26436 79.07227,191.97656 0,31.10396 -7.55368,56.09889 -20.72266,79.7461 -13.16898,23.6472 -31.68032,46.05893 -54.04101,73.76367 -44.67193,55.34819 -102.82422,130.60936 -102.82422,241.41601 0.002,16.55699 6.81783,33.0112 18.52539,44.71875 11.70755,11.70756 28.16176,18.52378 44.71875,18.52539 h 399.57226 c 16.55699,-0.002 33.0112,-6.81783 44.71875,-18.52539 11.70756,-11.70755 18.52377,-28.16176 18.52539,-44.71875 0,-109.44201 -65.80257,-182.92801 -115.7832,-239.38476 -24.99031,-28.22838 -45.76077,-51.85623 -60.55859,-76.17383 -14.79782,-24.3176 -23.44336,-49.56475 -23.44336,-79.36719 0,-60.09321 38.19454,-118.42875 88.25976,-189.11914 C 707.03593,265.04202 768.49609,183.19377 768.49609,73.507812 768.49447,56.951116 761.6779,40.498528 749.9707,28.791016 738.26397,17.083964 721.80994,10.266279 705.25391,10.263672 c -152.34864,-0.0027 -247.22755,0.0027 -399.57227,0 z"
       id="path4651"
       style="display:none;fill:#ffffff;stroke:#ffffff;stroke-width:0;stroke-miterlimit:4;stroke-dasharray:none"
       inkscape:original="M 305.68164 1.7167969 A 71.798042 71.798042 0 0 0 233.88867 73.507812 C 233.88867 183.24337 289.32178 266.90527 333.71875 337.42773 C 378.11572 407.9502 411.47656 465.33322 411.47656 524.85156 C 411.47656 584.3699 383.38303 617.5199 338.60938 672.99414 C 293.83571 728.46839 233.88867 805.96928 233.88867 919.77734 A 71.798042 71.798042 0 0 0 305.67969 991.56836 L 705.25195 991.56836 A 71.798042 71.798042 0 0 0 777.04297 919.77734 C 777.04297 806.90339 709.05957 731.14453 659.11328 674.72656 C 609.16699 618.30859 577.25781 581.23151 577.25781 524.85156 C 577.25781 468.47163 613.99902 411.19433 663.94531 340.67188 C 713.8916 270.14941 777.04297 186.38177 777.04297 73.507812 A 71.798042 71.798042 0 0 0 705.25391 1.7167969 C 552.90501 1.7140968 458.02609 1.7194978 305.68164 1.7167969 z "
       inkscape:radius="-8.5471401"
       sodipodi:type="inkscape:offset" />
  </g>
  <g
     inkscape:groupmode="layer"
     id="layer1"
     inkscape:label="base-teito"
     style="display:inline"
     transform="translate(0,-735.41665)">
    <g
       id="g4502"
       transform="matrix(1.2364793,0,0,1.1502316,-29.349166,-130.11974)">
      <path
         transform="matrix(0.26357793,0,0,0.2254737,-3.085147,753.79498)"
         d="m 264.58203,62.916016 c -9.81717,9.84e-4 -19.57188,4.042584 -26.51367,10.984375 -6.94179,6.941791 -10.98339,16.696498 -10.98438,26.513669 a 11.043091,11.043091 0 0 0 0,0.002 c 0,95.94858 62.45752,163.8983 115.30469,223.35156 52.84719,59.45326 96.36133,110.94145 96.36133,173.52344 0,62.61828 -43.03812,110.89585 -96.08008,169.24218 -53.07299,58.38047 -115.58594,127.35177 -115.58594,227.63282 a 11.043091,11.043091 0 0 0 0,0.002 c 9.9e-4,9.81717 4.04259,19.57188 10.98438,26.51367 6.94179,6.94179 16.6965,10.98339 26.51367,10.98438 a 11.043091,11.043091 0 0 0 0.002,0 h 476.25 a 11.043091,11.043091 0 0 0 0.002,0 c 9.81717,-9.9e-4 19.57188,-4.04259 26.51367,-10.98438 6.94179,-6.94179 10.98339,-16.6965 10.98437,-26.51367 a 11.043091,11.043091 0 0 0 0,-0.002 c 0,-97.95283 -70.61293,-165.5231 -130.04492,-224.95508 C 588.85708,609.77895 540.20898,557.6738 540.20898,497.29102 c 0,-60.38278 48.6481,-112.48794 108.08008,-171.91993 59.43199,-59.43198 130.04492,-127.00226 130.04492,-224.95507 a 11.043091,11.043091 0 0 0 0,-0.002 C 778.333,90.596887 774.2914,80.842182 767.34961,73.900391 760.40782,66.958599 750.65311,62.916996 740.83594,62.916016 a 11.043091,11.043091 0 0 0 -0.002,0 c -181.58306,-0.003 -294.66908,0.003 -476.25,0 a 11.043091,11.043091 0 0 0 -0.002,0 z"
         id="path4668"
         style="display:inline;fill:#000000;stroke:#ffffff;stroke-width:0;stroke-miterlimit:4;stroke-dasharray:none"
         inkscape:original="M 264.58398 73.957031 A 26.461634 26.461634 0 0 0 238.125 100.41602 C 238.125 191.55053 297.72413 256.90039 350.64062 316.43164 C 403.55713 375.96289 449.79102 429.67553 449.79102 497.29102 C 449.79102 564.9065 403.89057 615.60495 350.83984 673.96094 C 297.78911 732.31692 238.125 798.47481 238.125 894.16602 A 26.461634 26.461634 0 0 0 264.58398 920.625 L 740.83398 920.625 A 26.461634 26.461634 0 0 0 767.29297 894.16602 C 767.29297 801.56152 700.01172 736.55078 640.48047 677.01953 C 580.94922 617.48828 529.16797 563.43653 529.16797 497.29102 C 529.16797 431.14552 580.94922 377.09375 640.48047 317.5625 C 700.01172 258.03125 767.29297 193.02051 767.29297 100.41602 A 26.461634 26.461634 0 0 0 740.83398 73.957031 C 559.25123 73.954031 446.16521 73.960031 264.58398 73.957031 z "
         inkscape:radius="11.041986"
         sodipodi:type="inkscape:offset" />
      <path
         sodipodi:nodetypes="ccccccc"
         style="display:inline;fill:#ffffff;stroke:#ffffff;stroke-width:0;stroke-miterlimit:4;stroke-dasharray:none"
         inkscape:connector-curvature="0"
         id="path4"
         d="m 122.44384,865.92117 c 0,-35.79395 -55.790661,-53.69092 -55.790661,-89.48487 47.861001,6.7e-4 77.667981,-6.8e-4 125.528991,0 0,35.79395 -62.7645,53.69093 -62.7645,89.48487 0,35.79395 62.7645,53.69093 62.7645,89.48488 H 66.653179 c 0,-38.18021 55.790661,-53.69093 55.790661,-89.48488 z" />
      <path
         sodipodi:nodetypes="ccccccccc"
         style="display:inline;fill:#666666;stroke-width:0.02577567"
         inkscape:connector-curvature="0"
         id="path8"
         d="m 81.765893,798.49402 c 6.164544,12.57096 21.504717,19.47767 38.557667,46.00523 6.74665,8.37263 3.63477,82.31512 3.63477,82.31512 -0.50001,4.33236 -10.63013,2.34924 -50.331319,23.69984 H 185.20833 c -46.03247,-20.89011 -58.26766,-19.39542 -58.06239,-24.18825 0,0 -3.18761,-69.62654 2.27173,-78.30176 13.0318,-22.33158 19.2389,-19.70189 47.13423,-49.53018 -27.89533,5.96565 -66.89068,5.96565 -94.786007,0 z" />
      <rect
         id="rect12"
         x="45.302071"
         y="761.875"
         width="171.01709"
         height="13.616373"
         style="stroke:#000000;stroke-width:3.40616894" />
      <rect
         style="stroke:#000000;stroke-width:3.56359196"
         height="14.95103"
         width="170.48"
         y="958.59064"
         x="45.134209"
         id="rect4662" />
    </g>
  </g>
</svg>
