<?xml version="1.0" encoding="UTF-8" standalone="no"?>
<!-- Generator: Adobe Illustrator 9.0, SVG Export Plug-In  -->
<svg
   xmlns:dc="http://purl.org/dc/elements/1.1/"
   xmlns:cc="http://creativecommons.org/ns#"
   xmlns:rdf="http://www.w3.org/1999/02/22-rdf-syntax-ns#"
   xmlns:svg="http://www.w3.org/2000/svg"
   xmlns="http://www.w3.org/2000/svg"
   xmlns:sodipodi="http://sodipodi.sourceforge.net/DTD/sodipodi-0.dtd"
   xmlns:inkscape="http://www.inkscape.org/namespaces/inkscape"
   width="48"
   height="48"
   viewBox="0 0 48 48"
   xml:space="preserve"
   id="svg2"
   sodipodi:version="0.32"
   inkscape:version="0.46"
   sodipodi:docname="preferences-desktop-font.svg"
   sodipodi:docbase="/home/luca/Artwork/blackwhite-icon-theme/scalable/apps"
   version="1.0"
   inkscape:output_extension="org.inkscape.output.svg.inkscape"><metadata
   id="metadata27"><rdf:RDF><cc:Work
       rdf:about=""><dc:format>image/svg+xml</dc:format><dc:type
         rdf:resource="http://purl.org/dc/dcmitype/StillImage" /></cc:Work></rdf:RDF></metadata><defs
   id="defs25" /><sodipodi:namedview
   inkscape:window-height="949"
   inkscape:window-width="1276"
   inkscape:pageshadow="2"
   inkscape:pageopacity="0.0"
   borderopacity="1.0"
   bordercolor="#666666"
   pagecolor="#ffffff"
   id="base"
   showgrid="true"
   inkscape:grid-bbox="true"
   inkscape:grid-points="true"
   inkscape:zoom="16"
   inkscape:cx="24"
   inkscape:cy="24"
   inkscape:window-x="0"
   inkscape:window-y="26"
   inkscape:current-layer="svg2" />
	<g
   style="fill-rule:nonzero;stroke:#000000;stroke-miterlimit:4"
   id="g17">
				<path
   sodipodi:nodetypes="ccccccccccccccc"
   id="path2214"
   d="M 18,31 L 15,38 L 6,38 L 18,10 L 30,10 L 42,38 L 32,38 L 29,31 L 18,30.9 L 18,31 z M 28,26 C 28,26 24.6,16.6 24,15 L 23,15 C 22.5,16.7 19,26 19,26 L 28,26 z "
   style="stroke-width:12;stroke-linejoin:round;stroke-miterlimit:4;stroke-dasharray:none;stroke:#ffffff;stroke-opacity:1" /><path
   style="stroke-width:4;stroke-linejoin:round;stroke-miterlimit:4;stroke-dasharray:none"
   d="M 18,31 L 15,38 L 6,38 L 18,10 L 30,10 L 42,38 L 32,38 L 29,31 L 18,30.9 L 18,31 z M 28,26 C 28,26 24.6,16.6 24,15 L 23,15 C 22.5,16.7 19,26 19,26 L 28,26 z "
   id="path19"
   sodipodi:nodetypes="ccccccccccccccc" />
			</g>
	<g
   id="crop_x0020_marks"
   style="fill-rule:nonzero;stroke:#000000;stroke-miterlimit:4">
		<path
   style="fill:none;stroke:none"
   d="M 48,48 L 0,48 L 0,0 L 48,0 L 48,48 z "
   id="path22" />
	</g>
</svg>