<?xml version="1.0" encoding="UTF-8" standalone="no"?>
<!-- Generator: Adobe Illustrator 9.0, SVG Export Plug-In  -->
<svg
   xmlns:dc="http://purl.org/dc/elements/1.1/"
   xmlns:cc="http://creativecommons.org/ns#"
   xmlns:rdf="http://www.w3.org/1999/02/22-rdf-syntax-ns#"
   xmlns:svg="http://www.w3.org/2000/svg"
   xmlns="http://www.w3.org/2000/svg"
   xmlns:sodipodi="http://sodipodi.sourceforge.net/DTD/sodipodi-0.dtd"
   xmlns:inkscape="http://www.inkscape.org/namespaces/inkscape"
   width="48"
   height="48"
   viewBox="0 0 48 48"
   xml:space="preserve"
   id="svg2"
   sodipodi:version="0.32"
   inkscape:version="0.46"
   sodipodi:docname="dialog-question.svg"
   inkscape:output_extension="org.inkscape.output.svg.inkscape"
   version="1.0"><metadata
   id="metadata21"><rdf:RDF><cc:Work
       rdf:about=""><dc:format>image/svg+xml</dc:format><dc:type
         rdf:resource="http://purl.org/dc/dcmitype/StillImage" /></cc:Work></rdf:RDF></metadata><defs
   id="defs19" /><sodipodi:namedview
   inkscape:window-height="682"
   inkscape:window-width="641"
   inkscape:pageshadow="2"
   inkscape:pageopacity="0.0"
   guidetolerance="10.0"
   gridtolerance="10.0"
   objecttolerance="10.0"
   borderopacity="1.0"
   bordercolor="#666666"
   pagecolor="#ffffff"
   id="base"
   showgrid="false"
   inkscape:zoom="8.2333333"
   inkscape:cx="30"
   inkscape:cy="30"
   inkscape:window-x="50"
   inkscape:window-y="24"
   inkscape:current-layer="svg2" />
	<g
   id="Layer_x0020_4"
   style="fill-rule:nonzero;stroke:#000000;stroke-miterlimit:4">
		<g
   id="g5">
			<g
   id="g7">
				<path
   style="stroke:#ffffff;stroke-width:7.09089994;stroke-linejoin:round"
   d="M 19.2,30.3 L 19.1,28.9 C 19,26.2 19.8,23.4 22.2,20.6 C 23.9,18.6 25.3,16.8 25.3,15 C 25.3,13.2 24.1,11.9 21.5,11.9 C 19.7,11.9 17.6,12.5 16.2,13.4 L 14.4,7.7 C 16.3,6.6 19.5,5.5 23.3,5.5 C 30.3,5.5 33.5,9.4 33.5,13.7 C 33.5,17.8 30.9,20.4 28.9,22.7 C 27,24.8 26.1,26.9 26.2,29.3 L 26.2,30.3 L 19.2,30.3 L 19.2,30.3 z M 22.5,42.5 C 19.7,42.5 17.8,40.4 17.8,37.7 C 17.8,34.8 19.8,32.9 22.5,32.9 C 25.4,32.9 27.2,34.9 27.3,37.7 C 27.3,40.5 25.4,42.5 22.6,42.5 L 22.5,42.5 z"
   id="path9" />
			</g>
			<g
   id="g11">
				<path
   style="stroke:none"
   d="M 19.2,30.3 L 19.1,28.9 C 19,26.2 19.8,23.4 22.2,20.6 C 23.9,18.6 25.3,16.8 25.3,15 C 25.3,13.2 24.1,11.9 21.5,11.9 C 19.7,11.9 17.6,12.5 16.2,13.4 L 14.4,7.7 C 16.3,6.6 19.5,5.5 23.3,5.5 C 30.3,5.5 33.5,9.4 33.5,13.7 C 33.5,17.8 30.9,20.4 28.9,22.7 C 27,24.8 26.1,26.9 26.2,29.3 L 26.2,30.3 L 19.2,30.3 L 19.2,30.3 z M 22.5,42.5 C 19.7,42.5 17.8,40.4 17.8,37.7 C 17.8,34.8 19.8,32.9 22.5,32.9 C 25.4,32.9 27.2,34.9 27.3,37.7 C 27.3,40.5 25.4,42.5 22.6,42.5 L 22.5,42.5 z"
   id="path13" />
			</g>
		</g>
	</g>
	<g
   id="crop_x0020_marks"
   style="fill-rule:nonzero;stroke:#000000;stroke-miterlimit:4">
		<path
   style="fill:none;stroke:none"
   d="M 48,48 L 0,48 L 0,0 L 48,0 L 48,48 z"
   id="path16" />
	</g>
</svg>