<?xml version="1.0" encoding="UTF-8" standalone="no"?>
<!-- Generator: Adobe Illustrator 9.0, SVG Export Plug-In  -->
<svg
   xmlns:dc="http://purl.org/dc/elements/1.1/"
   xmlns:cc="http://creativecommons.org/ns#"
   xmlns:rdf="http://www.w3.org/1999/02/22-rdf-syntax-ns#"
   xmlns:svg="http://www.w3.org/2000/svg"
   xmlns="http://www.w3.org/2000/svg"
   xmlns:sodipodi="http://sodipodi.sourceforge.net/DTD/sodipodi-0.dtd"
   xmlns:inkscape="http://www.inkscape.org/namespaces/inkscape"
   width="48"
   height="48"
   viewBox="0 0 48 48"
   xml:space="preserve"
   id="svg2"
   sodipodi:version="0.32"
   inkscape:version="0.46"
   sodipodi:docname="folder-drag-accept.svg"
   inkscape:output_extension="org.inkscape.output.svg.inkscape"
   version="1.0"><metadata
   id="metadata19"><rdf:RDF><cc:Work
       rdf:about=""><dc:format>image/svg+xml</dc:format><dc:type
         rdf:resource="http://purl.org/dc/dcmitype/StillImage" /></cc:Work></rdf:RDF></metadata><defs
   id="defs17" /><sodipodi:namedview
   inkscape:window-height="682"
   inkscape:window-width="641"
   inkscape:pageshadow="2"
   inkscape:pageopacity="0.0"
   guidetolerance="10.0"
   gridtolerance="10.0"
   objecttolerance="10.0"
   borderopacity="1.0"
   bordercolor="#666666"
   pagecolor="#ffffff"
   id="base"
   showgrid="false"
   inkscape:zoom="8.2333333"
   inkscape:cx="30"
   inkscape:cy="30"
   inkscape:window-x="50"
   inkscape:window-y="24"
   inkscape:current-layer="svg2" />
	<g
   id="Layer_x0020_4"
   style="fill-rule:nonzero;stroke:#000000;stroke-miterlimit:4">
		<g
   id="g5">
			<path
   style="fill:none;stroke:#ffffff;stroke-width:6.70900011"
   d="M 7.1,10.6 C 5.8,10.6 4.8,11.6 4.8,12.9 L 4.9,35.2 C 4.9,36.6 5.8,37.5 7.2,37.5 C 7.2,37.5 7.3,37.5 7.3,37.5 L 7.3,37.5 L 34.8,37.5 C 35.9,37.5 36.9,36.9 37.7,35.9 C 38.3,35 39.9,31.4 40.8,29.1 C 42.4,25 43.3,22.4 43.3,21.2 C 43.3,20.9 43.3,20 42.6,19.5 C 42,19 41.2,18.9 40.4,18.9 C 40.4,18.9 38,18.9 36.4,18.9 C 36.4,18.1 36.4,17.2 36.4,17.2 C 36.4,15.9 35.5,15 34.2,15 C 34.2,15 22.6,15 20.2,15 C 20.2,13.9 20.2,12.8 20.2,12.8 C 20.2,11.6 19.2,10.6 17.9,10.6 L 7.1,10.6 L 7.1,10.6 z"
   id="path7" />
			<path
   style="stroke:none"
   d="M 7.1,10.6 C 5.8,10.6 4.8,11.6 4.8,12.9 L 4.9,35.2 C 4.9,36.6 5.8,37.5 7.2,37.5 C 7.2,37.5 7.3,37.5 7.3,37.5 L 7.3,37.5 L 34.8,37.5 C 35.9,37.5 36.9,36.9 37.7,35.9 C 38.3,35 39.9,31.4 40.8,29.1 C 42.4,25 43.3,22.4 43.3,21.2 C 43.3,20.9 43.3,20 42.6,19.5 C 42,19 41.2,18.9 40.4,18.9 C 40.4,18.9 38,18.9 36.4,18.9 C 36.4,18.1 36.4,17.2 36.4,17.2 C 36.4,15.9 35.5,15 34.2,15 C 34.2,15 22.6,15 20.2,15 C 20.2,13.9 20.2,12.8 20.2,12.8 C 20.2,11.6 19.2,10.6 17.9,10.6 L 7.1,10.6 L 7.1,10.6 z"
   id="path9" />
			<path
   style="fill:#ffffff;stroke:none"
   d="M 8.9,35.3 L 34,35.3 C 34.6,35.3 35.2,34.9 35.5,34.4 C 36.2,33.4 40.3,23.8 40.3,21.9 C 40.3,21.5 40.3,21.2 39,21.2 L 14.9,21.2 C 14.5,21.2 14.1,21.3 14,21.9 C 13.9,23.4 10.8,33.7 9.7,35 C 9.4,35.4 8.8,35.4 8.8,35.4 L 8.9,35.3 z"
   id="path11" />
		</g>
	</g>
	<g
   id="crop_x0020_marks"
   style="fill-rule:nonzero;stroke:#000000;stroke-miterlimit:4">
		<path
   style="fill:none;stroke:none"
   d="M 48,48 L 0,48 L 0,0 L 48,0 L 48,48 z"
   id="path14" />
	</g>
</svg>