<?xml version="1.0" encoding="UTF-8" standalone="no"?>
<!-- Created with Inkscape (http://www.inkscape.org/) -->
<svg
   xmlns:dc="http://purl.org/dc/elements/1.1/"
   xmlns:cc="http://creativecommons.org/ns#"
   xmlns:rdf="http://www.w3.org/1999/02/22-rdf-syntax-ns#"
   xmlns:svg="http://www.w3.org/2000/svg"
   xmlns="http://www.w3.org/2000/svg"
   xmlns:sodipodi="http://sodipodi.sourceforge.net/DTD/sodipodi-0.dtd"
   xmlns:inkscape="http://www.inkscape.org/namespaces/inkscape"
   width="48"
   height="48"
   id="svg2"
   sodipodi:version="0.32"
   inkscape:version="0.46"
   version="1.0"
   sodipodi:docname="media-playlist-repeat.svg"
   inkscape:output_extension="org.inkscape.output.svg.inkscape">
  <defs
     id="defs4">
    <inkscape:perspective
       sodipodi:type="inkscape:persp3d"
       inkscape:vp_x="0 : 526.18109 : 1"
       inkscape:vp_y="0 : 1000 : 0"
       inkscape:vp_z="744.09448 : 526.18109 : 1"
       inkscape:persp3d-origin="372.04724 : 350.78739 : 1"
       id="perspective10" />
  </defs>
  <sodipodi:namedview
     id="base"
     pagecolor="#ffffff"
     bordercolor="#666666"
     borderopacity="1.0"
     inkscape:pageopacity="0.0"
     inkscape:pageshadow="2"
     inkscape:zoom="15.625"
     inkscape:cx="24"
     inkscape:cy="24"
     inkscape:document-units="px"
     inkscape:current-layer="svg2"
     showgrid="true"
     inkscape:snap-bbox="true"
     inkscape:object-paths="true"
     inkscape:object-nodes="true"
     objecttolerance="10000"
     gridtolerance="10000"
     guidetolerance="10000"
     inkscape:bbox-paths="true"
     inkscape:bbox-nodes="true"
     inkscape:window-width="1272"
     inkscape:window-height="946"
     inkscape:window-x="0"
     inkscape:window-y="25">
    <inkscape:grid
       type="xygrid"
       id="grid2383"
       visible="true"
       enabled="true" />
  </sodipodi:namedview>
  <metadata
     id="metadata7">
    <rdf:RDF>
      <cc:Work
         rdf:about="">
        <dc:format>image/svg+xml</dc:format>
        <dc:type
           rdf:resource="http://purl.org/dc/dcmitype/StillImage" />
        <dc:title>Media Playlist Repeat</dc:title>
        <dc:date>December 2008</dc:date>
        <dc:creator>
          <cc:Agent>
            <dc:title>Luca Ferretti</dc:title>
          </cc:Agent>
        </dc:creator>
        <dc:subject>
          <rdf:Bag>
            <rdf:li>media</rdf:li>
            <rdf:li>playlist</rdf:li>
            <rdf:li>play</rdf:li>
            <rdf:li>order</rdf:li>
            <rdf:li>repeat</rdf:li>
            <rdf:li />
          </rdf:Bag>
        </dc:subject>
        <dc:description>A &quot;circular&quot; arrow</dc:description>
      </cc:Work>
    </rdf:RDF>
  </metadata>
  <rect
     style="fill:none;fill-opacity:0.48780488999999999;stroke:#ffffff;stroke-width:0;stroke-linecap:round;stroke-linejoin:round;stroke-miterlimit:4;stroke-dasharray:none;stroke-opacity:1"
     id="rect2382"
     width="48"
     height="48"
     x="0"
     y="0" />
  <g
     inkscape:label="Livello 1"
     inkscape:groupmode="layer"
     id="layer1">
    <path
       sodipodi:nodetypes="ccccccccccccccccccccccc"
       id="path3157"
       d="M 7,34.90983 C 7,34.90983 5,34.90983 5,32.90983 L 5,7.9098301 C 5,5.9098301 7,5.9098301 7,5.9098301 L 41,5.9098301 C 41,5.9098301 43,5.9098301 43,7.9098301 L 43,32.90983 C 43,34.90983 41,34.90983 41,34.90983 L 30,34.90983 L 30,40.90983 C 29,42.90983 28,41.90983 27,39.90983 L 22,31.90983 L 27,23.90983 C 28,21.90983 29,20.90983 30,22.90983 L 30,28.90983 L 37,28.90983 L 37,11.90983 L 11,11.90983 L 11,28.90983 L 17,28.90983 L 14,31.90983 L 17,34.90983 L 7,34.90983 z"
       style="fill:#ffffff;fill-opacity:1;fill-rule:evenodd;stroke:#ffffff;stroke-width:10;stroke-linecap:round;stroke-linejoin:round;stroke-miterlimit:4;stroke-dasharray:none;stroke-opacity:1" />
    <path
       style="fill:#000000;fill-opacity:1;fill-rule:evenodd;stroke:#000000;stroke-width:2;stroke-linecap:round;stroke-linejoin:round;stroke-miterlimit:4;stroke-dasharray:none;stroke-opacity:1"
       d="M 7,34.90983 C 7,34.90983 5,34.90983 5,32.90983 L 5,7.9098301 C 5,5.9098301 7,5.9098301 7,5.9098301 L 41,5.9098301 C 41,5.9098301 43,5.9098301 43,7.9098301 L 43,32.90983 C 43,34.90983 41,34.90983 41,34.90983 L 30,34.90983 L 30,40.90983 C 29,42.90983 28,41.90983 27,39.90983 L 22,31.90983 L 27,23.90983 C 28,21.90983 29,20.90983 30,22.90983 L 30,28.90983 L 37,28.90983 L 37,11.90983 L 11,11.90983 L 11,28.90983 L 17,28.90983 L 14,31.90983 L 17,34.90983 L 7,34.90983 z"
       id="path2385"
       sodipodi:nodetypes="ccccccccccccccccccccccc" />
  </g>
</svg>
