<?xml version="1.0" encoding="UTF-8" standalone="no"?>
<!-- Created with Inkscape (http://www.inkscape.org/) -->
<svg
   xmlns:dc="http://purl.org/dc/elements/1.1/"
   xmlns:cc="http://creativecommons.org/ns#"
   xmlns:rdf="http://www.w3.org/1999/02/22-rdf-syntax-ns#"
   xmlns:svg="http://www.w3.org/2000/svg"
   xmlns="http://www.w3.org/2000/svg"
   xmlns:sodipodi="http://sodipodi.sourceforge.net/DTD/sodipodi-0.dtd"
   xmlns:inkscape="http://www.inkscape.org/namespaces/inkscape"
   width="48"
   height="48"
   id="svg2"
   sodipodi:version="0.32"
   inkscape:version="0.46"
   version="1.0"
   sodipodi:docname="media-playlist-shuffle.svg"
   inkscape:output_extension="org.inkscape.output.svg.inkscape">
  <defs
     id="defs4" />
  <sodipodi:namedview
     id="base"
     pagecolor="#ffffff"
     bordercolor="#666666"
     borderopacity="1.0"
     inkscape:pageopacity="0.0"
     inkscape:pageshadow="2"
     inkscape:zoom="15.625"
     inkscape:cx="34.848"
     inkscape:cy="24"
     inkscape:document-units="px"
     inkscape:current-layer="svg2"
     showgrid="true"
     inkscape:snap-bbox="true"
     inkscape:object-paths="true"
     inkscape:object-nodes="true"
     objecttolerance="10000"
     gridtolerance="10000"
     guidetolerance="10000"
     inkscape:bbox-paths="true"
     inkscape:bbox-nodes="true"
     inkscape:window-width="1272"
     inkscape:window-height="946"
     inkscape:window-x="0"
     inkscape:window-y="25">
    <inkscape:grid
       type="xygrid"
       id="grid2383"
       visible="true"
       enabled="true" />
  </sodipodi:namedview>
  <metadata
     id="metadata7">
    <rdf:RDF>
      <cc:Work
         rdf:about="">
        <dc:format>image/svg+xml</dc:format>
        <dc:type
           rdf:resource="http://purl.org/dc/dcmitype/StillImage" />
        <dc:title>Media Playlist Shuffle</dc:title>
        <dc:date>December 2008</dc:date>
        <dc:creator>
          <cc:Agent>
            <dc:title>Luca Ferretti</dc:title>
          </cc:Agent>
        </dc:creator>
        <dc:subject>
          <rdf:Bag>
            <rdf:li>media</rdf:li>
            <rdf:li>playlist</rdf:li>
            <rdf:li>play</rdf:li>
            <rdf:li>order</rdf:li>
            <rdf:li>shuffle</rdf:li>
          </rdf:Bag>
        </dc:subject>
        <dc:description>Two intersectating arrows</dc:description>
      </cc:Work>
    </rdf:RDF>
  </metadata>
  <rect
     style="fill:none;fill-opacity:0.48780488999999999;stroke:#ffffff;stroke-width:0;stroke-linecap:round;stroke-linejoin:round;stroke-miterlimit:4;stroke-dasharray:none;stroke-opacity:1"
     id="rect2382"
     width="48"
     height="48"
     x="0"
     y="0" />
  <g
     inkscape:label="Livello 1"
     inkscape:groupmode="layer"
     id="layer1">
    <path
       style="fill:#ffffff;fill-opacity:1;fill-rule:evenodd;stroke:#ffffff;stroke-width:10;stroke-linecap:round;stroke-linejoin:round;stroke-miterlimit:4;stroke-dasharray:none;stroke-opacity:1"
       d="M 5,11 L 5,15 L 14,15 L 25,37 L 35,37 L 35,42 C 36,44 37,43 38,41 L 43,35 L 38,29 C 37,27 36,26 35,28 L 35,33 L 27,33 L 16,11 L 5,11 z"
       id="path3199"
       sodipodi:nodetypes="cccccccccccccc" />
    <g
       id="g3193">
      <path
         style="fill:#ffffff;fill-opacity:1;fill-rule:evenodd;stroke:#ffffff;stroke-width:10;stroke-linecap:round;stroke-linejoin:round;stroke-miterlimit:4;stroke-dasharray:none;stroke-opacity:1"
         d="M 5,37 L 5,33 L 14,33 L 25,11 L 35,11 L 35,6 C 36,4 37,5 38,7 L 43,13 L 38,19 C 37,21 36,22 35,20 L 35,15 L 27,15 L 16,37 L 5,37 z"
         id="path3191"
         sodipodi:nodetypes="cccccccccccccc" />
      <path
         sodipodi:nodetypes="cccccccccccccc"
         id="path2385"
         d="M 5,37 L 5,33 L 14,33 L 25,11 L 35,11 L 35,6 C 36,4 37,5 38,7 L 43,13 L 38,19 C 37,21 36,22 35,20 L 35,15 L 27,15 L 16,37 L 5,37 z"
         style="fill:#000000;fill-opacity:1;fill-rule:evenodd;stroke:#000000;stroke-width:2;stroke-linecap:round;stroke-linejoin:round;stroke-miterlimit:4;stroke-dasharray:none;stroke-opacity:1" />
    </g>
    <path
       style="fill:#ffffff;fill-opacity:1;fill-rule:evenodd;stroke:#ffffff;stroke-width:6;stroke-linecap:round;stroke-linejoin:round;stroke-miterlimit:4;stroke-dasharray:none;stroke-opacity:1"
       d="M 5,11 L 5,15 L 14,15 L 25,37 L 35,37 L 35,42 C 36,44 37,43 38,41 L 43,35 L 38,29 C 37,27 36,26 35,28 L 35,33 L 27,33 L 16,11 L 5,11 z"
       id="path3205"
       sodipodi:nodetypes="cccccccccccccc" />
    <path
       sodipodi:nodetypes="cccccccccccccc"
       id="path3201"
       d="M 5,11 L 5,15 L 14,15 L 25,37 L 35,37 L 35,42 C 36,44 37,43 38,41 L 43,35 L 38,29 C 37,27 36,26 35,28 L 35,33 L 27,33 L 16,11 L 5,11 z"
       style="fill:#000000;fill-opacity:1;fill-rule:evenodd;stroke:#000000;stroke-width:2;stroke-linecap:round;stroke-linejoin:round;stroke-miterlimit:4;stroke-dasharray:none;stroke-opacity:1" />
  </g>
</svg>
