<?xml version="1.0" encoding="UTF-8" standalone="no"?>
<!-- Generator: Adobe Illustrator 9.0, SVG Export Plug-In  -->
<svg
   xmlns:dc="http://purl.org/dc/elements/1.1/"
   xmlns:cc="http://web.resource.org/cc/"
   xmlns:rdf="http://www.w3.org/1999/02/22-rdf-syntax-ns#"
   xmlns:svg="http://www.w3.org/2000/svg"
   xmlns="http://www.w3.org/2000/svg"
   xmlns:sodipodi="http://sodipodi.sourceforge.net/DTD/sodipodi-0.dtd"
   xmlns:inkscape="http://www.inkscape.org/namespaces/inkscape"
   width="48"
   height="48"
   viewBox="0 0 48 48"
   xml:space="preserve"
   id="svg2"
   sodipodi:version="0.32"
   inkscape:version="0.45"
   sodipodi:docname="network-online.svg"
   sodipodi:docbase="/home/luca/svn/gnome2/gnome-themes/icon-themes/HighContrast-SVG/scalable/status"
   inkscape:output_extension="org.inkscape.output.svg.inkscape"
   sodipodi:modified="true"
   version="1.0"><metadata
   id="metadata33"><rdf:RDF><cc:Work
       rdf:about=""><dc:format>image/svg+xml</dc:format><dc:type
         rdf:resource="http://purl.org/dc/dcmitype/StillImage" /><dc:title>Network Online</dc:title><dc:creator><cc:Agent><dc:title>Luca Ferretti &lt;elle.uca@libero.it&gt;</dc:title></cc:Agent></dc:creator><dc:subject><rdf:Bag><rdf:li>network</rdf:li><rdf:li>online</rdf:li><rdf:li>connected</rdf:li></rdf:Bag></dc:subject><dc:description>Connected plugs</dc:description><dc:contributor><cc:Agent><dc:title>Based on Jakub Steiner's work, I've just made it pixel perfect</dc:title></cc:Agent></dc:contributor><cc:license
         rdf:resource="http://creativecommons.org/licenses/LGPL/2.1/" /></cc:Work><cc:License
       rdf:about="http://creativecommons.org/licenses/LGPL/2.1/"><cc:permits
         rdf:resource="http://web.resource.org/cc/Reproduction" /><cc:permits
         rdf:resource="http://web.resource.org/cc/Distribution" /><cc:requires
         rdf:resource="http://web.resource.org/cc/Notice" /><cc:permits
         rdf:resource="http://web.resource.org/cc/DerivativeWorks" /><cc:requires
         rdf:resource="http://web.resource.org/cc/ShareAlike" /><cc:requires
         rdf:resource="http://web.resource.org/cc/SourceCode" /></cc:License></rdf:RDF></metadata><defs
   id="defs31" /><sodipodi:namedview
   inkscape:window-height="945"
   inkscape:window-width="1280"
   inkscape:pageshadow="2"
   inkscape:pageopacity="0.0"
   guidetolerance="10.0"
   gridtolerance="10.0"
   objecttolerance="10.0"
   borderopacity="1.0"
   bordercolor="#666666"
   pagecolor="#ffffff"
   id="base"
   width="48px"
   height="48px"
   showgrid="true"
   inkscape:grid-points="true"
   inkscape:zoom="15"
   inkscape:cx="24"
   inkscape:cy="23.807733"
   inkscape:window-x="0"
   inkscape:window-y="26"
   inkscape:current-layer="svg2" />
	
	
<rect
   style="opacity:1;fill:none;fill-opacity:1;stroke:none;stroke-width:8;stroke-linecap:round;stroke-linejoin:round;stroke-miterlimit:4;stroke-dasharray:none;stroke-opacity:1"
   id="rect6087"
   width="48"
   height="48"
   x="0"
   y="0" /><g
   style="fill:#ffffff;fill-opacity:1;stroke:none;stroke-opacity:1;stroke-width:8;stroke-miterlimit:4;stroke-dasharray:none;stroke-linejoin:round;stroke-linecap:round"
   id="g4143"><path
     style="fill:#ffffff;fill-rule:evenodd;stroke:none;stroke-width:8;stroke-linecap:round;stroke-linejoin:round;stroke-opacity:1;fill-opacity:1;stroke-miterlimit:4;stroke-dasharray:none"
     d="M 5,26 L 5,22 L 11,22 C 11,18 13,12 17,11 L 22,11 L 22,37 L 17,37 C 13,36 11,30 11,26 L 5,26 z "
     id="path4145"
     sodipodi:nodetypes="ccccccccc" /><path
     sodipodi:nodetypes="ccccccccc"
     id="path4147"
     d="M 43,26 L 43,22 L 37,22 C 37,18 35,12 31,11 L 26,11 L 26,37 L 31,37 C 35,36 37,30 37,26 L 43,26 z "
     style="fill:#ffffff;fill-rule:evenodd;stroke:none;stroke-width:8;stroke-linecap:round;stroke-linejoin:round;stroke-opacity:1;fill-opacity:1;stroke-miterlimit:4;stroke-dasharray:none" /></g><g
   style="fill:#ffffff;fill-opacity:1;stroke:#ffffff;stroke-opacity:1;stroke-linejoin:round;stroke-linecap:round;stroke-width:8;stroke-miterlimit:4;stroke-dasharray:none"
   id="g7058"><path
     style="fill:#ffffff;fill-rule:evenodd;stroke:#ffffff;stroke-width:8;stroke-linecap:round;stroke-linejoin:round;stroke-opacity:1;fill-opacity:1;stroke-miterlimit:4;stroke-dasharray:none"
     d="M 5,26 L 5,22 L 11,22 C 11,18 13,12 17,11 L 22,11 L 22,37 L 17,37 C 13,36 11,30 11,26 L 5,26 z "
     id="path7060"
     sodipodi:nodetypes="ccccccccc" /><path
     sodipodi:nodetypes="ccccccccc"
     id="path7062"
     d="M 43,26 L 43,22 L 37,22 C 37,18 35,12 31,11 L 26,11 L 26,37 L 31,37 C 35,36 37,30 37,26 L 43,26 z "
     style="fill:#ffffff;fill-rule:evenodd;stroke:#ffffff;stroke-width:8;stroke-linecap:round;stroke-linejoin:round;stroke-opacity:1;fill-opacity:1;stroke-miterlimit:4;stroke-dasharray:none" /></g><g
   id="g3170"
   style="fill:#000000;fill-opacity:1"><path
     sodipodi:nodetypes="ccccccccc"
     id="path2186"
     d="M 5,26 L 5,22 L 11,22 C 11,18 13,12 17,11 L 22,11 L 22,37 L 17,37 C 13,36 11,30 11,26 L 5,26 z "
     style="fill:#000000;fill-rule:evenodd;stroke:none;stroke-width:1px;stroke-linecap:butt;stroke-linejoin:miter;stroke-opacity:1;fill-opacity:1" /><path
     style="fill:#000000;fill-rule:evenodd;stroke:none;stroke-width:1px;stroke-linecap:butt;stroke-linejoin:miter;stroke-opacity:1;fill-opacity:1"
     d="M 43,26 L 43,22 L 37,22 C 37,18 35,12 31,11 L 26,11 L 26,37 L 31,37 C 35,36 37,30 37,26 L 43,26 z "
     id="path3159"
     sodipodi:nodetypes="ccccccccc" /></g></svg>