<?xml version="1.0" encoding="UTF-8" standalone="no"?>
<!-- Generator: Adobe Illustrator 9.0, SVG Export Plug-In  -->
<svg xmlns:dc="http://purl.org/dc/elements/1.1/" xmlns:cc="http://creativecommons.org/ns#" xmlns:rdf="http://www.w3.org/1999/02/22-rdf-syntax-ns#" xmlns:svg="http://www.w3.org/2000/svg" xmlns="http://www.w3.org/2000/svg" xmlns:sodipodi="http://sodipodi.sourceforge.net/DTD/sodipodi-0.dtd" xmlns:inkscape="http://www.inkscape.org/namespaces/inkscape" width="48" height="48" viewBox="0 0 48 48" xml:space="preserve" id="svg2" sodipodi:version="0.32" inkscape:version="0.46" sodipodi:docname="printer-error.svg" sodipodi:docbase="/home/luca/Artwork/blackwhite-icon-theme/scalable/devices" version="1.0" inkscape:output_extension="org.inkscape.output.svg.inkscape"><metadata id="metadata31"><rdf:RDF><cc:Work rdf:about=""><dc:format>image/svg+xml</dc:format><dc:type rdf:resource="http://purl.org/dc/dcmitype/StillImage"/></cc:Work></rdf:RDF></metadata><defs id="defs29"><inkscape:perspective sodipodi:type="inkscape:persp3d" inkscape:vp_x="0 : 24 : 1" inkscape:vp_y="0 : 1000 : 0" inkscape:vp_z="48 : 24 : 1" inkscape:persp3d-origin="24 : 16 : 1" id="perspective17"/>
		
	
			
			
			
			
			
			
			
			
			
		</defs><sodipodi:namedview inkscape:window-height="724" inkscape:window-width="1280" inkscape:pageshadow="2" inkscape:pageopacity="0.0" borderopacity="1.0" bordercolor="#666666" pagecolor="#ffffff" id="base" showgrid="false" inkscape:grid-bbox="true" inkscape:grid-points="true" inkscape:zoom="1" inkscape:cx="-68.868779" inkscape:cy="24.556396" inkscape:window-x="0" inkscape:window-y="27" inkscape:current-layer="svg2"><inkscape:grid type="xygrid" id="grid3160"/></sodipodi:namedview>
	<rect style="fill: rgb(113, 113, 113); fill-opacity: 0; fill-rule: evenodd; stroke: none; stroke-width: 1px; stroke-linecap: butt; stroke-linejoin: miter; stroke-opacity: 1;" id="rect3981" width="48" height="48" x="0" y="0" rx="0" ry="0"/><g id="g3100" style="stroke: rgb(255, 255, 255); stroke-opacity: 1; stroke-width: 8; stroke-miterlimit: 4; stroke-dasharray: none; fill: rgb(255, 255, 255); fill-opacity: 1;"><path style="fill: rgb(255, 255, 255); fill-rule: nonzero; stroke: rgb(255, 255, 255); stroke-width: 8; stroke-linejoin: round; stroke-miterlimit: 4; stroke-opacity: 1; stroke-dasharray: none; fill-opacity: 1;" d="M 41,42 C 41,42.4 40.4,43 40,43 L 8,43 C 7.6,43 7,42.4 7,42 L 7,40 C 7,39.6 7.5,39.3 7.9,39.3 L 39.8,39.3 C 40.2,39.3 41,39.6 41,40 L 41,42 z " id="path3102" sodipodi:nodetypes="ccccccccc"/><path style="fill: rgb(255, 255, 255); fill-rule: nonzero; stroke: rgb(255, 255, 255); stroke-width: 8; stroke-linejoin: round; stroke-miterlimit: 4; stroke-opacity: 1; stroke-dasharray: none; fill-opacity: 1;" d="M 44,39 C 44,39.4 43.4,40 43,40 L 5,40 C 4.6,40 4,39.4 4,39 L 4,25 C 4,24.6 4.6,24 5,24 L 43,24 C 43.4,24 44,24.6 44,25 L 44,39 z " id="path3104" sodipodi:nodetypes="ccccccccc"/><path style="fill: rgb(255, 255, 255); fill-rule: nonzero; stroke: rgb(255, 255, 255); stroke-width: 8; stroke-linejoin: round; stroke-miterlimit: 4; stroke-opacity: 1; stroke-dasharray: none; fill-opacity: 1;" d="M 12,4 C 9,4 8,6 8,8 L 8,26 L 40,26 L 40,8 C 40,6 39,4 36,4 L 12,4 z " id="path3106" sodipodi:nodetypes="ccccccc"/></g><g id="g3095"><path sodipodi:nodetypes="ccccccccc" id="path13" d="M 41,42 C 41,42.4 40.4,43 40,43 L 8,43 C 7.6,43 7,42.4 7,42 L 7,40 C 7,39.6 7.5,39.3 7.9,39.3 L 39.8,39.3 C 40.2,39.3 41,39.6 41,40 L 41,42 z " style="fill: rgb(0, 0, 0); fill-rule: nonzero; stroke: none; stroke-width: 7.4329; stroke-linejoin: round; stroke-miterlimit: 4;"/><path sodipodi:nodetypes="ccccccccc" id="path15" d="M 44,39 C 44,39.4 43.4,40 43,40 L 5,40 C 4.6,40 4,39.4 4,39 L 4,25 C 4,24.6 4.6,24 5,24 L 43,24 C 43.4,24 44,24.6 44,25 L 44,39 z " style="fill: rgb(0, 0, 0); fill-rule: nonzero; stroke: none; stroke-width: 7.4329; stroke-linejoin: round; stroke-miterlimit: 4;"/><path sodipodi:nodetypes="ccccccc" id="path17" d="M 12,4 C 9,4 8,6 8,8 L 8,26 L 40,26 L 40,8 C 40,6 39,4 36,4 L 12,4 z " style="fill: rgb(0, 0, 0); fill-rule: nonzero; stroke: none; stroke-width: 7.4329; stroke-linejoin: round; stroke-miterlimit: 4;"/></g><path style="fill: rgb(255, 255, 255); fill-rule: nonzero; stroke: none; stroke-width: 7.4329; stroke-linejoin: round; stroke-miterlimit: 4;" d="M 36,24 L 12,24 L 12,9 C 12,9 12,8 13,8 L 35,8 C 36,8 36,9 36,9 L 36,24 z " id="path19" sodipodi:nodetypes="ccccccc"/>
	
<path style="fill: rgb(255, 255, 255); fill-opacity: 1; fill-rule: evenodd; stroke: rgb(255, 255, 255); stroke-width: 4; stroke-linecap: butt; stroke-linejoin: miter; stroke-opacity: 1; stroke-miterlimit: 4; stroke-dasharray: none;" d="M 11,37 L 37,37" id="path1315" sodipodi:nodetypes="cc"/><rect style="opacity: 1; fill: rgb(0, 0, 0); fill-opacity: 1; stroke: rgb(255, 255, 255); stroke-width: 6; stroke-linecap: round; stroke-linejoin: round; stroke-miterlimit: 4; stroke-dasharray: none; stroke-dashoffset: 0pt; stroke-opacity: 1;" id="rect3164" width="18" height="4" x="24.234022" y="-2.7071049" rx="1" ry="1" transform="matrix(0.707107, 0.707107, -0.707107, 0.707107, 0, 0)"/><rect ry="1" rx="1" y="-35.234024" x="-9.7070999" height="4" width="18" id="rect3168" style="opacity: 1; fill: rgb(0, 0, 0); fill-opacity: 1; stroke: rgb(255, 255, 255); stroke-width: 6; stroke-linecap: round; stroke-linejoin: round; stroke-miterlimit: 4; stroke-dasharray: none; stroke-dashoffset: 0pt; stroke-opacity: 1;" transform="matrix(-0.707107, 0.707107, -0.707107, -0.707107, 0, 0)"/><rect transform="matrix(0.707107, 0.707107, -0.707107, 0.707107, 0, 0)" ry="1" rx="1" y="-2.7071073" x="24.234018" height="4" width="18" id="rect3170" style="opacity: 1; fill: rgb(0, 0, 0); fill-opacity: 1; stroke: none; stroke-width: 6; stroke-linecap: round; stroke-linejoin: round; stroke-miterlimit: 4; stroke-dasharray: none; stroke-dashoffset: 0pt; stroke-opacity: 1;"/><rect transform="matrix(-0.707107, 0.707107, -0.707107, -0.707107, 0, 0)" style="opacity: 1; fill: rgb(0, 0, 0); fill-opacity: 1; stroke: none; stroke-width: 6; stroke-linecap: round; stroke-linejoin: round; stroke-miterlimit: 4; stroke-dasharray: none; stroke-dashoffset: 0pt; stroke-opacity: 1;" id="rect3172" width="18" height="4" x="-9.7071056" y="-35.23402" rx="1" ry="1"/></svg>