<?xml version="1.0" encoding="UTF-8" standalone="no"?>
<!-- Created with Inkscape (http://www.inkscape.org/) -->
<svg
   xmlns:dc="http://purl.org/dc/elements/1.1/"
   xmlns:cc="http://web.resource.org/cc/"
   xmlns:rdf="http://www.w3.org/1999/02/22-rdf-syntax-ns#"
   xmlns:svg="http://www.w3.org/2000/svg"
   xmlns="http://www.w3.org/2000/svg"
   xmlns:sodipodi="http://sodipodi.sourceforge.net/DTD/sodipodi-0.dtd"
   xmlns:inkscape="http://www.inkscape.org/namespaces/inkscape"
   width="48px"
   height="48px"
   id="svg2160"
   sodipodi:version="0.32"
   inkscape:version="0.45"
   sodipodi:docname="software-update-available.svg"
   sodipodi:docbase="/home/luca/svn/gnome2/gnome-themes/icon-themes/HighContrast-SVG/scalable/status"
   inkscape:output_extension="org.inkscape.output.svg.inkscape"
   sodipodi:modified="true">
  <defs
     id="defs2162" />
  <sodipodi:namedview
     id="base"
     pagecolor="#ffffff"
     bordercolor="#666666"
     borderopacity="1.0"
     inkscape:pageopacity="0.0"
     inkscape:pageshadow="2"
     inkscape:zoom="15"
     inkscape:cx="24.066667"
     inkscape:cy="23.966667"
     inkscape:current-layer="layer1"
     showgrid="true"
     inkscape:grid-bbox="true"
     inkscape:document-units="px"
     showguides="true"
     inkscape:guide-bbox="true"
     inkscape:window-width="1280"
     inkscape:window-height="945"
     inkscape:window-x="0"
     inkscape:window-y="26">
    <sodipodi:guide
       orientation="horizontal"
       position="44.018433"
       id="guide2168" />
    <sodipodi:guide
       orientation="vertical"
       position="3.9078341"
       id="guide2170" />
    <sodipodi:guide
       orientation="horizontal"
       position="3.9815668"
       id="guide2172" />
    <sodipodi:guide
       orientation="vertical"
       position="43.9447"
       id="guide2174" />
  </sodipodi:namedview>
  <metadata
     id="metadata2165">
    <rdf:RDF>
      <cc:Work
         rdf:about="">
        <dc:format>image/svg+xml</dc:format>
        <dc:type
           rdf:resource="http://purl.org/dc/dcmitype/StillImage" />
        <dc:title>Updates</dc:title>
        <dc:creator>
          <cc:Agent>
            <dc:title>Luca Ferretti &lt;elle.uca@libero.it&gt;</dc:title>
          </cc:Agent>
        </dc:creator>
        <dc:subject>
          <rdf:Bag>
            <rdf:li>updates</rdf:li>
            <rdf:li>available</rdf:li>
            <rdf:li>software</rdf:li>
          </rdf:Bag>
        </dc:subject>
        <dc:description>Based on same icon in GNOME icon theme</dc:description>
        <cc:license
           rdf:resource="http://creativecommons.org/licenses/LGPL/2.1/" />
      </cc:Work>
      <cc:License
         rdf:about="http://creativecommons.org/licenses/LGPL/2.1/">
        <cc:permits
           rdf:resource="http://web.resource.org/cc/Reproduction" />
        <cc:permits
           rdf:resource="http://web.resource.org/cc/Distribution" />
        <cc:requires
           rdf:resource="http://web.resource.org/cc/Notice" />
        <cc:permits
           rdf:resource="http://web.resource.org/cc/DerivativeWorks" />
        <cc:requires
           rdf:resource="http://web.resource.org/cc/ShareAlike" />
        <cc:requires
           rdf:resource="http://web.resource.org/cc/SourceCode" />
      </cc:License>
    </rdf:RDF>
  </metadata>
  <g
     id="layer1"
     inkscape:label="Layer 1"
     inkscape:groupmode="layer">
    <path
       sodipodi:type="star"
       style="opacity:1;fill:#000000;fill-opacity:1;stroke:#ffffff;stroke-width:4.52460814;stroke-linecap:round;stroke-linejoin:round;stroke-miterlimit:4;stroke-dasharray:none;stroke-opacity:1"
       id="path2178"
       sodipodi:sides="8"
       sodipodi:cx="24.479263"
       sodipodi:cy="24.1106"
       sodipodi:r1="24.796349"
       sodipodi:r2="15.026587"
       sodipodi:arg1="-1.9452288"
       sodipodi:arg2="-1.5507025"
       inkscape:flatsided="false"
       inkscape:rounded="-0.02"
       inkscape:randomized="0"
       d="M 15.410138,1.0322575 C 15.179956,1.1222272 25.028284,9.0915606 24.781185,9.0870465 C 24.53493,9.0825478 34.610883,1.4777138 34.385276,1.3789075 C 34.158894,1.2797622 35.487544,13.878751 35.31601,13.700834 C 35.145063,13.523525 47.647268,15.27087 47.557605,15.041474 C 47.467636,14.811292 39.498302,24.65962 39.502816,24.412521 C 39.507315,24.166266 47.112149,34.24222 47.210955,34.016612 C 47.310101,33.79023 34.711111,35.11888 34.889029,34.947346 C 35.066338,34.776399 33.318993,47.278604 33.548388,47.188942 C 33.778571,47.098972 23.930243,39.129638 24.177342,39.134153 C 24.423597,39.138651 14.347643,46.743485 14.573251,46.842292 C 14.799633,46.941437 13.470983,34.342448 13.642516,34.520365 C 13.813464,34.697675 1.3112591,32.950329 1.4009213,33.179725 C 1.490891,33.409907 9.4602244,23.561579 9.4557103,23.808678 C 9.4512116,24.054933 1.8463776,13.978979 1.7475712,14.204587 C 1.648426,14.430969 14.247415,13.102319 14.069498,13.273853 C 13.892188,13.4448 15.639534,0.94259532 15.410138,1.0322575 z "
       transform="matrix(0.820487,0.3319062,-0.3289678,0.8210527,11.846697,-3.8811857)" />
    <path
       sodipodi:type="star"
       style="opacity:1;fill:#ffffff;fill-opacity:1;stroke:#ffffff;stroke-width:9.92049942;stroke-linecap:round;stroke-linejoin:round;stroke-miterlimit:4;stroke-dasharray:none;stroke-opacity:1"
       id="path3137"
       sodipodi:sides="8"
       sodipodi:cx="24.479263"
       sodipodi:cy="24.1106"
       sodipodi:r1="24.796349"
       sodipodi:r2="17.506222"
       sodipodi:arg1="-1.9452288"
       sodipodi:arg2="-1.5507025"
       inkscape:flatsided="false"
       inkscape:rounded="0.19"
       inkscape:randomized="0"
       d="M 15.410138,1.0322575 C 17.347379,0.27506185 22.75139,6.5699207 24.831007,6.6079118 C 26.900062,6.64571 32.489697,0.54872687 34.385276,1.3789075 C 36.29053,2.2133257 35.660605,10.485676 37.104253,11.98305 C 38.540568,13.472821 46.804255,13.114072 47.557605,15.041474 C 48.314801,16.978716 42.019942,22.382726 41.981951,24.462343 C 41.944153,26.531398 48.041136,32.121033 47.210955,34.016612 C 46.376537,35.921866 38.104187,35.291942 36.606812,36.735589 C 35.117042,38.171904 35.475791,46.435591 33.548388,47.188942 C 31.611147,47.946137 26.207137,41.651278 24.12752,41.613287 C 22.058465,41.575489 16.46883,47.672472 14.573251,46.842292 C 12.667997,46.007873 13.297921,37.735523 11.854274,36.238149 C 10.417958,34.748378 2.1542715,35.107128 1.4009213,33.179725 C 0.64372564,31.242484 6.9385845,25.838473 6.9765756,23.758856 C 7.0143738,21.689801 0.91739066,16.100166 1.7475712,14.204587 C 2.5819895,12.299333 10.854339,12.929258 12.351714,11.48561 C 13.841485,10.049295 13.482735,1.7856077 15.410138,1.0322575 z "
       transform="matrix(0.7476211,0.3025799,-0.2997528,0.7485069,12.898357,-1.4538832)" />
    <path
       transform="matrix(0.7476211,0.3025799,-0.2997528,0.7485069,12.898357,-1.4538832)"
       d="M 15.410138,1.0322575 C 17.347379,0.27506185 22.75139,6.5699207 24.831007,6.6079118 C 26.900062,6.64571 32.489697,0.54872687 34.385276,1.3789075 C 36.29053,2.2133257 35.660605,10.485676 37.104253,11.98305 C 38.540568,13.472821 46.804255,13.114072 47.557605,15.041474 C 48.314801,16.978716 42.019942,22.382726 41.981951,24.462343 C 41.944153,26.531398 48.041136,32.121033 47.210955,34.016612 C 46.376537,35.921866 38.104187,35.291942 36.606812,36.735589 C 35.117042,38.171904 35.475791,46.435591 33.548388,47.188942 C 31.611147,47.946137 26.207137,41.651278 24.12752,41.613287 C 22.058465,41.575489 16.46883,47.672472 14.573251,46.842292 C 12.667997,46.007873 13.297921,37.735523 11.854274,36.238149 C 10.417958,34.748378 2.1542715,35.107128 1.4009213,33.179725 C 0.64372564,31.242484 6.9385845,25.838473 6.9765756,23.758856 C 7.0143738,21.689801 0.91739066,16.100166 1.7475712,14.204587 C 2.5819895,12.299333 10.854339,12.929258 12.351714,11.48561 C 13.841485,10.049295 13.482735,1.7856077 15.410138,1.0322575 z "
       inkscape:randomized="0"
       inkscape:rounded="0.19"
       inkscape:flatsided="false"
       sodipodi:arg2="-1.5507025"
       sodipodi:arg1="-1.9452288"
       sodipodi:r2="17.506222"
       sodipodi:r1="24.796349"
       sodipodi:cy="24.1106"
       sodipodi:cx="24.479263"
       sodipodi:sides="8"
       id="path2163"
       style="opacity:1;fill:#000000;fill-opacity:1;stroke:none;stroke-width:4.52460814;stroke-linecap:round;stroke-linejoin:round;stroke-miterlimit:4;stroke-dasharray:none;stroke-opacity:1"
       sodipodi:type="star" />
    <path
       style="fill:#ffffff;fill-opacity:1;fill-rule:evenodd;stroke:#ffffff;stroke-width:1.14750874px;stroke-linecap:round;stroke-linejoin:round;stroke-opacity:1"
       d="M 21.073753,16.351128 C 21.073753,11.691573 26.926247,10.95127 26.926247,16.351128 C 26.926247,16.351128 25.463123,27.95958 24,27.95958 C 22.536877,27.95958 21.073753,16.351128 21.073753,16.351128 z "
       id="path8989"
       sodipodi:nodetypes="ccsc" />
    <path
       sodipodi:type="arc"
       style="opacity:1;fill:#ffffff;fill-opacity:1;stroke:none;stroke-width:8;stroke-linecap:round;stroke-linejoin:round;stroke-miterlimit:4;stroke-dasharray:none;stroke-opacity:1"
       id="path5170"
       sodipodi:cx="24"
       sodipodi:cy="34.933334"
       sodipodi:rx="3"
       sodipodi:ry="3"
       d="M 27 34.933334 A 3 3 0 1 1  21,34.933334 A 3 3 0 1 1  27 34.933334 z"
       transform="translate(0,-2.0666678)" />
  </g>
</svg>
