<?xml version="1.0" encoding="UTF-8" standalone="no"?>
<!-- Created with Inkscape (http://www.inkscape.org/) -->
<svg
   xmlns:dc="http://purl.org/dc/elements/1.1/"
   xmlns:cc="http://creativecommons.org/ns#"
   xmlns:rdf="http://www.w3.org/1999/02/22-rdf-syntax-ns#"
   xmlns:svg="http://www.w3.org/2000/svg"
   xmlns="http://www.w3.org/2000/svg"
   xmlns:sodipodi="http://sodipodi.sourceforge.net/DTD/sodipodi-0.dtd"
   xmlns:inkscape="http://www.inkscape.org/namespaces/inkscape"
   width="48px"
   height="48px"
   id="svg2383"
   sodipodi:version="0.32"
   inkscape:version="0.46"
   sodipodi:docname="weather-clean-night.svg"
   inkscape:output_extension="org.inkscape.output.svg.inkscape">
  <defs
     id="defs2385">
    <inkscape:perspective
       sodipodi:type="inkscape:persp3d"
       inkscape:vp_x="0 : 24 : 1"
       inkscape:vp_y="0 : 1000 : 0"
       inkscape:vp_z="48 : 24 : 1"
       inkscape:persp3d-origin="24 : 16 : 1"
       id="perspective2391" />
  </defs>
  <sodipodi:namedview
     id="base"
     pagecolor="#ffffff"
     bordercolor="#666666"
     borderopacity="1.0"
     inkscape:pageopacity="0.0"
     inkscape:pageshadow="2"
     inkscape:zoom="15.5625"
     inkscape:cx="21.751004"
     inkscape:cy="24"
     inkscape:current-layer="layer1"
     showgrid="true"
     inkscape:grid-bbox="true"
     inkscape:document-units="px"
     inkscape:object-paths="true"
     inkscape:object-nodes="true"
     objecttolerance="10000"
     gridtolerance="10000"
     guidetolerance="10000"
     inkscape:snap-bbox="true"
     inkscape:window-width="1278"
     inkscape:window-height="949"
     inkscape:window-x="0"
     inkscape:window-y="26">
    <inkscape:grid
       type="xygrid"
       id="grid2491"
       visible="true"
       enabled="true" />
  </sodipodi:namedview>
  <metadata
     id="metadata2388">
    <rdf:RDF>
      <cc:Work
         rdf:about="">
        <dc:format>image/svg+xml</dc:format>
        <dc:type
           rdf:resource="http://purl.org/dc/dcmitype/StillImage" />
        <dc:title>Weather Clean Night</dc:title>
        <dc:date>December 2008</dc:date>
        <dc:creator>
          <cc:Agent>
            <dc:title>Luca Ferretti &lt;elle.uca@libero.it&gt;</dc:title>
          </cc:Agent>
        </dc:creator>
        <dc:subject>
          <rdf:Bag>
            <rdf:li>weather</rdf:li>
            <rdf:li>night</rdf:li>
            <rdf:li>moon</rdf:li>
            <rdf:li>clean</rdf:li>
          </rdf:Bag>
        </dc:subject>
        <dc:description>A half moon with a twinkle-twinkle-little-star and a cloud over it</dc:description>
        <cc:license
           rdf:resource="" />
      </cc:Work>
    </rdf:RDF>
  </metadata>
  <g
     id="layer1"
     inkscape:label="Layer 1"
     inkscape:groupmode="layer">
    <rect
       style="fill:none;fill-opacity:0.52822577999999998;stroke:none;stroke-width:8;stroke-linecap:round;stroke-linejoin:round;stroke-miterlimit:4;stroke-dasharray:none;stroke-opacity:1"
       id="rect2493"
       width="48"
       height="48"
       x="0"
       y="0" />
    <g
       id="g3785">
      <path
         style="opacity:1;fill:#ffffff;fill-opacity:1;fill-rule:nonzero;stroke:#ffffff;stroke-width:17.04613686;stroke-linecap:butt;stroke-linejoin:round;stroke-miterlimit:4;stroke-dasharray:none;stroke-dashoffset:0;stroke-opacity:1"
         d="M 17.114204,9.5545413 C 16.601229,11.460482 15.913969,13.404708 15.913969,15.512804 C 15.91397,23.945186 22.87132,30.780846 31.453817,30.780846 C 33.960349,30.780846 36.326215,29.820468 38.40253,29.167151 C 37.364373,34.92046 30.499785,38.476932 24.062917,38.476932 C 15.480416,38.476932 8.523068,31.64127 8.523068,23.20889 C 8.523068,17.239196 11.410444,10.440485 17.114204,9.5545413 z"
         id="path3275"
         sodipodi:nodetypes="csscssc" />
      <path
         style="opacity:1;fill:#000000;fill-opacity:1;fill-rule:nonzero;stroke:#000000;stroke-width:9;stroke-linecap:round;stroke-linejoin:round;stroke-miterlimit:4;stroke-dasharray:none;stroke-dashoffset:0;stroke-opacity:1"
         d="M 17.14773,9.551622 C 16.634458,11.458325 15.946801,13.403328 15.946801,15.512267 C 15.946802,23.948022 22.90818,30.786416 31.495644,30.786416 C 34.003627,30.786416 36.370863,29.825654 38.448378,29.172075 C 37.409621,34.927685 30.54106,38.485579 24.100466,38.485579 C 15.512997,38.485579 8.5516221,31.647183 8.5516221,23.211431 C 8.5516221,17.23935 11.440669,10.43792 17.14773,9.551622 z"
         id="path3273"
         sodipodi:nodetypes="csscssc" />
      <path
         sodipodi:nodetypes="csscssc"
         id="path23408"
         d="M 17.155081,9.5437498 C 16.6409,11.451491 15.952025,13.397552 15.952025,15.507638 C 15.952026,23.947983 22.925733,30.790099 31.528403,30.790099 C 34.040828,30.790099 36.412257,29.828813 38.493452,29.174879 C 37.452854,34.933622 30.572129,38.493452 24.120129,38.493452 C 15.517453,38.493452 8.5437499,31.651334 8.5437499,23.210991 C 8.5437499,17.235662 11.437913,10.43053 17.155081,9.5437498 z"
         style="opacity:1;fill:#ffffff;fill-opacity:1;fill-rule:nonzero;stroke:#ffffff;stroke-width:3.01309681;stroke-linecap:butt;stroke-linejoin:round;stroke-miterlimit:4;stroke-dasharray:none;stroke-dashoffset:0;stroke-opacity:1" />
    </g>
    <g
       id="g3781">
      <path
         sodipodi:type="star"
         style="fill:none;fill-opacity:0.52822577;stroke:#ffffff;stroke-width:11.01093483;stroke-linecap:round;stroke-linejoin:round;stroke-miterlimit:4;stroke-dasharray:none;stroke-opacity:1"
         id="path3279"
         sodipodi:sides="5"
         sodipodi:cx="7"
         sodipodi:cy="6"
         sodipodi:r1="6.9523058"
         sodipodi:r2="3.1500001"
         sodipodi:arg1="0.65805831"
         sodipodi:arg2="1.2863768"
         inkscape:flatsided="false"
         inkscape:rounded="0.23"
         inkscape:randomized="0"
         d="M 12.500534,10.251904 C 11.828542,11.121235 8.938524,8.7151308 7.8838911,9.0234479 C 6.8292582,9.3317649 5.690398,12.915693 4.6559579,12.545229 C 3.6215177,12.174765 5.016794,8.6826674 4.3976676,7.7749272 C 3.7785411,6.8671869 0.018095967,6.8915612 0.050768479,5.7932704 C 0.083440989,4.6949798 3.8357873,4.9428488 4.507779,4.0735174 C 5.1797707,3.204186 3.994548,-0.36467778 5.0491809,-0.67299487 C 6.1038137,-0.98131195 7.027615,2.6639772 8.0620551,3.0344411 C 9.0964953,3.4049051 12.124433,1.1748517 12.743559,2.0825919 C 13.362685,2.9903322 10.18128,4.9953757 10.148607,6.0936664 C 10.115935,7.1919571 13.172526,9.3825721 12.500534,10.251904 z"
         transform="matrix(1.0180133,0,0,0.9803554,28.445553,6.1778971)" />
      <path
         transform="matrix(1.0180133,0,0,0.9803554,28.447043,6.1764074)"
         d="M 12.500534,10.251904 C 11.828542,11.121235 8.938524,8.7151308 7.8838911,9.0234479 C 6.8292582,9.3317649 5.690398,12.915693 4.6559579,12.545229 C 3.6215177,12.174765 5.016794,8.6826674 4.3976676,7.7749272 C 3.7785411,6.8671869 0.018095967,6.8915612 0.050768479,5.7932704 C 0.083440989,4.6949798 3.8357873,4.9428488 4.507779,4.0735174 C 5.1797707,3.204186 3.994548,-0.36467778 5.0491809,-0.67299487 C 6.1038137,-0.98131195 7.027615,2.6639772 8.0620551,3.0344411 C 9.0964953,3.4049051 12.124433,1.1748517 12.743559,2.0825919 C 13.362685,2.9903322 10.18128,4.9953757 10.148607,6.0936664 C 10.115935,7.1919571 13.172526,9.3825721 12.500534,10.251904 z"
         inkscape:randomized="0"
         inkscape:rounded="0.23"
         inkscape:flatsided="false"
         sodipodi:arg2="1.2863768"
         sodipodi:arg1="0.65805831"
         sodipodi:r2="3.1500001"
         sodipodi:r1="6.9523058"
         sodipodi:cy="6"
         sodipodi:cx="7"
         sodipodi:sides="5"
         id="path3277"
         style="fill:#000000;fill-opacity:1;stroke:#000000;stroke-width:3;stroke-linecap:round;stroke-linejoin:round;stroke-miterlimit:4;stroke-dasharray:none;stroke-opacity:1"
         sodipodi:type="star" />
    </g>
  </g>
</svg>
