<?xml version="1.0" encoding="UTF-8" standalone="no"?>
<!-- Created with Inkscape (http://www.inkscape.org/) -->
<svg
   xmlns:dc="http://purl.org/dc/elements/1.1/"
   xmlns:cc="http://creativecommons.org/ns#"
   xmlns:rdf="http://www.w3.org/1999/02/22-rdf-syntax-ns#"
   xmlns:svg="http://www.w3.org/2000/svg"
   xmlns="http://www.w3.org/2000/svg"
   xmlns:sodipodi="http://sodipodi.sourceforge.net/DTD/sodipodi-0.dtd"
   xmlns:inkscape="http://www.inkscape.org/namespaces/inkscape"
   width="48px"
   height="48px"
   id="svg2383"
   sodipodi:version="0.32"
   inkscape:version="0.46"
   sodipodi:docname="weather-few-clouds.svg"
   inkscape:output_extension="org.inkscape.output.svg.inkscape">
  <defs
     id="defs2385">
    <inkscape:perspective
       sodipodi:type="inkscape:persp3d"
       inkscape:vp_x="0 : 24 : 1"
       inkscape:vp_y="0 : 1000 : 0"
       inkscape:vp_z="48 : 24 : 1"
       inkscape:persp3d-origin="24 : 16 : 1"
       id="perspective13" />
  </defs>
  <sodipodi:namedview
     id="base"
     pagecolor="#ffffff"
     bordercolor="#666666"
     borderopacity="1.0"
     inkscape:pageopacity="0.0"
     inkscape:pageshadow="2"
     inkscape:zoom="15.5625"
     inkscape:cx="22.875502"
     inkscape:cy="20.757759"
     inkscape:current-layer="layer1"
     showgrid="true"
     inkscape:grid-bbox="true"
     inkscape:document-units="px"
     inkscape:object-paths="true"
     inkscape:object-nodes="true"
     objecttolerance="10000"
     gridtolerance="10000"
     guidetolerance="10000"
     inkscape:snap-bbox="true"
     inkscape:window-width="1278"
     inkscape:window-height="949"
     inkscape:window-x="0"
     inkscape:window-y="26"
     showguides="true"
     inkscape:guide-bbox="true">
    <inkscape:grid
       type="xygrid"
       id="grid3165"
       visible="true"
       enabled="true" />
  </sodipodi:namedview>
  <metadata
     id="metadata2388">
    <rdf:RDF>
      <cc:Work
         rdf:about="">
        <dc:format>image/svg+xml</dc:format>
        <dc:type
           rdf:resource="http://purl.org/dc/dcmitype/StillImage" />
        <dc:title>Weather Few Clouds Night</dc:title>
        <dc:date>December 2008</dc:date>
        <dc:creator>
          <cc:Agent>
            <dc:title>Luca Ferretti &lt;elle.uca@libero.it&gt;</dc:title>
          </cc:Agent>
        </dc:creator>
        <dc:subject>
          <rdf:Bag>
            <rdf:li>weather</rdf:li>
            <rdf:li>day</rdf:li>
            <rdf:li>cloud</rdf:li>
            <rdf:li>few</rdf:li>
            <rdf:li />
          </rdf:Bag>
        </dc:subject>
        <dc:description>A sun with a cloud over it</dc:description>
        <cc:license
           rdf:resource="" />
      </cc:Work>
    </rdf:RDF>
  </metadata>
  <g
     id="layer1"
     inkscape:label="Layer 1"
     inkscape:groupmode="layer">
    <rect
       style="fill:none;fill-opacity:0.47389557999999998;stroke:none;stroke-width:1;stroke-linecap:round;stroke-linejoin:round;stroke-miterlimit:4;stroke-dasharray:none;stroke-opacity:1"
       id="rect2393"
       width="48"
       height="48"
       x="0"
       y="0" />
    <path
       d="M 24.000001,4 C 25.882368,4.0000001 27.235805,11.269216 28.974885,11.989566 C 30.713966,12.709917 36.811102,8.5268302 38.142136,9.8578648 C 39.47317,11.188899 35.290083,17.286035 36.010434,19.025116 C 36.730785,20.764196 44,22.117634 44,24.000001 C 44,25.882368 36.730784,27.235805 36.010434,28.974885 C 35.290083,30.713966 39.47317,36.811102 38.142135,38.142136 C 36.811101,39.47317 30.713965,35.290083 28.974884,36.010434 C 27.235804,36.730785 25.882366,44 23.999999,44 C 22.117632,44 20.764195,36.730784 19.025115,36.010434 C 17.286034,35.290083 11.188898,39.47317 9.857864,38.142135 C 8.5268295,36.811101 12.709917,30.713965 11.989566,28.974884 C 11.269215,27.235804 3.9999999,25.882366 4,23.999999 C 4.0000001,22.117632 11.269216,20.764195 11.989566,19.025115 C 12.709917,17.286034 8.5268302,11.188898 9.8578648,9.857864 C 11.188899,8.5268295 17.286035,12.709917 19.025116,11.989566 C 20.764196,11.269215 22.117634,3.9999999 24.000001,4 z"
       inkscape:randomized="0"
       inkscape:rounded="0.2"
       inkscape:flatsided="false"
       sodipodi:arg2="-1.1780972"
       sodipodi:arg1="-1.5707963"
       sodipodi:r2="13"
       sodipodi:r1="20"
       sodipodi:cy="24"
       sodipodi:cx="24"
       sodipodi:sides="8"
       id="path3183"
       style="fill:#ffffff;fill-opacity:1;stroke:#ffffff;stroke-width:8;stroke-linecap:round;stroke-linejoin:round;stroke-miterlimit:4;stroke-dasharray:none;stroke-opacity:1"
       sodipodi:type="star" />
    <path
       sodipodi:type="arc"
       style="fill:#000000;fill-opacity:1;stroke:none;stroke-width:1;stroke-linecap:round;stroke-linejoin:round;stroke-miterlimit:4;stroke-dasharray:none;stroke-opacity:1"
       id="path3175"
       sodipodi:cx="24.096386"
       sodipodi:cy="24"
       sodipodi:rx="14.096386"
       sodipodi:ry="14"
       d="M 38.192772,24 A 14.096386,14 0 1 1 10,24 A 14.096386,14 0 1 1 38.192772,24 z" />
    <path
       sodipodi:nodetypes="ccccs"
       id="path2387"
       d="M 18,44 L 44,44 L 44,24 C 40,15 18,18 19,28 C 7.868796,23.980065 3,44 18,44 z"
       style="fill:#ffffff;fill-opacity:1;fill-rule:evenodd;stroke:#ffffff;stroke-width:8;stroke-linecap:round;stroke-linejoin:round;stroke-opacity:1;stroke-miterlimit:4;stroke-dasharray:none" />
    <path
       sodipodi:type="star"
       style="fill:#000000;fill-opacity:1;stroke:none;stroke-width:1;stroke-linecap:round;stroke-linejoin:round;stroke-miterlimit:4;stroke-dasharray:none;stroke-opacity:1"
       id="path3181"
       sodipodi:sides="8"
       sodipodi:cx="24"
       sodipodi:cy="24"
       sodipodi:r1="20"
       sodipodi:r2="13"
       sodipodi:arg1="-1.5707963"
       sodipodi:arg2="-1.1780972"
       inkscape:flatsided="false"
       inkscape:rounded="0.2"
       inkscape:randomized="0"
       d="M 24.000001,4 C 25.882368,4.0000001 27.235805,11.269216 28.974885,11.989566 C 30.713966,12.709917 36.811102,8.5268302 38.142136,9.8578648 C 39.47317,11.188899 35.290083,17.286035 36.010434,19.025116 C 36.730785,20.764196 44,22.117634 44,24.000001 C 44,25.882368 36.730784,27.235805 36.010434,28.974885 C 35.290083,30.713966 39.47317,36.811102 38.142135,38.142136 C 36.811101,39.47317 30.713965,35.290083 28.974884,36.010434 C 27.235804,36.730785 25.882366,44 23.999999,44 C 22.117632,44 20.764195,36.730784 19.025115,36.010434 C 17.286034,35.290083 11.188898,39.47317 9.857864,38.142135 C 8.5268295,36.811101 12.709917,30.713965 11.989566,28.974884 C 11.269215,27.235804 3.9999999,25.882366 4,23.999999 C 4.0000001,22.117632 11.269216,20.764195 11.989566,19.025115 C 12.709917,17.286034 8.5268302,11.188898 9.8578648,9.857864 C 11.188899,8.5268295 17.286035,12.709917 19.025116,11.989566 C 20.764196,11.269215 22.117634,3.9999999 24.000001,4 z" />
    <path
       sodipodi:type="arc"
       style="fill:#ffffff;fill-opacity:1;stroke:none;stroke-width:8;stroke-linecap:round;stroke-linejoin:round;stroke-miterlimit:4;stroke-dasharray:none;stroke-opacity:1"
       id="path3187"
       sodipodi:cx="24"
       sodipodi:cy="24"
       sodipodi:rx="11"
       sodipodi:ry="11"
       d="M 35,24 A 11,11 0 1 1 13,24 A 11,11 0 1 1 35,24 z" />
    <path
       style="fill:#000000;fill-opacity:1;fill-rule:evenodd;stroke:none;stroke-width:1px;stroke-linecap:butt;stroke-linejoin:miter;stroke-opacity:1"
       d="M 18,44 L 44,44 L 44,24 C 40,15 18,18 19,28 C 7.868796,23.980065 3,44 18,44 z"
       id="path3247"
       sodipodi:nodetypes="ccccs" />
  </g>
</svg>
