<?xml version="1.0" encoding="UTF-8" standalone="no"?>
<!-- Created with Inkscape (http://www.inkscape.org/) -->
<svg
   xmlns:dc="http://purl.org/dc/elements/1.1/"
   xmlns:cc="http://creativecommons.org/ns#"
   xmlns:rdf="http://www.w3.org/1999/02/22-rdf-syntax-ns#"
   xmlns:svg="http://www.w3.org/2000/svg"
   xmlns="http://www.w3.org/2000/svg"
   xmlns:sodipodi="http://sodipodi.sourceforge.net/DTD/sodipodi-0.dtd"
   xmlns:inkscape="http://www.inkscape.org/namespaces/inkscape"
   width="48px"
   height="48px"
   id="svg2383"
   sodipodi:version="0.32"
   inkscape:version="0.46"
   sodipodi:docname="weather-showers-scattered.svg"
   inkscape:output_extension="org.inkscape.output.svg.inkscape">
  <defs
     id="defs2385">
    <inkscape:perspective
       sodipodi:type="inkscape:persp3d"
       inkscape:vp_x="0 : 24 : 1"
       inkscape:vp_y="0 : 1000 : 0"
       inkscape:vp_z="48 : 24 : 1"
       inkscape:persp3d-origin="24 : 16 : 1"
       id="perspective13" />
  </defs>
  <sodipodi:namedview
     id="base"
     pagecolor="#ffffff"
     bordercolor="#666666"
     borderopacity="1.0"
     inkscape:pageopacity="0.0"
     inkscape:pageshadow="2"
     inkscape:zoom="15.5625"
     inkscape:cx="20.823191"
     inkscape:cy="24"
     inkscape:current-layer="layer1"
     showgrid="true"
     inkscape:grid-bbox="true"
     inkscape:document-units="px"
     inkscape:object-paths="true"
     inkscape:object-nodes="true"
     objecttolerance="10000"
     gridtolerance="10000"
     guidetolerance="10000"
     inkscape:snap-bbox="true"
     inkscape:window-width="1280"
     inkscape:window-height="949"
     inkscape:window-x="0"
     inkscape:window-y="26"
     showguides="true"
     inkscape:guide-bbox="true">
    <inkscape:grid
       type="xygrid"
       id="grid3165"
       visible="true"
       enabled="true" />
  </sodipodi:namedview>
  <metadata
     id="metadata2388">
    <rdf:RDF>
      <cc:Work
         rdf:about="">
        <dc:format>image/svg+xml</dc:format>
        <dc:type
           rdf:resource="http://purl.org/dc/dcmitype/StillImage" />
        <dc:title>Weather Showers Scattered</dc:title>
        <dc:date>December 2008</dc:date>
        <dc:creator>
          <cc:Agent>
            <dc:title>Luca Ferretti &lt;elle.uca@libero.it&gt;</dc:title>
          </cc:Agent>
        </dc:creator>
        <dc:subject>
          <rdf:Bag>
            <rdf:li>weather</rdf:li>
            <rdf:li>showers</rdf:li>
            <rdf:li>scattered</rdf:li>
          </rdf:Bag>
        </dc:subject>
        <dc:description>Two raindrops</dc:description>
        <cc:license
           rdf:resource="" />
      </cc:Work>
    </rdf:RDF>
  </metadata>
  <g
     id="layer1"
     inkscape:label="Layer 1"
     inkscape:groupmode="layer">
    <rect
       style="fill:none;fill-opacity:0.47389557999999998;stroke:none;stroke-width:1;stroke-linecap:round;stroke-linejoin:round;stroke-miterlimit:4;stroke-dasharray:none;stroke-opacity:1"
       id="rect2393"
       width="48"
       height="48"
       x="0"
       y="0" />
    <g
       id="g3244"
       transform="translate(-1.0075344,-9.128692e-2)">
      <path
         sodipodi:type="star"
         style="fill:#ffffff;fill-opacity:1;stroke:#ffffff;stroke-width:7.99999952;stroke-linecap:round;stroke-linejoin:round;stroke-miterlimit:4;stroke-dasharray:none;stroke-opacity:1"
         id="path3216"
         sodipodi:sides="3"
         sodipodi:cx="36"
         sodipodi:cy="37"
         sodipodi:r1="12.041595"
         sodipodi:r2="6.1773381"
         sodipodi:arg1="-2.2974387"
         sodipodi:arg2="-1.2502411"
         inkscape:flatsided="false"
         inkscape:rounded="0.23"
         inkscape:randomized="0.01"
         d="M 28.06215,28.120174 C 29.85981,26.532481 35.7958,30.265095 38.063599,31.030977 C 40.331398,31.796858 47.368865,32.130262 47.885046,34.476545 C 48.401227,36.822828 41.831219,40.062359 40.031746,41.65577 C 38.232274,43.249182 34.507791,49.142955 32.247313,48.374543 C 29.986834,47.60613 30.459749,40.707726 30.007691,38.357663 C 29.555633,36.0076 26.264491,29.707866 28.06215,28.120174 z"
         transform="matrix(0.7575988,0.6527206,-0.6527206,0.7575988,13.094765,-35.620553)" />
      <path
         sodipodi:type="arc"
         style="fill:#ffffff;fill-opacity:1;stroke:#ffffff;stroke-width:8;stroke-linecap:round;stroke-linejoin:round;stroke-miterlimit:4;stroke-dasharray:none;stroke-opacity:1"
         id="path3218"
         sodipodi:cx="12.5"
         sodipodi:cy="19.5"
         sodipodi:rx="10.477207"
         sodipodi:ry="11.5"
         d="M 22.977207,19.5 A 10.477207,11.5 0 1 1 2.0227928,19.5 A 10.477207,11.5 0 1 1 22.977207,19.5 z"
         transform="matrix(3.3674943e-2,-0.9994328,0.9994328,3.3674943e-2,-3.4033536,36.448987)" />
    </g>
    <g
       id="g3240"
       transform="translate(-1.0075343,-9.1287073e-2)">
      <path
         transform="matrix(3.3674943e-2,-0.9994328,0.9994328,3.3674943e-2,-3.4033536,36.448987)"
         d="M 22.977207,19.5 A 10.477207,11.5 0 1 1 2.0227928,19.5 A 10.477207,11.5 0 1 1 22.977207,19.5 z"
         sodipodi:ry="11.5"
         sodipodi:rx="10.477207"
         sodipodi:cy="19.5"
         sodipodi:cx="12.5"
         id="path3208"
         style="fill:#000000;fill-opacity:1;stroke:none;stroke-width:1;stroke-linecap:round;stroke-linejoin:round;stroke-miterlimit:4;stroke-dasharray:none;stroke-opacity:1"
         sodipodi:type="arc" />
      <path
         transform="matrix(0.7575988,0.6527206,-0.6527206,0.7575988,13.094765,-35.620553)"
         d="M 28.06215,28.120174 C 29.85981,26.532481 35.7958,30.265095 38.063599,31.030977 C 40.331398,31.796858 47.368865,32.130262 47.885046,34.476545 C 48.401227,36.822828 41.831219,40.062359 40.031746,41.65577 C 38.232274,43.249182 34.507791,49.142955 32.247313,48.374543 C 29.986834,47.60613 30.459749,40.707726 30.007691,38.357663 C 29.555633,36.0076 26.264491,29.707866 28.06215,28.120174 z"
         inkscape:randomized="0.01"
         inkscape:rounded="0.23"
         inkscape:flatsided="false"
         sodipodi:arg2="-1.2502411"
         sodipodi:arg1="-2.2974387"
         sodipodi:r2="6.1773381"
         sodipodi:r1="12.041595"
         sodipodi:cy="37"
         sodipodi:cx="36"
         sodipodi:sides="3"
         id="path3210"
         style="fill:#000000;fill-opacity:1;stroke:none;stroke-width:1;stroke-linecap:round;stroke-linejoin:round;stroke-miterlimit:4;stroke-dasharray:none;stroke-opacity:1"
         sodipodi:type="star" />
    </g>
    <g
       id="g3232"
       transform="translate(1.1656776e-6,1)">
      <path
         transform="matrix(2.9292208e-2,-0.8679152,0.8693583,2.9243582e-2,16.683774,44.179037)"
         d="M 22.977207,19.5 A 10.477207,11.5 0 1 1 2.0227928,19.5 A 10.477207,11.5 0 1 1 22.977207,19.5 z"
         sodipodi:ry="11.5"
         sodipodi:rx="10.477207"
         sodipodi:cy="19.5"
         sodipodi:cx="12.5"
         id="path3220"
         style="fill:#ffffff;fill-opacity:1;stroke:#ffffff;stroke-width:9.20461369;stroke-linecap:round;stroke-linejoin:round;stroke-miterlimit:4;stroke-dasharray:none;stroke-opacity:1"
         sodipodi:type="arc" />
      <path
         transform="matrix(0.6589986,0.5668277,-0.5677702,0.6579046,31.034693,-18.406711)"
         d="M 28.06215,28.120174 C 29.85981,26.532481 35.7958,30.265095 38.063599,31.030977 C 40.331398,31.796858 47.368865,32.130262 47.885046,34.476545 C 48.401227,36.822828 41.831219,40.062359 40.031746,41.65577 C 38.232274,43.249182 34.507791,49.142955 32.247313,48.374543 C 29.986834,47.60613 30.459749,40.707726 30.007691,38.357663 C 29.555633,36.0076 26.264491,29.707866 28.06215,28.120174 z"
         inkscape:randomized="0.01"
         inkscape:rounded="0.23"
         inkscape:flatsided="false"
         sodipodi:arg2="-1.2502411"
         sodipodi:arg1="-2.2974387"
         sodipodi:r2="6.1773381"
         sodipodi:r1="12.041595"
         sodipodi:cy="37"
         sodipodi:cx="36"
         sodipodi:sides="3"
         id="path3230"
         style="fill:#ffffff;fill-opacity:1;stroke:#ffffff;stroke-width:9.20461178;stroke-linecap:round;stroke-linejoin:round;stroke-miterlimit:4;stroke-dasharray:none;stroke-opacity:1"
         sodipodi:type="star" />
    </g>
    <g
       id="g3236"
       transform="translate(-4.8279391e-3,1.0000002)">
      <path
         sodipodi:type="arc"
         style="fill:#000000;fill-opacity:1;stroke:none;stroke-width:1;stroke-linecap:round;stroke-linejoin:round;stroke-miterlimit:4;stroke-dasharray:none;stroke-opacity:1"
         id="path3212"
         sodipodi:cx="12.5"
         sodipodi:cy="19.5"
         sodipodi:rx="10.477207"
         sodipodi:ry="11.5"
         d="M 22.977207,19.5 A 10.477207,11.5 0 1 1 2.0227928,19.5 A 10.477207,11.5 0 1 1 22.977207,19.5 z"
         transform="matrix(2.9292208e-2,-0.8679152,0.8693583,2.9243582e-2,16.683774,44.179037)" />
      <path
         sodipodi:type="star"
         style="fill:#000000;fill-opacity:1;stroke:none;stroke-width:1;stroke-linecap:round;stroke-linejoin:round;stroke-miterlimit:4;stroke-dasharray:none;stroke-opacity:1"
         id="path3214"
         sodipodi:sides="3"
         sodipodi:cx="36"
         sodipodi:cy="37"
         sodipodi:r1="12.041595"
         sodipodi:r2="6.1773381"
         sodipodi:arg1="-2.2974387"
         sodipodi:arg2="-1.2502411"
         inkscape:flatsided="false"
         inkscape:rounded="0.23"
         inkscape:randomized="0.01"
         d="M 28.06215,28.120174 C 29.85981,26.532481 35.7958,30.265095 38.063599,31.030977 C 40.331398,31.796858 47.368865,32.130262 47.885046,34.476545 C 48.401227,36.822828 41.831219,40.062359 40.031746,41.65577 C 38.232274,43.249182 34.507791,49.142955 32.247313,48.374543 C 29.986834,47.60613 30.459749,40.707726 30.007691,38.357663 C 29.555633,36.0076 26.264491,29.707866 28.06215,28.120174 z"
         transform="matrix(0.6589986,0.5668277,-0.5677702,0.6579046,31.034693,-18.406711)" />
    </g>
    <path
       style="fill:none;fill-rule:evenodd;stroke:#ffffff;stroke-width:3;stroke-linecap:round;stroke-linejoin:round;stroke-miterlimit:4;stroke-dasharray:none;stroke-opacity:1"
       d="M 9.5,24.5 C 9.5,24.5 9.5,29.5 14.5,29.5"
       id="path3250"
       sodipodi:nodetypes="cs" />
    <path
       sodipodi:nodetypes="cs"
       id="path3252"
       d="M 28.5,33.5 C 28.5,33.5 28.5,39.5 35.5,39.5"
       style="fill:none;fill-rule:evenodd;stroke:#ffffff;stroke-width:3;stroke-linecap:round;stroke-linejoin:round;stroke-miterlimit:4;stroke-dasharray:none;stroke-opacity:1" />
  </g>
</svg>
