<svg version="1.1" viewBox="0 0 16 16" xmlns="http://www.w3.org/2000/svg"><path d="m6.5605 2.666c-0.054059-7.45e-5 -0.10303 0.00862-0.14648 0.019531-0.099978 0.025089-0.1376 0.045446-0.24023 0.085937s-0.22866 0.092106-0.35742 0.14648c-0.15641 0.066055-0.27928 0.11351-0.39648 0.17969-0.11721 0.066177-0.24909 0.17345-0.3125 0.33008-0.12682 0.31325-0.019261 0.53848 0.074219 0.95117 0.062659 0.27662 0.095321 0.43533 0.10547 0.51562 0.010147 0.080292 0.00864 0.054482-0.00195 0.089844 0.012037-0.040178-0.061971 0.096739-0.1543 0.18359-0.092329 0.086856-0.23978 0.14396-0.16993 0.13086 0.069807-0.013096-0.020046-1.864e-4 -0.13086-0.017578s-0.27048-0.050496-0.46875-0.095703c-0.20934-0.047733-0.36717-0.08652-0.52148-0.10547-0.15432-0.018949-0.33236-0.014773-0.49219 0.078125-0.15983 0.092898-0.24891 0.23422-0.32031 0.37891-0.071405 0.14469-0.13461 0.31155-0.2207 0.53125-0.049687 0.1268-0.092874 0.23108-0.11914 0.35547-0.026266 0.12439-0.020276 0.29515 0.052734 0.43164 0.14602 0.27298 0.36121 0.35884 0.71289 0.57812 0.17575 0.10959 0.30779 0.20022 0.39258 0.26367 0.084792 0.063455 0.12401 0.13938 0.076172 0.046875-0.019878-0.038441 7.789e-4 0.00447 0.00781 0.058594 0.00703 0.054122 0.011719 0.12638 0.011719 0.19922 0 0.072836-0.00469 0.14705-0.011719 0.20117-0.00703 0.054122-0.027691 0.097036-0.00781 0.058594 0.047836-0.092504 0.00862-0.016581-0.076172 0.046875-0.084792 0.063455-0.21683 0.15408-0.39258 0.26367-0.35168 0.21929-0.56687 0.30514-0.71289 0.57812-0.073011 0.13649-0.079001 0.30725-0.052734 0.43164 0.026266 0.12439 0.069453 0.22671 0.11914 0.35352 0.08609 0.2197 0.1493 0.38852 0.2207 0.5332 0.071405 0.14469 0.16048 0.28601 0.32031 0.37891 0.15983 0.0929 0.33787 0.09707 0.49219 0.07813 0.15432-0.01895 0.31214-0.05774 0.52148-0.10547 0.19826-0.04521 0.35794-0.07831 0.46875-0.0957s0.20066-0.0045 0.13086-0.01758c-0.069842-0.0131 0.077596 0.044 0.16992 0.13086 0.092326 0.08685 0.16633 0.22377 0.1543 0.18359 0.010615 0.03543 0.012002 0.0081 0.00195 0.08789-0.010048 0.07978-0.043155 0.23858-0.10547 0.51367-0.047965 0.21175-0.087487 0.37016-0.10938 0.51758s-0.030169 0.30879 0.048828 0.4707c0.078998 0.16191 0.21815 0.25701 0.34766 0.32422 0.1295 0.06721 0.27336 0.12216 0.46289 0.20117 0.24185 0.10082 0.35779 0.15589 0.5 0.1875 0.14221 0.03161 0.32969-0.02052 0.40039-0.05274 0.10728-0.04888 0.13177-0.0898 0.17188-0.13281 0.040109-0.04301 0.079143-0.09062 0.12109-0.14648 0.083901-0.11173 0.18212-0.25596 0.29688-0.4375 0.10987-0.17381 0.20122-0.31024 0.26758-0.39844 0.066359-0.08819 0.15877-0.13592 0.050781-0.08008-0.041378 0.0214 5.945e-4 1e-3 0.054687-0.0059 0.054093-0.0069 0.12816-0.01172 0.20117-0.01172 0.073007 0 0.14708 0.0048 0.20117 0.01172 0.054093 0.0069 0.096067 0.02726 0.054687 0.0059-0.10826-0.05599-0.013848-0.0065 0.052734 0.08203 0.066582 0.08855 0.15718 0.22379 0.26758 0.39844 0.21428 0.33898 0.30527 0.53569 0.54297 0.68555 0.11885 0.07493 0.28666 0.10024 0.4082 0.08203 0.12154-0.01821 0.20996-0.0558 0.3125-0.0957 0.1595-0.06207 0.40209-0.16359 0.55859-0.23438 0.10076-0.04557 0.1909-0.08377 0.28906-0.15625 0.09817-0.07248 0.19931-0.20808 0.23047-0.3457 0.06232-0.27524-0.01458-0.4765-0.10352-0.86914-0.08569-0.37831-0.10734-0.56801-0.10156-0.60938 0.0058-0.04136 0.0016-0.03626 0.1543-0.17578 0.11938-0.10911 0.15267-0.12383 0.17774-0.12891 0.02507-0.0051 0.11282-0.0012 0.31641 0.04687 0.42831 0.10118 0.64374 0.1512 0.80078 0.17578 0.15704 0.02458 0.33683-0.0084 0.40625-0.03711 0.14094-0.05838 0.26517-0.19166 0.34766-0.33789 0.08249-0.14623 0.16013-0.33193 0.27344-0.62109 0.04969-0.12681 0.09288-0.22911 0.11914-0.35352 0.02626-0.1244 0.02029-0.29516-0.05274-0.43164-0.14604-0.27295-0.3612-0.35883-0.71288-0.57812-0.17575-0.10959-0.30779-0.20022-0.39258-0.26367-0.08479-0.063455-0.12401-0.13938-0.07617-0.046875 0.02064 0.039922 0.0012-0.00437-0.0059-0.058594-7e-3 -0.05422-0.01158-0.12625-0.01172-0.19922-1.42e-4 -0.072965 0.0029-0.14719 0.0098-0.20117 0.0068-0.053978 0.02726-0.096064 0.0059-0.054687-0.0022 0.0043-0.02101 0.011859 0.08008-0.060547 0.10108-0.072406 0.29613-0.19583 0.62891-0.40234 0.22206-0.1378 0.37975-0.23237 0.48438-0.45117 0.0323-0.067558 0.08138-0.23359 0.05859-0.36328-0.02278-0.12969-0.06456-0.2232-0.13476-0.40234-0.0861-0.21971-0.14928-0.38656-0.2207-0.53125-0.07142-0.14469-0.16048-0.28602-0.32031-0.37891-0.15983-0.092886-0.33591-0.097073-0.49023-0.078125-0.15432 0.018949-0.31409 0.057736-0.52344 0.10547-0.19826 0.045207-0.35598 0.078311-0.4668 0.095703-0.11081 0.017392-0.20262 0.00448-0.13281 0.017578 0.06985 0.013104-0.0776-0.044004-0.16992-0.13086-0.09233-0.086855-0.16634-0.22377-0.1543-0.18359-0.0106-0.035374-0.01202-0.00809-2e-3 -0.087891 0.01006-0.079798 0.04315-0.23856 0.10547-0.51367 0.04833-0.21333 0.08801-0.37572 0.10742-0.53125 0.019426-0.15553 0.017708-0.33287-0.074205-0.49414-0.091913-0.16127-0.23622-0.25076-0.38086-0.32227-0.14464-0.071505-0.31024-0.13487-0.5293-0.2207-0.12723-0.049852-0.22543-0.097414-0.36133-0.12695s-0.34326-0.0045484-0.47852 0.089844c-0.27051 0.18878-0.37668 0.44277-0.70508 0.96094-0.035058 0.055318-0.078618 0.11571-0.11523 0.1582-0.036617 0.042492-0.099401 0.073495-0.021484 0.033203 0.061288-0.031693-0.12253 0.022301-0.26758 0.019531-0.072523-0.00139-0.14547-0.00696-0.19727-0.015625-0.051792-0.00867-0.087605-0.032425-0.044922-0.00586 0.085671 0.05332-0.00914-0.012704-0.076172-0.10352-0.067032-0.09081-0.15393-0.22196-0.25-0.37695-0.1494-0.24105-0.25801-0.40548-0.375-0.53516-0.11699-0.12967-0.29152-0.24583-0.48047-0.24609zm-0.015625 0.69727c-0.00326 1.639e-4 -0.035172-0.018185-0.011719 0.00781 0.055986 0.062058 0.15805 0.20722 0.30078 0.4375 0.10327 0.16661 0.19782 0.30885 0.28125 0.42188 0.083426 0.11302 0.10764 0.18219 0.26367 0.2793 0.11504 0.071601 0.19945 0.083635 0.29492 0.099609 0.09547 0.015974 0.19566 0.023458 0.29688 0.025391 0.20243 0.00387 0.37159 0.020192 0.5957-0.095703 0.13624-0.070448 0.16357-0.12448 0.22461-0.19531 0.061035-0.070829 0.12294-0.15182 0.17773-0.23828 0.31776-0.50139 0.48467-0.71752 0.49609-0.73438 0.037078 0.011906 0.10051 0.035704 0.21875 0.082031 0.22174 0.086882 0.38286 0.14899 0.47656 0.19531 0.09371 0.046327 0.09865 0.0677 0.08789 0.048828-0.01075-0.018872 0.0016-0.022536-0.0098 0.068359-0.01135 0.090895-0.04664 0.24828-0.0957 0.46484-0.06311 0.27862-0.0999 0.44305-0.11719 0.58008-0.01728 0.13703-0.0051 0.27388 0.02344 0.36914 0.06864 0.22909 0.19861 0.35358 0.3418 0.48828 0.14319 0.1347 0.26367 0.25779 0.51367 0.30469 0.15346 0.028789 0.22874 0.0058 0.36523-0.015625 0.1365-0.021422 0.30614-0.054242 0.51367-0.10156 0.21241-0.048432 0.36506-0.08489 0.45312-0.095703 0.08807-0.010814 0.08311 0.00108 0.06445-0.00977-0.01866-0.010846 0.0022-0.00471 0.04883 0.089844 0.04667 0.094551 0.11022 0.25637 0.19727 0.47852 0.05886 0.1502 0.07645 0.20747 0.08398 0.23047 0.01287-0.032363-0.0436 0.046812-0.2168 0.1543-0.335 0.2079-0.52966 0.33146-0.66406 0.42773-0.13441 0.096273-0.23435 0.19497-0.28906 0.30078-0.05878 0.11364-0.06647 0.19289-0.07813 0.28516-0.01165 0.092264-0.01582 0.18908-0.01562 0.28711 1.91e-4 0.098029 0.0036 0.19677 0.01562 0.28906 0.01199 0.092295 0.01984 0.17048 0.07813 0.2832 0.08584 0.166 0.16371 0.19767 0.27539 0.28125 0.11168 0.083576 0.25631 0.17951 0.44141 0.29492 0.3362 0.20964 0.45604 0.32589 0.45117 0.30664-0.0095 0.037359-0.03626 0.10975-0.08203 0.22656-0.1102 0.28122-0.1848 0.45419-0.23047 0.53516-0.04567 0.08097-0.02647 0.04632-0.01367 0.04102-0.05015 0.02077 0.05904 0.0095-0.03906-0.0059-0.0981-0.01535-0.32018-0.06689-0.74805-0.16797-0.22686-0.05359-0.40821-0.091917-0.61133-0.05078-0.20312 0.04114-0.35782 0.16141-0.50391 0.29492-0.16765 0.15322-0.33583 0.33351-0.37109 0.58594-0.035266 0.25243 0.02621 0.47303 0.11328 0.85742 0.08289 0.36594 0.08976 0.52827 0.0957 0.53125-0.02383 0.01339-0.05061 0.02885-0.125 0.0625-0.13825 0.06253-0.38459 0.16591-0.52539 0.2207-0.073758 0.0287-0.1019 0.0358-0.12695 0.04297 2.584e-4 -0.0073-0.10928-0.12805-0.30859-0.44336-0.11638-0.18412-0.21549-0.32994-0.30075-0.44332-0.085258-0.11339-0.10458-0.18691-0.2832-0.2793-0.1135-0.05869-0.19301-0.06442-0.28516-0.07617-0.092143-0.01175-0.18918-0.01758-0.28711-0.01758-0.097934 0-0.19497 0.0058-0.28711 0.01758-0.092143 0.01175-0.17166 0.01748-0.28516 0.07617-0.1783 0.0922-0.19812 0.16426-0.2832 0.27734-0.085082 0.11308-0.18291 0.25998-0.29883 0.44336-0.10872 0.17199-0.20028 0.30752-0.26562 0.39453-0.019706 0.02624-0.029118 0.03809-0.042969 0.05469-0.03717-0.01226-0.12554-0.04429-0.33789-0.13281-0.19475-0.08119-0.3347-0.13858-0.41016-0.17773-0.075453-0.03916-0.062865-0.0444-0.048828-0.01563s0.0018 0.02473 0.015625-0.06836c0.013822-0.09309 0.050521-0.25009 0.099609-0.4668 0.063116-0.27864 0.097973-0.44303 0.11523-0.58008 0.017261-0.13704 0.00509-0.27394-0.023437-0.36914-0.068637-0.22909-0.19861-0.35358-0.3418-0.48828-0.14319-0.1347-0.26368-0.25778-0.51367-0.30469-0.15345-0.02879-0.22874-0.0058-0.36523 0.01563-0.1365 0.02142-0.30613 0.05424-0.51367 0.10156-0.21241 0.04843-0.36506 0.08489-0.45312 0.0957-0.088061 0.01081-0.083132-0.0011-0.064453 0.0098 0.018679 0.01086-0.00216 0.0028-0.048828-0.0918-0.046665-0.094589-0.11022-0.2564-0.19727-0.47855-0.045766-0.11679-0.070577-0.18918-0.080078-0.22656-0.0040042 0.018318 0.11401-0.097626 0.44922-0.30664 0.18509-0.11541 0.32973-0.21135 0.44141-0.29492s0.18955-0.11526 0.27539-0.28125c0.058036-0.11223 0.06608-0.19247 0.078125-0.28516 0.012045-0.092683 0.017578-0.19075 0.017578-0.28906 0-0.098308-0.00553-0.19443-0.017578-0.28711-0.012045-0.092683-0.02009-0.17293-0.078125-0.28516-0.08584-0.166-0.16371-0.19767-0.27539-0.28125-0.11168-0.083576-0.25631-0.17951-0.44141-0.29492-0.3352-0.20902-0.45322-0.32496-0.44922-0.30664 0.0094842-0.037351 0.034287-0.11166 0.080078-0.22852 0.087048-0.22215 0.1506-0.38396 0.19727-0.47852 0.046664-0.094556 0.067507-0.1007 0.048828-0.089844-0.018679 0.010857-0.023608-0.00105 0.064453 0.00977 0.088061 0.010813 0.24071 0.047271 0.45312 0.095703 0.20754 0.047321 0.37718 0.08014 0.51367 0.10156 0.1365 0.021422 0.21177 0.044414 0.36523 0.015625 0.25-0.046905 0.37048-0.16999 0.51367-0.30469 0.14319-0.1347 0.27316-0.25919 0.3418-0.48828 0.028556-0.095313 0.040802-0.2337 0.023438-0.37109-0.017364-0.13739-0.053734-0.3019-0.11719-0.58203-0.094483-0.41711-0.086062-0.59378-0.10742-0.54102-0.01068 0.026381-0.038921 0.03946 0.013672 0.00977 0.052593-0.029694 0.16656-0.079076 0.32617-0.14648 0.1239-0.052326 0.24761-0.1027 0.34375-0.14062 0.074167-0.029259 0.10871-0.040021 0.11914-0.044922zm1.4395 2.4941c-0.63884 0.0018289-1.2892 0.32012-1.6621 0.82812-0.27358 0.37269-0.41301 0.79599-0.41602 1.2617-0.0022457 0.34727 0.056586 0.61364 0.20508 0.92578 0.28332 0.59556 0.85453 1.0254 1.5137 1.1523 0.43416 0.083633 0.89859 0.006842 1.3223-0.19922 0.39366-0.19146 0.73823-0.54534 0.92773-0.94336 0.153-0.32136 0.21317-0.58578 0.21094-0.93555-0.00233-0.36037-0.076673-0.65999-0.24414-0.98242-0.35253-0.67873-1.0823-1.1096-1.8574-1.1074zm0.00195 0.68555c0.51266-0.001465 1.0216 0.30413 1.2461 0.73633 0.13471 0.25936 0.16611 0.3841 0.16797 0.67188 0.0018854 0.29509-0.014078 0.36467-0.14453 0.63867-0.10122 0.21259-0.40761 0.52196-0.60742 0.61914-0.30342 0.14757-0.63027 0.19348-0.89453 0.14258-0.44445-0.085617-0.84102-0.38998-1.0234-0.77344-0.12443-0.26156-0.14056-0.33501-0.13867-0.62695 0.0022241-0.34435 0.083317-0.58708 0.2832-0.85938 0.2064-0.28117 0.73314-0.54775 1.1113-0.54883z" color="#000000" color-rendering="auto" dominant-baseline="auto" fill="#fff" image-rendering="auto" shape-rendering="auto" solid-color="#000000" style="font-feature-settings:normal;font-variant-alternates:normal;font-variant-caps:normal;font-variant-ligatures:normal;font-variant-numeric:normal;font-variant-position:normal;isolation:auto;mix-blend-mode:normal;shape-padding:0;text-decoration-color:#000000;text-decoration-line:none;text-decoration-style:solid;text-indent:0;text-orientation:mixed;text-transform:none;white-space:normal"/></svg>
